<svg width="94" height="32" viewBox="0 0 94 32" fill="none" xmlns="http://www.w3.org/2000/svg">
<path d="M0 27.871H16.6505V32H0V27.871Z" fill="white"/>
<path d="M24.01 25.5068C22.3893 25.3736 21.0684 25.1294 20.0472 24.7742C19.0481 24.3968 18.3044 24.086 17.816 23.8418L19.2479 20.0125C20.025 20.3899 20.9463 20.734 22.0119 21.0447C23.0998 21.3555 24.2431 21.5109 25.4419 21.5109C26.7962 21.5109 27.7175 21.3333 28.2059 20.9781C28.7165 20.6008 28.9718 20.0791 28.9718 19.4131C28.9718 18.9913 28.8719 18.6361 28.6721 18.3476C28.4723 18.0368 28.1837 17.7593 27.8063 17.5151C27.4289 17.2709 26.9516 17.0378 26.3744 16.8158C25.7971 16.5716 25.1311 16.3163 24.3763 16.0499C23.6437 15.7836 22.9222 15.495 22.2117 15.1842C21.5235 14.8512 20.8908 14.4516 20.3136 13.9854C19.7586 13.5192 19.3034 12.9532 18.9482 12.2872C18.6152 11.599 18.4487 10.7777 18.4487 9.8231C18.4487 9.09053 18.5486 8.39126 18.7484 7.72528C18.9704 7.03711 19.3034 6.41554 19.7475 5.86056C20.1915 5.30558 20.7687 4.8394 21.4791 4.46202C22.1895 4.06243 23.0332 3.77385 24.01 3.59625V0H28.2059V3.46306C29.3603 3.57405 30.3483 3.74055 31.1697 3.96254C32.0133 4.18453 32.6793 4.40652 33.1677 4.62851L32.1354 8.62435C31.4028 8.31356 30.5481 8.04717 29.5712 7.82518C28.6166 7.60319 27.6065 7.4922 26.5409 7.4922C25.4752 7.4922 24.7093 7.66979 24.2431 8.02497C23.7769 8.38016 23.5438 8.84634 23.5438 9.42352C23.5438 9.7787 23.6104 10.0895 23.7436 10.3559C23.899 10.6001 24.1321 10.8221 24.4429 11.0219C24.7537 11.2216 25.1311 11.4214 25.5751 11.6212C26.0413 11.7988 26.5964 11.9986 27.2402 12.2206C28.217 12.5758 29.1161 12.9643 29.9376 13.3861C30.7812 13.8078 31.5027 14.2962 32.1021 14.8512C32.7237 15.384 33.201 16.0166 33.5341 16.7492C33.8893 17.4818 34.0669 18.3365 34.0669 19.3132C34.0669 19.9792 33.967 20.6452 33.7672 21.3111C33.5674 21.9549 33.2343 22.5543 32.7681 23.1093C32.3019 23.6642 31.6914 24.1415 30.9366 24.5411C30.204 24.9407 29.2937 25.2293 28.2059 25.4069V29.4693H24.01V25.5068Z" fill="white"/>
<path d="M52.8606 25.2404C52.017 25.4846 50.9291 25.7066 49.5971 25.9063C48.265 26.1283 46.8664 26.2393 45.4012 26.2393C43.9137 26.2393 42.6705 26.0395 41.6715 25.64C40.6946 25.2404 39.9176 24.6854 39.3404 23.975C38.7632 23.2425 38.3525 22.3767 38.1083 21.3777C37.864 20.3788 37.7419 19.2799 37.7419 18.0812V8.32466H42.7038V17.4818C42.7038 19.0801 42.9147 20.2345 43.3365 20.9448C43.7583 21.6552 44.5464 22.0104 45.7009 22.0104C46.0561 22.0104 46.4335 21.9993 46.8331 21.9771C47.2327 21.9327 47.5879 21.8883 47.8987 21.8439V8.32466H52.8606V25.2404Z" fill="white"/>
<path d="M61.7475 16.949C61.7475 18.4807 62.0916 19.7128 62.7798 20.6452C63.4681 21.5775 64.4893 22.0437 65.8435 22.0437C66.2875 22.0437 66.6982 22.0326 67.0757 22.0104C67.4531 21.966 67.7639 21.9216 68.0081 21.8772V12.8533C67.6973 12.6535 67.2866 12.487 66.7759 12.3538C66.2875 12.2206 65.788 12.154 65.2774 12.154C62.9241 12.154 61.7475 13.7523 61.7475 16.949ZM72.9699 25.2737C72.5259 25.4069 72.0153 25.5401 71.4381 25.6733C70.8609 25.7842 70.2503 25.8841 69.6065 25.9729C68.9849 26.0617 68.3411 26.1283 67.6751 26.1727C67.0313 26.2393 66.4096 26.2726 65.8102 26.2726C64.3672 26.2726 63.0795 26.0617 61.9473 25.64C60.8151 25.2182 59.8604 24.6188 59.0834 23.8418C58.3064 23.0427 57.707 22.0881 57.2852 20.9781C56.8856 19.846 56.6858 18.5806 56.6858 17.1821C56.6858 15.7614 56.8634 14.4849 57.2186 13.3528C57.5738 12.1984 58.0844 11.2216 58.7504 10.4225C59.4164 9.62331 60.2268 9.01283 61.1814 8.59105C62.1582 8.16927 63.2682 7.95838 64.5115 7.95838C65.1997 7.95838 65.8102 8.02497 66.343 8.15817C66.898 8.29136 67.4531 8.48005 68.0081 8.72425V0.799167L72.9699 0V25.2737Z" fill="white"/>
<path d="M94 17.0489C94 18.4252 93.8002 19.6906 93.4006 20.8449C93.001 21.9771 92.4237 22.9539 91.6689 23.7752C90.9141 24.5744 90.0039 25.196 88.9382 25.64C87.8948 26.0839 86.7182 26.3059 85.4083 26.3059C84.1207 26.3059 82.9441 26.0839 81.8784 25.64C80.835 25.196 79.9359 24.5744 79.1811 23.7752C78.4262 22.9539 76.7834 17.0489 77.4161 20.8449C76.9943 19.6906 76.7834 18.4252 76.7834 17.0489C76.7834 15.6726 76.9943 14.4183 77.4161 13.2862C77.8601 12.154 78.4596 11.1883 79.2144 10.3892C79.9914 9.59001 80.9016 8.96843 81.9451 8.52445C83.0107 8.08047 84.1651 7.85848 85.4083 7.85848C86.6738 7.85848 87.8282 8.08047 88.8717 8.52445C89.9373 8.96843 90.8475 9.59001 91.6023 10.3892C92.3571 11.1883 92.9455 12.154 93.3673 13.2862C93.7891 14.4183 94 15.6726 94 17.0489ZM88.9382 17.0489C88.9382 15.5172 88.6274 14.3184 88.0058 13.4527C87.4064 12.5647 86.5406 12.1207 85.4083 12.1207C84.2761 12.1207 83.3992 12.5647 82.7776 13.4527C82.156 14.3184 81.8451 15.5172 81.8451 17.0489C81.8451 18.5806 82.156 19.8016 82.7776 20.7118C83.3992 21.5997 84.2761 22.0437 85.4083 22.0437C86.5406 22.0437 87.4064 21.5997 88.0058 20.7118C88.6274 19.8016 88.9382 18.5806 88.9382 17.0489Z" fill="white"/>
</svg>
