<svg width="213" height="229" viewBox="0 0 213 229" fill="none" xmlns="http://www.w3.org/2000/svg">
<path d="M200.545 91.5784C200.545 91.5784 166.059 111.293 188.536 173.141C208.498 228.068 136.947 235.531 109.128 223.958C73.0922 208.966 61.2106 157.135 29.4446 166.317C-2.32138 175.498 -16.8742 101.588 29.985 85.0326C88.2763 64.4386 58.6369 39.5258 67.9607 17.6157C74.6527 1.89062 127.464 -13.7671 147.256 20.4052C163.91 49.1612 176.286 42.6092 186.828 41.3727C202.033 39.5887 228.167 70.3146 200.545 91.5784Z" fill="#F1F5F9"/>
<path d="M106.134 171.267C137.688 171.267 163.267 145.688 163.267 114.134C163.267 82.5796 137.688 57 106.134 57C74.5796 57 49 82.5796 49 114.134C49 145.688 74.5796 171.267 106.134 171.267Z" fill="#9FA6B2"/>
<path d="M134.264 90.0187C134.984 90.6079 124.313 104.968 110.433 122.077L102.009 132.291L100.853 133.687L99.6305 132.422C88.7188 121.226 81.3643 112.933 81.8881 112.41C82.4119 111.886 90.7265 119.284 101.9 130.13L99.5432 130.37L107.792 120.048C121.672 102.829 133.522 89.4295 134.264 90.0187Z" fill="white"/>
</svg>
