<svg width="113" height="113" viewBox="0 0 113 113" fill="none" xmlns="http://www.w3.org/2000/svg">
<circle cx="56.5" cy="56.5" r="56.5" fill="#F9FAFB"/>
<circle cx="56.5" cy="56.5" r="56.5" stroke="#E5E7EB"/>
<mask id="mask0_3954:14580" style="mask-type:alpha" maskUnits="userSpaceOnUse" x="0" y="0" width="113" height="113">
<circle cx="56.5" cy="56.5" r="56.5" fill="#F9FAFB"/>
<circle cx="56.5" cy="56.5" r="56.5" stroke="#E5E7EB"/>
</mask>
<g mask="url(#mask0_3954:14580)">
<path d="M54.5582 100.733H-6.64291C-7.12288 100.733 -7.58319 100.542 -7.92258 100.203C-8.26197 99.8633 -8.45264 99.4029 -8.45264 98.923V12.8959C-8.44846 12.4187 -8.25595 11.9625 -7.91701 11.6265C-7.57807 11.2905 -7.12015 11.102 -6.64291 11.1021H54.5582C54.7959 11.1021 55.0312 11.1489 55.2508 11.2398C55.4703 11.3308 55.6698 11.4641 55.8379 11.6321C56.0059 11.8002 56.1392 11.9997 56.2302 12.2192C56.3211 12.4388 56.3679 12.6741 56.3679 12.9118V98.923C56.3679 99.1606 56.3211 99.396 56.2302 99.6155C56.1392 99.8351 56.0059 100.035 55.8379 100.203C55.6698 100.371 55.4703 100.504 55.2508 100.595C55.0312 100.686 54.7959 100.733 54.5582 100.733ZM-6.64291 11.1655C-7.10161 11.1663 -7.54128 11.3489 -7.86563 11.6732C-8.18998 11.9976 -8.37256 12.4372 -8.3734 12.8959V98.923C-8.37256 99.3817 -8.18998 99.8213 -7.86563 100.146C-7.54128 100.47 -7.10161 100.653 -6.64291 100.653H54.5582C55.0169 100.653 55.4566 100.47 55.7809 100.146C56.1053 99.8213 56.2879 99.3817 56.2887 98.923V12.8959C56.2879 12.4372 56.1053 11.9976 55.7809 11.6732C55.4566 11.3489 55.0169 11.1663 54.5582 11.1655H-6.64291Z" fill="#EBEBEB"/>
<path d="M123.112 100.733H61.9113C61.4313 100.733 60.971 100.542 60.6316 100.203C60.2922 99.8633 60.1016 99.4029 60.1016 98.923V12.8959C60.1057 12.4187 60.2982 11.9625 60.6372 11.6265C60.9761 11.2905 61.4341 11.102 61.9113 11.1021H123.112C123.592 11.1021 124.053 11.2927 124.392 11.6321C124.731 11.9715 124.922 12.4318 124.922 12.9118V98.923C124.922 99.4029 124.731 99.8633 124.392 100.203C124.053 100.542 123.592 100.733 123.112 100.733ZM61.9113 11.1655C61.4526 11.1663 61.0129 11.3489 60.6886 11.6732C60.3642 11.9976 60.1816 12.4372 60.1808 12.8959V98.923C60.1816 99.3817 60.3642 99.8213 60.6886 100.146C61.0129 100.47 61.4526 100.653 61.9113 100.653H123.112C123.571 100.653 124.011 100.47 124.335 100.146C124.659 99.8213 124.842 99.3817 124.843 98.923V12.8959C124.842 12.4372 124.659 11.9976 124.335 11.6732C124.011 11.3489 123.571 11.1663 123.112 11.1655H61.9113Z" fill="#EBEBEB"/>
<path d="M-0.975628 85.0695L-4.32568 114.805H-2.64907L0.887978 85.0695H-0.975628Z" fill="#EBEBEB"/>
<path d="M9.48677 85.0695L6.13672 114.805H7.81333L11.3504 85.0695H9.48677Z" fill="#EBEBEB"/>
<path d="M2.22541 107.097L1.40137 114.805H2.45361L4.08585 107.097H2.22541Z" fill="#F0F0F0"/>
<path d="M11.8665 107.097L12.6938 114.805H11.6415L10.0093 107.097H11.8665Z" fill="#F0F0F0"/>
<path d="M7.16942 110.003C8.14911 110.003 9.11813 109.8 10.0149 109.405C10.9117 109.011 11.7167 108.434 12.3787 107.712C13.0406 106.99 13.5452 106.138 13.8602 105.21C14.1753 104.283 14.2939 103.3 14.2087 102.324L11.483 71.1749C11.3291 69.4141 10.5209 67.775 9.21774 66.581C7.91458 65.3869 6.21119 64.7248 4.44374 64.7251C3.46431 64.7254 2.49564 64.9293 1.59923 65.3239C0.702813 65.7185 -0.101759 66.2951 -0.763402 67.0173C-1.42504 67.7394 -1.9293 68.5913 -2.24415 69.5187C-2.55901 70.4461 -2.67758 71.4289 -2.59233 72.4046L0.133352 103.553C0.286428 105.314 1.09401 106.953 2.39665 108.147C3.69929 109.341 5.4023 110.003 7.16942 110.003Z" fill="#E0E0E0"/>
<path d="M13.3657 102.929C13.3445 103.256 13.2957 103.58 13.2199 103.899C13.0825 104.502 12.8515 105.079 12.5353 105.61C12.4814 105.709 12.4212 105.804 12.3578 105.899C12.1555 106.204 11.9252 106.489 11.6701 106.751L11.5211 106.904C11.0547 107.359 10.52 107.738 9.93642 108.029C9.75003 108.12 9.55849 108.2 9.36276 108.27C8.4777 108.593 7.52998 108.709 6.59304 108.607C5.65611 108.506 4.7551 108.19 3.95984 107.685C3.16457 107.179 2.4964 106.497 2.00708 105.692C1.51777 104.886 1.22045 103.979 1.13816 103.04L-1.2991 72.4933C-1.2991 72.3095 -1.32129 72.1289 -1.32129 71.9514C-1.32059 70.8228 -1.00832 69.7163 -0.418882 68.7538C0.170552 67.7914 1.01426 67.0104 2.01926 66.4968C2.16391 66.4182 2.31314 66.3484 2.46614 66.2877C3.1115 66.0176 3.79898 65.8621 4.49773 65.8281C4.60232 65.8281 4.70374 65.8281 4.81467 65.8281C5.07318 65.8278 5.33146 65.8437 5.588 65.8756L5.83839 65.9168C6.21864 65.9768 6.59151 66.0767 6.95084 66.2148L7.12199 66.2782C8.16845 66.7045 9.0771 67.4111 9.74808 68.3202C10.4191 69.2294 10.8264 70.306 10.9253 71.4316L13.3625 101.978C13.387 102.295 13.3881 102.613 13.3657 102.929Z" fill="#FAFAFA"/>
<path d="M11.6699 106.755L11.5209 106.907C11.0544 107.362 10.5198 107.742 9.93619 108.032C9.74981 108.123 9.55827 108.204 9.36253 108.273L2.0127 66.5C2.15734 66.4214 2.30657 66.3516 2.45958 66.2908C3.10494 66.0208 3.79242 65.8653 4.49117 65.8313L11.6699 106.755Z" fill="white"/>
<path d="M13.3656 102.929C13.3444 103.256 13.2956 103.58 13.2198 103.899C13.0824 104.502 12.8514 105.079 12.5352 105.61L5.58154 65.8693L5.83193 65.9105C6.21218 65.9705 6.58505 66.0703 6.94438 66.2084L13.3656 102.929Z" fill="white"/>
<path d="M110.327 71.533L109.722 71.0322C106.708 68.5538 106.045 65.546 105.988 65.2544C105.926 65.0619 105.909 64.8577 105.939 64.6576C105.969 64.4575 106.044 64.2669 106.159 64.1008C106.255 63.9768 106.378 63.8767 106.519 63.8085C106.66 63.7403 106.814 63.7058 106.971 63.7078C107.228 63.7065 107.478 63.7864 107.687 63.9359C108.061 64.218 109.002 64.8868 109.202 65.0199C110.977 65.6126 110.533 69.8944 110.425 70.7502L110.327 71.533ZM106.971 64.5762C106.948 64.5736 106.925 64.5768 106.904 64.5857C106.883 64.5946 106.864 64.6088 106.85 64.6269C106.817 64.6905 106.798 64.7605 106.794 64.8321C106.791 64.9037 106.802 64.9753 106.828 65.0421V65.0769C107.301 66.8851 108.274 68.5232 109.636 69.8025C109.747 68.091 109.608 66.0436 108.904 65.8376C108.301 65.4677 107.718 65.0656 107.158 64.6332C107.103 64.595 107.038 64.575 106.971 64.5762Z" fill="#F0F0F0"/>
<path d="M113.094 75.6913C110.876 75.6913 109.098 68.3383 109.098 66.1292V63.8567H117.091V66.1292C117.091 68.3383 115.3 75.6913 113.094 75.6913Z" fill="#F5F5F5"/>
<path d="M113.772 75.33H112.476V81.7226H113.772V75.33Z" fill="#F5F5F5"/>
<path d="M116.511 85.079H109.611L109.062 83.0665H117.056L116.511 85.079Z" fill="#E6E6E6"/>
<path d="M113.798 79.8273L112.47 79.8463L111.823 80.9683H114.413L113.798 79.8273Z" fill="#F0F0F0"/>
<path d="M114.197 80.4866H112.033L111.053 81.7765H115.202L114.197 80.4866Z" fill="#EBEBEB"/>
<path d="M111.072 81.6022H115.17L117.056 83.0664H109.062L111.072 81.6022Z" fill="#F5F5F5"/>
<path d="M112.47 76.3885L113.798 76.3695L114.406 74.9591H111.82L112.47 76.3885Z" fill="#F0F0F0"/>
<path d="M118.526 86.9268H98.9775V111.505H118.526V86.9268Z" fill="#E0E0E0"/>
<path d="M103.69 88.8633H102.09V98.0482H103.69V88.8633Z" fill="#FAFAFA"/>
<path d="M110.334 88.8633H108.733V98.0482H110.334V88.8633Z" fill="#F5F5F5"/>
<path d="M105.294 89.5067H103.694V98.045H105.294V89.5067Z" fill="#F5F5F5"/>
<path d="M108.733 89.5067H107.132V98.045H108.733V89.5067Z" fill="#FAFAFA"/>
<path d="M107.133 88.8633H106.096V98.0482H107.133V88.8633Z" fill="#EBEBEB"/>
<path d="M106.096 89.5067H105.294V98.045H106.096V89.5067Z" fill="#FAFAFA"/>
<path d="M111.934 88.8633H110.333V98.0482H111.934V88.8633Z" fill="#EBEBEB"/>
<path d="M113.538 89.5067H111.937V98.045H113.538V89.5067Z" fill="#E6E6E6"/>
<path d="M109.535 110.358H111.136V101.173H109.535V110.358Z" fill="#FAFAFA"/>
<path d="M111.139 110.358H112.739V101.82H111.139V110.358Z" fill="#EBEBEB"/>
<path d="M112.739 110.358H113.776V101.173H112.739V110.358Z" fill="#FAFAFA"/>
<path d="M107.934 110.358H109.535V101.173H107.934V110.358Z" fill="#EBEBEB"/>
<path d="M106.331 110.358H107.931V101.82H106.331V110.358Z" fill="#F5F5F5"/>
<path d="M102.895 110.358H104.496V101.82H102.895V110.358Z" fill="#E6E6E6"/>
<path d="M104.495 110.358H105.532V101.173H104.495V110.358Z" fill="#FAFAFA"/>
<path d="M101.053 110.358H102.09V101.173H101.053V110.358Z" fill="#FAFAFA"/>
<path d="M105.529 110.358H106.331V101.82H105.529V110.358Z" fill="#EBEBEB"/>
<path d="M102.09 110.358H102.892V101.392H102.09V110.358Z" fill="#F0F0F0"/>
<path d="M118.432 85.098H98.3599V113.036H117.776V114.697H119.088V85.098H118.432ZM117.776 110.358H99.5959V99.5822H117.776V110.358ZM117.776 98.0577H99.5959V87.7793H117.776V98.0577Z" fill="#E6E6E6"/>
<path d="M79.3969 111.509H98.9458V86.93H79.3969V111.509Z" fill="#E0E0E0"/>
<path d="M80.1516 114.694H82.6079V112.735H80.1516V114.694Z" fill="#E6E6E6"/>
<path d="M96.689 98.0482H98.2896V88.8633H96.689V98.0482Z" fill="#FAFAFA"/>
<path d="M90.043 98.0482H91.6436V88.8633H90.043V98.0482Z" fill="#F5F5F5"/>
<path d="M95.086 98.0482H96.6865V89.5099H95.086V98.0482Z" fill="#F5F5F5"/>
<path d="M91.647 98.0482H93.2476V89.5099H91.647V98.0482Z" fill="#FAFAFA"/>
<path d="M93.2473 98.0482H94.2837V88.8633H93.2473V98.0482Z" fill="#EBEBEB"/>
<path d="M94.2841 98.0482H95.0859V89.5099H94.2841V98.0482Z" fill="#FAFAFA"/>
<path d="M89.501 98.0482H91.1016V88.8633H89.501V98.0482Z" fill="#EBEBEB"/>
<path d="M87.8975 98.0482H89.498V89.5099H87.8975V98.0482Z" fill="#E6E6E6"/>
<path d="M84.4619 98.0482H86.0625V89.5099H84.4619V98.0482Z" fill="#E6E6E6"/>
<path d="M86.0593 98.0482H87.0957V88.8633H86.0593V98.0482Z" fill="#FAFAFA"/>
<path d="M87.0956 98.0482H87.8975V89.5099H87.0956V98.0482Z" fill="#EBEBEB"/>
<path d="M83.6601 98.0482H84.4619V89.082H83.6601V98.0482Z" fill="#F5F5F5"/>
<path d="M84.5058 101.173H82.9053V110.358H84.5058V101.173Z" fill="#FAFAFA"/>
<path d="M91.1494 101.173H89.5488V110.358H91.1494V101.173Z" fill="#FAFAFA"/>
<path d="M86.1069 101.82H84.5063V110.358H86.1069V101.82Z" fill="#F5F5F5"/>
<path d="M89.5454 101.82H87.9448V110.358H89.5454V101.82Z" fill="#EBEBEB"/>
<path d="M87.948 101.173H86.9116V110.358H87.948V101.173Z" fill="#FAFAFA"/>
<path d="M86.9117 101.82H86.1099V110.358H86.9117V101.82Z" fill="#F5F5F5"/>
<path d="M91.6943 101.173H90.0938V110.358H91.6943V101.173Z" fill="#EBEBEB"/>
<path d="M93.2949 101.82H91.6943V110.358H93.2949V101.82Z" fill="#F5F5F5"/>
<path d="M96.7334 101.82H95.1328V110.358H96.7334V101.82Z" fill="#E6E6E6"/>
<path d="M95.1331 101.173H94.0967V110.358H95.1331V101.173Z" fill="#FAFAFA"/>
<path d="M98.3626 101.173H97.3262V110.358H98.3626V101.173Z" fill="#FAFAFA"/>
<path d="M94.0997 101.82H93.2979V110.358H94.0997V101.82Z" fill="#EBEBEB"/>
<path d="M97.5357 101.392H96.7339V110.358H97.5357V101.392Z" fill="#EBEBEB"/>
<path d="M78.8359 85.098V114.697H80.1481V113.036H99.5638V85.098H78.8359ZM80.1481 99.5885H98.3277V110.364H80.1512L80.1481 99.5885ZM80.1481 87.7793H98.3277V98.0577H80.1512L80.1481 87.7793Z" fill="#E6E6E6"/>
<path d="M58.8688 39.1417L66.824 14.3412L66.7257 40.3873L81.9579 19.2569L73.8157 43.9973L94.8288 28.6098L79.4414 49.6229L104.182 41.4808L83.0513 56.7129L109.097 56.6146L84.2969 64.5698L109.097 72.525L83.0513 72.4268L104.182 87.6589L79.4414 79.5167L94.8288 100.53L73.8157 85.1424L81.9579 109.883L66.7257 88.7524L66.824 114.798L58.8688 89.9979L50.9136 114.798L51.0118 88.7524L35.7797 109.883L43.9219 85.1424L22.9088 100.53L38.2962 79.5167L13.5559 87.6589L34.6863 72.4268L8.64014 72.525L33.4407 64.5698L8.64014 56.6146L34.6863 56.7129L13.5559 41.4808L38.2962 49.6229L22.9088 28.6098L43.9219 43.9973L35.7797 19.2569L51.0118 40.3873L50.9136 14.3412L58.8688 39.1417Z" fill="#F5F5F5"/>
<path d="M64.2346 54.0728C63.0968 53.3375 62.6499 51.6133 62.5263 49.8036C62.4514 48.428 62.5076 47.0483 62.6943 45.6834C62.7292 45.3348 62.7799 44.9988 62.8401 44.6819C62.8906 44.3615 62.9583 44.0441 63.0429 43.731L52.7075 39.465C53.8422 41.1765 54.7074 46.6564 54.4665 48.4186C54.2035 50.3963 54.1242 53.1727 53.0974 53.889L64.2346 54.0728Z" fill="#4845ED"/>
<g opacity="0.7">
<path opacity="0.7" d="M64.2346 54.0728C63.0968 53.3375 62.6499 51.6133 62.5263 49.8036C62.4514 48.428 62.5076 47.0483 62.6943 45.6834C62.7292 45.3348 62.7799 44.9988 62.8401 44.6819C62.8906 44.3615 62.9583 44.0441 63.0429 43.731L52.7075 39.465C53.8422 41.1765 54.7074 46.6564 54.4665 48.4186C54.2035 50.3963 54.1242 53.1727 53.0974 53.889L64.2346 54.0728Z" fill="white"/>
</g>
<path d="M53.0974 53.889C50.8788 55.4737 51.8296 57.9648 53.633 59.9996C54.3268 60.7798 55.0734 61.5116 55.8674 62.1896C59.3221 65.1467 64.7417 63.8916 66.355 59.6383C67.0617 57.7525 66.8177 55.7304 64.2346 54.076L53.0974 53.889Z" fill="#FFB573"/>
<path opacity="0.2" d="M62.5259 49.8036C62.4509 48.428 62.5072 47.0483 62.6939 45.6834C62.7287 45.3347 62.7794 44.9988 62.8397 44.6818L54.8496 43.1479C56.5262 44.8086 58.8684 48.2062 62.5259 49.8036Z" fill="black"/>
<path d="M73.0676 31.2721C72.8141 32.9899 70.4592 35.7822 70.5733 35.6142C70.6682 35.4321 70.7015 35.2242 70.6684 35.0215C70.6168 34.2481 70.4268 33.4902 70.1074 32.7839C69.9077 33.7347 69.6035 35.7283 68.6558 35.7441C68.2787 35.0342 67.8159 34.3876 67.8825 33.5826C67.6638 34.4067 67.461 35.237 67.2486 36.0611C65.4104 34.9296 64.2472 32.318 64.6307 30.1375C64.7134 29.6086 64.8975 29.1007 65.1727 28.6415C65.5133 28.1404 65.9267 27.6928 66.3992 27.3135C67.6004 26.2613 68.0885 25.7732 69.6669 25.7732C73.112 25.7732 73.3212 29.5543 73.0676 31.2721Z" fill="#4845ED"/>
<path opacity="0.3" d="M73.0676 31.2721C72.8141 32.9899 70.4592 35.7822 70.5733 35.6142C70.6682 35.4321 70.7015 35.2242 70.6684 35.0215C70.6168 34.2481 70.4268 33.4902 70.1074 32.7839C69.9077 33.7347 69.6035 35.7283 68.6558 35.7441C68.2787 35.0342 67.8159 34.3876 67.8825 33.5826C67.6638 34.4067 67.461 35.237 67.2486 36.0611C65.4104 34.9296 64.2472 32.318 64.6307 30.1375C64.7134 29.6086 64.8975 29.1007 65.1727 28.6415C65.5133 28.1404 65.9267 27.6928 66.3992 27.3135C67.6004 26.2613 68.0885 25.7732 69.6669 25.7732C73.112 25.7732 73.3212 29.5543 73.0676 31.2721Z" fill="black"/>
<path d="M71.2833 39.6837C69.9997 46.6786 61.6261 50.3678 56.0987 45.3569C52.9071 42.4696 52.4 39.0181 51.8168 33.6555C51.7249 32.841 51.633 31.9852 51.5316 31.0756C51.3605 29.6595 51.5055 28.2231 51.9563 26.8698C52.1412 26.3067 52.3834 25.764 52.6789 25.2503C53.7598 23.3063 55.488 21.8028 57.5628 21.0014C59.6377 20.1999 61.9278 20.1513 64.0348 20.8638C70.9631 23.1965 72.4464 33.3893 71.2833 39.6837Z" fill="#4845ED"/>
<path opacity="0.7" d="M71.2833 39.6837C69.9997 46.6786 61.6261 50.3678 56.0987 45.3569C52.9071 42.4696 52.4 39.0181 51.8168 33.6555C51.7249 32.841 51.633 31.9852 51.5316 31.0756C51.3605 29.6595 51.5055 28.2231 51.9563 26.8698C52.1412 26.3067 52.3834 25.764 52.6789 25.2503C53.7598 23.3063 55.488 21.8028 57.5628 21.0014C59.6377 20.1999 61.9278 20.1513 64.0348 20.8638C70.9631 23.1965 72.4464 33.3893 71.2833 39.6837Z" fill="white"/>
<path d="M62.6372 31.2816C63.0049 31.2563 63.325 31.7 63.3535 32.261C63.382 32.822 63.1602 33.2974 62.7481 33.3196C62.3361 33.3418 62.0128 32.9044 61.9812 32.3371C61.9495 31.7697 62.2727 31.3038 62.6372 31.2816Z" fill="#4845ED"/>
<path opacity="0.3" d="M62.6372 31.2816C63.0049 31.2563 63.325 31.7 63.3535 32.261C63.382 32.822 63.1602 33.2974 62.7481 33.3196C62.3361 33.3418 62.0128 32.9044 61.9812 32.3371C61.9495 31.7697 62.2727 31.3038 62.6372 31.2816Z" fill="black"/>
<path d="M68.9122 31.2246C69.2799 31.1992 69.6 31.6366 69.6317 32.1976C69.6634 32.7586 69.3971 33.2308 69.0231 33.2562C68.6492 33.2815 68.329 32.8441 68.2974 32.2832C68.2657 31.7222 68.5477 31.2468 68.9122 31.2246Z" fill="#4845ED"/>
<path opacity="0.3" d="M68.9122 31.2246C69.2799 31.1992 69.6 31.6366 69.6317 32.1976C69.6634 32.7586 69.3971 33.2308 69.0231 33.2562C68.6492 33.2815 68.329 32.8441 68.2974 32.2832C68.2657 31.7222 68.5477 31.2468 68.9122 31.2246Z" fill="black"/>
<path d="M66.2723 37.8138C67.2231 37.912 68.9568 37.3352 69.6445 36.6601C68.3356 35.3638 66.8745 33.9059 65.9775 32.299L66.2723 37.8138Z" fill="#4845ED"/>
<path opacity="0.5" d="M66.2723 37.8138C67.2231 37.912 68.9568 37.3352 69.6445 36.6601C68.3356 35.3638 66.8745 33.9059 65.9775 32.299L66.2723 37.8138Z" fill="white"/>
<path d="M61.5878 29.0757C61.9988 28.998 62.4224 29.0181 62.8243 29.1342C63.2262 29.2504 63.5952 29.4594 63.9014 29.7445C63.9191 29.7743 63.9416 29.8011 63.968 29.8237C64.0011 29.8522 64.0395 29.8739 64.0809 29.8876C64.1224 29.9013 64.1662 29.9066 64.2097 29.9034C64.2533 29.9002 64.2958 29.8884 64.3348 29.8687C64.3738 29.8491 64.4086 29.8219 64.4371 29.7888C64.4656 29.7557 64.4873 29.7174 64.501 29.6759C64.5146 29.6344 64.52 29.5906 64.5168 29.5471C64.5135 29.5035 64.5018 29.461 64.4821 29.422C64.4624 29.383 64.4353 29.3483 64.4022 29.3198C64.0275 28.9529 63.5705 28.681 63.0693 28.5266C62.5682 28.3723 62.0374 28.3399 61.5212 28.4323C61.4776 28.4368 61.4354 28.4503 61.3973 28.472C61.3591 28.4936 61.3259 28.523 61.2997 28.5581C61.2735 28.5933 61.2548 28.6335 61.245 28.6762C61.2351 28.7189 61.2342 28.7632 61.2423 28.8063C61.2494 28.8639 61.2737 28.918 61.312 28.9616C61.3462 29.0004 61.3889 29.0308 61.4367 29.0506C61.4845 29.0704 61.5361 29.079 61.5878 29.0757Z" fill="#4845ED"/>
<path opacity="0.3" d="M61.5878 29.0757C61.9988 28.998 62.4224 29.0181 62.8243 29.1342C63.2262 29.2504 63.5952 29.4594 63.9014 29.7445C63.9191 29.7743 63.9416 29.8011 63.968 29.8237C64.0011 29.8522 64.0395 29.8739 64.0809 29.8876C64.1224 29.9013 64.1662 29.9066 64.2097 29.9034C64.2533 29.9002 64.2958 29.8884 64.3348 29.8687C64.3738 29.8491 64.4086 29.8219 64.4371 29.7888C64.4656 29.7557 64.4873 29.7174 64.501 29.6759C64.5146 29.6344 64.52 29.5906 64.5168 29.5471C64.5135 29.5035 64.5018 29.461 64.4821 29.422C64.4624 29.383 64.4353 29.3483 64.4022 29.3198C64.0275 28.9529 63.5705 28.681 63.0693 28.5266C62.5682 28.3723 62.0374 28.3399 61.5212 28.4323C61.4776 28.4368 61.4354 28.4503 61.3973 28.472C61.3591 28.4936 61.3259 28.523 61.2997 28.5581C61.2735 28.5933 61.2548 28.6335 61.245 28.6762C61.2351 28.7189 61.2342 28.7632 61.2423 28.8063C61.2494 28.8639 61.2737 28.918 61.312 28.9616C61.3462 29.0004 61.3889 29.0308 61.4367 29.0506C61.4845 29.0704 61.5361 29.079 61.5878 29.0757Z" fill="black"/>
<path d="M71.2039 28.4038C71.199 28.318 71.1615 28.2374 71.099 28.1785C71.0365 28.1195 70.9538 28.0867 70.8679 28.0869C70.3445 28.0735 69.8256 28.1873 69.3558 28.4186C68.886 28.6499 68.4794 28.9918 68.1708 29.4149C68.147 29.4504 68.1306 29.4903 68.1227 29.5323C68.1148 29.5743 68.1154 29.6175 68.1246 29.6593C68.1338 29.701 68.1513 29.7405 68.1761 29.7753C68.2009 29.8101 68.2325 29.8395 68.269 29.8617H68.2912C68.3631 29.9049 68.4492 29.9177 68.5306 29.8975C68.612 29.8774 68.682 29.8257 68.7254 29.754C68.9767 29.4249 69.3026 29.1602 69.6761 28.9817C70.0497 28.8032 70.4604 28.7159 70.8743 28.7271C70.9291 28.7295 70.9837 28.7177 71.0326 28.6926C71.0815 28.6676 71.123 28.6304 71.1532 28.5845C71.1833 28.5288 71.2007 28.4671 71.2039 28.4038Z" fill="#4845ED"/>
<path opacity="0.3" d="M71.2039 28.4038C71.199 28.318 71.1615 28.2374 71.099 28.1785C71.0365 28.1195 70.9538 28.0867 70.8679 28.0869C70.3445 28.0735 69.8256 28.1873 69.3558 28.4186C68.886 28.6499 68.4794 28.9918 68.1708 29.4149C68.147 29.4504 68.1306 29.4903 68.1227 29.5323C68.1148 29.5743 68.1154 29.6175 68.1246 29.6593C68.1338 29.701 68.1513 29.7405 68.1761 29.7753C68.2009 29.8101 68.2325 29.8395 68.269 29.8617H68.2912C68.3631 29.9049 68.4492 29.9177 68.5306 29.8975C68.612 29.8774 68.682 29.8257 68.7254 29.754C68.9767 29.4249 69.3026 29.1602 69.6761 28.9817C70.0497 28.8032 70.4604 28.7159 70.8743 28.7271C70.9291 28.7295 70.9837 28.7177 71.0326 28.6926C71.0815 28.6676 71.123 28.6304 71.1532 28.5845C71.1833 28.5288 71.2007 28.4671 71.2039 28.4038Z" fill="black"/>
<path d="M55.4679 43.8578C54.6214 43.6973 53.8226 43.3461 53.132 42.8309C53.132 43.7596 52.4981 45.3664 52.4981 45.3664C49.5443 44.3934 47.1102 38.4857 46.7932 36.527C45.1515 39.5791 45.2941 37.8233 45.1673 36.527C44.9835 34.6602 44.9359 32.7237 45.573 30.9647C46.21 29.2057 47.6616 27.6305 49.5126 27.3262C49.8569 27.2947 50.2034 27.356 50.5161 27.5037C50.8288 27.6514 51.0962 27.8801 51.2906 28.1661C51.6054 28.7311 51.8108 29.3505 51.8959 29.9917C52.7612 34.6222 52.7232 40.0292 55.4679 43.8578Z" fill="#4845ED"/>
<path opacity="0.3" d="M55.4679 43.8578C54.6214 43.6973 53.8226 43.3461 53.132 42.8309C53.132 43.7596 52.4981 45.3664 52.4981 45.3664C49.5443 44.3934 47.1102 38.4857 46.7932 36.527C45.1515 39.5791 45.2941 37.8233 45.1673 36.527C44.9835 34.6602 44.9359 32.7237 45.573 30.9647C46.21 29.2057 47.6616 27.6305 49.5126 27.3262C49.8569 27.2947 50.2034 27.356 50.5161 27.5037C50.8288 27.6514 51.0962 27.8801 51.2906 28.1661C51.6054 28.7311 51.8108 29.3505 51.8959 29.9917C52.7612 34.6222 52.7232 40.0292 55.4679 43.8578Z" fill="black"/>
<path d="M51.2811 33.2403C53.5409 33.291 54.9196 36.1403 55.1604 38.0895C55.4425 40.2605 53.9846 42.0449 51.8896 41.0846C51.1085 40.7222 50.4076 40.2076 49.828 39.5708C49.2484 38.9341 48.8017 38.188 48.5142 37.3764C47.8138 35.3606 49.0181 33.1928 51.2811 33.2403Z" fill="#4845ED"/>
<path opacity="0.7" d="M51.2811 33.2403C53.5409 33.291 54.9196 36.1403 55.1604 38.0895C55.4425 40.2605 53.9846 42.0449 51.8896 41.0846C51.1085 40.7222 50.4076 40.2076 49.828 39.5708C49.2484 38.9341 48.8017 38.188 48.5142 37.3764C47.8138 35.3606 49.0181 33.1928 51.2811 33.2403Z" fill="white"/>
<path d="M55.8073 26.5941C56.3986 27.2307 56.8402 27.9913 57.1001 28.8204C57.36 29.6494 57.4316 30.526 57.3096 31.3862C57.0466 33.104 54.6157 35.8931 54.7298 35.7251C54.8268 35.5438 54.8624 35.3358 54.8312 35.1325C54.7749 34.3573 54.5773 33.5989 54.248 32.8949C54.042 33.8457 53.7282 35.8392 52.7489 35.8519C52.359 35.1451 51.8805 34.4986 51.947 33.6904C51.722 34.5176 51.5128 35.348 51.2878 36.172C49.3861 35.0374 48.1818 32.4258 48.5748 30.2452C48.6613 29.7145 48.852 29.2061 49.1358 28.7493C49.491 28.2469 49.9181 27.7994 50.4035 27.4213C51.6459 26.3691 53.2908 25.32 54.79 25.9507C55.0055 26.0521 55.8644 26.3659 55.8073 26.5941Z" fill="#4845ED"/>
<path opacity="0.3" d="M55.8073 26.5941C56.3986 27.2307 56.8402 27.9913 57.1001 28.8204C57.36 29.6494 57.4316 30.526 57.3096 31.3862C57.0466 33.104 54.6157 35.8931 54.7298 35.7251C54.8268 35.5438 54.8624 35.3358 54.8312 35.1325C54.7749 34.3573 54.5773 33.5989 54.248 32.8949C54.042 33.8457 53.7282 35.8392 52.7489 35.8519C52.359 35.1451 51.8805 34.4986 51.947 33.6904C51.722 34.5176 51.5128 35.348 51.2878 36.172C49.3861 35.0374 48.1818 32.4258 48.5748 30.2452C48.6613 29.7145 48.852 29.2061 49.1358 28.7493C49.491 28.2469 49.9181 27.7994 50.4035 27.4213C51.6459 26.3691 53.2908 25.32 54.79 25.9507C55.0055 26.0521 55.8644 26.3659 55.8073 26.5941Z" fill="black"/>
<path d="M68.0596 39.7344C68.0596 39.7344 66.1231 38.9484 60.415 38.267C60.732 40.3398 61.9997 41.2145 64.9188 41.5315C67.8378 41.8484 68.0596 39.7344 68.0596 39.7344Z" fill="#263238"/>
<path d="M67.8001 39.6615C67.7128 39.889 67.5679 40.0898 67.3795 40.2443C67.1911 40.3988 66.9658 40.5016 66.7256 40.5426C65.04 40.3391 63.3786 39.9697 61.7655 39.4397C61.4925 39.3774 61.2427 39.2389 61.0452 39.0403C60.8477 38.8417 60.7107 38.5911 60.6499 38.3177C63.0693 38.5463 65.4627 38.9961 67.8001 39.6615Z" fill="white"/>
<path d="M66.6114 40.3715C65.173 39.7868 63.6527 39.4287 62.1045 39.3097C61.6705 39.357 61.2575 39.5213 60.9097 39.7851C61.5435 40.812 62.8113 41.3223 64.8936 41.5568C65.6774 41.6956 66.4849 41.5482 67.1692 41.1416C67.0187 40.8611 66.8311 40.602 66.6114 40.3715Z" fill="white"/>
<path d="M71.784 53.4104C71.5394 55.7085 70.68 57.8982 69.2961 59.7492C69.1946 59.8855 69.0901 60.0217 68.9791 60.1549C65.8985 64.0564 60.3615 65.2671 55.7564 63.2165C54.3005 62.5857 52.9027 61.8285 51.5791 60.9535C48.9675 59.1977 46.7141 56.7573 45.6523 53.8921L53.7502 52.8494L59.2871 52.1363L63.0714 52.5229L71.784 53.4104Z" fill="#FFB573"/>
<path d="M31.745 58.6019C31.428 82.3724 13.8854 102.973 12.0757 126.69H99.1423C90.4873 108.149 85.0635 88.2655 83.1051 67.8977L81.7581 53.889H37.1995C37.1995 53.889 31.7767 56.2755 31.745 58.6019Z" fill="#4845ED"/>
<path opacity="0.6" d="M31.745 58.6019C31.428 82.3724 13.8854 102.973 12.0757 126.69H99.1423C90.4873 108.149 85.0635 88.2655 83.1051 67.8977L81.7581 53.889H37.1995C37.1995 53.889 31.7767 56.2755 31.745 58.6019Z" fill="white"/>
<path opacity="0.2" d="M22.9086 126.658C22.9086 126.658 22.4015 102.181 30.5152 76.8576C38.6288 51.5341 28.4424 84.4515 30.0271 113.791C30.4771 122.25 32.6925 126.785 32.6925 126.785L22.9086 126.658Z" fill="white"/>
<path opacity="0.2" d="M91.1524 126.785C91.1524 126.785 80.5159 102.118 78.6047 69.5585C78.6047 69.5585 75.9995 98.3715 84.9879 126.69L91.1524 126.785Z" fill="white"/>
<path d="M88.3091 49.8258C88.3521 49.8046 88.3966 49.7866 88.4422 49.7719L88.3915 49.7941L88.3091 49.8258Z" fill="#4845ED"/>
<path d="M89.0097 49.5659L88.7847 49.6483L88.6009 49.7149H88.5723L88.4424 49.7624C88.623 49.699 88.8132 49.6325 89.0097 49.5659Z" fill="#4845ED"/>
<path d="M111.741 50.8273C111.741 59.5242 96.1347 64.9977 89.1715 66.9913C82.5665 69.2098 78.6048 69.5426 78.6048 69.5426C78.3607 67.2448 73.3784 53.759 73.3784 53.759C73.3784 53.759 76.3577 52.4913 78.4938 52.6814H78.5477C81.048 52.8789 83.5488 52.306 85.7137 51.0397C86.5009 50.5851 87.3209 50.19 88.1668 49.8575L88.3095 49.8036L88.3919 49.7719L88.5725 49.7022H88.601L88.7849 49.6356L89.0099 49.5532L89.273 49.4676L89.3522 49.4423L89.4346 49.4169L89.4948 49.4011H89.517C90.1329 49.2228 90.7582 49.0789 91.3901 48.97C93.2435 48.6086 95.1634 48.83 96.8859 49.6039C97.2131 49.7643 97.5753 49.8405 97.9394 49.8256C98.3036 49.8106 98.6583 49.705 98.9713 49.5184C99.2883 49.3155 99.4245 49.0968 99.1203 48.9257L84.3065 31.9821L88.8229 29.5004C88.8229 29.5004 111.741 41.6107 111.741 50.8273Z" fill="#4845ED"/>
<path d="M111.741 50.8273C111.741 59.5242 96.1347 64.9977 89.1715 66.9913C82.5665 69.2098 78.6048 69.5426 78.6048 69.5426C78.3607 67.2448 73.3784 53.759 73.3784 53.759C73.3784 53.759 76.3577 52.4913 78.4938 52.6814H78.5477C81.048 52.8789 83.5488 52.306 85.7137 51.0397C86.5009 50.5851 87.3209 50.19 88.1668 49.8575L88.3095 49.8036L88.3919 49.7719L88.5725 49.7022H88.601L88.7849 49.6356L89.0099 49.5532L89.273 49.4676L89.3522 49.4423L89.4346 49.4169L89.4948 49.4011H89.517C90.1329 49.2228 90.7582 49.0789 91.3901 48.97C93.2435 48.6086 95.1634 48.83 96.8859 49.6039C97.2131 49.7643 97.5753 49.8405 97.9394 49.8256C98.3036 49.8106 98.6583 49.705 98.9713 49.5184C99.2883 49.3155 99.4245 49.0968 99.1203 48.9257L84.3065 31.9821L88.8229 29.5004C88.8229 29.5004 111.741 41.6107 111.741 50.8273Z" fill="#4845ED"/>
<g opacity="0.3">
<path opacity="0.3" d="M111.741 50.8273C111.741 59.5242 96.1347 64.9977 89.1715 66.9913C82.5665 69.2098 78.6048 69.5426 78.6048 69.5426C78.3607 67.2448 73.3784 53.759 73.3784 53.759C73.3784 53.759 76.3577 52.4913 78.4938 52.6814H78.5477C81.048 52.8789 83.5488 52.306 85.7137 51.0397C86.5009 50.5851 87.3209 50.19 88.1668 49.8575L88.3095 49.8036L88.3919 49.7719L88.5725 49.7022H88.601L88.7849 49.6356L89.0099 49.5532L89.273 49.4676L89.3522 49.4423L89.4346 49.4169L89.4948 49.4011H89.517C90.1329 49.2228 90.7582 49.0789 91.3901 48.97C93.2435 48.6086 95.1634 48.83 96.8859 49.6039C97.2131 49.7643 97.5753 49.8405 97.9394 49.8256C98.3036 49.8106 98.6583 49.705 98.9713 49.5184C99.2883 49.3155 99.4245 49.0968 99.1203 48.9257L84.3065 31.9821L88.8229 29.5004C88.8229 29.5004 111.741 41.6107 111.741 50.8273Z" fill="white"/>
</g>
<path d="M85.5264 32.4226L79.2129 29.9219L75.4097 24.8509L80.8737 23.637L86.0398 26.3152L89.1395 29.6874C89.2831 29.844 89.385 30.0342 89.4359 30.2405C89.4868 30.4468 89.4851 30.6626 89.4308 30.868C89.3765 31.0734 89.2715 31.2619 89.1253 31.4162C88.9792 31.5704 88.7966 31.6854 88.5944 31.7507L86.3758 32.4575C86.0971 32.5439 85.7971 32.5316 85.5264 32.4226Z" fill="#4845ED"/>
<path opacity="0.7" d="M85.5264 32.4226L79.2129 29.9219L75.4097 24.8509L80.8737 23.637L86.0398 26.3152L89.1395 29.6874C89.2831 29.844 89.385 30.0342 89.4359 30.2405C89.4868 30.4468 89.4851 30.6626 89.4308 30.868C89.3765 31.0734 89.2715 31.2619 89.1253 31.4162C88.9792 31.5704 88.7966 31.6854 88.5944 31.7507L86.3758 32.4575C86.0971 32.5439 85.7971 32.5316 85.5264 32.4226Z" fill="white"/>
<path opacity="0.2" d="M81.3936 62.627L82.0274 69.0387C82.0274 69.0387 91.374 66.8708 96.6574 64.4526L92.4136 64.6839C88.9026 64.9248 85.3883 64.2636 82.2049 62.7633L81.3936 62.627Z" fill="black"/>
<path d="M82.5123 68.8897C82.4204 89.2975 78.671 91.2245 78.8485 108.789C78.8485 108.789 43.5128 108.932 42.3148 108.964C39.4623 85.3262 36.556 84.2423 37.323 66.0911C36.9522 60.1295 40.3339 54.8873 43.7347 54.2059L59.2933 52.1363L74.2592 53.721C78.0624 54.2661 81.5012 57.2644 82.5123 68.8897Z" fill="#4845ED"/>
<path opacity="0.3" d="M82.5123 68.8897C82.4204 89.2975 78.671 91.2245 78.8485 108.789C78.8485 108.789 43.5128 108.932 42.3148 108.964C39.4623 85.3262 36.556 84.2423 37.323 66.0911C36.9522 60.1295 40.3339 54.8873 43.7347 54.2059L59.2933 52.1363L74.2592 53.721C78.0624 54.2661 81.5012 57.2644 82.5123 68.8897Z" fill="white"/>
<path d="M56.9923 29.0345C56.0415 26.9427 54.7738 25.9317 55.5122 26.0458C57.4963 26.3627 58.7102 24.6164 60.1681 25.5989C60.878 26.4103 60.0603 27.9189 60.0255 27.8365C60.7544 28.182 61.664 27.9094 62.2631 27.3769C62.8621 26.8445 63.0713 25.9127 63.366 25.1583C63.5867 25.9695 63.5669 26.8273 63.309 27.6273C63.8319 28.0425 64.9095 27.2628 65.4008 26.8096C65.8916 26.2896 66.2589 25.6656 66.4752 24.984C66.6622 25.713 66.808 26.4546 66.285 27.3326C67.0267 27.3738 67.9997 27.1456 68.4878 26.5909C68.7428 26.302 68.9317 25.9608 69.0412 25.5913C69.1507 25.2218 69.1781 24.8328 69.1216 24.4516C69.2896 24.8256 69.315 26.3532 68.9822 26.6099C70.25 26.1947 71.4258 24.61 71.3592 23.2884C71.2982 22.6253 71.0783 21.9867 70.718 21.4267C70.3577 20.8667 69.8678 20.4019 69.2896 20.0715C68.7223 19.7323 68.0916 19.5105 67.4957 19.2189C66.5798 18.7688 60.7608 14.4268 52.2161 19.3774C46.9137 22.4517 47.95 28.5686 48.5808 29.2342C49.3636 30.0551 50.5965 30.3308 51.7343 30.2167C52.8721 30.1026 57.2396 29.5892 56.9923 29.0345Z" fill="#4845ED"/>
<path opacity="0.3" d="M56.9923 29.0345C56.0415 26.9427 54.7738 25.9317 55.5122 26.0458C57.4963 26.3627 58.7102 24.6164 60.1681 25.5989C60.878 26.4103 60.0603 27.9189 60.0255 27.8365C60.7544 28.182 61.664 27.9094 62.2631 27.3769C62.8621 26.8445 63.0713 25.9127 63.366 25.1583C63.5867 25.9695 63.5669 26.8273 63.309 27.6273C63.8319 28.0425 64.9095 27.2628 65.4008 26.8096C65.8916 26.2896 66.2589 25.6656 66.4752 24.984C66.6622 25.713 66.808 26.4546 66.285 27.3326C67.0267 27.3738 67.9997 27.1456 68.4878 26.5909C68.7428 26.302 68.9317 25.9608 69.0412 25.5913C69.1507 25.2218 69.1781 24.8328 69.1216 24.4516C69.2896 24.8256 69.315 26.3532 68.9822 26.6099C70.25 26.1947 71.4258 24.61 71.3592 23.2884C71.2982 22.6253 71.0783 21.9867 70.718 21.4267C70.3577 20.8667 69.8678 20.4019 69.2896 20.0715C68.7223 19.7323 68.0916 19.5105 67.4957 19.2189C66.5798 18.7688 60.7608 14.4268 52.2161 19.3774C46.9137 22.4517 47.95 28.5686 48.5808 29.2342C49.3636 30.0551 50.5965 30.3308 51.7343 30.2167C52.8721 30.1026 57.2396 29.5892 56.9923 29.0345Z" fill="black"/>
<path d="M68.0596 39.7344C68.0596 39.7344 66.1231 38.9484 60.415 38.267C60.732 40.3398 61.9997 41.2145 64.9188 41.5315C67.8378 41.8484 68.0596 39.7344 68.0596 39.7344Z" fill="#4845ED"/>
<path opacity="0.3" d="M68.0596 39.7344C68.0596 39.7344 66.1231 38.9484 60.415 38.267C60.732 40.3398 61.9997 41.2145 64.9188 41.5315C67.8378 41.8484 68.0596 39.7344 68.0596 39.7344Z" fill="black"/>
<path d="M67.8001 39.6615C67.7128 39.889 67.5679 40.0898 67.3795 40.2443C67.1911 40.3988 66.9658 40.5016 66.7256 40.5426C65.04 40.3391 63.3786 39.9697 61.7655 39.4397C61.4925 39.3774 61.2427 39.2389 61.0452 39.0403C60.8477 38.8417 60.7107 38.5911 60.6499 38.3177C63.0693 38.5463 65.4627 38.9961 67.8001 39.6615Z" fill="white"/>
<path d="M66.6114 40.3715C65.173 39.7868 63.6527 39.4287 62.1045 39.3097C61.6705 39.357 61.2575 39.5213 60.9097 39.7851C61.5435 40.812 62.8113 41.3223 64.8936 41.5568C65.6774 41.6956 66.4849 41.5482 67.1692 41.1416C67.0187 40.8611 66.8311 40.602 66.6114 40.3715Z" fill="white"/>
<path d="M40.4863 99.9625C40.4863 99.9625 47.9597 96.0008 47.9185 96.435C47.8773 96.8692 48.0738 105.252 48.0738 105.252L39.9253 105.065L40.4863 99.9625Z" fill="#4845ED"/>
<path d="M47.9121 96.435C47.9121 96.435 54.7929 96.66 54.7548 97.4238C54.7168 98.1876 53.9752 104.599 53.9752 104.599L48.0674 105.255L47.9121 96.435Z" fill="#4845ED"/>
<g opacity="0.7">
<path opacity="0.7" d="M54.7488 97.4238C54.7108 98.1908 53.9723 104.596 53.9723 104.596L48.0645 105.252L39.916 105.065L40.477 99.9625C40.477 99.9625 47.9504 96.0008 47.9092 96.435C47.9124 96.435 54.7932 96.6759 54.7488 97.4238Z" fill="white"/>
</g>
<path d="M71.784 53.4104C71.5394 55.7085 70.68 57.8982 69.2961 59.7492C69.1946 59.8855 69.0901 60.0217 68.9791 60.1549C65.8985 64.0564 60.3615 65.2671 55.7564 63.2165C54.3005 62.5857 52.9027 61.8285 51.5791 60.9535C48.9675 59.1977 46.7141 56.7573 45.6523 53.8921L53.7502 52.8494L59.2871 52.1363L63.0714 52.5229L71.784 53.4104Z" fill="#4845ED"/>
<path opacity="0.7" d="M71.784 53.4104C71.5394 55.7085 70.68 57.8982 69.2961 59.7492C69.1946 59.8855 69.0901 60.0217 68.9791 60.1549C65.8985 64.0564 60.3615 65.2671 55.7564 63.2165C54.3005 62.5857 52.9027 61.8285 51.5791 60.9535C48.9675 59.1977 46.7141 56.7573 45.6523 53.8921L53.7502 52.8494L59.2871 52.1363L63.0714 52.5229L71.784 53.4104Z" fill="white"/>
<path opacity="0.2" d="M37.374 73.9925C37.3854 77.5566 37.7035 81.1131 38.3248 84.6226L40.9713 68.1037L37.374 73.9925Z" fill="black"/>
<path d="M23.0291 85.9443L40.7302 98.4507L39.9188 105.807C39.9188 105.807 13.3529 99.6995 9.33093 91.4115C7.45147 87.5448 9.56863 82.8161 12.8395 78.4423C12.8409 78.4371 12.8409 78.4316 12.8395 78.4265C16.7283 72.0655 20.2622 68.2844 22.9277 66.0499C25.5418 63.9227 27.8124 61.4051 29.6595 58.586C34.2487 51.382 44.5556 54.301 44.5556 54.301C42.2071 59.7967 42.1818 70.2494 42.1818 70.2494C42.1818 70.2494 39.8776 71.9862 37.3611 73.9925C37.3357 75.6881 36.3057 77.7641 34.3153 80.1094C31.7006 83.2027 23.9228 84.9649 23.0291 85.9443Z" fill="#4845ED"/>
<path opacity="0.3" d="M23.0291 85.9443L40.7302 98.4507L39.9188 105.807C39.9188 105.807 13.3529 99.6995 9.33093 91.4115C7.45147 87.5448 9.56863 82.8161 12.8395 78.4423C12.8409 78.4371 12.8409 78.4316 12.8395 78.4265C16.7283 72.0655 20.2622 68.2844 22.9277 66.0499C25.5418 63.9227 27.8124 61.4051 29.6595 58.586C34.2487 51.382 44.5556 54.301 44.5556 54.301C42.2071 59.7967 42.1818 70.2494 42.1818 70.2494C42.1818 70.2494 39.8776 71.9862 37.3611 73.9925C37.3357 75.6881 36.3057 77.7641 34.3153 80.1094C31.7006 83.2027 23.9228 84.9649 23.0291 85.9443Z" fill="white"/>
<path d="M36.4005 52.1711C41.9966 56.8254 48.355 60.4775 55.195 62.9661C55.195 60.8204 54.5104 56.4847 53.2934 53.797C52.9479 53.0427 52.5105 52.2852 51.8038 51.851C51.097 51.4168 50.0606 51.42 49.5345 52.0634C47.5251 50.6435 44.2194 50.5769 42.2702 52.0634C40.7616 51.5404 38.6191 50.71 37.047 50.9921C35.475 51.2742 33.5353 53.3692 33.7699 54.9507C35.2199 54.2566 36.7921 53.8539 38.3972 53.7653C37.9662 53.2551 38.3877 53.7812 36.4005 52.1711Z" fill="#4845ED"/>
<path opacity="0.6" d="M36.4005 52.1711C41.9966 56.8254 48.355 60.4775 55.195 62.9661C55.195 60.8204 54.5104 56.4847 53.2934 53.797C52.9479 53.0427 52.5105 52.2852 51.8038 51.851C51.097 51.4168 50.0606 51.42 49.5345 52.0634C47.5251 50.6435 44.2194 50.5769 42.2702 52.0634C40.7616 51.5404 38.6191 50.71 37.047 50.9921C35.475 51.2742 33.5353 53.3692 33.7699 54.9507C35.2199 54.2566 36.7921 53.8539 38.3972 53.7653C37.9662 53.2551 38.3877 53.7812 36.4005 52.1711Z" fill="white"/>
<path d="M77.0705 52.7131C76.1618 52.3018 75.1758 52.0891 74.1784 52.0891C73.181 52.0891 72.195 52.3018 71.2863 52.7131C70.0439 51.8035 68.1328 51.6101 66.8492 52.4817C66.6473 52.2402 66.3973 52.0434 66.1152 51.9037C65.8331 51.764 65.5251 51.6846 65.2106 51.6704C64.5767 51.6482 64.171 52.0856 63.7368 52.5388C64.6496 52.9983 65.1155 54.0221 65.4388 54.9919C66.2639 57.4485 66.6156 60.0393 66.4752 62.627C70.849 60.4908 74.5603 56.9062 77.0705 52.7131Z" fill="#4845ED"/>
<path opacity="0.6" d="M77.0705 52.7131C76.1618 52.3018 75.1758 52.0891 74.1784 52.0891C73.181 52.0891 72.195 52.3018 71.2863 52.7131C70.0439 51.8035 68.1328 51.6101 66.8492 52.4817C66.6473 52.2402 66.3973 52.0434 66.1152 51.9037C65.8331 51.764 65.5251 51.6846 65.2106 51.6704C64.5767 51.6482 64.171 52.0856 63.7368 52.5388C64.6496 52.9983 65.1155 54.0221 65.4388 54.9919C66.2639 57.4485 66.6156 60.0393 66.4752 62.627C70.849 60.4908 74.5603 56.9062 77.0705 52.7131Z" fill="white"/>
<path opacity="0.5" d="M76.2146 77.4122C76.2146 82.2265 69.3623 90.8315 60.9095 90.8315C52.4567 90.8315 45.6045 82.2265 45.6045 77.4122C45.6045 72.5979 52.4567 68.6932 60.9095 68.6932C69.3623 68.6932 76.2146 72.5884 76.2146 77.4122Z" fill="white"/>
<path d="M74.1579 77.8275C74.1579 81.7924 68.5132 88.8823 61.55 88.8823C54.5868 88.8823 48.9453 81.7797 48.9453 77.8275C48.9453 73.8752 54.5868 70.6424 61.55 70.6424C68.5132 70.6424 74.1579 73.8562 74.1579 77.8275Z" fill="#4845ED"/>
<path opacity="0.5" d="M74.1579 77.8275C74.1579 81.7924 68.5132 88.8823 61.55 88.8823C54.5868 88.8823 48.9453 81.7797 48.9453 77.8275C48.9453 73.8752 54.5868 70.6424 61.55 70.6424C68.5132 70.6424 74.1579 73.8562 74.1579 77.8275Z" fill="white"/>
<path d="M78.855 108.964H42.3149V114.925H78.855V108.964Z" fill="white"/>
<path d="M69.3976 108.583H58.4727V115.115H69.3976V108.583Z" fill="#263238"/>
<path opacity="0.7" d="M69.3976 108.583H58.4727V115.115H69.3976V108.583Z" fill="white"/>
<path opacity="0.7" d="M63.046 108.583L59.8291 115.115H62.2125L65.5308 108.583H63.046Z" fill="white"/>
<path opacity="0.7" d="M66.5514 108.583L63.3345 115.115H65.0364L68.3548 108.583H66.5514Z" fill="white"/>
<path opacity="0.2" d="M73.0675 31.2563C72.9344 32.1532 72.234 33.3386 71.6064 34.245C71.7084 36.0588 71.602 37.8783 71.2895 39.6679C70.9094 41.7756 69.844 43.6988 68.2588 45.139C66.6737 46.5792 64.6573 47.4557 62.5229 47.6326C62.4834 48.3504 62.4834 49.0699 62.5229 49.7878C62.5675 50.7164 62.7513 51.633 63.0681 52.5071L71.7744 53.3945C71.5298 55.6927 70.6703 57.8824 69.2864 59.7333C69.185 59.8696 69.0804 60.0059 68.9695 60.139C65.8888 64.0405 60.3519 65.2513 55.7468 63.2007C54.2941 62.5694 52.8996 61.8122 51.579 60.9377C48.9674 59.1819 46.714 56.7414 45.6522 53.8763L53.75 52.8335C54.1684 51.6482 54.2635 49.8226 54.4536 48.3964C54.5868 47.4234 54.3839 45.3189 53.9846 43.3444C53.6806 43.1934 53.391 43.0152 53.1193 42.8119C53.1193 43.7405 52.4854 45.3474 52.4854 45.3474C49.5316 44.3744 47.0975 38.4667 46.7805 36.508C45.1356 39.5601 45.2814 37.8043 45.1546 36.508C44.9708 34.6412 44.9233 32.7047 45.5603 30.9457C46.0149 29.6376 46.9116 28.529 48.0958 27.8111C47.7789 25.6623 48.2163 21.6657 52.178 19.3679C60.7354 14.4173 66.5417 18.7593 67.4577 19.2094C68.0535 19.501 68.6811 19.7228 69.2516 20.062C69.8297 20.3923 70.3197 20.8572 70.6799 21.4172C71.0402 21.9772 71.2602 22.6158 71.3212 23.2789C71.3624 24.141 70.8806 25.1108 70.1897 25.7986C73.1309 26.1757 73.3084 29.6367 73.0675 31.2563Z" fill="white"/>
<path opacity="0.2" d="M66.9852 25.3422L66.8774 25.1615C66.9172 24.9265 66.9172 24.6866 66.8774 24.4516C66.9606 24.7408 66.997 25.0415 66.9852 25.3422Z" fill="white"/>
<path d="M5.08738 106.314C5.241 105.599 5.34688 104.875 5.40432 104.146C5.72126 101.696 7.16017 99.8008 8.98892 99.43L10.3106 99.1575C10.3106 99.1575 8.23777 99.1575 7.37252 98.5521C5.54061 97.2843 5.11908 93.4811 5.11908 93.4811C5.11908 93.4811 4.60563 97.2843 2.77055 98.5521C1.90531 99.1575 -0.16748 99.1575 -0.16748 99.1575L1.15416 99.43C2.98607 99.8008 4.43766 101.696 4.74192 104.146C4.80974 104.875 4.92514 105.6 5.08738 106.314Z" fill="#4845ED"/>
<g opacity="0.7">
<path opacity="0.7" d="M5.08738 106.314C5.241 105.599 5.34688 104.875 5.40432 104.146C5.72126 101.696 7.16017 99.8008 8.98892 99.43L10.3106 99.1575C10.3106 99.1575 8.23777 99.1575 7.37252 98.5521C5.54061 97.2843 5.11908 93.4811 5.11908 93.4811C5.11908 93.4811 4.60563 97.2843 2.77055 98.5521C1.90531 99.1575 -0.16748 99.1575 -0.16748 99.1575L1.15416 99.43C2.98607 99.8008 4.43766 101.696 4.74192 104.146C4.80974 104.875 4.92514 105.6 5.08738 106.314Z" fill="white"/>
</g>
<path d="M95.6338 78.8353C95.7708 78.2191 95.8661 77.5943 95.9191 76.9653C96.1821 74.8545 97.434 73.2223 99.0124 72.899L100.15 72.6676C100.15 72.6676 98.3627 72.6676 97.6147 72.1447C96.03 71.0386 95.6719 67.7709 95.6719 67.7709C95.6719 67.7709 95.2281 71.0386 93.6498 72.1447C92.905 72.6676 91.1143 72.6676 91.1143 72.6676L92.2552 72.899C93.8399 73.2159 95.0855 74.8545 95.3454 76.9653C95.4013 77.5942 95.4976 78.2188 95.6338 78.8353Z" fill="#4845ED"/>
<g opacity="0.7">
<path opacity="0.7" d="M95.6338 78.8353C95.7708 78.2191 95.8661 77.5943 95.9191 76.9653C96.1821 74.8545 97.434 73.2223 99.0124 72.899L100.15 72.6676C100.15 72.6676 98.3627 72.6676 97.6147 72.1447C96.03 71.0386 95.6719 67.7709 95.6719 67.7709C95.6719 67.7709 95.2281 71.0386 93.6498 72.1447C92.905 72.6676 91.1143 72.6676 91.1143 72.6676L92.2552 72.899C93.8399 73.2159 95.0855 74.8545 95.3454 76.9653C95.4013 77.5942 95.4976 78.2188 95.6338 78.8353Z" fill="white"/>
</g>
<path d="M32.1318 45.2238C32.1952 45.1984 32.3664 43.956 32.5502 42.4791C32.9337 39.3762 34.7688 36.977 37.092 36.5048L38.7654 36.1625C38.7654 36.1625 36.138 36.1625 35.0445 35.3955C32.7214 33.7727 32.1921 28.9743 32.1921 28.9743C32.1921 28.9743 31.5582 33.7727 29.2223 35.3955C28.1257 36.1625 25.5015 36.1625 25.5015 36.1625L27.1749 36.5048C29.4917 36.977 31.33 39.3762 31.7135 42.4791C31.8973 43.9687 32.0653 45.1984 32.1318 45.2238Z" fill="#4845ED"/>
<g opacity="0.7">
<path opacity="0.7" d="M32.1318 45.2238C32.1952 45.1984 32.3664 43.956 32.5502 42.4791C32.9337 39.3762 34.7688 36.977 37.092 36.5048L38.7654 36.1625C38.7654 36.1625 36.138 36.1625 35.0445 35.3955C32.7214 33.7727 32.1921 28.9743 32.1921 28.9743C32.1921 28.9743 31.5582 33.7727 29.2223 35.3955C28.1257 36.1625 25.5015 36.1625 25.5015 36.1625L27.1749 36.5048C29.4917 36.977 31.33 39.3762 31.7135 42.4791C31.8973 43.9687 32.0653 45.1984 32.1318 45.2238Z" fill="white"/>
</g>
<path d="M104.933 113.892C104.999 113.867 105.171 112.624 105.354 111.147C105.738 108.044 107.573 105.645 109.896 105.173L111.57 104.831C111.57 104.831 108.942 104.831 107.846 104.064C105.526 102.438 104.993 97.6393 104.993 97.6393C104.993 97.6393 104.359 102.438 102.02 104.064C100.927 104.831 98.2993 104.831 98.2993 104.831L99.9728 105.173C102.293 105.645 104.131 108.044 104.515 111.147C104.698 112.637 104.869 113.867 104.933 113.892Z" fill="#4845ED"/>
<g opacity="0.7">
<path opacity="0.7" d="M104.933 113.892C104.999 113.867 105.171 112.624 105.354 111.147C105.738 108.044 107.573 105.645 109.896 105.173L111.57 104.831C111.57 104.831 108.942 104.831 107.846 104.064C105.526 102.438 104.993 97.6393 104.993 97.6393C104.993 97.6393 104.359 102.438 102.02 104.064C100.927 104.831 98.2993 104.831 98.2993 104.831L99.9728 105.173C102.293 105.645 104.131 108.044 104.515 111.147C104.698 112.637 104.869 113.867 104.933 113.892Z" fill="white"/>
</g>
<path d="M78.2531 45.9654C78.3547 45.5079 78.4256 45.0442 78.4655 44.5772C78.6588 43.0115 79.5875 41.7977 80.7601 41.5568L81.6064 41.3856C81.6064 41.3856 80.2784 41.3856 79.7269 40.999C78.5511 40.1781 78.2817 37.7503 78.2817 37.7503C78.2817 37.7503 77.9647 40.1781 76.7825 40.999C76.2279 41.3856 74.8999 41.3856 74.8999 41.3856L75.7461 41.5568C76.9188 41.7977 77.8474 43.0115 78.0408 44.5772C78.0825 45.0439 78.1534 45.5076 78.2531 45.9654Z" fill="#4845ED"/>
<g opacity="0.7">
<path opacity="0.7" d="M78.2531 45.9654C78.3547 45.5079 78.4256 45.0442 78.4655 44.5772C78.6588 43.0115 79.5875 41.7977 80.7601 41.5568L81.6064 41.3856C81.6064 41.3856 80.2784 41.3856 79.7269 40.999C78.5511 40.1781 78.2817 37.7503 78.2817 37.7503C78.2817 37.7503 77.9647 40.1781 76.7825 40.999C76.2279 41.3856 74.8999 41.3856 74.8999 41.3856L75.7461 41.5568C76.9188 41.7977 77.8474 43.0115 78.0408 44.5772C78.0825 45.0439 78.1534 45.5076 78.2531 45.9654Z" fill="white"/>
</g>
<path d="M5.67354 65.4668C5.77691 65.0096 5.84787 64.5457 5.88589 64.0786C6.07922 62.5129 7.01102 61.299 8.18053 61.0581L9.02676 60.887C9.02676 60.887 7.69878 60.887 7.14731 60.5003C5.97463 59.6794 5.70523 57.2548 5.70523 57.2548C5.70523 57.2548 5.38829 59.6794 4.20293 60.5003C3.64829 60.887 2.32031 60.887 2.32031 60.887L3.16654 61.0581C4.33922 61.299 5.26785 62.5129 5.46119 64.0786C5.50288 64.5453 5.5738 65.0089 5.67354 65.4668Z" fill="#4845ED"/>
<g opacity="0.7">
<path opacity="0.7" d="M5.67354 65.4668C5.77691 65.0096 5.84787 64.5457 5.88589 64.0786C6.07922 62.5129 7.01102 61.299 8.18053 61.0581L9.02676 60.887C9.02676 60.887 7.69878 60.887 7.14731 60.5003C5.97463 59.6794 5.70523 57.2548 5.70523 57.2548C5.70523 57.2548 5.38829 59.6794 4.20293 60.5003C3.64829 60.887 2.32031 60.887 2.32031 60.887L3.16654 61.0581C4.33922 61.299 5.26785 62.5129 5.46119 64.0786C5.50288 64.5453 5.5738 65.0089 5.67354 65.4668Z" fill="white"/>
</g>
</g>
</svg>
