<svg width="75" height="31" viewBox="0 0 75 31" fill="none" xmlns="http://www.w3.org/2000/svg">
<g clip-path="url(#clip0_171_8)">
<mask id="mask0_171_8" style="mask-type:luminance" maskUnits="userSpaceOnUse" x="0" y="0" width="75" height="31">
<path d="M75 0H0V31H75V0Z" fill="white"/>
</mask>
<g mask="url(#mask0_171_8)">
<path opacity="0.995" fill-rule="evenodd" clip-rule="evenodd" d="M58.1249 -0.0429688C59.2082 -0.0429688 60.2915 -0.0429688 61.3749 -0.0429688C67.1449 0.811647 71.2699 3.93435 73.7499 9.32516C74.3905 10.9221 74.7933 12.5687 74.9582 14.2647C74.9582 15.0596 74.9582 15.8545 74.9582 16.6493C74.2416 22.8967 71.075 27.311 65.4582 29.8925C64.1224 30.3969 62.7613 30.7518 61.3749 30.957C60.2915 30.957 59.2082 30.957 58.1249 30.957C52.081 30.0181 47.8726 26.6683 45.4999 20.9076C43.6414 15.1608 44.558 9.93741 48.2499 5.23725C50.9007 2.22906 54.1924 0.468994 58.1249 -0.0429688Z" fill="#6B7280"/>
<path opacity="0.962" fill-rule="evenodd" clip-rule="evenodd" d="M-0.0419922 21.4184C-0.0419922 21.3616 -0.0419922 21.3048 -0.0419922 21.248C1.88834 17.3592 3.77722 13.4416 5.62468 9.4953C6.0969 9.38177 6.56912 9.38177 7.04134 9.4953C8.98068 13.4307 10.8974 17.3767 12.7914 21.3332C12.2379 21.4323 11.6824 21.4465 11.1247 21.3758C10.597 20.3254 10.0691 19.275 9.54134 18.2247C7.40191 18.1537 5.26303 18.168 3.12468 18.2673C2.62468 19.2892 2.12468 20.3112 1.62468 21.3332C1.07189 21.4181 0.516324 21.4465 -0.0419922 21.4184ZM6.29134 11.6244C7.18189 13.2882 8.043 14.9773 8.87468 16.6917C7.20732 16.7627 5.54065 16.7484 3.87468 16.6491C4.70382 14.9828 5.50938 13.3079 6.29134 11.6244Z" fill="#6B7280"/>
<path opacity="0.954" fill-rule="evenodd" clip-rule="evenodd" d="M15.291 9.41016C18.4021 9.41016 21.5133 9.41016 24.6244 9.41016C24.6244 9.89279 24.6244 10.3753 24.6244 10.8579C22.041 10.8579 19.4577 10.8579 16.8744 10.8579C16.8744 11.9934 16.8744 13.129 16.8744 14.2645C18.43 14.2645 19.9855 14.2645 21.541 14.2645C21.541 14.7471 21.541 15.2297 21.541 15.7123C19.9855 15.7123 18.43 15.7123 16.8744 15.7123C16.8744 17.6143 16.8744 19.5164 16.8744 21.4184C16.3466 21.4184 15.8188 21.4184 15.291 21.4184C15.291 17.4156 15.291 13.4129 15.291 9.41016Z" fill="#6B7280"/>
<path opacity="0.96" fill-rule="evenodd" clip-rule="evenodd" d="M27.291 9.41075C30.0167 9.37124 32.739 9.41382 35.4577 9.5385C37.1774 10.1414 37.9413 11.3763 37.7494 13.2431C37.478 14.8264 36.5752 15.8058 35.041 16.1813C36.0133 17.913 36.9855 19.6447 37.9577 21.3764C37.3538 21.4455 36.7565 21.4314 36.166 21.3338C35.2355 19.6588 34.305 17.984 33.3744 16.3091C31.8754 16.2239 30.3754 16.1955 28.8744 16.2239C28.8744 17.9556 28.8744 19.6873 28.8744 21.419C28.3466 21.419 27.8188 21.419 27.291 21.419C27.291 17.4162 27.291 13.4135 27.291 9.41075ZM28.8744 10.8585C30.819 10.8443 32.7635 10.8585 34.7077 10.9011C35.659 11.1396 36.159 11.7642 36.2077 12.7747C36.1714 13.6615 35.7547 14.2577 34.9577 14.5632C32.9343 14.6876 30.9065 14.7302 28.8744 14.6909C28.8744 13.4135 28.8744 12.136 28.8744 10.8585Z" fill="#6B7280"/>
<path opacity="0.929" fill-rule="evenodd" clip-rule="evenodd" d="M40.541 9.41016C41.0688 9.41016 41.5966 9.41016 42.1244 9.41016C42.1244 13.4412 42.1244 17.4724 42.1244 21.5035C41.5966 21.5035 41.0688 21.5035 40.541 21.5035C40.541 17.4724 40.541 13.4412 40.541 9.41016Z" fill="#6B7280"/>
<path fill-rule="evenodd" clip-rule="evenodd" d="M53.7078 16.394C53.7078 15.9682 53.7078 15.5424 53.7078 15.1166C55.1801 15.1166 56.6522 15.1166 58.1245 15.1166C58.1384 16.2809 58.1245 17.4447 58.0828 18.6083C56.6062 20.8637 54.5367 21.7864 51.8745 21.3762C49.3067 20.7674 47.7928 19.1352 47.3328 16.4792C46.9802 13.7234 47.9386 11.6084 50.2078 10.1344C51.6817 9.44935 53.2095 9.30738 54.7912 9.7086C56.1305 10.1125 57.1861 10.9074 57.9578 12.0932C57.5903 12.4016 57.2153 12.6997 56.8328 12.9874C55.9807 11.5365 54.7168 10.7984 53.0412 10.7732C50.7401 10.9244 49.3096 12.1452 48.7495 14.4352C48.4552 16.3437 48.9969 17.9476 50.3745 19.2471C52.1031 20.4088 53.8531 20.4372 55.6245 19.3322C56.0023 18.9746 56.3496 18.5914 56.6662 18.1825C56.7078 17.587 56.7217 16.9909 56.7078 16.394C55.7078 16.394 54.7078 16.394 53.7078 16.394Z" fill="#FCFEFD"/>
<path fill-rule="evenodd" clip-rule="evenodd" d="M65.3751 9.49484C67.863 9.17045 69.8491 10.0221 71.3334 12.0498C72.2099 13.6205 72.4599 15.2954 72.0834 17.0746C71.4862 19.2746 70.1112 20.6798 67.9584 21.2902C65.5265 21.8337 63.4848 21.1666 61.8334 19.2888C60.3633 16.9717 60.2521 14.5871 61.5001 12.135C62.4429 10.71 63.7346 9.82996 65.3751 9.49484Z" fill="#FCFEFD"/>
<path fill-rule="evenodd" clip-rule="evenodd" d="M65.8746 10.7733C68.5512 10.6703 70.1762 11.9478 70.7496 14.6057C71.0585 17.0268 70.1557 18.7727 68.0413 19.8433C65.9937 20.5164 64.2853 20.0196 62.9163 18.3529C61.5794 16.0195 61.7878 13.8478 63.5413 11.8378C64.2368 11.2752 65.0147 10.9203 65.8746 10.7733Z" fill="#6B7280"/>
<path fill-rule="evenodd" clip-rule="evenodd" d="M58.1251 15.1172C56.6528 15.1172 55.1807 15.1172 53.7084 15.1172C53.7084 15.543 53.7084 15.9688 53.7084 16.3946C53.6261 15.9569 53.5983 15.5026 53.6251 15.032C55.1396 15.0039 56.6396 15.0322 58.1251 15.1172Z" fill="#73CF9D"/>
</g>
</g>
<defs>
<clipPath id="clip0_171_8">
<rect width="75" height="31" fill="white"/>
</clipPath>
</defs>
</svg>
