<svg width="39" height="39" viewBox="0 0 39 39" fill="none" xmlns="http://www.w3.org/2000/svg">
<circle cx="19.5" cy="19.5" r="19.5" fill="#F9FAFB"/>
<path d="M24 28H29V26C29 25.3765 28.8057 24.7686 28.4441 24.2606C28.0826 23.7527 27.5718 23.37 26.9827 23.1658C26.3937 22.9615 25.7556 22.9459 25.1573 23.121C24.5589 23.2962 24.03 23.6534 23.644 24.143M24 28H14M24 28V26C24 25.344 23.874 24.717 23.644 24.143M23.644 24.143C23.2726 23.215 22.6318 22.4195 21.804 21.8591C20.9762 21.2988 19.9996 20.9993 19 20.9993C18.0004 20.9993 17.0238 21.2988 16.196 21.8591C15.3682 22.4195 14.7274 23.215 14.356 24.143M14 28H9V26C9.00005 25.3765 9.19434 24.7686 9.55586 24.2606C9.91739 23.7527 10.4282 23.37 11.0173 23.1658C11.6063 22.9615 12.2444 22.9459 12.8427 23.121C13.4411 23.2962 13.97 23.6534 14.356 24.143M14 28V26C14 25.344 14.126 24.717 14.356 24.143M22 15C22 15.7956 21.6839 16.5587 21.1213 17.1213C20.5587 17.6839 19.7956 18 19 18C18.2044 18 17.4413 17.6839 16.8787 17.1213C16.3161 16.5587 16 15.7956 16 15C16 14.2044 16.3161 13.4413 16.8787 12.8787C17.4413 12.3161 18.2044 12 19 12C19.7956 12 20.5587 12.3161 21.1213 12.8787C21.6839 13.4413 22 14.2044 22 15ZM28 18C28 18.5304 27.7893 19.0391 27.4142 19.4142C27.0391 19.7893 26.5304 20 26 20C25.4696 20 24.9609 19.7893 24.5858 19.4142C24.2107 19.0391 24 18.5304 24 18C24 17.4696 24.2107 16.9609 24.5858 16.5858C24.9609 16.2107 25.4696 16 26 16C26.5304 16 27.0391 16.2107 27.4142 16.5858C27.7893 16.9609 28 17.4696 28 18ZM14 18C14 18.5304 13.7893 19.0391 13.4142 19.4142C13.0391 19.7893 12.5304 20 12 20C11.4696 20 10.9609 19.7893 10.5858 19.4142C10.2107 19.0391 10 18.5304 10 18C10 17.4696 10.2107 16.9609 10.5858 16.5858C10.9609 16.2107 11.4696 16 12 16C12.5304 16 13.0391 16.2107 13.4142 16.5858C13.7893 16.9609 14 17.4696 14 18Z" stroke="#4845ed" stroke-width="2" stroke-linecap="round" stroke-linejoin="round"/>
</svg>
