<svg width="486" height="362" viewBox="0 0 486 362" fill="none" xmlns="http://www.w3.org/2000/svg">
<path d="M81.1556 79.5H391.844C395.466 79.5 398.94 80.936 401.501 83.4918C404.062 86.0476 405.5 89.5137 405.5 93.1277V274.872C405.5 278.486 404.062 281.952 401.501 284.508C398.94 287.064 395.466 288.5 391.844 288.5H81.1556C77.5336 288.5 74.0601 287.064 71.4993 284.508C68.9385 281.952 67.5 278.486 67.5 274.872V93.1277C67.5 89.5137 68.9385 86.0476 71.4993 83.4918C74.0601 80.936 77.5336 79.5 81.1556 79.5Z" stroke="#D3C9E6"/>
<path d="M225.703 0H10.4895C4.69629 0 0 4.69704 0 10.4911V136.135C0 141.929 4.69629 146.627 10.4895 146.627H225.703C231.496 146.627 236.193 141.929 236.193 136.135V10.4911C236.193 4.69704 231.496 0 225.703 0Z" fill="#F0F0F0"/>
<path d="M236.193 25.6592H0V52.5404H236.193V25.6592Z" fill="#4845ED"/>
<path opacity="0.3" d="M236.193 25.6592H0V52.5404H236.193V25.6592Z" fill="#4845ED"/>
<path d="M213.797 72.4991H22.3994V85.5317H213.797V72.4991Z" fill="#D6D6E3"/>
<path d="M38.2798 136.854C48.6262 136.854 57.0137 128.465 57.0137 118.117C57.0137 107.769 48.6262 99.3804 38.2798 99.3804C27.9333 99.3804 19.5459 107.769 19.5459 118.117C19.5459 128.465 27.9333 136.854 38.2798 136.854Z" fill="#4845ED"/>
<path d="M474.703 215H259.489C253.696 215 249 219.697 249 225.491V351.135C249 356.929 253.696 361.627 259.489 361.627H474.703C480.496 361.627 485.193 356.929 485.193 351.135V225.491C485.193 219.697 480.496 215 474.703 215Z" fill="#F0F0F0"/>
<path d="M485.193 240.659H249V267.54H485.193V240.659Z" fill="#4845ED"/>
<path opacity="0.3" d="M485.193 240.659H249V267.54H485.193V240.659Z" fill="#4845ED"/>
<path d="M462.797 287.499H271.399V300.532H462.797V287.499Z" fill="#D6D6E3"/>
<path d="M287.28 351.854C297.626 351.854 306.014 343.465 306.014 333.117C306.014 322.769 297.626 314.38 287.28 314.38C276.933 314.38 268.546 322.769 268.546 333.117C268.546 343.465 276.933 351.854 287.28 351.854Z" fill="#4845ED"/>
</svg>
