<svg width="28" height="28" viewBox="0 0 28 28" fill="none" xmlns="http://www.w3.org/2000/svg">
<path d="M3.49563 8.16414H24.5044" stroke="#081A46" stroke-width="1.38393" stroke-linecap="round" stroke-linejoin="round"/>
<path d="M10.4985 12.8327H7.55615" stroke="#081A46" stroke-width="1.38393" stroke-linecap="round" stroke-linejoin="round"/>
<path d="M11.6657 19.8356H6.99709C5.06328 19.8356 3.49563 18.268 3.49563 16.3342V6.99694C3.49563 5.06314 5.06328 3.49548 6.99709 3.49548H21.0029C22.9367 3.49548 24.5044 5.06314 24.5044 6.99694V10.4984" stroke="#081A46" stroke-width="1.38393" stroke-linecap="round" stroke-linejoin="round"/>
<path d="M15.1672 14.7002V22.6368C15.1685 23.6679 17.2574 24.5043 19.8358 24.5043C22.4142 24.5043 24.5031 23.6679 24.5044 22.6368V14.7002" stroke="#081A46" stroke-width="1.38393" stroke-linecap="round" stroke-linejoin="round"/>
<path d="M24.5031 14.7002C24.5031 15.7313 22.4128 16.5677 19.8344 16.5677C17.256 16.5677 15.1672 15.7313 15.1672 14.7002C15.1672 13.6678 17.2587 12.8328 19.8358 12.8328C22.4128 12.8328 24.5031 13.6691 24.5044 14.7002" stroke="#081A46" stroke-width="1.38393" stroke-linecap="round" stroke-linejoin="round"/>
<path d="M15.1678 18.6685C15.1678 19.6996 17.2567 20.5359 19.8351 20.5359C22.4135 20.5359 24.5037 19.6996 24.5037 18.6685" stroke="#081A46" stroke-width="1.38393" stroke-linecap="round" stroke-linejoin="round"/>
</svg>
