<svg width="28" height="28" viewBox="0 0 28 28" fill="none" xmlns="http://www.w3.org/2000/svg">
<path fill-rule="evenodd" clip-rule="evenodd" d="M13.9998 25.1998C16.9702 25.1998 19.819 24.0198 21.9194 21.9194C24.0198 19.819 25.1998 16.9702 25.1998 13.9998C25.1998 11.0294 24.0198 8.18062 21.9194 6.08021C19.819 3.9798 16.9702 2.7998 13.9998 2.7998C11.0294 2.7998 8.18062 3.9798 6.08021 6.08021C3.9798 8.18062 2.7998 11.0294 2.7998 13.9998C2.7998 16.9702 3.9798 19.819 6.08021 21.9194C8.18062 24.0198 11.0294 25.1998 13.9998 25.1998ZM19.1896 12.1896C19.4446 11.9256 19.5857 11.5719 19.5825 11.2048C19.5794 10.8378 19.4321 10.4866 19.1726 10.2271C18.913 9.96749 18.5618 9.82025 18.1948 9.81706C17.8277 9.81387 17.474 9.95498 17.21 10.21L12.5998 14.8202L10.7896 13.01C10.5256 12.755 10.1719 12.6139 9.80484 12.6171C9.43777 12.6203 9.08663 12.7675 8.82706 13.0271C8.56749 13.2866 8.42025 13.6378 8.41706 14.0048C8.41387 14.3719 8.55498 14.7256 8.81 14.9896L11.61 17.7896C11.8725 18.0521 12.2286 18.1995 12.5998 18.1995C12.971 18.1995 13.3271 18.0521 13.5896 17.7896L19.1896 12.1896Z" fill="#31C48D"/>
</svg>
