<svg width="20" height="20" viewBox="0 0 20 20" fill="none" xmlns="http://www.w3.org/2000/svg">
<path d="M10.3174 6.86032V10.0363L12.6994 12.4182M17.4633 10.0363C17.4633 10.9747 17.2785 11.9039 16.9193 12.7709C16.5602 13.6379 16.0339 14.4256 15.3703 15.0892C14.7068 15.7527 13.919 16.2791 13.052 16.6382C12.185 16.9973 11.2558 17.1822 10.3174 17.1822C9.37899 17.1822 8.44977 16.9973 7.58279 16.6382C6.71581 16.2791 5.92806 15.7527 5.2645 15.0892C4.60094 14.4256 4.07458 13.6379 3.71547 12.7709C3.35635 11.9039 3.17152 10.9747 3.17152 10.0363C3.17152 8.14106 3.92439 6.32348 5.2645 4.98336C6.60461 3.64325 8.4222 2.89038 10.3174 2.89038C12.2126 2.89038 14.0302 3.64325 15.3703 4.98336C16.7104 6.32348 17.4633 8.14106 17.4633 10.0363Z" stroke="#6B7280" stroke-width="0.952785" stroke-linecap="round" stroke-linejoin="round"/>
</svg>
