<svg width="35" height="35" viewBox="0 0 35 35" fill="none" xmlns="http://www.w3.org/2000/svg">
<path d="M10.209 23.3334C8.77255 23.335 7.38603 22.8065 6.31505 21.8492C5.24407 20.892 4.56395 19.5732 4.40498 18.1456C4.24602 16.718 4.61939 15.2819 5.45356 14.1125C6.28773 12.9431 7.52405 12.1226 8.92566 11.8081C8.52012 9.91682 8.88253 7.94186 9.93314 6.31774C10.9838 4.69361 12.6365 3.55336 14.5278 3.14783C16.4192 2.7423 18.3941 3.1047 20.0183 4.15532C21.6424 5.20593 22.7826 6.85869 23.1882 8.75002H23.334C25.1423 8.7482 26.8867 9.41835 28.2286 10.6304C29.5706 11.8424 30.4143 13.5098 30.5961 15.3089C30.7778 17.108 30.2845 18.9104 29.2121 20.3663C28.1396 21.8222 26.5644 22.8277 24.7923 23.1875M21.8757 18.9584L17.5007 14.5834M17.5007 14.5834L13.1257 18.9584M17.5007 14.5834V32.0834" stroke="#97A6BA" stroke-width="2" stroke-linecap="round" stroke-linejoin="round"/>
</svg>
