<svg width="224" height="210" viewBox="0 0 224 210" fill="none" xmlns="http://www.w3.org/2000/svg">
<g style="mix-blend-mode:multiply">
<circle cx="117.646" cy="69.0284" r="63.0284" fill="#F9FAFB"/>
</g>
<g style="mix-blend-mode:multiply" opacity="0.5">
<circle cx="146.71" cy="116.378" r="59.498" fill="#FAFAFA"/>
</g>
<g style="mix-blend-mode:multiply" opacity="0.8">
<circle cx="80.88" cy="90.4182" r="63.0284" fill="#FAFAFA"/>
</g>
<g filter="url(#filter0_d_1_110)">
<path opacity="0.22" d="M100.638 56.8271L103.807 67.0872C104.211 68.393 105.117 69.4849 106.326 70.1231C107.535 70.7613 108.948 70.8936 110.254 70.4909L120.51 67.3227L100.638 56.8271Z" fill="#444BE4"/>
<path d="M100.64 56.8271L63.9814 68.1536C63.3342 68.3524 62.7326 68.6769 62.211 69.1084C61.6894 69.54 61.258 70.0701 60.9414 70.6685C60.6249 71.267 60.4294 71.9219 60.3662 72.596C60.303 73.27 60.3734 73.9499 60.5732 74.5967L81.5021 142.351C81.7019 142.998 82.0271 143.599 82.4593 144.121C82.8914 144.642 83.422 145.073 84.0207 145.389C84.6195 145.705 85.2746 145.9 85.9488 145.963C86.6229 146.026 87.3028 145.955 87.9496 145.755L134.869 131.26C135.515 131.061 136.116 130.736 136.638 130.304C137.159 129.873 137.59 129.343 137.906 128.744C138.222 128.146 138.417 127.491 138.48 126.817C138.543 126.143 138.472 125.464 138.272 124.817L120.498 67.3227L100.64 56.8271Z" fill="#444BE4"/>
<path opacity="0.8" d="M100.64 56.8271L63.9814 68.1536C63.3342 68.3524 62.7326 68.6769 62.211 69.1084C61.6894 69.54 61.258 70.0701 60.9414 70.6685C60.6249 71.267 60.4294 71.9219 60.3662 72.596C60.303 73.27 60.3734 73.9499 60.5732 74.5967L81.5021 142.351C81.7019 142.998 82.0271 143.599 82.4593 144.121C82.8914 144.642 83.422 145.073 84.0207 145.389C84.6195 145.705 85.2746 145.9 85.9488 145.963C86.6229 146.026 87.3028 145.955 87.9496 145.755L134.869 131.26C135.515 131.061 136.116 130.736 136.638 130.304C137.159 129.873 137.59 129.343 137.906 128.744C138.222 128.146 138.417 127.491 138.48 126.817C138.543 126.143 138.472 125.464 138.272 124.817L120.498 67.3227L100.64 56.8271Z" fill="white"/>
<g opacity="0.28">
<path opacity="0.28" d="M120.368 128.301L89.8673 137.721C89.2969 137.896 88.6804 137.838 88.1525 137.56C87.6246 137.282 87.2282 136.806 87.0502 136.237V136.237C86.8765 135.666 86.9356 135.051 87.2145 134.524C87.4934 133.997 87.9694 133.601 88.5387 133.424L119.039 123.999C119.61 123.824 120.227 123.883 120.755 124.162C121.283 124.441 121.679 124.918 121.856 125.488V125.488C122.03 126.058 121.971 126.674 121.692 127.201C121.413 127.728 120.937 128.124 120.368 128.301V128.301Z" fill="#444BE4"/>
</g>
<g opacity="0.28">
<path opacity="0.28" d="M87.5409 73.0143L71.411 77.9954C70.8406 78.1694 70.2246 78.1111 69.697 77.8331C69.1694 77.5552 68.7729 77.0801 68.5938 76.5113V76.5113C68.4201 75.9403 68.479 75.3238 68.7578 74.7961C69.0367 74.2684 69.5128 73.8723 70.0824 73.6941L86.2123 68.713C86.7827 68.5365 87.3998 68.5938 87.928 68.872C88.4563 69.1503 88.8524 69.6269 89.0295 70.1971V70.1971C89.2033 70.7681 89.1443 71.3846 88.8655 71.9123C88.5867 72.44 88.1106 72.8361 87.5409 73.0143V73.0143Z" fill="#444BE4"/>
</g>
<g opacity="0.28">
<path opacity="0.28" d="M100.697 78.2974L74.0364 86.5312C73.4672 86.7021 72.8536 86.6417 72.3286 86.363C71.8037 86.0843 71.4098 85.6099 71.2326 85.0426C71.0575 84.4728 71.1154 83.8568 71.3936 83.3296C71.6718 82.8024 72.1475 82.407 72.7167 82.2299L99.3777 73.9961C99.9481 73.8209 100.565 73.8786 101.093 74.1567C101.62 74.4349 102.017 74.9107 102.195 75.4802V75.4802C102.367 76.0523 102.306 76.6693 102.026 77.1969C101.745 77.7245 101.268 78.12 100.697 78.2974Z" fill="#444BE4"/>
</g>
<g opacity="0.28">
<path opacity="0.28" d="M115.586 83.0476L76.6791 95.045C76.1093 95.2201 75.4934 95.1622 74.9662 94.884C74.439 94.6058 74.0435 94.1301 73.8664 93.5609C73.6924 92.9905 73.7508 92.3745 74.0287 91.8469C74.3066 91.3193 74.7817 90.9228 75.3505 90.7437L114.258 78.7463C114.828 78.5724 115.443 78.6309 115.97 78.9089C116.497 79.1869 116.892 79.6619 117.071 80.2304V80.2304C117.246 80.8008 117.188 81.4173 116.91 81.9453C116.632 82.4732 116.156 82.8695 115.586 83.0476V83.0476Z" fill="#444BE4"/>
</g>
<g opacity="0.28">
<path opacity="0.28" d="M118.227 91.5796L95.6093 98.5693C95.0389 98.7429 94.423 98.6839 93.896 98.405C93.369 98.1261 92.9737 97.65 92.7965 97.0807C92.6227 96.5109 92.6811 95.8955 92.9592 95.3686C93.2372 94.8417 93.7122 94.4461 94.2807 94.268L116.898 87.2783C117.469 87.1058 118.085 87.1653 118.612 87.4439C119.14 87.7226 119.536 88.198 119.715 88.7669V88.7669C119.889 89.3373 119.83 89.9532 119.551 90.4802C119.272 91.0072 118.796 91.4024 118.227 91.5796V91.5796Z" fill="#444BE4"/>
</g>
<g opacity="0.28">
<path opacity="0.28" d="M85.2308 101.773L79.3165 103.599C78.7461 103.774 78.1295 103.717 77.6016 103.439C77.0737 103.16 76.6774 102.685 76.4993 102.115V102.115C76.3243 101.544 76.3827 100.927 76.6617 100.399C76.9407 99.871 77.4175 99.4751 77.9878 99.2979L83.9021 97.4717C84.4725 97.2977 85.0886 97.356 85.6162 97.634C86.1438 97.9119 86.5402 98.387 86.7193 98.9558V98.9558C86.8919 99.5268 86.8324 100.143 86.5537 100.67C86.2751 101.198 85.7997 101.594 85.2308 101.773V101.773Z" fill="#444BE4"/>
</g>
<g opacity="0.28">
<path opacity="0.28" d="M120.865 100.115L81.9574 112.135C81.3871 112.308 80.7711 112.249 80.2441 111.97C79.7171 111.691 79.3219 111.215 79.1447 110.646V110.646C78.9696 110.076 79.0275 109.46 79.3057 108.933C79.5839 108.406 80.0597 108.011 80.6288 107.833L119.536 95.8137C120.106 95.6399 120.721 95.6983 121.248 95.9763C121.775 96.2544 122.171 96.7294 122.349 97.2979V97.2979C122.524 97.8682 122.466 98.4848 122.188 99.0127C121.91 99.5406 121.434 99.9369 120.865 100.115V100.115Z" fill="#444BE4"/>
</g>
<g opacity="0.28">
<path opacity="0.28" d="M108.489 113.287L84.5965 120.667C84.0267 120.841 83.4112 120.783 82.8844 120.505C82.3575 120.227 81.9619 119.752 81.7837 119.183V119.183C81.6098 118.613 81.6681 117.997 81.946 117.469C82.224 116.942 82.6991 116.545 83.2679 116.366L107.161 108.985C107.732 108.812 108.348 108.871 108.876 109.149C109.403 109.428 109.8 109.904 109.978 110.474V110.474C110.153 111.044 110.094 111.661 109.815 112.188C109.536 112.715 109.059 113.111 108.489 113.287Z" fill="#444BE4"/>
</g>
<g opacity="0.28">
<path opacity="0.28" d="M123.498 108.651L117.121 110.619C116.55 110.793 115.934 110.734 115.406 110.455C114.878 110.176 114.482 109.7 114.304 109.131V109.131C114.13 108.56 114.189 107.944 114.468 107.417C114.747 106.89 115.223 106.495 115.793 106.318L122.169 104.35C122.739 104.174 123.355 104.232 123.882 104.511C124.409 104.789 124.805 105.264 124.982 105.834V105.834C125.157 106.404 125.099 107.021 124.821 107.549C124.543 108.076 124.067 108.473 123.498 108.651V108.651Z" fill="#444BE4"/>
</g>
<g opacity="0.28">
<path opacity="0.28" d="M126.132 117.192L87.2337 129.19C86.6627 129.365 86.0456 129.306 85.5176 129.027C84.9896 128.748 84.5936 128.272 84.4165 127.701V127.701C84.2416 127.131 84.3001 126.514 84.5792 125.987C84.8582 125.46 85.3351 125.065 85.905 124.888L124.808 112.869C125.379 112.696 125.995 112.756 126.522 113.034C127.05 113.313 127.446 113.788 127.625 114.357V114.357C127.714 114.642 127.746 114.941 127.72 115.237C127.693 115.534 127.608 115.822 127.469 116.086C127.33 116.349 127.14 116.583 126.911 116.773C126.682 116.963 126.417 117.105 126.132 117.192V117.192Z" fill="#444BE4"/>
</g>
<path d="M142.811 61.7501L104.517 64.114C103.841 64.1542 103.179 64.3274 102.569 64.6238C101.96 64.9201 101.414 65.3337 100.965 65.841C100.516 66.3482 100.171 66.9391 99.9497 67.5799C99.7289 68.2206 99.6366 68.8986 99.6781 69.5751L104.046 140.351C104.087 141.028 104.261 141.69 104.558 142.3C104.855 142.91 105.27 143.455 105.778 143.904C106.286 144.353 106.878 144.697 107.519 144.917C108.161 145.137 108.839 145.228 109.516 145.186L158.528 142.16C159.204 142.119 159.865 141.945 160.473 141.649C161.082 141.352 161.626 140.938 162.074 140.431C162.522 139.923 162.866 139.333 163.086 138.692C163.305 138.052 163.396 137.374 163.353 136.699L159.665 76.6358L142.811 61.7501Z" fill="#444BE4"/>
<path opacity="0.8" d="M142.811 61.7501L104.517 64.114C103.841 64.1542 103.179 64.3274 102.569 64.6238C101.96 64.9201 101.414 65.3337 100.965 65.841C100.516 66.3482 100.171 66.9391 99.9497 67.5799C99.7289 68.2206 99.6366 68.8986 99.6781 69.5751L104.046 140.351C104.087 141.028 104.261 141.69 104.558 142.3C104.855 142.91 105.27 143.455 105.778 143.904C106.286 144.353 106.878 144.697 107.519 144.917C108.161 145.137 108.839 145.228 109.516 145.186L158.528 142.16C159.204 142.119 159.865 141.945 160.473 141.649C161.082 141.352 161.626 140.938 162.074 140.431C162.522 139.923 162.866 139.333 163.086 138.692C163.305 138.052 163.396 137.374 163.353 136.699L159.665 76.6358L142.811 61.7501Z" fill="white"/>
<g opacity="0.22">
<path opacity="0.22" d="M145.118 135.855L113.254 137.823C112.659 137.857 112.074 137.654 111.628 137.259C111.181 136.863 110.91 136.307 110.872 135.712V135.712C110.838 135.117 111.04 134.533 111.434 134.086C111.829 133.639 112.384 133.366 112.978 133.326L144.843 131.362C145.438 131.327 146.023 131.528 146.47 131.923C146.917 132.318 147.19 132.873 147.229 133.468V133.468C147.264 134.064 147.062 134.65 146.666 135.097C146.271 135.544 145.714 135.817 145.118 135.855V135.855Z" fill="#444BE4"/>
</g>
<g opacity="0.22">
<path opacity="0.22" d="M126.27 74.3927L109.415 75.4236C108.82 75.4577 108.236 75.2556 107.789 74.8612C107.342 74.4668 107.069 73.912 107.029 73.3173V73.3173C106.995 72.7216 107.198 72.1366 107.593 71.6896C107.989 71.2427 108.544 70.9701 109.14 70.9312L125.994 69.8914C126.589 69.8561 127.174 70.0579 127.62 70.4527C128.066 70.8474 128.338 71.4029 128.376 71.9976C128.414 72.5944 128.213 73.1818 127.818 73.6308C127.423 74.0798 126.866 74.3538 126.27 74.3927V74.3927Z" fill="#444BE4"/>
</g>
<g opacity="0.22">
<path opacity="0.22" d="M137.81 82.6307L109.962 84.3459C109.367 84.3824 108.781 84.1812 108.334 83.7863C107.886 83.3914 107.614 82.8352 107.576 82.2397V82.2397C107.541 81.6437 107.743 81.058 108.139 80.6108C108.534 80.1636 109.091 79.8913 109.687 79.8536L137.53 78.1384C138.125 78.1019 138.711 78.3031 139.159 78.698C139.606 79.0929 139.878 79.6491 139.916 80.2446V80.2446C139.951 80.8399 139.75 81.4249 139.355 81.872C138.96 82.3191 138.405 82.5919 137.81 82.6307V82.6307Z" fill="#444BE4"/>
</g>
<g opacity="0.22">
<path opacity="0.22" d="M151.158 90.758L110.518 93.2641C109.921 93.3007 109.333 93.0991 108.885 92.7035C108.436 92.3079 108.162 91.7505 108.123 91.1535V91.1535C108.088 90.5586 108.29 89.9741 108.684 89.5277C109.079 89.0813 109.635 88.8095 110.229 88.7718L150.874 86.2612C151.469 86.2271 152.054 86.43 152.5 86.8254C152.946 87.2209 153.218 87.7768 153.256 88.3718V88.3718C153.291 88.9657 153.091 89.5495 152.698 89.9963C152.305 90.4432 151.752 90.7169 151.158 90.758V90.758Z" fill="#444BE4"/>
</g>
<g opacity="0.22">
<path opacity="0.22" d="M151.704 99.6709L128.078 101.128C127.483 101.164 126.898 100.962 126.451 100.567C126.004 100.173 125.731 99.6172 125.692 99.0221C125.655 98.4265 125.857 97.8408 126.252 97.3934C126.646 96.9461 127.203 96.6737 127.798 96.6359L151.424 95.1785C152.02 95.142 152.605 95.3433 153.053 95.7381C153.5 96.133 153.773 96.6892 153.81 97.2847C153.846 97.88 153.644 98.4651 153.249 98.9122C152.855 99.3592 152.299 99.632 151.704 99.6709Z" fill="#444BE4"/>
</g>
<g opacity="0.22">
<path opacity="0.22" d="M117.243 101.795L111.062 102.178C110.467 102.213 109.882 102.011 109.436 101.616C108.99 101.222 108.718 100.666 108.68 100.071V100.071C108.645 99.4761 108.847 98.891 109.241 98.4439C109.636 97.9969 110.191 97.7241 110.786 97.6852L116.967 97.3031C117.563 97.269 118.148 97.4717 118.595 97.867C119.042 98.2624 119.315 98.8183 119.353 99.4138C119.387 100.009 119.185 100.594 118.789 101.04C118.394 101.486 117.838 101.758 117.243 101.795V101.795Z" fill="#444BE4"/>
</g>
<g opacity="0.22">
<path opacity="0.22" d="M152.257 108.585L111.613 111.091C111.017 111.126 110.432 110.925 109.985 110.53C109.538 110.135 109.265 109.58 109.227 108.985C109.193 108.389 109.395 107.804 109.791 107.357C110.186 106.91 110.742 106.637 111.337 106.599L151.978 104.092C152.574 104.057 153.159 104.259 153.606 104.655C154.054 105.051 154.326 105.607 154.364 106.203C154.399 106.798 154.197 107.382 153.802 107.829C153.408 108.275 152.852 108.547 152.257 108.585V108.585Z" fill="#444BE4"/>
</g>
<g opacity="0.22">
<path opacity="0.22" d="M137.119 118.468L112.16 120.009C111.564 120.043 110.979 119.841 110.532 119.445C110.085 119.05 109.812 118.494 109.773 117.899V117.899C109.739 117.303 109.942 116.719 110.338 116.273C110.733 115.826 111.289 115.555 111.884 115.517L136.843 113.975C137.438 113.941 138.023 114.144 138.469 114.539C138.915 114.935 139.187 115.491 139.225 116.086V116.086C139.261 116.681 139.06 117.266 138.665 117.713C138.27 118.159 137.714 118.431 137.119 118.468V118.468Z" fill="#444BE4"/>
</g>
<g opacity="0.22">
<path opacity="0.22" d="M152.805 117.503L146.14 117.912C145.545 117.947 144.96 117.745 144.514 117.35C144.067 116.956 143.796 116.4 143.758 115.805V115.805C143.721 115.21 143.923 114.624 144.317 114.177C144.712 113.729 145.269 113.457 145.864 113.419L152.529 113.01C153.125 112.974 153.711 113.175 154.158 113.57C154.605 113.965 154.878 114.521 154.915 115.117C154.95 115.712 154.747 116.297 154.351 116.744C153.956 117.191 153.4 117.464 152.805 117.503Z" fill="#444BE4"/>
</g>
<g opacity="0.22">
<path opacity="0.22" d="M153.352 126.417L112.712 128.923C112.116 128.958 111.531 128.756 111.084 128.362C110.637 127.967 110.364 127.412 110.326 126.817V126.817C110.29 126.221 110.492 125.636 110.887 125.189C111.281 124.742 111.837 124.469 112.432 124.43L153.076 121.924C153.671 121.889 154.256 122.091 154.702 122.486C155.149 122.88 155.42 123.436 155.458 124.031C155.495 124.626 155.293 125.212 154.899 125.659C154.504 126.107 153.947 126.379 153.352 126.417Z" fill="#444BE4"/>
</g>
<path opacity="0.22" d="M142.808 61.7501L143.47 72.4678C143.511 73.1435 143.685 73.8045 143.982 74.413C144.279 75.0215 144.693 75.5656 145.2 76.0141C145.707 76.4626 146.297 76.8069 146.938 77.0271C147.578 77.2474 148.255 77.3394 148.931 77.2979L159.662 76.6358L142.808 61.7501Z" fill="#444BE4"/>
</g>
<defs>
<filter id="filter0_d_1_110" x="0.34375" y="0.827148" width="223.02" height="209.158" filterUnits="userSpaceOnUse" color-interpolation-filters="sRGB">
<feFlood flood-opacity="0" result="BackgroundImageFix"/>
<feColorMatrix in="SourceAlpha" type="matrix" values="0 0 0 0 0 0 0 0 0 0 0 0 0 0 0 0 0 0 127 0" result="hardAlpha"/>
<feOffset dy="4"/>
<feGaussianBlur stdDeviation="30"/>
<feColorMatrix type="matrix" values="0 0 0 0 0.407843 0 0 0 0 0.458824 0 0 0 0 0.509804 0 0 0 0.05 0"/>
<feBlend mode="normal" in2="BackgroundImageFix" result="effect1_dropShadow_1_110"/>
<feBlend mode="normal" in="SourceGraphic" in2="effect1_dropShadow_1_110" result="shape"/>
</filter>
</defs>
</svg>
