<svg width="24" height="24" viewBox="0 0 24 24" fill="none" xmlns="http://www.w3.org/2000/svg">
<path d="M4.7999 4.7998C4.16338 4.7998 3.55293 5.05266 3.10285 5.50275C2.65276 5.95284 2.3999 6.56328 2.3999 7.1998V8.3998H21.5999V7.1998C21.5999 6.56328 21.347 5.95284 20.897 5.50275C20.4469 5.05266 19.8364 4.7998 19.1999 4.7998H4.7999Z" fill="#081A46"/>
<path fill-rule="evenodd" clip-rule="evenodd" d="M21.5999 10.7998H2.3999V16.7998C2.3999 17.4363 2.65276 18.0468 3.10285 18.4969C3.55293 18.9469 4.16338 19.1998 4.7999 19.1998H19.1999C19.8364 19.1998 20.4469 18.9469 20.897 18.4969C21.347 18.0468 21.5999 17.4363 21.5999 16.7998V10.7998ZM4.7999 15.5998C4.7999 15.2815 4.92633 14.9763 5.15137 14.7513C5.37642 14.5262 5.68164 14.3998 5.9999 14.3998H7.1999C7.51816 14.3998 7.82339 14.5262 8.04843 14.7513C8.27347 14.9763 8.3999 15.2815 8.3999 15.5998C8.3999 15.9181 8.27347 16.2233 8.04843 16.4483C7.82339 16.6734 7.51816 16.7998 7.1999 16.7998H5.9999C5.68164 16.7998 5.37642 16.6734 5.15137 16.4483C4.92633 16.2233 4.7999 15.9181 4.7999 15.5998ZM10.7999 14.3998C10.4816 14.3998 10.1764 14.5262 9.95137 14.7513C9.72633 14.9763 9.5999 15.2815 9.5999 15.5998C9.5999 15.9181 9.72633 16.2233 9.95137 16.4483C10.1764 16.6734 10.4816 16.7998 10.7999 16.7998H11.9999C12.3182 16.7998 12.6234 16.6734 12.8484 16.4483C13.0735 16.2233 13.1999 15.9181 13.1999 15.5998C13.1999 15.2815 13.0735 14.9763 12.8484 14.7513C12.6234 14.5262 12.3182 14.3998 11.9999 14.3998H10.7999Z" fill="#081A46"/>
</svg>
