<svg width="24" height="24" viewBox="0 0 24 24" fill="none" xmlns="http://www.w3.org/2000/svg">
<path d="M10.1192 8.90158C10.3052 8.77798 10.5344 8.66638 10.7996 8.58118V10.6188C10.5593 10.5435 10.3304 10.4357 10.1192 10.2984C9.68361 10.008 9.59961 9.73678 9.59961 9.59998C9.59961 9.46318 9.68361 9.19198 10.1192 8.90158ZM13.1996 15.4188V13.3812C13.4636 13.4664 13.694 13.578 13.88 13.7016C14.3168 13.9932 14.3996 14.2632 14.3996 14.4C14.3996 14.5368 14.3156 14.808 13.88 15.0984C13.6689 15.2357 13.4399 15.3435 13.1996 15.4188Z" fill="#081A46"/>
<path fill-rule="evenodd" clip-rule="evenodd" d="M12.0004 21.6C14.5465 21.6 16.9883 20.5886 18.7886 18.7882C20.589 16.9879 21.6004 14.5461 21.6004 12C21.6004 9.45395 20.589 7.01215 18.7886 5.2118C16.9883 3.41145 14.5465 2.40002 12.0004 2.40002C9.45431 2.40002 7.01251 3.41145 5.21217 5.2118C3.41182 7.01215 2.40039 9.45395 2.40039 12C2.40039 14.5461 3.41182 16.9879 5.21217 18.7882C7.01251 20.5886 9.45431 21.6 12.0004 21.6ZM13.2004 6.00002C13.2004 5.68176 13.074 5.37654 12.8489 5.1515C12.6239 4.92645 12.3187 4.80002 12.0004 4.80002C11.6821 4.80002 11.3769 4.92645 11.1519 5.1515C10.9268 5.37654 10.8004 5.68176 10.8004 6.00002V6.11042C10.0836 6.23802 9.3997 6.50816 8.78919 6.90482C7.92279 7.48082 7.20039 8.41082 7.20039 9.60002C7.20039 10.788 7.92279 11.718 8.78919 12.2952C9.36519 12.6792 10.054 12.9492 10.8004 13.0896V15.4188C10.3312 15.2664 9.98439 15.0384 9.78879 14.814C9.68727 14.6895 9.56177 14.5865 9.41972 14.5114C9.27768 14.4362 9.12199 14.3904 8.96188 14.3765C8.80178 14.3627 8.64053 14.3812 8.4877 14.4308C8.33487 14.4805 8.19356 14.5603 8.07218 14.6657C7.95079 14.771 7.8518 14.8996 7.78106 15.0439C7.71032 15.1882 7.66929 15.3452 7.66039 15.5057C7.6515 15.6661 7.67492 15.8267 7.72927 15.9779C7.78362 16.1292 7.86779 16.2679 7.97679 16.386C8.65119 17.1648 9.67239 17.6772 10.8004 17.8896V18C10.8004 18.3183 10.9268 18.6235 11.1519 18.8486C11.3769 19.0736 11.6821 19.2 12.0004 19.2C12.3187 19.2 12.6239 19.0736 12.8489 18.8486C13.074 18.6235 13.2004 18.3183 13.2004 18V17.8896C13.9172 17.762 14.6011 17.4919 15.2116 17.0952C16.078 16.5192 16.8004 15.5892 16.8004 14.4C16.8004 13.212 16.078 12.282 15.2116 11.7048C14.6011 11.3082 13.9172 11.038 13.2004 10.9104V8.58122C13.6696 8.73362 14.0164 8.96162 14.212 9.18602C14.3145 9.3076 14.4401 9.4076 14.5815 9.48021C14.7229 9.55283 14.8774 9.59661 15.0359 9.60902C15.1944 9.62142 15.3538 9.60221 15.5049 9.55248C15.6559 9.50276 15.7955 9.42352 15.9156 9.31937C16.0358 9.21521 16.134 9.08823 16.2046 8.94578C16.2753 8.80334 16.3169 8.64828 16.3271 8.48961C16.3373 8.33094 16.3158 8.17183 16.264 8.02152C16.2122 7.87121 16.131 7.73269 16.0252 7.61402C15.3496 6.83522 14.3296 6.32282 13.2004 6.11042V6.00002Z" fill="#081A46"/>
</svg>
