<svg width="43" height="43" viewBox="0 0 43 43" fill="none" xmlns="http://www.w3.org/2000/svg">
<circle cx="21.5" cy="21.5" r="21.5" fill="#F9FAFB"/>
<path d="M12.8245 19.8657H30.9298M16.8479 24.8949H17.8538M21.8772 24.8949H22.883M15.8421 28.9183H27.9122C28.7125 28.9183 29.4801 28.6004 30.046 28.0345C30.6119 27.4686 30.9298 26.7011 30.9298 25.9008V17.854C30.9298 17.0537 30.6119 16.2861 30.046 15.7202C29.4801 15.1543 28.7125 14.8364 27.9122 14.8364H15.8421C15.0418 14.8364 14.2742 15.1543 13.7083 15.7202C13.1424 16.2861 12.8245 17.0537 12.8245 17.854V25.9008C12.8245 26.7011 13.1424 27.4686 13.7083 28.0345C14.2742 28.6004 15.0418 28.9183 15.8421 28.9183Z" stroke="#081A46" stroke-width="1.5" stroke-linecap="round" stroke-linejoin="round"/>
</svg>
