<svg width="43" height="43" viewBox="0 0 43 43" fill="none" xmlns="http://www.w3.org/2000/svg">
<circle cx="21.5" cy="21.5" r="21.5" fill="#F9FAFB"/>
<path d="M21.4159 17.3932C19.7495 17.3932 18.3989 18.2933 18.3989 19.4046C18.3989 20.5158 19.7495 21.4159 21.4159 21.4159C23.0823 21.4159 24.4329 22.316 24.4329 23.4272C24.4329 24.5385 23.0823 25.4386 21.4159 25.4386M21.4159 17.3932V25.4386M21.4159 17.3932C22.5322 17.3932 23.5077 17.7975 24.0296 18.3989M21.4159 17.3932V16.3875M21.4159 25.4386V26.4443M21.4159 25.4386C20.2996 25.4386 19.3241 25.0343 18.8021 24.4329M30.4669 21.4159C30.4669 22.6045 30.2328 23.7815 29.7779 24.8796C29.3231 25.9777 28.6564 26.9755 27.8159 27.8159C26.9755 28.6564 25.9777 29.3231 24.8796 29.778C23.7814 30.2328 22.6045 30.4669 21.4159 30.4669C20.2273 30.4669 19.0503 30.2328 17.9522 29.778C16.8541 29.3231 15.8563 28.6564 15.0158 27.8159C14.1754 26.9755 13.5087 25.9777 13.0538 24.8796C12.5989 23.7815 12.3648 22.6045 12.3648 21.4159C12.3648 19.0154 13.3184 16.7133 15.0158 15.0159C16.7132 13.3185 19.0154 12.3649 21.4159 12.3649C23.8164 12.3649 26.1185 13.3185 27.8159 15.0159C29.5133 16.7133 30.4669 19.0154 30.4669 21.4159Z" stroke="#4845ED" stroke-width="1.5" stroke-linecap="round" stroke-linejoin="round"/>
</svg>
