<svg width="43" height="43" viewBox="0 0 43 43" fill="none" xmlns="http://www.w3.org/2000/svg">
<circle cx="21.5" cy="21.5" r="21.5" fill="#F9FAFB"/>
<path d="M24.2604 19.232C25.0148 18.4776 25.4386 17.4544 25.4386 16.3875C25.4386 15.3207 25.0148 14.2975 24.2604 13.5431C23.506 12.7887 22.4828 12.3649 21.4159 12.3649C20.349 12.3649 19.3258 12.7887 18.5714 13.5431C17.817 14.2975 17.3932 15.3207 17.3932 16.3875C17.3932 17.4544 17.817 18.4776 18.5714 19.232C19.3258 19.9864 20.349 20.4102 21.4159 20.4102C22.4828 20.4102 23.506 19.9864 24.2604 19.232Z" stroke="#081A46" stroke-width="1.5" stroke-linecap="round" stroke-linejoin="round"/>
<path d="M16.4381 25.4891C17.7583 24.1689 19.5489 23.4272 21.4159 23.4272C23.283 23.4272 25.0735 24.1689 26.3937 25.4891C27.7139 26.8093 28.4556 28.5999 28.4556 30.4669H14.3762C14.3762 28.5999 15.1179 26.8093 16.4381 25.4891Z" stroke="#081A46" stroke-width="1.5" stroke-linecap="round" stroke-linejoin="round"/>
</svg>
