<svg width="43" height="43" viewBox="0 0 43 43" fill="none" xmlns="http://www.w3.org/2000/svg">
<circle cx="21.5" cy="21.5" r="21.5" fill="#F9FAFB"/>
<path d="M27 18V16C27 15.4696 26.7893 14.9609 26.4142 14.5858C26.0391 14.2107 25.5304 14 25 14H15C14.4696 14 13.9609 14.2107 13.5858 14.5858C13.2107 14.9609 13 15.4696 13 16V22C13 22.5304 13.2107 23.0391 13.5858 23.4142C13.9609 23.7893 14.4696 24 15 24H17M19 28H29C29.5304 28 30.0391 27.7893 30.4142 27.4142C30.7893 27.0391 31 26.5304 31 26V20C31 19.4696 30.7893 18.9609 30.4142 18.5858C30.0391 18.2107 29.5304 18 29 18H19C18.4696 18 17.9609 18.2107 17.5858 18.5858C17.2107 18.9609 17 19.4696 17 20V26C17 26.5304 17.2107 27.0391 17.5858 27.4142C17.9609 27.7893 18.4696 28 19 28ZM26 23C26 23.5304 25.7893 24.0391 25.4142 24.4142C25.0391 24.7893 24.5304 25 24 25C23.4696 25 22.9609 24.7893 22.5858 24.4142C22.2107 24.0391 22 23.5304 22 23C22 22.4696 22.2107 21.9609 22.5858 21.5858C22.9609 21.2107 23.4696 21 24 21C24.5304 21 25.0391 21.2107 25.4142 21.5858C25.7893 21.9609 26 22.4696 26 23Z" stroke="#081A46" stroke-width="1.5" stroke-linecap="round" stroke-linejoin="round"/>
</svg>
