<svg width="24" height="24" viewBox="0 0 24 24" fill="none" xmlns="http://www.w3.org/2000/svg">
<path d="M16 17L19 17C19.5304 17 20.0391 16.7893 20.4142 16.4142C20.7893 16.0391 21 15.5304 21 15L21 6C21 5.46957 20.7893 4.96086 20.4142 4.58579C20.0391 4.21072 19.5304 4 19 4L5 4C4.46957 4 3.96086 4.21072 3.58579 4.58579C3.21072 4.96086 3 5.46957 3 6L3 15C3 15.5304 3.21071 16.0391 3.58579 16.4142C3.96086 16.7893 4.46957 17 5 17L8 17M9 13L12 10M12 10L15 13M12 10L12 20" stroke="#444BE4" stroke-width="1.5" stroke-linecap="round" stroke-linejoin="round"/>
</svg>
