<svg version="1.1" xmlns="http://www.w3.org/2000/svg" viewBox="0 0 32 32" xmlns:xlink="http://www.w3.org/1999/xlink" enable-background="new 0 0 512 512" fill="#081A46" width="28" height="32"><g><g><path d="m18.106 4.756 3.456 2.987h-3.456V4.756zm6.681 21.294c-0.706 0 -1.281 0.569 -1.281 1.275v1.438H4.494V3.237h11.056v5.775c0 0.706 0.575 1.275 1.281 1.275h6.681V17.938c0 0.706 0.575 1.275 1.281 1.275s1.281 -0.569 1.281 -1.275V8.838c0 -0.369 -0.163 -0.725 -0.444 -0.963L17.669 1c-0.231 -0.2 -0.531 -0.313 -0.838 -0.313H3.219C2.513 0.688 1.938 1.256 1.938 1.962v28.075c0 0.706 0.575 1.275 1.281 1.275h21.575c0.706 0 1.281 -0.569 1.281 -1.275v-2.712c-0.006 -0.706 -0.581 -1.275 -1.288 -1.275z"/><path d="M19.106 12.431h-10.125c-0.706 0 -1.281 0.569 -1.281 1.275s0.575 1.275 1.281 1.275h10.131c0.706 0 1.281 -0.569 1.281 -1.275s-0.581 -1.275 -1.288 -1.275z"/><path d="M19.106 18.712h-10.125c-0.706 0 -1.281 0.569 -1.281 1.275 0 0.706 0.575 1.275 1.281 1.275h10.131c0.706 0 1.281 -0.569 1.281 -1.275 -0.006 -0.7 -0.581 -1.275 -1.288 -1.275z"/><path d="M30.056 19.844c-0.063 -0.7 -0.688 -1.219 -1.387 -1.156 -2.888 0.256 -5.631 3.413 -7.044 5.331l-0.831 -0.944c-0.469 -0.531 -1.275 -0.581 -1.806 -0.113 -0.531 0.469 -0.581 1.275 -0.113 1.8l1.919 2.175c0.75 0.744 1.575 0.606 2.044 -0.169 0.838 -1.381 3.794 -5.338 6.056 -5.537 0.706 -0.069 1.225 -0.688 1.163 -1.387z"/></g></g></svg>