<svg width="253" height="253" viewBox="0 0 253 253" fill="none" xmlns="http://www.w3.org/2000/svg">
<path d="M86.5261 72.0351C86.5261 72.0351 111.252 90.798 148.841 55.7144C182.225 24.5574 209.482 73.7163 209.673 97.258C209.92 127.754 176.29 152.155 192.61 172.185C208.931 192.215 160.244 225.291 134.004 196.666C101.363 161.057 92.5202 189.989 73.9147 189.989C60.5613 189.989 33.1456 156.809 51.6592 132.125C67.238 111.353 58.7416 104.459 54.6266 97.258C48.6918 86.8721 62.787 58.6818 86.5261 72.0351Z" fill="#F1F5F9"/>
<path d="M183.994 157.934L93.2139 185.806C91.7098 186.267 90.084 186.112 88.6942 185.374C87.3044 184.637 86.2643 183.378 85.8028 181.874L75.1869 147.304L66.3738 118.594L66.2031 118.045L67.4122 116.65L106.864 71.1611C107.044 70.9505 107.281 70.7954 107.546 70.714C107.812 70.6326 108.095 70.628 108.362 70.701L166.568 86.228L168.326 86.6953L168.868 88.446L187.926 150.517C188.386 152.022 188.231 153.648 187.493 155.038C186.756 156.429 185.498 157.47 183.994 157.934Z" fill="#252F3F"/>
<path d="M168.868 88.4456L134.461 128.98V126.755L166.568 86.2275L168.326 86.6948L168.868 88.4456Z" fill="#252F3F"/>
<path d="M184.099 157.899C184.032 157.922 183.959 157.922 183.892 157.899L128.327 137.268C128.282 137.251 128.242 137.224 128.21 137.189C128.177 137.153 128.154 137.111 128.141 137.065C128.128 137.018 128.126 136.97 128.135 136.923C128.144 136.876 128.164 136.832 128.194 136.794L137.482 125.206L167.972 87.1424C168.005 87.0992 168.05 87.0659 168.101 87.0464C168.152 87.0269 168.207 87.0219 168.261 87.0318C168.315 87.0418 168.364 87.0664 168.405 87.1029C168.446 87.1395 168.475 87.1865 168.491 87.2388L187.794 150.117L187.92 150.518C188.379 152.004 188.235 153.61 187.52 154.991C186.806 156.371 185.577 157.416 184.099 157.899Z" fill="#9FA6B2"/>
<path d="M124.78 134.937L124.276 135.991L66.7521 118.216C66.6996 118.2 66.6435 118.198 66.5901 118.211C66.5367 118.225 66.4878 118.252 66.4489 118.291C66.41 118.33 66.3824 118.379 66.3692 118.432C66.3559 118.486 66.3575 118.542 66.3738 118.594L66.2031 118.045L67.4122 116.651L124.78 134.937Z" fill="#252F3F"/>
<path d="M127.695 137.46L93.2808 185.717C93.2412 185.777 93.1801 185.819 93.1101 185.836C91.616 186.265 90.0129 186.091 88.6461 185.35C87.2794 184.609 86.2583 183.361 85.8029 181.874L75.187 147.304L66.3738 118.594C66.3576 118.542 66.356 118.486 66.3692 118.432C66.3825 118.379 66.41 118.33 66.449 118.291C66.4879 118.252 66.5367 118.225 66.5901 118.211C66.6436 118.198 66.6996 118.2 66.7522 118.216L124.275 135.991L127.539 137C127.584 137.014 127.625 137.039 127.659 137.072C127.693 137.105 127.718 137.145 127.734 137.19C127.749 137.235 127.753 137.283 127.747 137.329C127.74 137.376 127.722 137.421 127.695 137.46Z" fill="#9FA6B2"/>
<path d="M183.992 157.935L93.2174 185.806C91.843 186.224 90.3639 186.13 89.0532 185.542C87.7426 184.955 86.6887 183.913 86.0863 182.609C85.9847 182.386 85.9397 182.142 85.9551 181.897C85.9706 181.653 86.046 181.416 86.1749 181.208L122.352 122.279C122.541 121.971 122.836 121.743 123.181 121.637C123.526 121.531 123.898 121.554 124.227 121.703L187.241 150.177C187.464 150.277 187.66 150.431 187.809 150.625C187.959 150.818 188.059 151.046 188.1 151.287C188.333 152.704 188.045 154.158 187.29 155.38C186.535 156.602 185.364 157.51 183.992 157.935Z" fill="#6B7280"/>
<path d="M166.073 65.4184C166.02 65.4184 165.967 65.4046 165.92 65.3784C165.873 65.3523 165.833 65.3145 165.805 65.2688C165.776 65.2231 165.76 65.1709 165.758 65.1172C165.755 65.0634 165.766 65.01 165.79 64.9618C166.061 64.4144 166.206 64.1142 166.206 64.1134C166.223 64.0745 166.248 64.0395 166.279 64.0103C166.31 63.9812 166.347 63.9586 166.386 63.9439C166.426 63.9292 166.469 63.9226 166.511 63.9247C166.553 63.9267 166.595 63.9373 166.633 63.9558C166.672 63.9742 166.706 64.0002 166.734 64.0322C166.762 64.0641 166.783 64.1014 166.796 64.1418C166.81 64.1821 166.815 64.2248 166.811 64.2671C166.807 64.3094 166.795 64.3506 166.776 64.3882C166.776 64.3882 166.63 64.6904 166.356 65.2425C166.33 65.2952 166.29 65.3397 166.24 65.3708C166.19 65.4019 166.132 65.4184 166.073 65.4184Z" fill="white"/>
<path d="M134.138 110.471C134.078 110.471 134.019 110.453 133.968 110.421C133.917 110.389 133.877 110.342 133.851 110.288C133.826 110.233 133.816 110.173 133.824 110.113C133.832 110.053 133.857 109.997 133.896 109.951C134.304 109.464 134.693 108.981 135.05 108.515C135.101 108.448 135.176 108.405 135.259 108.394C135.343 108.383 135.427 108.405 135.493 108.457C135.56 108.508 135.603 108.583 135.614 108.666C135.625 108.749 135.603 108.833 135.552 108.9C135.189 109.373 134.795 109.864 134.38 110.358C134.351 110.393 134.313 110.421 134.272 110.441C134.23 110.461 134.184 110.471 134.138 110.471ZM136.389 107.521C136.332 107.521 136.276 107.505 136.226 107.475C136.177 107.446 136.137 107.403 136.11 107.352C136.083 107.301 136.071 107.244 136.074 107.187C136.077 107.13 136.096 107.074 136.128 107.027C136.49 106.495 136.817 105.973 137.101 105.476C137.122 105.44 137.149 105.408 137.182 105.382C137.215 105.357 137.253 105.338 137.293 105.327C137.333 105.316 137.375 105.313 137.416 105.319C137.457 105.324 137.497 105.337 137.533 105.358C137.569 105.378 137.6 105.406 137.626 105.439C137.651 105.472 137.67 105.509 137.681 105.549C137.692 105.589 137.695 105.631 137.69 105.672C137.684 105.713 137.671 105.753 137.651 105.789C137.358 106.301 137.022 106.837 136.651 107.382C136.622 107.425 136.583 107.46 136.538 107.484C136.492 107.508 136.441 107.521 136.39 107.521H136.389ZM136.324 104.506H136.319C135.68 104.509 135.048 104.371 134.468 104.102C134.431 104.084 134.397 104.059 134.369 104.029C134.341 103.998 134.319 103.962 134.305 103.923C134.291 103.884 134.284 103.843 134.286 103.801C134.288 103.76 134.298 103.719 134.315 103.681C134.333 103.644 134.358 103.61 134.388 103.582C134.419 103.554 134.455 103.532 134.494 103.518C134.533 103.504 134.574 103.497 134.616 103.499C134.657 103.501 134.698 103.511 134.736 103.528C135.232 103.759 135.773 103.876 136.32 103.873C136.345 103.873 136.372 103.873 136.398 103.873H136.404C136.445 103.873 136.487 103.881 136.525 103.896C136.564 103.912 136.599 103.935 136.628 103.964C136.658 103.993 136.682 104.028 136.698 104.066C136.714 104.104 136.723 104.145 136.723 104.187C136.723 104.228 136.716 104.269 136.7 104.308C136.685 104.346 136.662 104.381 136.632 104.411C136.603 104.441 136.569 104.464 136.53 104.481C136.492 104.497 136.451 104.505 136.41 104.506C136.381 104.506 136.353 104.506 136.325 104.506H136.324ZM138.208 104.291C138.135 104.271 138.069 104.232 138.017 104.178C137.964 104.124 137.927 104.056 137.909 103.983C137.891 103.91 137.893 103.833 137.915 103.761C137.936 103.688 137.977 103.623 138.032 103.572C138.218 103.11 138.367 102.633 138.475 102.147C138.483 102.106 138.5 102.067 138.523 102.033C138.547 101.998 138.577 101.969 138.612 101.946C138.647 101.923 138.686 101.907 138.727 101.9C138.768 101.892 138.81 101.892 138.851 101.901C138.892 101.91 138.931 101.927 138.965 101.951C138.999 101.975 139.029 102.005 139.051 102.04C139.074 102.075 139.089 102.115 139.096 102.156C139.103 102.197 139.102 102.239 139.093 102.28C139.022 102.604 138.934 102.923 138.827 103.237C139.116 103.101 139.412 102.944 139.712 102.766C139.784 102.727 139.868 102.717 139.947 102.739C140.026 102.76 140.094 102.812 140.136 102.883C140.177 102.953 140.19 103.037 140.171 103.117C140.152 103.197 140.103 103.266 140.034 103.31C139.549 103.601 139.041 103.851 138.516 104.058L138.498 104.098C138.474 104.155 138.434 104.204 138.382 104.238C138.331 104.272 138.27 104.291 138.208 104.291L138.208 104.291ZM133.082 103.077C133.005 103.077 132.931 103.049 132.874 102.998C132.369 102.576 131.943 102.068 131.615 101.497C131.594 101.46 131.58 101.42 131.574 101.378C131.569 101.335 131.572 101.292 131.583 101.251C131.595 101.21 131.614 101.172 131.641 101.139C131.668 101.106 131.701 101.078 131.738 101.058C131.776 101.038 131.817 101.026 131.859 101.022C131.901 101.018 131.944 101.022 131.985 101.036C132.025 101.049 132.063 101.07 132.095 101.097C132.127 101.125 132.153 101.159 132.172 101.198C132.464 101.702 132.842 102.15 133.29 102.523C133.339 102.565 133.373 102.622 133.388 102.684C133.404 102.746 133.4 102.812 133.378 102.872C133.355 102.932 133.314 102.984 133.261 103.021C133.209 103.057 133.146 103.077 133.081 103.077H133.082ZM141.407 102.31C141.341 102.311 141.276 102.29 141.222 102.251C141.169 102.213 141.128 102.159 141.107 102.096C141.086 102.033 141.085 101.966 141.104 101.902C141.123 101.839 141.162 101.783 141.214 101.743C141.668 101.395 142.141 101 142.62 100.568C142.651 100.54 142.687 100.518 142.726 100.504C142.765 100.491 142.807 100.484 142.848 100.487C142.89 100.489 142.93 100.499 142.968 100.517C143.005 100.535 143.039 100.56 143.067 100.591C143.094 100.621 143.116 100.657 143.13 100.697C143.144 100.736 143.15 100.777 143.148 100.819C143.146 100.86 143.135 100.901 143.117 100.938C143.1 100.976 143.075 101.009 143.044 101.037C142.552 101.481 142.066 101.887 141.599 102.245C141.544 102.287 141.476 102.31 141.407 102.309L141.407 102.31ZM138.882 100.686C138.806 100.686 138.733 100.659 138.675 100.609C138.618 100.559 138.581 100.491 138.57 100.416C138.501 99.8607 138.263 99.3405 137.888 98.9259C137.831 98.8644 137.801 98.7829 137.804 98.6993C137.808 98.6157 137.844 98.5369 137.905 98.48C137.967 98.4231 138.048 98.3929 138.132 98.3958C138.215 98.3988 138.294 98.4348 138.351 98.4958C138.815 99.0038 139.109 99.6425 139.195 100.324C139.201 100.365 139.199 100.407 139.189 100.448C139.179 100.488 139.161 100.526 139.136 100.559C139.111 100.592 139.08 100.62 139.044 100.642C139.009 100.663 138.969 100.677 138.928 100.683C138.913 100.685 138.898 100.686 138.882 100.686ZM131.694 99.876C131.643 99.876 131.593 99.8637 131.548 99.8401C131.503 99.8166 131.464 99.7825 131.435 99.7407C131.406 99.6989 131.387 99.6507 131.381 99.6002C131.374 99.5497 131.38 99.4983 131.397 99.4505C131.616 98.856 132.093 98.3381 132.778 97.9535C132.851 97.9125 132.938 97.9021 133.018 97.9248C133.099 97.9475 133.168 98.0013 133.209 98.0744C133.25 98.1475 133.26 98.234 133.238 98.3148C133.215 98.3955 133.161 98.464 133.088 98.5051C132.536 98.8149 132.157 99.2171 131.991 99.6689C131.969 99.7296 131.928 99.7821 131.875 99.8191C131.822 99.8561 131.759 99.876 131.694 99.876ZM144.173 99.8307C144.111 99.8307 144.05 99.8122 143.998 99.7777C143.946 99.7431 143.906 99.694 143.882 99.6365C143.858 99.579 143.851 99.5156 143.863 99.4544C143.875 99.3932 143.904 99.3368 143.948 99.2924C144.36 98.875 144.786 98.4225 145.213 97.949C145.269 97.8867 145.348 97.8493 145.432 97.845C145.515 97.8407 145.598 97.8699 145.66 97.9261C145.722 97.9823 145.759 98.0609 145.764 98.1447C145.768 98.2285 145.739 98.3105 145.683 98.3728C145.249 98.8535 144.817 99.3119 144.398 99.7364C144.369 99.7663 144.334 99.7901 144.295 99.8062C144.257 99.8224 144.215 99.8307 144.173 99.8307ZM136.535 98.1079C136.507 98.1078 136.479 98.1041 136.452 98.0967C135.891 97.9513 135.306 97.9141 134.731 97.9873C134.689 97.9923 134.648 97.9891 134.608 97.9779C134.568 97.9668 134.53 97.9478 134.498 97.9222C134.465 97.8966 134.438 97.8647 134.417 97.8286C134.397 97.7924 134.384 97.7525 134.379 97.7113C134.374 97.6701 134.377 97.6283 134.388 97.5883C134.399 97.5483 134.418 97.5108 134.444 97.4782C134.469 97.4455 134.501 97.4182 134.537 97.3978C134.574 97.3774 134.614 97.3644 134.655 97.3594C135.311 97.2763 135.977 97.3193 136.618 97.4859C136.692 97.5058 136.756 97.552 136.799 97.6159C136.841 97.6797 136.859 97.7568 136.849 97.8329C136.839 97.909 136.802 97.9787 136.744 98.0293C136.686 98.0798 136.612 98.1076 136.535 98.1075V98.1079ZM146.668 97.0745C146.608 97.0744 146.549 97.0572 146.498 97.0248C146.447 96.9924 146.407 96.9462 146.381 96.8916C146.356 96.837 146.347 96.7763 146.355 96.7166C146.363 96.657 146.387 96.6008 146.426 96.5547C146.809 96.0993 147.203 95.6173 147.596 95.1212C147.622 95.088 147.654 95.0602 147.69 95.0394C147.727 95.0187 147.767 95.0054 147.808 95.0003C147.85 94.9952 147.892 94.9984 147.933 95.0098C147.973 95.0211 148.011 95.0404 148.044 95.0665C148.076 95.0925 148.104 95.1249 148.124 95.1616C148.144 95.1983 148.157 95.2387 148.161 95.2803C148.166 95.322 148.162 95.3642 148.15 95.4043C148.138 95.4445 148.118 95.4819 148.092 95.5144C147.694 96.0152 147.297 96.5022 146.91 96.9618C146.88 96.9971 146.843 97.0255 146.802 97.0449C146.76 97.0644 146.714 97.0745 146.668 97.0745H146.668ZM148.982 94.1636C148.923 94.1636 148.866 94.1471 148.816 94.1161C148.766 94.0851 148.725 94.0408 148.699 93.9882C148.673 93.9355 148.662 93.8766 148.667 93.8181C148.673 93.7595 148.694 93.7036 148.73 93.6567C149.091 93.1784 149.462 92.6771 149.832 92.1667C149.881 92.0987 149.955 92.0531 150.038 92.0399C150.121 92.0266 150.205 92.0468 150.273 92.096C150.341 92.1452 150.387 92.2194 150.4 92.3022C150.413 92.3851 150.393 92.4698 150.344 92.5377C149.972 93.0517 149.598 93.5564 149.235 94.038C149.205 94.077 149.167 94.1086 149.123 94.1304C149.08 94.1522 149.031 94.1635 148.983 94.1636H148.982ZM151.165 91.1529C151.107 91.1528 151.05 91.1369 151.001 91.1069C150.952 91.0769 150.912 91.034 150.885 90.9827C150.858 90.9315 150.846 90.8739 150.85 90.8162C150.853 90.7586 150.873 90.703 150.906 90.6556C151.251 90.1623 151.604 89.6473 151.956 89.1265C152.003 89.057 152.076 89.009 152.158 88.993C152.24 88.9771 152.326 88.9945 152.395 89.0415C152.465 89.0885 152.513 89.1611 152.529 89.2435C152.545 89.3259 152.527 89.4112 152.48 89.4807C152.126 90.0041 151.772 90.5214 151.425 91.0179C151.396 91.0596 151.357 91.0937 151.312 91.1171C151.267 91.1406 151.216 91.1528 151.165 91.1528L151.165 91.1529ZM153.247 88.0715C153.19 88.0715 153.134 88.056 153.085 88.0268C153.037 87.9975 152.996 87.9556 152.969 87.9054C152.942 87.8552 152.929 87.7987 152.932 87.7417C152.934 87.6847 152.952 87.6295 152.983 87.5818C153.318 87.0715 153.657 86.5462 153.993 86.0202C154.038 85.9495 154.109 85.8996 154.191 85.8815C154.273 85.8634 154.359 85.8786 154.43 85.9237C154.5 85.9688 154.55 86.0402 154.568 86.1221C154.587 86.204 154.571 86.2897 154.526 86.3604C154.189 86.8886 153.848 87.4162 153.512 87.929C153.483 87.9728 153.444 88.0087 153.398 88.0335C153.352 88.0584 153.3 88.0714 153.248 88.0714L153.247 88.0715ZM155.25 84.9343C155.194 84.9342 155.139 84.9191 155.09 84.8905C155.042 84.8619 155.002 84.8208 154.974 84.7715C154.947 84.7222 154.933 84.6665 154.935 84.6101C154.936 84.5537 154.952 84.4988 154.982 84.4509C155.303 83.9362 155.63 83.4043 155.955 82.8697C155.999 82.798 156.069 82.7466 156.151 82.7268C156.232 82.707 156.318 82.7203 156.39 82.7639C156.461 82.8075 156.513 82.8778 156.533 82.9593C156.553 83.0409 156.539 83.1269 156.496 83.1986C156.169 83.7349 155.841 84.2688 155.519 84.7851C155.491 84.8306 155.451 84.868 155.404 84.894C155.357 84.92 155.305 84.9336 155.251 84.9335L155.25 84.9343ZM157.184 81.7571C157.128 81.757 157.073 81.7422 157.025 81.7141C156.977 81.6859 156.937 81.6455 156.909 81.597C156.882 81.5484 156.868 81.4934 156.868 81.4376C156.869 81.3817 156.884 81.327 156.913 81.2791C157.232 80.7425 157.547 80.2093 157.856 79.6794C157.876 79.6429 157.904 79.6109 157.937 79.5852C157.97 79.5595 158.008 79.5407 158.049 79.5298C158.089 79.5189 158.131 79.5161 158.173 79.5216C158.214 79.5271 158.254 79.5408 158.29 79.5619C158.327 79.5831 158.358 79.6111 158.383 79.6446C158.409 79.678 158.427 79.7161 158.437 79.7567C158.448 79.7973 158.45 79.8395 158.444 79.881C158.438 79.9224 158.424 79.9622 158.402 79.9981C158.092 80.5294 157.777 81.0643 157.456 81.6027C157.428 81.6497 157.388 81.6886 157.341 81.7156C157.293 81.7426 157.239 81.7569 157.184 81.7569L157.184 81.7571ZM159.059 78.5449C159.004 78.5449 158.95 78.5302 158.902 78.5026C158.854 78.4749 158.814 78.4351 158.786 78.3871C158.758 78.3392 158.744 78.2848 158.743 78.2293C158.743 78.1739 158.758 78.1195 158.785 78.0714C159.098 77.5257 159.404 76.9872 159.702 76.4559C159.723 76.4195 159.75 76.3875 159.783 76.3617C159.815 76.3358 159.853 76.3167 159.893 76.3054C159.933 76.2941 159.975 76.2908 160.016 76.2957C160.057 76.3006 160.097 76.3137 160.134 76.3341C160.17 76.3545 160.202 76.3819 160.228 76.4147C160.253 76.4474 160.272 76.485 160.283 76.5251C160.294 76.5652 160.298 76.6071 160.292 76.6485C160.287 76.6898 160.274 76.7297 160.254 76.7659C159.954 77.298 159.648 77.8377 159.334 78.3851C159.306 78.4334 159.267 78.4734 159.218 78.5013C159.17 78.5291 159.116 78.5438 159.06 78.5438L159.059 78.5449ZM160.884 75.3024C160.829 75.3024 160.775 75.288 160.727 75.2607C160.679 75.2334 160.639 75.1941 160.611 75.1467C160.584 75.0993 160.568 75.0455 160.568 74.9905C160.567 74.9355 160.581 74.8813 160.607 74.8331C160.915 74.2765 161.212 73.7333 161.5 73.2034C161.54 73.1297 161.608 73.075 161.688 73.0512C161.769 73.0274 161.855 73.0366 161.929 73.0766C162.003 73.1167 162.058 73.1844 162.081 73.2648C162.105 73.3452 162.096 73.4318 162.056 73.5055C161.768 74.0361 161.469 74.5806 161.161 75.1391C161.133 75.1885 161.093 75.2295 161.045 75.2581C160.996 75.2867 160.941 75.3017 160.884 75.3017L160.884 75.3024ZM162.661 72.0327C162.606 72.0326 162.552 72.0183 162.505 71.9914C162.458 71.9644 162.418 71.9256 162.39 71.8787C162.362 71.8319 162.346 71.7786 162.345 71.724C162.344 71.6694 162.357 71.6154 162.382 71.5673C162.688 70.9956 162.978 70.448 163.253 69.9246C163.272 69.887 163.298 69.8535 163.33 69.8262C163.362 69.7988 163.399 69.7781 163.439 69.7653C163.479 69.7524 163.521 69.7476 163.563 69.7513C163.605 69.7549 163.646 69.7668 163.683 69.7864C163.72 69.806 163.753 69.8327 163.78 69.8652C163.806 69.8976 163.826 69.9351 163.839 69.9753C163.851 70.0156 163.855 70.0579 163.85 70.0997C163.846 70.1415 163.833 70.182 163.813 70.2188C163.538 70.7423 163.247 71.2911 162.94 71.8653C162.913 71.9157 162.873 71.9578 162.824 71.9871C162.774 72.0164 162.718 72.0319 162.661 72.0319L162.661 72.0327ZM164.392 68.7367C164.338 68.7367 164.285 68.7227 164.238 68.6961C164.19 68.6695 164.151 68.6312 164.122 68.5848C164.094 68.5385 164.078 68.4857 164.077 68.4314C164.075 68.3772 164.087 68.3234 164.112 68.2752C164.426 67.6662 164.71 67.1114 164.959 66.6192C164.978 66.582 165.004 66.5487 165.035 66.5214C165.067 66.4942 165.103 66.4734 165.143 66.4603C165.183 66.4472 165.224 66.4421 165.266 66.4452C165.307 66.4483 165.348 66.4596 165.385 66.4785C165.422 66.4973 165.455 66.5233 165.483 66.555C165.51 66.5867 165.53 66.6234 165.543 66.663C165.556 66.7027 165.561 66.7445 165.557 66.786C165.554 66.8276 165.543 66.8681 165.523 66.9051C165.274 67.3985 164.989 67.9551 164.674 68.5656C164.647 68.617 164.607 68.6601 164.557 68.6901C164.508 68.7202 164.451 68.736 164.393 68.736L164.392 68.7367Z" fill="white"/>
<path d="M132.308 112.54C132.246 112.54 132.186 112.522 132.135 112.488C132.083 112.455 132.043 112.407 132.018 112.35C131.993 112.294 131.986 112.232 131.996 112.171C132.006 112.11 132.034 112.054 132.076 112.009C132.295 111.773 132.507 111.541 132.713 111.312C132.74 111.28 132.774 111.254 132.811 111.236C132.849 111.217 132.89 111.206 132.932 111.203C132.974 111.201 133.016 111.207 133.055 111.22C133.095 111.234 133.132 111.256 133.163 111.284C133.194 111.312 133.219 111.346 133.237 111.384C133.255 111.422 133.266 111.463 133.267 111.505C133.269 111.547 133.263 111.589 133.248 111.628C133.234 111.668 133.212 111.704 133.183 111.735C132.975 111.966 132.761 112.201 132.54 112.439C132.51 112.471 132.474 112.496 132.435 112.514C132.395 112.531 132.352 112.54 132.308 112.54Z" fill="white"/>
<path d="M119.065 92.1851C119.011 92.1851 118.958 92.1713 118.911 92.1452C118.864 92.119 118.825 92.0813 118.797 92.0356C118.768 91.9899 118.752 91.9377 118.749 91.884C118.747 91.8303 118.758 91.7768 118.782 91.7286C119.039 91.2076 119.179 90.8884 119.18 90.8852C119.214 90.8087 119.276 90.7486 119.354 90.7181C119.432 90.6876 119.519 90.6892 119.595 90.7225C119.672 90.7558 119.733 90.8181 119.763 90.8958C119.794 90.9736 119.793 91.0603 119.76 91.1372C119.754 91.1506 119.614 91.4724 119.349 92.0089C119.323 92.0618 119.282 92.1063 119.232 92.1375C119.182 92.1686 119.124 92.1851 119.065 92.1851Z" fill="white"/>
<path d="M103.759 107.366C103.698 107.366 103.638 107.348 103.586 107.315C103.535 107.281 103.494 107.233 103.47 107.177C103.445 107.121 103.437 107.059 103.447 106.998C103.457 106.937 103.485 106.881 103.526 106.836C103.977 106.345 104.406 105.861 104.801 105.398C104.828 105.365 104.86 105.339 104.898 105.319C104.935 105.3 104.975 105.288 105.017 105.285C105.059 105.281 105.101 105.286 105.14 105.299C105.18 105.311 105.217 105.332 105.249 105.359C105.281 105.386 105.307 105.419 105.326 105.457C105.345 105.494 105.356 105.535 105.359 105.576C105.363 105.618 105.357 105.66 105.344 105.7C105.331 105.74 105.31 105.776 105.282 105.808C104.882 106.277 104.448 106.767 103.992 107.264C103.962 107.296 103.926 107.322 103.886 107.34C103.846 107.357 103.803 107.366 103.759 107.366ZM106.259 104.417C106.2 104.417 106.142 104.401 106.092 104.369C106.042 104.338 106.002 104.294 105.976 104.241C105.95 104.188 105.939 104.129 105.945 104.07C105.95 104.011 105.973 103.955 106.009 103.908C106.422 103.369 106.796 102.846 107.118 102.354C107.141 102.319 107.17 102.289 107.204 102.266C107.239 102.243 107.277 102.226 107.318 102.218C107.359 102.209 107.401 102.209 107.441 102.217C107.482 102.224 107.521 102.24 107.556 102.263C107.591 102.286 107.62 102.315 107.644 102.349C107.667 102.384 107.684 102.422 107.692 102.463C107.701 102.503 107.701 102.545 107.693 102.586C107.686 102.627 107.67 102.666 107.647 102.701C107.316 103.206 106.934 103.742 106.51 104.293C106.481 104.332 106.443 104.363 106.399 104.385C106.356 104.406 106.308 104.417 106.259 104.417ZM108.445 102.691C108.365 102.691 108.288 102.66 108.229 102.605C108.171 102.549 108.136 102.474 108.131 102.394C108.126 102.313 108.152 102.234 108.203 102.172C108.255 102.111 108.328 102.071 108.407 102.061C109.019 101.982 109.616 101.82 110.183 101.578C110.26 101.546 110.347 101.545 110.425 101.577C110.503 101.609 110.564 101.67 110.597 101.747C110.629 101.825 110.63 101.912 110.598 101.99C110.566 102.067 110.505 102.129 110.427 102.162C109.807 102.425 109.153 102.603 108.485 102.689C108.472 102.69 108.459 102.691 108.445 102.691ZM106.523 102.626C106.502 102.626 106.482 102.624 106.463 102.62C105.801 102.489 105.16 102.268 104.558 101.962C104.484 101.924 104.428 101.858 104.402 101.779C104.376 101.699 104.382 101.613 104.42 101.538C104.457 101.464 104.523 101.407 104.602 101.381C104.681 101.354 104.767 101.36 104.842 101.397C105.392 101.676 105.977 101.879 106.582 101.999C106.659 102.014 106.728 102.057 106.775 102.12C106.822 102.183 106.844 102.261 106.837 102.34C106.83 102.418 106.793 102.491 106.735 102.544C106.677 102.597 106.601 102.626 106.523 102.626ZM111.996 101.253C111.928 101.253 111.862 101.231 111.808 101.191C111.753 101.151 111.713 101.095 111.693 101.03C111.673 100.966 111.674 100.896 111.697 100.833C111.719 100.769 111.761 100.714 111.817 100.676C112.334 100.317 112.826 99.9217 113.287 99.4925C113.317 99.4643 113.353 99.4424 113.392 99.428C113.431 99.4136 113.472 99.4071 113.514 99.4087C113.555 99.4104 113.596 99.4201 113.634 99.4375C113.672 99.4549 113.706 99.4796 113.734 99.5101C113.762 99.5406 113.784 99.5763 113.798 99.6153C113.813 99.6543 113.819 99.6957 113.818 99.7372C113.816 99.7787 113.806 99.8194 113.789 99.8572C113.771 99.8949 113.747 99.9288 113.716 99.957C113.233 100.407 112.717 100.821 112.174 101.197C112.122 101.233 112.059 101.253 111.995 101.253H111.996ZM108.349 101.171C108.296 101.17 108.243 101.157 108.196 101.131C108.149 101.105 108.11 101.067 108.081 101.021C108.053 100.976 108.036 100.924 108.034 100.87C108.031 100.817 108.042 100.763 108.066 100.715C108.347 100.166 108.556 99.5821 108.687 98.9789C108.703 98.8965 108.751 98.8239 108.821 98.777C108.89 98.73 108.976 98.7126 109.058 98.7286C109.14 98.7445 109.213 98.7925 109.26 98.862C109.307 98.9315 109.324 99.0169 109.308 99.0992C109.167 99.7572 108.94 100.394 108.634 100.993C108.607 101.047 108.567 101.091 108.517 101.123C108.466 101.154 108.408 101.171 108.349 101.171H108.349ZM103.111 100.907C103.028 100.907 102.947 100.874 102.888 100.815C102.347 100.276 102.073 99.7017 102.073 99.1059C102.073 99.0111 102.08 98.9165 102.094 98.8228C102.107 98.7398 102.152 98.6652 102.219 98.6154C102.287 98.5655 102.371 98.5445 102.454 98.5569C102.537 98.5693 102.612 98.6142 102.661 98.6816C102.711 98.7491 102.732 98.8336 102.72 98.9165C102.711 98.9793 102.706 99.0428 102.706 99.1063C102.706 99.5273 102.917 99.9514 103.335 100.367C103.379 100.411 103.409 100.468 103.422 100.529C103.434 100.591 103.428 100.654 103.404 100.712C103.38 100.77 103.339 100.819 103.287 100.854C103.235 100.889 103.174 100.908 103.111 100.908V100.907ZM114.847 98.6513C114.786 98.6512 114.727 98.6337 114.676 98.6008C114.625 98.5679 114.584 98.5209 114.559 98.4656C114.534 98.4103 114.525 98.3489 114.534 98.2888C114.543 98.2288 114.569 98.1725 114.609 98.1268C115.01 97.6692 115.412 97.1684 115.805 96.6383C115.855 96.5715 115.93 96.5273 116.012 96.5153C116.095 96.5033 116.179 96.5245 116.246 96.5742C116.313 96.6239 116.358 96.6982 116.37 96.7807C116.383 96.8633 116.362 96.9474 116.313 97.0149C115.91 97.5588 115.497 98.073 115.085 98.5434C115.055 98.5774 115.019 98.6047 114.977 98.6233C114.936 98.6419 114.892 98.6514 114.846 98.6513H114.847ZM103.477 97.6329C103.41 97.6329 103.345 97.6121 103.292 97.5732C103.238 97.5344 103.197 97.4797 103.176 97.4167C103.155 97.3537 103.155 97.2857 103.175 97.2224C103.194 97.159 103.234 97.1035 103.287 97.0637C103.839 96.6587 104.46 96.3559 105.119 96.1696C105.199 96.1484 105.284 96.1593 105.356 96.1999C105.428 96.2406 105.481 96.3077 105.504 96.387C105.527 96.4663 105.518 96.5515 105.479 96.6243C105.44 96.6971 105.374 96.7519 105.296 96.7768C104.71 96.943 104.159 97.2112 103.667 97.5691C103.612 97.6105 103.545 97.6328 103.476 97.6324L103.477 97.6329ZM108.764 97.4849C108.711 97.4849 108.659 97.4717 108.613 97.4465C108.567 97.4212 108.527 97.3847 108.499 97.3403C108.161 96.8179 107.543 96.6455 107.084 96.5928C107.042 96.5885 107.002 96.576 106.965 96.556C106.929 96.536 106.896 96.5089 106.87 96.4762C106.844 96.4436 106.824 96.4062 106.813 96.366C106.801 96.3258 106.798 96.2837 106.802 96.2422C106.807 96.2006 106.82 96.1605 106.841 96.124C106.861 96.0875 106.888 96.0554 106.921 96.0296C106.954 96.0037 106.992 95.9847 107.032 95.9735C107.073 95.9624 107.115 95.9593 107.156 95.9645C108.008 96.0623 108.656 96.4199 109.03 96.9969C109.06 97.0447 109.078 97.0999 109.08 97.1567C109.082 97.2135 109.069 97.2699 109.042 97.3199C109.015 97.3698 108.974 97.4115 108.926 97.4406C108.877 97.4696 108.821 97.485 108.764 97.4849H108.764ZM117.158 95.5495C117.101 95.5494 117.046 95.5341 116.997 95.5051C116.948 95.4761 116.908 95.4344 116.881 95.3845C116.854 95.3347 116.84 95.2784 116.842 95.2216C116.844 95.1649 116.862 95.1097 116.893 95.0619C117.232 94.5353 117.565 93.983 117.884 93.4204C117.905 93.3839 117.932 93.3518 117.965 93.326C117.997 93.3002 118.035 93.2811 118.075 93.2698C118.115 93.2585 118.157 93.2553 118.199 93.2604C118.24 93.2654 118.28 93.2786 118.317 93.2992C118.353 93.3197 118.385 93.3473 118.41 93.3802C118.436 93.4132 118.455 93.4508 118.466 93.4911C118.477 93.5313 118.48 93.5734 118.474 93.6147C118.469 93.6561 118.455 93.696 118.435 93.7322C118.11 94.3052 117.77 94.8678 117.424 95.4044C117.396 95.4491 117.356 95.486 117.31 95.5114C117.263 95.5368 117.211 95.5501 117.157 95.55L117.158 95.5495Z" fill="white"/>
<path d="M101.753 109.456C101.691 109.456 101.63 109.437 101.578 109.403C101.526 109.368 101.485 109.319 101.461 109.261C101.437 109.203 101.431 109.14 101.443 109.079C101.455 109.017 101.485 108.961 101.529 108.917C101.757 108.689 101.978 108.465 102.193 108.244C102.251 108.184 102.331 108.15 102.415 108.148C102.499 108.147 102.58 108.18 102.64 108.238C102.7 108.297 102.734 108.377 102.735 108.461C102.736 108.545 102.704 108.625 102.646 108.685C102.429 108.908 102.206 109.134 101.977 109.363C101.947 109.393 101.912 109.416 101.874 109.432C101.836 109.448 101.795 109.456 101.753 109.456Z" fill="white"/>
</svg>
