<svg width="149" height="148" viewBox="0 0 149 148" fill="none" xmlns="http://www.w3.org/2000/svg">
<path d="M37.2773 24.0593C37.2773 24.0593 59.709 41.1831 93.8111 9.1643C124.097 -19.2708 148.826 25.5936 148.999 47.0787C149.223 74.9107 118.713 97.1798 133.519 115.46C148.326 133.74 104.156 163.927 80.3507 137.802C50.7377 105.304 42.7153 131.709 25.836 131.709C13.7216 131.709 -11.1506 101.428 5.6453 78.8996C19.7788 59.9428 12.0707 53.6509 8.33742 47.0787C2.95329 37.6001 15.7407 11.8725 37.2773 24.0593Z" fill="#F9FAFB"/>
<path d="M40.3644 66.9926H104.411C106.195 67.02 107.905 67.7119 109.206 68.933C110.508 70.1542 111.307 71.8168 111.447 73.5958L113.965 112.942C114.028 113.791 113.914 114.643 113.63 115.445C113.347 116.247 112.9 116.982 112.318 117.602C111.737 118.223 111.032 118.716 110.25 119.05C109.468 119.385 108.625 119.553 107.774 119.545H43.7073C41.9268 119.512 40.2224 118.818 38.9257 117.597C37.6289 116.377 36.8325 114.717 36.6914 112.942L34.174 73.604C34.1093 72.7549 34.2219 71.9015 34.5045 71.0982C34.7871 70.2948 35.2336 69.559 35.8156 68.9373C36.3977 68.3156 37.1026 67.8218 37.8857 67.487C38.6688 67.1522 39.5129 66.9839 40.3644 66.9926Z" fill="#4845ED"/>
<path opacity="0.3" d="M40.3644 66.9926H104.411C106.195 67.02 107.905 67.7119 109.206 68.933C110.508 70.1542 111.307 71.8168 111.447 73.5958L113.965 112.942C114.028 113.791 113.914 114.643 113.63 115.445C113.347 116.247 112.9 116.982 112.318 117.602C111.737 118.223 111.032 118.716 110.25 119.05C109.468 119.385 108.625 119.553 107.774 119.545H43.7073C41.9268 119.512 40.2224 118.818 38.9257 117.597C37.6289 116.377 36.8325 114.717 36.6914 112.942L34.174 73.604C34.1093 72.7549 34.2219 71.9015 34.5045 71.0982C34.7871 70.2948 35.2336 69.559 35.8156 68.9373C36.3977 68.3156 37.1026 67.8218 37.8857 67.487C38.6688 67.1522 39.5129 66.9839 40.3644 66.9926Z" fill="white"/>
<path d="M43.7113 119.558H107.77C109.342 119.572 110.86 118.981 112.008 117.907L73.7019 87.6979L39.25 117.907C40.4955 118.967 42.0759 119.552 43.7113 119.558Z" fill="#4845ED"/>
<path opacity="0.5" d="M43.7113 119.558H107.77C109.342 119.572 110.86 118.981 112.008 117.907L73.7019 87.6979L39.25 117.907C40.4955 118.967 42.0759 119.552 43.7113 119.558Z" fill="white"/>
<path d="M74.3125 97.2723L107.811 67.9007C106.777 67.3038 105.605 66.9879 104.41 66.9845H40.3641C39.1997 66.9765 38.0562 67.2938 37.0625 67.9007L74.3125 97.2723Z" fill="#4845ED"/>
<path d="M97.3573 67.1456L95.1246 32.1902C95.0544 31.2327 94.6275 30.3363 93.9283 29.6784C93.2291 29.0204 92.3085 28.6488 91.3484 28.6369H41.4121C42.3723 28.6496 43.2929 29.0215 43.9926 29.6791C44.6922 30.3368 45.1203 31.2326 45.1924 32.1902L47.4086 66.8567" fill="white"/>
<path d="M97.3586 67.6532C97.2262 67.6535 97.0987 67.6032 97.0021 67.5128C96.9055 67.4223 96.847 67.2983 96.8386 67.1662L94.6059 32.2108C94.546 31.3851 94.178 30.612 93.5749 30.0449C92.9718 29.4777 92.1776 29.1578 91.3498 29.1486H44.1867C44.6277 29.5211 44.9896 29.9781 45.2511 30.4927C45.5127 31.0073 45.6685 31.569 45.7096 32.1448L47.9258 66.8113C47.9348 66.8823 47.9291 66.9544 47.9091 67.0232C47.8891 67.0919 47.8553 67.1558 47.8097 67.211C47.7641 67.2662 47.7076 67.3114 47.6438 67.3439C47.5801 67.3764 47.5103 67.3955 47.4389 67.4C47.3674 67.4045 47.2958 67.3944 47.2285 67.3702C47.1611 67.3459 47.0994 67.3082 47.0472 67.2592C46.995 67.2102 46.9534 67.1511 46.9249 67.0854C46.8964 67.0197 46.8817 66.9489 46.8817 66.8773L44.6696 32.2108C44.6096 31.3844 44.241 30.6107 43.637 30.0435C43.033 29.4762 42.2379 29.1568 41.4093 29.1486C41.2789 29.137 41.1575 29.077 41.0691 28.9803C40.9807 28.8837 40.9316 28.7575 40.9316 28.6265C40.9316 28.4956 40.9807 28.3693 41.0691 28.2727C41.1575 28.1761 41.2789 28.1161 41.4093 28.1045H91.3456C92.4412 28.1137 93.4933 28.5342 94.2936 29.2825C95.0938 30.0307 95.5838 31.0523 95.6666 32.1448L97.9034 67.1002C97.9113 67.2386 97.864 67.3745 97.772 67.4781C97.68 67.5817 97.5506 67.6447 97.4123 67.6532H97.3586Z" fill="#4845ED"/>
<path d="M41.4082 28.6244C40.9506 28.6196 40.4969 28.7101 40.076 28.89C39.6552 29.0699 39.2764 29.3354 38.9636 29.6695C38.6508 30.0036 38.4109 30.3991 38.2591 30.8309C38.1073 31.2627 38.047 31.7214 38.0819 32.1777H45.1885C45.1164 31.2202 44.6884 30.3244 43.9887 29.6667C43.289 29.009 42.3684 28.6372 41.4082 28.6244Z" fill="#4845ED"/>
<path d="M45.1887 32.7018H38.0821C37.949 32.702 37.821 32.6512 37.7242 32.5598C37.6275 32.4685 37.5695 32.3435 37.5621 32.2107C37.5214 31.683 37.5909 31.1527 37.7664 30.6534C37.9418 30.1541 38.2192 29.6968 38.581 29.3105C38.9428 28.9243 39.381 28.6176 39.8678 28.4099C40.3546 28.2023 40.8792 28.0982 41.4084 28.1044C42.5037 28.1146 43.5553 28.5353 44.3553 29.2834C45.1554 30.0315 45.6457 31.0525 45.7293 32.1447C45.7335 32.2161 45.7232 32.2876 45.6991 32.355C45.675 32.4223 45.6376 32.4842 45.589 32.5367C45.5374 32.5905 45.4752 32.633 45.4063 32.6614C45.3373 32.6899 45.2632 32.7036 45.1887 32.7018ZM38.6103 31.6535H44.582C44.4063 30.9425 43.9991 30.3101 43.4246 29.8559C42.8501 29.4016 42.1408 29.1513 41.4084 29.1444C40.7111 29.1311 40.0347 29.3826 39.5155 29.8482C38.9963 30.3139 38.6728 30.9589 38.6103 31.6535Z" fill="#4845ED"/>
<path d="M91.3484 28.6242H41.4121C42.3723 28.637 43.2929 29.0088 43.9926 29.6665C44.6922 30.3242 45.1203 31.22 45.1924 32.1776L48.0276 76.5466L74.3123 97.2722L97.9763 76.819L95.1246 32.1693C95.0524 31.2132 94.6247 30.3189 93.9257 29.6627C93.2267 29.0065 92.3071 28.636 91.3484 28.6242Z" fill="white"/>
<path opacity="0.3" d="M48.0254 76.5467L74.3101 97.2805L97.9782 76.8273L72.4364 93.6942L48.0254 76.5467Z" fill="#4845ED"/>
<path opacity="0.3" d="M92.5626 56.7041H50.8843L50.6738 53.4562H92.3562L92.5626 56.7041Z" fill="#4845ED"/>
<path opacity="0.3" d="M83.9792 66.7699H51.5247L51.3184 63.522H83.7728L83.9792 66.7699Z" fill="#4845ED"/>
<path opacity="0.3" d="M93.8505 76.8355H69.3528L69.1465 73.5834H93.6442L93.8505 76.8355Z" fill="#4845ED"/>
<path opacity="0.3" d="M52.1673 76.8355H65.2828L65.0723 73.5834H51.9609L52.1673 76.8355Z" fill="#4845ED"/>
</svg>
