<svg width="23" height="23" viewBox="0 0 23 23" fill="none" xmlns="http://www.w3.org/2000/svg">
<path d="M3.15569 3.15569C2.97597 3.33541 2.875 3.57917 2.875 3.83333V6.31158C2.87505 6.56573 2.97606 6.80944 3.15579 6.98913L9.30254 13.1359C9.48228 13.3156 9.58328 13.5593 9.58333 13.8134V20.125L13.4167 16.2917V13.8134C13.4167 13.5593 13.5177 13.3156 13.6975 13.1359L19.8442 6.98913C20.0239 6.80944 20.1249 6.56573 20.125 6.31158V3.83333C20.125 3.57917 20.024 3.33541 19.8443 3.15569C19.6646 2.97597 19.4208 2.875 19.1667 2.875H3.83333C3.57917 2.875 3.33541 2.97597 3.15569 3.15569Z" stroke="#9FA6B2" stroke-width="2" stroke-linecap="round" stroke-linejoin="round"/>
</svg>
