<svg width="643" height="669" viewBox="0 0 643 669" fill="none" xmlns="http://www.w3.org/2000/svg">
<g opacity="0.5">
<path d="M171.379 0.5H466.4C474.066 0.5 480.28 6.71491 480.28 14.3816V186.618C480.28 194.285 474.066 200.5 466.4 200.5H171.379C163.714 200.5 157.5 194.285 157.5 186.618V14.3816C157.5 6.71491 163.714 0.5 171.379 0.5Z" stroke="white"/>
<path d="M480.78 35.6416H157V72.4911H480.78V35.6416Z" fill="#E5E5E5"/>
<path d="M450.081 99.3843H187.707V117.25H450.081V99.3843Z" fill="#D6D6E3"/>
</g>
<path d="M220.5 161.5C220.5 170.337 213.337 177.5 204.5 177.5C195.663 177.5 188.5 170.337 188.5 161.5C188.5 152.663 195.663 145.5 204.5 145.5C213.337 145.5 220.5 152.663 220.5 161.5Z" fill="#F4F4F5" stroke="#F9FAFB"/>
<g style="mix-blend-mode:multiply" opacity="0.05">
<path fill-rule="evenodd" clip-rule="evenodd" d="M34 1064C295.783 1064 508 851.783 508 590C508 328.217 295.783 116 34 116C-227.783 116 -440 328.217 -440 590C-440 851.783 -227.783 1064 34 1064ZM34 880C194.163 880 324 750.163 324 590C324 429.837 194.163 300 34 300C-126.163 300 -256 429.837 -256 590C-256 750.163 -126.163 880 34 880Z" fill="#42389D"/>
</g>
<g opacity="0.05">
<path d="M628.611 145L333.389 145C325.442 145 319 151.439 319 159.382L319 331.618C319 339.561 325.442 346 333.389 346L628.611 346C636.558 346 643 339.561 643 331.618L643 159.382C643 151.439 636.558 145 628.611 145Z" fill="#F0F0F0"/>
</g>
</svg>
