<svg width="500" height="697" viewBox="0 0 500 697" fill="none" xmlns="http://www.w3.org/2000/svg">
<g style="mix-blend-mode:multiply" opacity="0.05">
<path fill-rule="evenodd" clip-rule="evenodd" d="M26 1167C287.783 1167 500 954.783 500 693C500 431.217 287.783 219 26 219C-235.783 219 -448 431.217 -448 693C-448 954.783 -235.783 1167 26 1167ZM26 983C186.163 983 316 853.163 316 693C316 532.837 186.163 403 26 403C-134.163 403 -264 532.837 -264 693C-264 853.163 -134.163 983 26 983Z" fill="#42389D"/>
</g>
<g opacity="0.5">
<path d="M13.8749 167.193L221.418 222.804C226.738 224.23 229.895 229.699 228.469 235.02L196.003 356.186C194.577 361.507 189.108 364.664 183.788 363.239L-23.7545 307.628C-29.0743 306.202 -32.2313 300.734 -30.8056 295.413L1.66073 174.247C3.08647 168.926 8.55497 165.768 13.8749 167.193Z" stroke="white"/>
<path d="M224.946 250.105L-2.82812 189.073L-9.77419 214.996L218 276.028L224.946 250.105Z" fill="#E5E5E5"/>
<path d="M191.334 289.16L6.75781 239.703L3.39022 252.271L187.966 301.728L191.334 289.16Z" fill="#D6D6E3"/>
</g>
<path d="M17.9871 289.547C16.3408 295.691 10.0256 299.337 3.8817 297.691C-2.26221 296.045 -5.90827 289.729 -4.26202 283.586C-2.61576 277.442 3.69941 273.796 9.84332 275.442C15.9872 277.088 19.6333 283.403 17.9871 289.547Z" fill="#F4F4F5" stroke="#F9FAFB"/>
<g opacity="0.3">
<g opacity="0.5">
<path d="M181.875 3.19343L389.418 58.8044C394.738 60.2298 397.895 65.6988 396.469 71.0197L364.003 192.186C362.577 197.507 357.108 200.664 351.788 199.239L144.246 143.628C138.926 142.202 135.769 136.734 137.194 131.413L169.661 10.2466C171.086 4.9257 176.555 1.76797 181.875 3.19343Z" stroke="white"/>
<path d="M392.946 86.105L165.172 25.0731L158.226 50.9962L386 112.028L392.946 86.105Z" fill="#E5E5E5"/>
<path d="M359.334 125.16L174.758 75.7034L171.39 88.2714L355.966 137.728L359.334 125.16Z" fill="#D6D6E3"/>
</g>
<path d="M185.987 125.547C184.341 131.691 178.026 135.337 171.882 133.691C165.738 132.045 162.092 125.729 163.738 119.586C165.384 113.442 171.699 109.796 177.843 111.442C183.987 113.088 187.633 119.403 185.987 125.547Z" fill="#F4F4F5" stroke="#F9FAFB"/>
</g>
</svg>
