<svg width="609" height="788" viewBox="0 0 609 788" fill="none" xmlns="http://www.w3.org/2000/svg">
<circle cx="400.5" cy="331.5" r="208" fill="#4845ED" stroke="#F9FAFB"/>
<circle opacity="0.1" cx="100.5" cy="331.5" r="331" fill="#4845ED" stroke="#F9FAFB"/>
<g style="mix-blend-mode:multiply" opacity="0.05">
<path fill-rule="evenodd" clip-rule="evenodd" d="M34 1183C295.783 1183 508 970.783 508 709C508 447.217 295.783 235 34 235C-227.783 235 -440 447.217 -440 709C-440 970.783 -227.783 1183 34 1183ZM34 999C194.163 999 324 869.163 324 709C324 548.837 194.163 419 34 419C-126.163 419 -256 548.837 -256 709C-256 869.163 -126.163 999 34 999Z" fill="#42389D"/>
</g>
<circle cx="400.5" cy="331.5" r="208.5" fill="#4845ED"/>
<circle cx="400.5" cy="331.5" r="208" stroke="#F9FAFB" stroke-opacity="0.2"/>
<path opacity="0.5" d="M468.362 322.762L468.364 322.762C470.748 322.754 473.11 323.217 475.314 324.126C477.518 325.034 479.521 326.37 481.206 328.056C482.892 329.741 484.228 331.744 485.136 333.948C486.045 336.152 486.508 338.515 486.5 340.899V340.9V423.571C486.5 428.381 484.589 432.995 481.187 436.396C477.786 439.798 473.172 441.709 468.362 441.709H332.638C327.827 441.709 323.214 439.798 319.813 436.396C316.411 432.995 314.5 428.381 314.5 423.571L314.5 340.9L314.5 340.899C314.492 338.515 314.955 336.152 315.864 333.948C316.772 331.744 318.108 329.741 319.793 328.056C321.479 326.37 323.482 325.034 325.686 324.126C327.89 323.217 330.252 322.754 332.636 322.762H332.638L468.362 322.762ZM412.968 414.784H413.551L413.463 414.208L408.322 380.732C411.615 379.025 414.262 376.286 415.855 372.928C417.5 369.46 417.922 365.537 417.053 361.798C416.185 358.059 414.076 354.724 411.07 352.337C408.064 349.949 404.338 348.65 400.5 348.65C396.661 348.65 392.936 349.949 389.93 352.337C386.924 354.724 384.815 358.059 383.946 361.798C383.077 365.537 383.5 369.46 385.145 372.928C386.737 376.286 389.385 379.025 392.677 380.732L387.537 414.208L387.449 414.784H388.031H412.968Z" fill="#4845ED" stroke="#F9FAFB"/>
<path opacity="0.5" d="M443.483 291.973L441.052 279.759L441.052 279.759C438.852 268.716 432.377 259.004 423.053 252.759C413.728 246.514 402.316 244.248 391.329 246.461C380.341 248.673 370.679 255.182 364.467 264.555C358.255 273.927 356.002 285.396 358.202 296.438C358.202 296.438 358.202 296.439 358.202 296.439L360.634 308.974L337.698 313.222L335.264 300.677L335.264 300.677L335.262 300.665C333.383 292.1 333.223 283.243 334.79 274.614C336.357 265.985 339.621 257.757 344.39 250.412C349.158 243.067 355.336 236.751 362.562 231.835C369.788 226.919 377.917 223.501 386.472 221.781C395.028 220.061 403.839 220.073 412.39 221.817C420.94 223.562 429.059 227.003 436.271 231.939C443.484 236.876 449.644 243.208 454.392 250.567C459.14 257.926 462.381 266.163 463.924 274.797L463.926 274.806L466.421 287.349L443.483 291.973Z" fill="#4845ED" stroke="#F9FAFB"/>
</svg>
