<svg width="24" height="24" viewBox="0 0 24 24" fill="none" xmlns="http://www.w3.org/2000/svg">
<path fill-rule="evenodd" clip-rule="evenodd" d="M21.5999 11.9999C21.5999 14.546 20.5885 16.9878 18.7881 18.7881C16.9878 20.5885 14.546 21.5999 11.9999 21.5999C9.45382 21.5999 7.01203 20.5885 5.21168 18.7881C3.41133 16.9878 2.3999 14.546 2.3999 11.9999C2.3999 9.45382 3.41133 7.01203 5.21168 5.21168C7.01203 3.41133 9.45382 2.3999 11.9999 2.3999C14.546 2.3999 16.9878 3.41133 18.7881 5.21168C20.5885 7.01203 21.5999 9.45382 21.5999 11.9999ZM13.1999 7.1999C13.1999 7.51816 13.0735 7.82339 12.8484 8.04843C12.6234 8.27347 12.3182 8.3999 11.9999 8.3999C11.6816 8.3999 11.3764 8.27347 11.1514 8.04843C10.9263 7.82339 10.7999 7.51816 10.7999 7.1999C10.7999 6.88164 10.9263 6.57642 11.1514 6.35137C11.3764 6.12633 11.6816 5.9999 11.9999 5.9999C12.3182 5.9999 12.6234 6.12633 12.8484 6.35137C13.0735 6.57642 13.1999 6.88164 13.1999 7.1999ZM10.7999 10.7999C10.4816 10.7999 10.1764 10.9263 9.95137 11.1514C9.72633 11.3764 9.5999 11.6816 9.5999 11.9999C9.5999 12.3182 9.72633 12.6234 9.95137 12.8484C10.1764 13.0735 10.4816 13.1999 10.7999 13.1999V16.7999C10.7999 17.1182 10.9263 17.4234 11.1514 17.6484C11.3764 17.8735 11.6816 17.9999 11.9999 17.9999H13.1999C13.5182 17.9999 13.8234 17.8735 14.0484 17.6484C14.2735 17.4234 14.3999 17.1182 14.3999 16.7999C14.3999 16.4816 14.2735 16.1764 14.0484 15.9514C13.8234 15.7263 13.5182 15.5999 13.1999 15.5999V11.9999C13.1999 11.6816 13.0735 11.3764 12.8484 11.1514C12.6234 10.9263 12.3182 10.7999 11.9999 10.7999H10.7999Z" fill="#081A46"/>
</svg>
