<svg width="24" height="23" viewBox="0 0 24 23" fill="none" xmlns="http://www.w3.org/2000/svg">
<path d="M6.49072 17.7292H10.7074" stroke="#6B7280" stroke-width="1.5" stroke-linecap="round" stroke-linejoin="round"/>
<path fill-rule="evenodd" clip-rule="evenodd" d="M13.8697 8.625H19.6197C20.1497 8.625 20.578 9.05433 20.578 9.58333V13.4167C20.578 13.9466 20.1487 14.375 19.6197 14.375H13.8697C13.3398 14.375 12.9114 13.9457 12.9114 13.4167V9.58333C12.9114 9.05433 13.3407 8.625 13.8697 8.625Z" stroke="#6B7280" stroke-width="1.5" stroke-linecap="round" stroke-linejoin="round"/>
<path d="M8.40739 13.4167L6.49072 11.4991L8.40739 9.58337" stroke="#6B7280" stroke-width="1.5" stroke-linecap="round" stroke-linejoin="round"/>
<path d="M6.49072 11.5H10.0366" stroke="#6B7280" stroke-width="1.5" stroke-linecap="round" stroke-linejoin="round"/>
<path d="M13.8698 17.25V18.2083C13.8698 19.2673 13.0121 20.125 11.9531 20.125H5.24479C4.18583 20.125 3.32812 19.2673 3.32812 18.2083V4.79167C3.32812 3.73271 4.18583 2.875 5.24479 2.875H11.9531C13.0121 2.875 13.8698 3.73271 13.8698 4.79167V5.75" stroke="#6B7280" stroke-width="1.5" stroke-linecap="round" stroke-linejoin="round"/>
</svg>
