<svg width="80" height="33" viewBox="0 0 80 33" fill="none" xmlns="http://www.w3.org/2000/svg">
<path d="M0 1.88681H3.62492V17.6405H0V1.88681Z" fill="black"/>
<path d="M7.11986 6.09235C7.70852 5.92564 8.46759 5.77409 9.39705 5.6377C10.3265 5.48615 11.3025 5.41037 12.3249 5.41037C13.3628 5.41037 14.2225 5.54677 14.9041 5.81956C15.6012 6.07719 16.1512 6.44849 16.5539 6.93346C16.9567 7.41842 17.2433 7.99431 17.4137 8.66114C17.5841 9.32796 17.6693 10.0706 17.6693 10.8889V17.6405H14.207V11.2981C14.207 10.207 14.0599 9.43405 13.7655 8.9794C13.4712 8.52474 12.9213 8.29742 12.1157 8.29742C11.8679 8.29742 11.6045 8.31257 11.3257 8.34288C11.0469 8.35804 10.799 8.38077 10.5821 8.41108V17.6405H7.11986V6.09235Z" fill="black"/>
<path d="M24.3119 15.2081C24.947 15.2081 25.3963 15.1475 25.6596 15.0263C25.923 14.905 26.0547 14.6701 26.0547 14.3216C26.0547 14.0488 25.8843 13.8139 25.5435 13.6169C25.2026 13.4047 24.6837 13.1698 23.9866 12.9121C23.4444 12.7151 22.9487 12.5105 22.4994 12.2984C22.0657 12.0862 21.6939 11.8361 21.3841 11.5482C21.0743 11.2451 20.8342 10.8889 20.6637 10.4798C20.4933 10.0706 20.4081 9.57802 20.4081 9.00213C20.4081 7.88065 20.8342 6.99408 21.6862 6.34241C22.5382 5.69074 23.7078 5.3649 25.1949 5.3649C25.9385 5.3649 26.6511 5.4331 27.3327 5.5695C28.0143 5.69074 28.5565 5.82714 28.9592 5.97869L28.3551 8.61567C27.9523 8.47928 27.5108 8.35804 27.0306 8.25195C26.5659 8.14587 26.0392 8.09282 25.4505 8.09282C24.3661 8.09282 23.8239 8.38835 23.8239 8.9794C23.8239 9.11579 23.8472 9.23703 23.8936 9.34312C23.9401 9.4492 24.0331 9.55529 24.1725 9.66138C24.3119 9.75231 24.4978 9.85839 24.7302 9.97963C24.978 10.0857 25.2878 10.207 25.6596 10.3434C26.4187 10.6161 27.0461 10.8889 27.5418 11.1617C28.0375 11.4194 28.4248 11.7073 28.7036 12.0256C28.998 12.3287 29.1994 12.6697 29.3078 13.0485C29.4317 13.4274 29.4937 13.8669 29.4937 14.367C29.4937 15.5491 29.0367 16.4433 28.1227 17.0495C27.2242 17.6557 25.9462 17.9588 24.2887 17.9588C23.2043 17.9588 22.2981 17.8679 21.57 17.686C20.8574 17.5041 20.3617 17.3526 20.0828 17.2313L20.6637 14.4807C21.2524 14.708 21.8566 14.8899 22.4762 15.0263C23.0959 15.1475 23.7078 15.2081 24.3119 15.2081Z" fill="black"/>
<path d="M42.5144 17.2313C41.9257 17.3981 41.1667 17.5496 40.2372 17.686C39.3077 17.8376 38.3318 17.9133 37.3094 17.9133C36.2715 17.9133 35.404 17.7769 34.7069 17.5041C34.0253 17.2313 33.4831 16.8525 33.0803 16.3675C32.6775 15.8674 32.3909 15.2763 32.2205 14.5944C32.0501 13.9124 31.9649 13.1622 31.9649 12.3438V5.68316H35.4272V11.9346C35.4272 13.0258 35.5744 13.8139 35.8687 14.2988C36.163 14.7838 36.713 15.0263 37.5185 15.0263C37.7664 15.0263 38.0297 15.0187 38.3085 15.0035C38.5874 14.9732 38.8352 14.9429 39.0521 14.9126V5.68316H42.5144V17.2313Z" fill="black"/>
<path d="M53.1305 8.68387C52.8206 8.6081 52.4566 8.53232 52.0383 8.45654C51.6201 8.36561 51.1708 8.32015 50.6906 8.32015C50.4737 8.32015 50.2104 8.34288 49.9006 8.38835C49.6062 8.41866 49.3816 8.45654 49.2267 8.50201V17.6405H45.7644V6.31968C46.3841 6.1075 47.1122 5.91049 47.9487 5.72863C48.8007 5.53161 49.7456 5.4331 50.7836 5.4331C50.9694 5.4331 51.1941 5.44826 51.4574 5.47857C51.7208 5.49372 51.9841 5.52403 52.2475 5.5695C52.5108 5.59981 52.7742 5.64527 53.0375 5.70589C53.3009 5.75136 53.5255 5.81198 53.7114 5.88776L53.1305 8.68387Z" fill="black"/>
<path d="M54.7596 11.7528C54.7596 10.6919 54.9222 9.76746 55.2475 8.9794C55.5883 8.17618 56.0298 7.50935 56.572 6.97892C57.1142 6.44849 57.7339 6.04688 58.431 5.77409C59.1435 5.5013 59.8716 5.3649 60.6152 5.3649C62.3502 5.3649 63.7212 5.88776 64.7281 6.93346C65.735 7.964 66.2385 9.48709 66.2385 11.5027C66.2385 11.6997 66.2307 11.9195 66.2152 12.162C66.1997 12.3893 66.1842 12.5939 66.1688 12.7757H58.3148C58.3922 13.4729 58.7253 14.026 59.3139 14.4352C59.9026 14.8444 60.6927 15.049 61.6841 15.049C62.3192 15.049 62.9389 14.996 63.543 14.8899C64.1627 14.7686 64.6661 14.6247 65.0534 14.458L65.5181 17.2086C65.3322 17.2995 65.0844 17.3905 64.7746 17.4814C64.4647 17.5723 64.1162 17.6481 63.7289 17.7087C63.3571 17.7845 62.9544 17.8451 62.5206 17.8906C62.0869 17.9361 61.6531 17.9588 61.2194 17.9588C60.1195 17.9588 59.159 17.7997 58.338 17.4814C57.5325 17.1631 56.8586 16.7312 56.3164 16.1856C55.7897 15.6249 55.3947 14.9657 55.1313 14.2079C54.8835 13.4501 54.7596 12.6318 54.7596 11.7528ZM62.8924 10.457C62.8769 10.1691 62.8227 9.8887 62.7297 9.61591C62.6523 9.34312 62.5206 9.10064 62.3347 8.88846C62.1643 8.67629 61.9397 8.50201 61.6608 8.36561C61.3975 8.22922 61.0644 8.16102 60.6617 8.16102C60.2744 8.16102 59.9413 8.22922 59.6625 8.36561C59.3837 8.48686 59.1513 8.65356 58.9654 8.86573C58.7795 9.0779 58.6323 9.32796 58.5239 9.61591C58.431 9.8887 58.3612 10.1691 58.3148 10.457H62.8924Z" fill="black"/>
<path d="M71.8614 11.5709C71.8614 12.6166 72.1015 13.4577 72.5817 14.0942C73.0619 14.7308 73.7745 15.049 74.7195 15.049C75.0293 15.049 75.3159 15.0414 75.5792 15.0263C75.8426 14.996 76.0595 14.9657 76.2299 14.9353V8.7748C76.013 8.63841 75.7264 8.52474 75.3701 8.43381C75.0293 8.34288 74.6808 8.29742 74.3245 8.29742C72.6824 8.29742 71.8614 9.38858 71.8614 11.5709ZM79.6921 17.2541C79.3823 17.345 79.026 17.4359 78.6233 17.5269C78.2205 17.6026 77.7945 17.6708 77.3452 17.7315C76.9115 17.7921 76.4622 17.8376 75.9975 17.8679C75.5483 17.9133 75.1145 17.9361 74.6963 17.9361C73.6893 17.9361 72.7908 17.7921 72.0008 17.5041C71.2108 17.2162 70.5446 16.807 70.0024 16.2766C69.4603 15.731 69.042 15.0793 68.7477 14.3216C68.4688 13.5487 68.3294 12.6848 68.3294 11.73C68.3294 10.7601 68.4533 9.8887 68.7012 9.11579C68.9491 8.32773 69.3054 7.6609 69.7701 7.11532C70.2348 6.56973 70.8002 6.15297 71.4664 5.86502C72.148 5.57708 72.9225 5.4331 73.79 5.4331C74.2702 5.4331 74.6963 5.47857 75.068 5.5695C75.4553 5.66043 75.8426 5.78925 76.2299 5.95595V0.545583L79.6921 0V17.2541Z" fill="black"/>
<path d="M40.3246 25.3871C40.438 25.3141 40.6082 25.2377 40.8351 25.158C41.0687 25.0784 41.3357 25.0385 41.636 25.0385C42.0097 25.0385 42.3401 25.1049 42.627 25.2377C42.9207 25.3705 43.1676 25.5564 43.3678 25.7955C43.5681 26.0345 43.7182 26.32 43.8183 26.652C43.9251 26.984 43.9785 27.3491 43.9785 27.7475C43.9785 28.1658 43.9151 28.5443 43.7883 28.8829C43.6682 29.2149 43.4947 29.4971 43.2677 29.7295C43.0408 29.9619 42.7672 30.1411 42.4469 30.2673C42.1265 30.3934 41.7661 30.4565 41.3657 30.4565C40.9319 30.4565 40.5481 30.4266 40.2144 30.3669C39.8807 30.3071 39.6071 30.2474 39.3936 30.1876V22.7678L40.3246 22.6084V25.3871ZM40.3246 29.5303C40.418 29.5568 40.5481 29.5834 40.715 29.61C40.8885 29.6299 41.1021 29.6398 41.3557 29.6398C41.8562 29.6398 42.2566 29.4772 42.557 29.1518C42.8573 28.8198 43.0075 28.3517 43.0075 27.7475C43.0075 27.4819 42.9808 27.2329 42.9274 27.0006C42.874 26.7682 42.7872 26.569 42.6671 26.403C42.547 26.2304 42.3901 26.0976 42.1966 26.0046C42.0097 25.905 41.7828 25.8552 41.5158 25.8552C41.2622 25.8552 41.0287 25.8984 40.8151 25.9847C40.6015 26.071 40.438 26.1606 40.3246 26.2536V29.5303ZM44.5508 31.3031C44.6243 31.3363 44.7177 31.3662 44.8311 31.3927C44.9513 31.4259 45.0681 31.4425 45.1815 31.4425C45.5486 31.4425 45.8356 31.3595 46.0425 31.1935C46.2493 31.0342 46.4362 30.7719 46.6031 30.4067C46.1826 29.61 45.7889 28.7667 45.4218 27.877C45.0614 26.9806 44.7611 26.0743 44.5208 25.158H45.5219C45.5953 25.4568 45.6821 25.7789 45.7822 26.1241C45.889 26.4694 46.0058 26.8246 46.1326 27.1898C46.2594 27.555 46.3962 27.9202 46.543 28.2853C46.6898 28.6505 46.8433 29.0024 47.0035 29.341C47.2571 28.6439 47.4773 27.9534 47.6642 27.2695C47.8511 26.5856 48.0279 25.8818 48.1948 25.158H49.1558C48.9156 26.1341 48.6486 27.0736 48.355 27.9766C48.0613 28.8729 47.7443 29.7129 47.4039 30.4964C47.2705 30.7951 47.1303 31.0508 46.9835 31.2632C46.8433 31.4823 46.6865 31.6616 46.513 31.8011C46.3394 31.9405 46.1426 32.0434 45.9223 32.1098C45.7088 32.1762 45.4652 32.2094 45.1915 32.2094C45.1181 32.2094 45.0414 32.2028 44.9613 32.1895C44.8812 32.1828 44.8011 32.1696 44.721 32.1496C44.6476 32.1364 44.5775 32.1198 44.5108 32.0998C44.4507 32.0799 44.4074 32.0633 44.3807 32.05L44.5508 31.3031ZM51.7417 30.9445H56.7471V32.1795H51.7417V30.9445ZM58.9595 30.2374C58.4723 30.1976 58.0752 30.1245 57.7682 30.0183C57.4679 29.9054 57.2443 29.8125 57.0975 29.7394L57.5279 28.5941C57.7615 28.707 58.0385 28.8099 58.3588 28.9028C58.6858 28.9958 59.0295 29.0423 59.3899 29.0423C59.797 29.0423 60.074 28.9891 60.2208 28.8829C60.3743 28.77 60.4511 28.614 60.4511 28.4148C60.4511 28.2887 60.421 28.1824 60.361 28.0961C60.3009 28.0031 60.2142 27.9202 60.1007 27.8471C59.9872 27.7741 59.8438 27.7044 59.6702 27.638C59.4967 27.5649 59.2965 27.4886 59.0696 27.4089C58.8493 27.3292 58.6324 27.2429 58.4189 27.1499C58.212 27.0504 58.0218 26.9308 57.8483 26.7914C57.6814 26.652 57.5446 26.4827 57.4378 26.2835C57.3377 26.0776 57.2877 25.832 57.2877 25.5465C57.2877 25.3274 57.3177 25.1182 57.3778 24.919C57.4445 24.7132 57.5446 24.5273 57.6781 24.3613C57.8116 24.1953 57.9851 24.0559 58.1986 23.943C58.4122 23.8235 58.6658 23.7371 58.9595 23.684V22.6084H60.2208V23.6442C60.5679 23.6774 60.8649 23.7272 61.1118 23.7936C61.3654 23.86 61.5656 23.9264 61.7124 23.9928L61.4021 25.1879C61.1819 25.095 60.9249 25.0153 60.6313 24.9489C60.3443 24.8825 60.0406 24.8493 59.7203 24.8493C59.3999 24.8493 59.1697 24.9024 59.0295 25.0086C58.8894 25.1149 58.8193 25.2543 58.8193 25.4269C58.8193 25.5332 58.8393 25.6261 58.8794 25.7058C58.9261 25.7789 58.9962 25.8452 59.0896 25.905C59.183 25.9648 59.2965 26.0245 59.43 26.0843C59.5701 26.1374 59.737 26.1972 59.9305 26.2635C60.2242 26.3698 60.4945 26.486 60.7414 26.6121C60.995 26.7383 61.2119 26.8844 61.3921 27.0504C61.579 27.2097 61.7224 27.3989 61.8226 27.618C61.9293 27.8372 61.9827 28.0928 61.9827 28.3849C61.9827 28.5841 61.9527 28.7833 61.8926 28.9825C61.8326 29.1751 61.7325 29.3543 61.5923 29.5203C61.4522 29.6863 61.2686 29.8291 61.0417 29.9486C60.8215 30.0681 60.5478 30.1544 60.2208 30.2075V31.4226H58.9595V30.2374ZM67.6324 30.1577C67.3788 30.2308 67.0518 30.2972 66.6513 30.3569C66.2509 30.4233 65.8304 30.4565 65.39 30.4565C64.9428 30.4565 64.5691 30.3968 64.2688 30.2772C63.9751 30.1577 63.7415 29.9917 63.568 29.7793C63.3945 29.5602 63.271 29.3012 63.1976 29.0024C63.1242 28.7036 63.0875 28.375 63.0875 28.0164V25.0983H64.5791V27.8372C64.5791 28.3152 64.6425 28.6605 64.7693 28.8729C64.8961 29.0854 65.133 29.1917 65.4801 29.1917C65.5868 29.1917 65.7003 29.1883 65.8204 29.1817C65.9406 29.1684 66.0473 29.1551 66.1408 29.1419V25.0983H67.6324V30.1577ZM70.304 27.6778C70.304 28.1359 70.4074 28.5044 70.6143 28.7833C70.8212 29.0622 71.1282 29.2016 71.5353 29.2016C71.6688 29.2016 71.7923 29.1983 71.9057 29.1917C72.0192 29.1784 72.1126 29.1651 72.186 29.1518V26.4528C72.0926 26.393 71.9691 26.3432 71.8156 26.3034C71.6688 26.2635 71.5186 26.2436 71.3651 26.2436C70.6577 26.2436 70.304 26.7217 70.304 27.6778ZM73.6776 30.1677C73.5442 30.2075 73.3907 30.2474 73.2171 30.2872C73.0436 30.3204 72.8601 30.3503 72.6665 30.3768C72.4797 30.4034 72.2861 30.4233 72.0859 30.4366C71.8924 30.4565 71.7055 30.4665 71.5253 30.4665C71.0915 30.4665 70.7044 30.4034 70.3641 30.2772C70.0237 30.1511 69.7367 29.9718 69.5031 29.7394C69.2695 29.5004 69.0893 29.2149 68.9625 28.8829C68.8424 28.5443 68.7824 28.1658 68.7824 27.7475C68.7824 27.3226 68.8357 26.9408 68.9425 26.6022C69.0493 26.2569 69.2028 25.9648 69.403 25.7257C69.6032 25.4867 69.8468 25.3041 70.1338 25.178C70.4275 25.0518 70.7612 24.9887 71.1349 24.9887C71.3418 24.9887 71.5253 25.0086 71.6855 25.0485C71.8523 25.0883 72.0192 25.1448 72.186 25.2178V22.8474L73.6776 22.6084V30.1677ZM79.9996 27.7077C79.9996 28.1193 79.9396 28.4978 79.8194 28.8431C79.6993 29.1817 79.5258 29.4738 79.2989 29.7195C79.072 29.9585 78.7983 30.1444 78.478 30.2772C78.1643 30.41 77.8106 30.4764 77.4168 30.4764C77.0298 30.4764 76.676 30.41 76.3557 30.2772C76.042 30.1444 75.7717 29.9585 75.5448 29.7195C75.3179 29.4738 75.1411 29.1817 75.0143 28.8431C74.8874 28.4978 74.824 28.1193 74.824 27.7077C74.824 27.296 74.8874 26.9209 75.0143 26.5823C75.1477 26.2436 75.3279 25.9548 75.5548 25.7158C75.7884 25.4767 76.062 25.2908 76.3757 25.158C76.6961 25.0252 77.0431 24.9588 77.4168 24.9588C77.7973 24.9588 78.1443 25.0252 78.458 25.158C78.7783 25.2908 79.0519 25.4767 79.2789 25.7158C79.5058 25.9548 79.6826 26.2436 79.8094 26.5823C79.9362 26.9209 79.9996 27.296 79.9996 27.7077ZM78.478 27.7077C78.478 27.2495 78.3846 26.891 78.1977 26.6321C78.0175 26.3665 77.7572 26.2337 77.4168 26.2337C77.0765 26.2337 76.8129 26.3665 76.626 26.6321C76.4391 26.891 76.3457 27.2495 76.3457 27.7077C76.3457 28.1658 76.4391 28.531 76.626 28.8032C76.8129 29.0688 77.0765 29.2016 77.4168 29.2016C77.7572 29.2016 78.0175 29.0688 78.1977 28.8032C78.3846 28.531 78.478 28.1658 78.478 27.7077Z" fill="black"/>
</svg>
