<svg width="63" height="62" viewBox="0 0 63 62" fill="none" xmlns="http://www.w3.org/2000/svg">
<rect width="62.1304" height="62" rx="10" fill="#FAFAFA"/>
<path fill-rule="evenodd" clip-rule="evenodd" d="M30.2929 38.7071C30.6834 39.0976 31.3166 39.0976 31.7071 38.7071L38.7071 31.7071C39.0976 31.3166 39.0976 30.6834 38.7071 30.2929C38.3166 29.9024 37.6834 29.9024 37.2929 30.2929L32 35.5858L32 24C32 23.4477 31.5523 23 31 23C30.4477 23 30 23.4477 30 24L30 35.5858L24.7071 30.2929C24.3166 29.9024 23.6834 29.9024 23.2929 30.2929C22.9024 30.6834 22.9024 31.3166 23.2929 31.7071L30.2929 38.7071Z" fill="#4845ED"/>
</svg>
