<svg width="22" height="24" viewBox="0 0 22 24" fill="none" xmlns="http://www.w3.org/2000/svg">
<path d="M11 15.5V17.8333M4.00002 22.5H18C18.6189 22.5 19.2123 22.2542 19.6499 21.8166C20.0875 21.379 20.3334 20.7855 20.3334 20.1667V13.1667C20.3334 12.5478 20.0875 11.9543 19.6499 11.5168C19.2123 11.0792 18.6189 10.8333 18 10.8333H4.00002C3.38118 10.8333 2.78769 11.0792 2.3501 11.5168C1.91252 11.9543 1.66669 12.5478 1.66669 13.1667V20.1667C1.66669 20.7855 1.91252 21.379 2.3501 21.8166C2.78769 22.2542 3.38118 22.5 4.00002 22.5ZM15.6667 10.8333V6.16667C15.6667 4.92899 15.175 3.742 14.2999 2.86683C13.4247 1.99167 12.2377 1.5 11 1.5C9.76234 1.5 8.57536 1.99167 7.70019 2.86683C6.82502 3.742 6.33335 4.92899 6.33335 6.16667V10.8333H15.6667Z" stroke="#9FA6B2" stroke-width="2" stroke-linecap="round" stroke-linejoin="round"/>
</svg>
