<svg width="20" height="23" viewBox="0 0 20 23" fill="none" xmlns="http://www.w3.org/2000/svg">
<path fill-rule="evenodd" clip-rule="evenodd" d="M18.6038 6.14675L15.8936 3.43658C15.5342 3.07721 15.0464 2.875 14.5385 2.875H5.7487C4.68974 2.875 3.83203 3.73271 3.83203 4.79167V18.2083C3.83203 19.2673 4.68974 20.125 5.7487 20.125H17.2487C18.3077 20.125 19.1654 19.2673 19.1654 18.2083V7.50183C19.1654 6.99392 18.9632 6.50612 18.6038 6.14675Z" stroke="#6B7280" stroke-width="1.5" stroke-linecap="round" stroke-linejoin="round"/>
<path d="M19.1667 7.66667H15.3333C14.8043 7.66667 14.375 7.23733 14.375 6.70833V2.875" stroke="#6B7280" stroke-width="1.5" stroke-linecap="round" stroke-linejoin="round"/>
<path d="M13.0312 11.5L15.3313 13.8L13.0312 16.1" stroke="#6B7280" stroke-width="1.5" stroke-linecap="round" stroke-linejoin="round"/>
<path d="M9.96406 11.5L7.66406 13.8L9.96406 16.1" stroke="#6B7280" stroke-width="1.5" stroke-linecap="round" stroke-linejoin="round"/>
</svg>
