<svg width="127" height="127" viewBox="0 0 127 127" fill="none" xmlns="http://www.w3.org/2000/svg">
<circle cx="63.5" cy="63.5" r="62.5" fill="#F3F4F6" stroke="white" stroke-width="2"/>
<circle cx="63.5" cy="63.5" r="62.5" fill="#F3F4F6" stroke="white" stroke-width="2"/>
<path opacity="0.6" d="M93.4938 25V90.7746L82.0399 102.228H36.7626C36.2946 102.227 35.8463 102.04 35.5159 101.709C35.1855 101.377 35 100.928 35 100.46V25H93.4938Z" fill="white"/>
<path d="M68.1865 30.6171H57.0017C56.8561 30.6171 56.7164 30.5593 56.6135 30.4563C56.5105 30.3534 56.4526 30.2137 56.4526 30.0681C56.4526 29.9224 56.5105 29.7828 56.6135 29.6798C56.7164 29.5768 56.8561 29.519 57.0017 29.519H68.1865C68.3322 29.519 68.4718 29.5768 68.5748 29.6798C68.6778 29.7828 68.7356 29.9224 68.7356 30.0681C68.7356 30.2137 68.6778 30.3534 68.5748 30.4563C68.4718 30.5593 68.3322 30.6171 68.1865 30.6171Z" fill="#4845ED"/>
<path d="M72.7877 33.5932H52.4168C52.2711 33.5932 52.1315 33.5353 52.0285 33.4323C51.9255 33.3294 51.8677 33.1897 51.8677 33.0441C51.8677 32.8985 51.9255 32.7588 52.0285 32.6558C52.1315 32.5528 52.2711 32.495 52.4168 32.495H72.7877C72.9333 32.495 73.073 32.5528 73.176 32.6558C73.2789 32.7588 73.3368 32.8985 73.3368 33.0441C73.3368 33.1897 73.2789 33.3294 73.176 33.4323C73.073 33.5353 72.9333 33.5932 72.7877 33.5932Z" fill="#4845ED"/>
<path d="M68.3513 36.5967H56.8645C56.7189 36.5967 56.5792 36.5389 56.4763 36.4359C56.3733 36.3329 56.3154 36.1932 56.3154 36.0476C56.3154 35.902 56.3733 35.7623 56.4763 35.6594C56.5792 35.5564 56.7189 35.4985 56.8645 35.4985H68.3952C68.5409 35.4985 68.6805 35.5564 68.7835 35.6594C68.8865 35.7623 68.9443 35.902 68.9443 36.0476C68.9443 36.1932 68.8865 36.3329 68.7835 36.4359C68.6805 36.5389 68.5409 36.5967 68.3952 36.5967H68.3513Z" fill="#4845ED"/>
<path d="M85.9935 44.5364H45.8831C45.7374 44.5364 45.5978 44.4785 45.4948 44.3756C45.3918 44.2726 45.334 44.1329 45.334 43.9873C45.334 43.8417 45.3918 43.702 45.4948 43.5991C45.5978 43.4961 45.7374 43.4382 45.8831 43.4382H85.9661C86.1117 43.4382 86.2514 43.4961 86.3543 43.5991C86.4573 43.702 86.5152 43.8417 86.5152 43.9873C86.5152 44.1329 86.4573 44.2726 86.3543 44.3756C86.2514 44.4785 86.1117 44.5364 85.9661 44.5364H85.9935Z" fill="#4845ED"/>
<path d="M79.2893 56.5338H39.2063C39.0607 56.5338 38.921 56.476 38.818 56.373C38.7151 56.27 38.6572 56.1304 38.6572 55.9848C38.6572 55.8391 38.7151 55.6995 38.818 55.5965C38.921 55.4935 39.0607 55.4357 39.2063 55.4357H79.2893C79.435 55.4357 79.5746 55.4935 79.6776 55.5965C79.7806 55.6995 79.8384 55.8391 79.8384 55.9848C79.8384 56.1304 79.7806 56.27 79.6776 56.373C79.5746 56.476 79.435 56.5338 79.2893 56.5338Z" fill="#4845ED"/>
<path d="M85.9934 47.5344H39.1951C39.0495 47.5344 38.9098 47.4766 38.8068 47.3736C38.7038 47.2706 38.646 47.131 38.646 46.9854C38.646 46.8397 38.7038 46.7001 38.8068 46.5971C38.9098 46.4941 39.0495 46.4363 39.1951 46.4363H85.9934C86.139 46.4363 86.2787 46.4941 86.3816 46.5971C86.4846 46.7001 86.5425 46.8397 86.5425 46.9854C86.5425 47.131 86.4846 47.2706 86.3816 47.3736C86.2787 47.4766 86.139 47.5344 85.9934 47.5344Z" fill="#4845ED"/>
<path d="M85.9934 50.5379H39.1951C39.0495 50.5379 38.9098 50.48 38.8068 50.377C38.7038 50.2741 38.646 50.1344 38.646 49.9888C38.646 49.8432 38.7038 49.7035 38.8068 49.6005C38.9098 49.4975 39.0495 49.4397 39.1951 49.4397H85.9934C86.139 49.4397 86.2787 49.4975 86.3816 49.6005C86.4846 49.7035 86.5425 49.8432 86.5425 49.9888C86.5425 50.1344 86.4846 50.2741 86.3816 50.377C86.2787 50.48 86.139 50.5379 85.9934 50.5379Z" fill="#4845ED"/>
<path d="M85.9934 53.5359H39.1951C39.0495 53.5359 38.9098 53.4781 38.8068 53.3751C38.7038 53.2721 38.646 53.1325 38.646 52.9868C38.646 52.8412 38.7038 52.7015 38.8068 52.5986C38.9098 52.4956 39.0495 52.4377 39.1951 52.4377H85.9934C86.139 52.4377 86.2787 52.4956 86.3816 52.5986C86.4846 52.7015 86.5425 52.8412 86.5425 52.9868C86.5425 53.1325 86.4846 53.2721 86.3816 53.3751C86.2787 53.4781 86.139 53.5359 85.9934 53.5359Z" fill="#4845ED"/>
<path d="M85.9935 74.736H45.8831C45.7374 74.736 45.5978 74.6781 45.4948 74.5752C45.3918 74.4722 45.334 74.3325 45.334 74.1869C45.334 74.0413 45.3918 73.9016 45.4948 73.7986C45.5978 73.6957 45.7374 73.6378 45.8831 73.6378H85.9661C86.1117 73.6378 86.2514 73.6957 86.3543 73.7986C86.4573 73.9016 86.5152 74.0413 86.5152 74.1869C86.5152 74.3325 86.4573 74.4722 86.3543 74.5752C86.2514 74.6781 86.1117 74.736 85.9661 74.736H85.9935Z" fill="#4845ED"/>
<path d="M79.2893 86.7334H39.2063C39.0607 86.7334 38.921 86.6756 38.818 86.5726C38.7151 86.4696 38.6572 86.33 38.6572 86.1843C38.6572 86.0387 38.7151 85.899 38.818 85.7961C38.921 85.6931 39.0607 85.6353 39.2063 85.6353H79.2893C79.435 85.6353 79.5746 85.6931 79.6776 85.7961C79.7806 85.899 79.8384 86.0387 79.8384 86.1843C79.8384 86.33 79.7806 86.4696 79.6776 86.5726C79.5746 86.6756 79.435 86.7334 79.2893 86.7334Z" fill="#4845ED"/>
<path d="M85.9934 77.7339H39.1951C39.0495 77.7339 38.9098 77.6761 38.8068 77.5731C38.7038 77.4701 38.646 77.3305 38.646 77.1848C38.646 77.0392 38.7038 76.8995 38.8068 76.7966C38.9098 76.6936 39.0495 76.6357 39.1951 76.6357H85.9934C86.139 76.6357 86.2787 76.6936 86.3816 76.7966C86.4846 76.8995 86.5425 77.0392 86.5425 77.1848C86.5425 77.3305 86.4846 77.4701 86.3816 77.5731C86.2787 77.6761 86.139 77.7339 85.9934 77.7339Z" fill="#4845ED"/>
<path d="M85.9934 80.7374H39.1951C39.0495 80.7374 38.9098 80.6796 38.8068 80.5766C38.7038 80.4737 38.646 80.334 38.646 80.1884C38.646 80.0427 38.7038 79.9031 38.8068 79.8001C38.9098 79.6971 39.0495 79.6393 39.1951 79.6393H85.9934C86.139 79.6393 86.2787 79.6971 86.3816 79.8001C86.4846 79.9031 86.5425 80.0427 86.5425 80.1884C86.5425 80.334 86.4846 80.4737 86.3816 80.5766C86.2787 80.6796 86.139 80.7374 85.9934 80.7374Z" fill="#4845ED"/>
<path d="M85.9934 83.7354H39.1951C39.0495 83.7354 38.9098 83.6775 38.8068 83.5746C38.7038 83.4716 38.646 83.3319 38.646 83.1863C38.646 83.0407 38.7038 82.901 38.8068 82.798C38.9098 82.6951 39.0495 82.6372 39.1951 82.6372H85.9934C86.139 82.6372 86.2787 82.6951 86.3816 82.798C86.4846 82.901 86.5425 83.0407 86.5425 83.1863C86.5425 83.3319 86.4846 83.4716 86.3816 83.5746C86.2787 83.6775 86.139 83.7354 85.9934 83.7354Z" fill="#4845ED"/>
<path d="M85.9931 29.3872H80.376V36.8657H85.9931V29.3872Z" fill="#4845ED"/>
<path d="M42.314 35.6138C44.0334 35.6138 45.4273 34.2199 45.4273 32.5005C45.4273 30.7811 44.0334 29.3872 42.314 29.3872C40.5946 29.3872 39.2007 30.7811 39.2007 32.5005C39.2007 34.2199 40.5946 35.6138 42.314 35.6138Z" fill="#4845ED"/>
<path d="M39.0193 60.4598C39.0343 60.6235 39.1099 60.7756 39.2313 60.8864C39.3527 60.9972 39.5112 61.0586 39.6755 61.0586C39.8399 61.0586 39.9983 60.9972 40.1197 60.8864C40.2411 60.7756 40.3167 60.6235 40.3317 60.4598C40.34 60.3686 40.3293 60.2767 40.3001 60.1898C40.2709 60.103 40.2239 60.0232 40.1622 59.9556C40.1005 59.8879 40.0253 59.8339 39.9415 59.7969C39.8577 59.7599 39.7671 59.7408 39.6755 59.7408C39.5839 59.7408 39.4933 59.7599 39.4095 59.7969C39.3257 59.8339 39.2506 59.8879 39.1888 59.9556C39.1271 60.0232 39.0801 60.103 39.0509 60.1898C39.0217 60.2767 39.011 60.3686 39.0193 60.4598Z" fill="#4845ED"/>
<path d="M39.0196 63.4578C39.0185 63.5885 39.0563 63.7167 39.1283 63.8259C39.2003 63.9351 39.3031 64.0204 39.4238 64.0709C39.5444 64.1215 39.6773 64.135 39.8056 64.1097C39.934 64.0845 40.0519 64.0216 40.1443 63.9291C40.2368 63.8367 40.2997 63.7187 40.3249 63.5904C40.3502 63.4621 40.3367 63.3292 40.2861 63.2085C40.2356 63.0879 40.1503 62.9851 40.0411 62.9131C39.9319 62.8411 39.8037 62.8033 39.673 62.8043C39.4997 62.8043 39.3335 62.8732 39.2109 62.9957C39.0884 63.1183 39.0196 63.2845 39.0196 63.4578Z" fill="#4845ED"/>
<path d="M39.0193 66.4613C39.0343 66.625 39.1099 66.7771 39.2313 66.8879C39.3527 66.9987 39.5112 67.0601 39.6755 67.0601C39.8399 67.0601 39.9983 66.9987 40.1197 66.8879C40.2411 66.7771 40.3167 66.625 40.3317 66.4613C40.34 66.3701 40.3293 66.2781 40.3001 66.1913C40.2709 66.1045 40.2239 66.0247 40.1622 65.957C40.1005 65.8894 40.0253 65.8354 39.9415 65.7984C39.8577 65.7614 39.7671 65.7423 39.6755 65.7423C39.5839 65.7423 39.4933 65.7614 39.4095 65.7984C39.3257 65.8354 39.2506 65.8894 39.1888 65.957C39.1271 66.0247 39.0801 66.1045 39.0509 66.1913C39.0217 66.2781 39.011 66.3701 39.0193 66.4613Z" fill="#4845ED"/>
<path d="M39.0193 69.4592C39.0343 69.6229 39.1099 69.775 39.2313 69.8858C39.3527 69.9966 39.5112 70.058 39.6755 70.058C39.8399 70.058 39.9983 69.9966 40.1197 69.8858C40.2411 69.775 40.3167 69.6229 40.3317 69.4592C40.34 69.368 40.3293 69.2761 40.3001 69.1892C40.2709 69.1024 40.2239 69.0226 40.1622 68.955C40.1005 68.8873 40.0253 68.8333 39.9415 68.7963C39.8577 68.7593 39.7671 68.7402 39.6755 68.7402C39.5839 68.7402 39.4933 68.7593 39.4095 68.7963C39.3257 68.8333 39.2506 68.8873 39.1888 68.955C39.1271 69.0226 39.0801 69.1024 39.0509 69.1892C39.0217 69.2761 39.011 69.368 39.0193 69.4592Z" fill="#4845ED"/>
<path d="M49.0895 61.0089H41.9514C41.8058 61.0089 41.6661 60.9511 41.5632 60.8481C41.4602 60.7451 41.4023 60.6055 41.4023 60.4598C41.4023 60.3142 41.4602 60.1746 41.5632 60.0716C41.6661 59.9686 41.8058 59.9108 41.9514 59.9108H49.0895C49.2351 59.9108 49.3748 59.9686 49.4778 60.0716C49.5807 60.1746 49.6386 60.3142 49.6386 60.4598C49.6386 60.6055 49.5807 60.7451 49.4778 60.8481C49.3748 60.9511 49.2351 61.0089 49.0895 61.0089Z" fill="#4845ED"/>
<path d="M55.794 64.0069H41.9407C41.7951 64.0069 41.6554 63.949 41.5524 63.846C41.4495 63.7431 41.3916 63.6034 41.3916 63.4578C41.3916 63.3121 41.4495 63.1725 41.5524 63.0695C41.6554 62.9665 41.7951 62.9087 41.9407 62.9087H55.794C55.9397 62.9087 56.0793 62.9665 56.1823 63.0695C56.2853 63.1725 56.3431 63.3121 56.3431 63.4578C56.3431 63.6034 56.2853 63.7431 56.1823 63.846C56.0793 63.949 55.9397 64.0069 55.794 64.0069Z" fill="#4845ED"/>
<path d="M47.5578 67.0104H41.9407C41.7951 67.0104 41.6554 66.9525 41.5524 66.8496C41.4495 66.7466 41.3916 66.6069 41.3916 66.4613C41.3916 66.3157 41.4495 66.176 41.5524 66.0731C41.6554 65.9701 41.7951 65.9122 41.9407 65.9122H47.5578C47.7034 65.9122 47.8431 65.9701 47.9461 66.0731C48.049 66.176 48.1069 66.3157 48.1069 66.4613C48.1069 66.6069 48.049 66.7466 47.9461 66.8496C47.8431 66.9525 47.7034 67.0104 47.5578 67.0104Z" fill="#4845ED"/>
<path d="M53.5977 70.0083H41.9407C41.7951 70.0083 41.6554 69.9505 41.5524 69.8475C41.4495 69.7445 41.3916 69.6049 41.3916 69.4592C41.3916 69.3136 41.4495 69.174 41.5524 69.071C41.6554 68.968 41.7951 68.9102 41.9407 68.9102H53.5977C53.7433 68.9102 53.883 68.968 53.986 69.071C54.0889 69.174 54.1468 69.3136 54.1468 69.4592C54.1468 69.6049 54.0889 69.7445 53.986 69.8475C53.883 69.9505 53.7433 70.0083 53.5977 70.0083Z" fill="#4845ED"/>
<path opacity="0.5" d="M93.4939 90.7747L82.04 102.229V90.7747H93.4939Z" fill="#4845ED"/>
<path opacity="0.2" d="M85.9931 29.3872L80.376 36.8657H85.9931V29.3872Z" fill="black"/>
<path opacity="0.2" d="M44.1311 30.683H40.4907V34.3234H44.1311V30.683Z" fill="black"/>
</svg>
