<svg width="127" height="127" viewBox="0 0 127 127" fill="none" xmlns="http://www.w3.org/2000/svg">
<circle cx="63.5" cy="63.5" r="62.5" fill="#F3F4F6" stroke="white" stroke-width="2"/>
<circle cx="63.5" cy="63.5" r="62.5" fill="#F3F4F6" stroke="white" stroke-width="2"/>
<mask id="mask0_4022:13725" style="mask-type:alpha" maskUnits="userSpaceOnUse" x="0" y="0" width="127" height="127">
<circle cx="63.5" cy="63.5" r="62.5" fill="#F3F4F6" stroke="white" stroke-width="2"/>
</mask>
<g mask="url(#mask0_4022:13725)">
<path d="M57.1222 165.835H-45.5737C-46.3782 165.833 -47.1492 165.513 -47.7176 164.943C-48.286 164.374 -48.6052 163.602 -48.6052 162.798V18.4364C-48.5982 17.6365 -48.2759 16.8717 -47.7083 16.308C-47.1407 15.7444 -46.3736 15.4275 -45.5737 15.4261H57.1222C57.9276 15.4261 58.7001 15.746 59.2696 16.3156C59.8391 16.8851 60.1591 17.6575 60.1591 18.463V162.798C60.1591 163.603 59.8391 164.376 59.2696 164.945C58.7001 165.515 57.9276 165.835 57.1222 165.835ZM-45.5737 15.5325C-46.3429 15.5339 -47.0802 15.8404 -47.6236 16.3849C-48.167 16.9293 -48.4723 17.6671 -48.4723 18.4364V162.798C-48.4723 163.567 -48.167 164.305 -47.6236 164.849C-47.0802 165.394 -46.3429 165.7 -45.5737 165.702H57.1222C57.8919 165.7 58.6297 165.394 59.174 164.85C59.7183 164.305 60.0247 163.567 60.0261 162.798V18.4364C60.0247 17.6666 59.7183 16.9288 59.174 16.3846C58.6297 15.8403 57.8919 15.5339 57.1222 15.5325H-45.5737Z" fill="#EBEBEB"/>
<path d="M172.168 165.835H69.4667C68.6617 165.833 67.8901 165.513 67.3209 164.944C66.7516 164.374 66.4312 163.603 66.4298 162.798V18.4364C66.4382 17.636 66.7617 16.8712 67.3302 16.3077C67.8986 15.7442 68.6663 15.4274 69.4667 15.4261H172.168C172.967 15.4289 173.733 15.7464 174.299 16.3099C174.866 16.8734 175.187 17.6374 175.194 18.4364V162.798C175.194 163.601 174.876 164.372 174.308 164.941C173.741 165.511 172.971 165.832 172.168 165.835ZM69.4667 15.5325C68.697 15.5339 67.9592 15.8403 67.4149 16.3846C66.8706 16.9288 66.5642 17.6666 66.5628 18.4364V162.798C66.5642 163.567 66.8706 164.305 67.4149 164.85C67.9592 165.394 68.697 165.7 69.4667 165.702H172.168C172.938 165.7 173.675 165.394 174.22 164.85C174.764 164.305 175.07 163.567 175.072 162.798V18.4364C175.07 17.6666 174.764 16.9288 174.22 16.3846C173.675 15.8403 172.938 15.5339 172.168 15.5325H69.4667Z" fill="#EBEBEB"/>
<path d="M-12.6678 95.6298L142.575 95.6298V33.6155L-12.6678 33.6155V95.6298Z" fill="#EBEBEB"/>
<path d="M-7.08325 90.0399L136.986 90.0399V39.1999L-7.08325 39.1999V90.0399Z" fill="white"/>
<path d="M89.4537 90.0399H97.5539L120.854 39.2053H112.76L89.4537 90.0399Z" fill="#F5F5F5"/>
<path d="M77.9922 90.0399H86.087L109.393 39.2053H101.293L77.9922 90.0399Z" fill="#F5F5F5"/>
<path d="M2.93164 90.0399H11.0318L34.3377 39.2053H26.2375L2.93164 90.0399Z" fill="#F5F5F5"/>
<path d="M157.839 189.555H114.174L110.302 117.361H153.962L157.839 189.555Z" fill="#E0E0E0"/>
<path d="M159.175 189.555H115.509L111.638 117.361H155.298L159.175 189.555Z" fill="#F0F0F0"/>
<path d="M124.923 182.109H123.328C123.174 182.109 123.022 182.077 122.88 182.017C122.739 181.957 122.611 181.869 122.503 181.758C122.396 181.648 122.313 181.517 122.257 181.374C122.201 181.23 122.175 181.077 122.179 180.923L124.136 125.919C124.146 125.622 124.27 125.341 124.484 125.134C124.697 124.928 124.983 124.812 125.279 124.813H126.875C127.029 124.813 127.181 124.843 127.323 124.904C127.464 124.964 127.592 125.052 127.699 125.162C127.806 125.273 127.889 125.404 127.944 125.548C127.999 125.692 128.024 125.845 128.019 125.999L126.088 181.003C126.077 181.303 125.949 181.587 125.731 181.794C125.513 182 125.223 182.114 124.923 182.109Z" fill="#FAFAFA"/>
<path d="M-17.428 119.627C-17.428 123.956 -12.4658 127.472 -6.34944 127.472C-0.233112 127.472 4.73441 123.956 4.73441 119.627H-17.428Z" fill="#EBEBEB"/>
<path d="M24.5994 124.813C24.5994 126.281 29.5562 127.472 35.6779 127.472C41.7995 127.472 46.7564 126.281 46.7564 124.813H24.5994Z" fill="#F5F5F5"/>
<path d="M24.5994 122.861C24.5994 124.329 29.5562 125.52 35.6779 125.52C41.7995 125.52 46.7564 124.329 46.7564 122.861H24.5994Z" fill="#F5F5F5"/>
<path d="M50.0699 124.813C50.0699 126.281 55.0268 127.472 61.1485 127.472C67.2701 127.472 72.227 126.281 72.227 124.813H50.0699Z" fill="#F5F5F5"/>
<path d="M50.0699 122.861C50.0699 124.329 55.0268 125.52 61.1485 125.52C67.2701 125.52 72.227 124.329 72.227 122.861H50.0699Z" fill="#F5F5F5"/>
<path d="M40.4645 107.283C40.4645 107.283 43.1238 139.561 42.3792 151.746C41.5388 165.085 38.3477 197.427 38.3477 197.427H30.7316C30.7316 197.427 31.3964 167.308 31.0081 154.347C30.572 139.556 26.1097 107.485 26.1097 107.485L40.4645 107.283Z" fill="#263238"/>
<path d="M34.7421 72.276L35.7526 72.0527L36.8163 71.8027C37.5237 71.6272 38.231 71.4357 38.9437 71.2336C40.3478 70.8241 41.7306 70.372 43.0656 69.8561C44.3763 69.359 45.652 68.7744 46.8843 68.1063C48.025 67.4941 49.086 66.7438 50.0435 65.8725L50.3626 65.564C50.4477 65.463 50.5328 65.3779 50.6233 65.2715C50.8041 65.0481 50.9956 64.8035 51.1817 64.5269C51.5646 63.9951 51.9476 63.3887 52.3092 62.7612C53.0272 61.5007 53.7399 60.171 54.4366 58.8095C55.7876 56.097 57.0959 53.2782 58.3937 50.4966L61.3667 51.4539C60.704 54.5637 59.8497 57.6295 58.8085 60.6337C58.2766 62.1442 57.7448 63.66 57.0321 65.1758C56.6864 65.931 56.3141 66.6916 55.8673 67.4734C55.644 67.8616 55.394 68.2552 55.1121 68.6594C54.9738 68.8615 54.7983 69.0743 54.6441 69.2764L54.1707 69.8082C53.5431 70.4952 52.8658 71.1352 52.1444 71.7229C51.445 72.2749 50.7171 72.7897 49.9637 73.2653C48.5106 74.1726 46.9863 74.9605 45.4058 75.6214C43.8753 76.2734 42.307 76.8328 40.7095 77.2967C39.9188 77.5308 39.121 77.7435 38.3161 77.935C37.9172 78.036 37.513 78.1318 37.1035 78.2169C36.694 78.3019 36.311 78.3711 35.8271 78.4562L34.7421 72.276Z" fill="#FFB573"/>
<path d="M32.657 79.4508C35.8482 81.7005 47.4586 78.0148 47.4586 78.0148L45.863 67.7553C45.863 67.7553 41.1135 68.8775 36.1301 70.3401C32.7421 71.3187 29.1521 77.0043 32.657 79.4508Z" fill="#4845ED"/>
<path d="M57.8778 52.1614L58.665 47.7736L62.6645 50.3318C62.5074 50.9492 62.2259 51.5281 61.8372 52.0329C61.4485 52.5377 60.9609 52.9579 60.4041 53.2676L57.8778 52.1614Z" fill="#FFB573"/>
<path d="M59.7922 45.2792L62.8876 44.1729L62.6695 50.3318L58.6647 47.7736L59.7922 45.2792Z" fill="#FFB573"/>
<path d="M17.7651 71.4198C18.5663 75.9884 19.0214 80.6109 19.1267 85.248C19.2171 88.4923 19.1692 91.5718 19.0522 94.3693C18.7916 100.911 18.1853 105.879 18.2225 107.581L40.47 107.304C45.6822 83.8599 41.071 71.3613 41.071 71.3613C39.3485 70.9309 37.6005 70.6094 35.8376 70.3986C35.4653 70.3561 35.0876 70.3189 34.6994 70.2869C31.5459 70.1445 28.3867 70.1835 25.2377 70.404C24.642 70.4412 24.0357 70.4944 23.4453 70.5529C20.4244 70.8454 17.7651 71.4198 17.7651 71.4198Z" fill="#4845ED"/>
<path d="M25.211 70.3827C28.3601 70.1622 31.5192 70.1232 34.6727 70.2656C35.0557 70.2976 35.4386 70.3348 35.8109 70.3773H35.9439C36.4757 71.8027 36.5449 74.8768 33.4229 75.1268C29.1681 75.4672 25.2111 72.6856 23.4187 70.5209C24.025 70.4731 24.6366 70.4199 25.211 70.3827Z" fill="white"/>
<path opacity="0.2" d="M22.7858 77.717C22.4976 81.1453 21.2375 84.4202 19.1532 87.1574C19.1532 86.5245 19.1532 85.881 19.1213 85.2321C19.0522 82.7962 18.9033 80.2699 18.6373 77.7117L22.7858 77.717Z" fill="black"/>
<path d="M26.4238 59.7243C26.9556 62.7612 27.413 68.3297 25.2324 70.3614C26.1573 71.3312 27.2844 72.0855 28.5335 72.5708C29.7827 73.0561 31.1233 73.2605 32.4603 73.1696C35.0824 73.0845 35.2526 71.2496 34.6941 70.2444C31.3168 69.4785 31.4658 66.9575 32.1146 64.5855L26.4238 59.7243Z" fill="#FFB573"/>
<path opacity="0.2" d="M28.7425 61.6975L32.1092 64.5855C31.9513 65.1352 31.841 65.6975 31.7794 66.2661C30.487 66.0959 28.7372 64.6972 28.6308 63.3409C28.5683 62.7909 28.6061 62.234 28.7425 61.6975Z" fill="black"/>
<path d="M37.9439 51.2093C40.4862 49.9382 39.3214 46.0397 39.3214 46.0397C39.3214 46.0397 37.9758 46.0078 36.5079 47.6353C37.1727 45.6249 36.0558 42.3486 35.6835 41.0775C30.583 43.29 30.2427 45.4281 30.2427 45.4281C30.2427 45.4281 29.1789 43.8325 28.1791 43.7421C27.3883 44.2283 26.7758 44.957 26.4327 45.8195C26.0897 46.682 26.0343 47.6323 26.275 48.5288C25.4341 48.0403 24.4946 47.7459 23.5253 47.6672C23.1393 48.877 23.2016 50.1853 23.7008 51.3529C23.1142 51.6568 22.6393 52.1391 22.3446 52.7305C22.8098 53.0259 23.3055 53.2702 23.8232 53.4591C23.7434 55.0547 24.0838 57.2565 25.2326 58.5011L36.9334 53.0336C38.9119 53.8899 39.7948 53.2729 39.7948 53.2729C39.7948 53.2729 39.3374 51.5923 37.9439 51.2093Z" fill="#263238"/>
<path d="M26.1684 55.1505C26.3226 59.267 26.2056 61.6923 28.2373 63.7825C31.2954 66.9204 36.4225 64.9738 37.5022 60.8466C38.4755 57.1236 38.034 51.0286 34.0611 49.4383C30.0881 47.8481 26.0088 51.0605 26.1684 55.1505Z" fill="#FFB573"/>
<path d="M29.9659 50.5286C30.2318 52.6879 27.3066 54.2835 27.9874 57.4746C27.4808 58.2256 26.866 58.8977 26.1631 59.4691L24.9771 56.2195L25.5674 50.2627L29.5244 49.9276L29.9659 50.5286Z" fill="#263238"/>
<path d="M27.2216 50.2627C30.3223 52.2731 35.5238 51.9167 36.9705 51.4168C36.2471 48.816 33.3379 48.0768 33.3379 48.0768C33.3379 48.0768 28.4608 47.6353 27.2216 50.2627Z" fill="#263238"/>
<path d="M33.6143 60.8306C33.1346 60.8508 32.6573 60.752 32.225 60.5433C31.7926 60.3345 31.4185 60.0221 31.1359 59.634C31.1231 59.6088 31.1198 59.5799 31.1267 59.5525C31.1335 59.5252 31.15 59.5012 31.1731 59.485C31.1845 59.4773 31.1974 59.472 31.2109 59.4694C31.2244 59.4668 31.2384 59.467 31.2518 59.47C31.2653 59.473 31.2779 59.4787 31.2891 59.4868C31.3003 59.4948 31.3097 59.5051 31.3167 59.517C31.5842 59.8716 31.9331 60.1568 32.3339 60.3484C32.7347 60.54 33.1756 60.6324 33.6196 60.6179C33.6334 60.6179 33.647 60.6207 33.6596 60.6261C33.6722 60.6315 33.6836 60.6394 33.693 60.6494C33.7025 60.6593 33.7098 60.6711 33.7146 60.684C33.7193 60.6968 33.7214 60.7106 33.7207 60.7243C33.7207 60.7525 33.7095 60.7795 33.6895 60.7995C33.6696 60.8194 33.6425 60.8306 33.6143 60.8306Z" fill="#263238"/>
<path d="M24.2006 59.7137C24.4644 60.146 24.8137 60.5199 25.2271 60.8125C25.6404 61.1052 26.1092 61.3104 26.6046 61.4157C27.9395 61.6975 28.5671 60.469 28.1576 59.2457C27.7853 58.1448 26.6471 56.6768 25.3228 56.9481C25.0348 57.0096 24.7663 57.1406 24.5407 57.3298C24.3151 57.519 24.1392 57.7606 24.0285 58.0334C23.9178 58.3063 23.8756 58.6021 23.9056 58.895C23.9356 59.1879 24.0369 59.469 24.2006 59.7137Z" fill="#FFB573"/>
<path opacity="0.2" d="M29.6892 117.361L27.8702 120.941C28.7053 127.706 29.6626 136.003 30.3008 143.337C31.7528 135.96 32.6942 121.797 29.6892 117.361Z" fill="black"/>
<path d="M33.3858 107.373C33.3858 107.373 28.2162 136.87 25.9079 148.911C23.3763 162.096 8.72371 192.534 8.72371 192.534L1.60217 190.087C1.60217 190.087 13.3721 159.772 14.6486 146.762C16.1005 131.972 18.196 107.554 18.196 107.554L33.3858 107.373Z" fill="#263238"/>
<path d="M32.3911 56.2247C32.3911 56.5598 32.556 56.831 32.774 56.8257C32.9921 56.8204 33.1783 56.5491 33.1836 56.2141C33.1889 55.879 33.024 55.6077 32.8006 55.6131C32.5773 55.6184 32.3964 55.8896 32.3911 56.2247Z" fill="#263238"/>
<path d="M36.1833 56.1768C36.1833 56.5119 36.3482 56.7831 36.5663 56.7778C36.7843 56.7725 36.9705 56.5013 36.9811 56.1662C36.9918 55.8311 36.8163 55.5652 36.5929 55.5652C36.3695 55.5652 36.194 55.8471 36.1833 56.1768Z" fill="#263238"/>
<path d="M34.9759 56.379C35.351 57.396 35.8665 58.3556 36.5076 59.2297C35.9013 59.7935 34.8589 59.469 34.8589 59.469L34.9759 56.379Z" fill="#ED893E"/>
<path d="M31.2423 55.0121C31.278 55.0186 31.3147 55.015 31.3485 55.0019C31.3823 54.9887 31.4118 54.9665 31.4338 54.9377C31.5813 54.7343 31.7737 54.5677 31.9959 54.4505C32.2182 54.3334 32.4644 54.269 32.7156 54.2622C32.7683 54.2652 32.8201 54.2473 32.8599 54.2125C32.8997 54.1777 32.9242 54.1288 32.9283 54.0761C32.9312 54.0508 32.929 54.0251 32.9216 54.0008C32.9142 53.9764 32.902 53.9538 32.8855 53.9343C32.869 53.9149 32.8488 53.899 32.8259 53.8877C32.8031 53.8764 32.7782 53.8699 32.7528 53.8687C32.4353 53.8717 32.1228 53.9488 31.8403 54.0938C31.5578 54.2387 31.313 54.4475 31.1253 54.7037C31.0942 54.7451 31.0801 54.7969 31.086 54.8483C31.092 54.8998 31.1175 54.947 31.1572 54.9802C31.1832 54.9963 31.2121 55.0072 31.2423 55.0121Z" fill="#263238"/>
<path d="M37.8426 54.8526C37.8806 54.8651 37.9217 54.8651 37.9596 54.8526C38.0068 54.8305 38.0437 54.7911 38.0625 54.7425C38.0813 54.694 38.0807 54.64 38.0607 54.5919C37.934 54.3136 37.7406 54.0708 37.4975 53.8852C37.2544 53.6996 36.9692 53.577 36.6672 53.5282C36.6152 53.5221 36.5628 53.5365 36.5212 53.5682C36.4795 53.6 36.4518 53.6466 36.4439 53.6984C36.4401 53.7236 36.4414 53.7493 36.4477 53.7739C36.454 53.7986 36.4652 53.8218 36.4805 53.8421C36.4959 53.8624 36.5151 53.8794 36.5371 53.8922C36.5591 53.905 36.5835 53.9132 36.6087 53.9165C36.8435 53.9666 37.0627 54.0725 37.2479 54.2253C37.433 54.378 37.5786 54.5731 37.6724 54.7941C37.6935 54.8174 37.7202 54.835 37.75 54.8452C37.7798 54.8555 37.8116 54.858 37.8426 54.8526Z" fill="#263238"/>
<path d="M21.6903 77.8074L20.3819 79.4029C19.9404 79.9348 19.5043 80.4932 19.0735 81.0517C18.2119 82.1579 17.3716 83.2784 16.5525 84.413C15.7494 85.5512 14.957 86.7 14.2443 87.8594C13.5316 89.0189 12.8455 90.1996 12.2871 91.3803L12.1754 91.6037L12.1328 91.7047C12.0929 91.7847 12.0608 91.8685 12.0371 91.9547C11.9646 92.1954 11.9078 92.4406 11.8669 92.6887C11.764 93.2992 11.7 93.9156 11.6754 94.5342C11.6222 95.8479 11.6382 97.2467 11.7127 98.6508C11.8509 101.459 12.1062 104.363 12.3881 107.214L9.3459 107.921C8.3418 105.083 7.55069 102.175 6.97915 99.2198C6.68409 97.6929 6.48161 96.1494 6.37283 94.598C6.32217 93.7549 6.32217 92.9095 6.37283 92.0664C6.41099 91.5879 6.47669 91.112 6.56962 90.641C6.63344 90.3804 6.68131 90.1358 6.78237 89.8379L6.92064 89.4231L7.03234 89.1465C8.18659 86.2439 9.64491 83.4717 11.3829 80.8762C12.2232 79.5997 13.1061 78.3658 14.0422 77.1532C14.5049 76.5522 14.9782 75.9618 15.4622 75.3715C15.9462 74.7811 16.4249 74.2227 16.978 73.6057L21.6903 77.8074Z" fill="#FFB573"/>
<path d="M17.7651 71.4198C13.8081 71.9836 9.51599 81.3017 9.51599 81.3017L17.0045 88.386C17.0045 88.386 20.1105 83.7004 22.6688 79.153C25.4504 74.2014 22.5518 70.7391 17.7651 71.4198Z" fill="#4845ED"/>
<path d="M12.0263 106.315L14.5314 109.628L9.3245 110.889C9.3245 110.889 7.8353 107.575 9.53724 106.528L12.0263 106.315Z" fill="#FFB573"/>
<path d="M14.4463 113.101L10.1011 113.942L9.32458 110.889L14.5314 109.628L14.4463 113.101Z" fill="#FFB573"/>
<path d="M96.8783 108.612C96.8783 108.612 103.792 143.417 107.255 155.416C111.047 168.6 124.136 190.896 124.136 190.896L131.321 187.811C131.321 187.811 123.343 169.834 120.152 156.857C116.541 142.082 111.547 107.394 111.547 107.394L96.8783 108.612Z" fill="#4845ED"/>
<path opacity="0.2" d="M102.601 118.606C103.489 128.28 103.702 135.093 104.069 142.582C102.25 134.636 100.309 125.424 98.8992 118.606H102.601Z" fill="black"/>
<path d="M97.926 197.32L105.154 197.432C105.154 197.432 102.303 169.345 101.367 156.075C101.08 152.038 101.213 146.331 101.553 140.189C101.979 132.445 102.261 129.344 102.846 119.558C103.261 112.58 103.766 108.059 103.766 108.059L88.8047 109.288C88.8047 109.288 88.2197 143.172 89.9163 156.091C91.6927 169.504 97.926 197.32 97.926 197.32Z" fill="#4845ED"/>
<path d="M65.0999 52.4272L65.9296 48.7043L61.5205 47.4225C61.5205 47.4225 60.1802 51.0231 62.7703 52.741L65.0999 52.4272Z" fill="#FFC3BD"/>
<path d="M65.3553 45.0982L61.9302 43.258L61.51 47.4437L65.9191 48.7255L65.3553 45.0982Z" fill="#FFC3BD"/>
<path d="M86.5441 79.605C84.906 79.1476 83.4221 78.6424 81.885 78.0892C80.348 77.5361 78.8588 76.9351 77.3643 76.2756C75.8697 75.6161 74.3912 74.9247 72.9233 74.1482C72.1893 73.7759 71.4607 73.3504 70.732 72.9356L69.6683 72.2707L69.3971 72.1059L68.9929 71.8399C68.7269 71.652 68.477 71.4605 68.2429 71.2655C67.4086 70.5441 66.6831 69.7057 66.0889 68.7765C65.5702 67.9765 65.1149 67.1372 64.7274 66.2661C64.0338 64.6699 63.4855 63.0145 63.0893 61.3198C62.3257 58.1054 61.9208 54.8161 61.882 51.5124L65.8017 50.9806C66.6264 53.8673 67.6047 56.7079 68.7322 59.4903C69.2607 60.7873 69.8865 62.0425 70.6044 63.2452C70.9194 63.7737 71.275 64.2769 71.6681 64.7503C71.9669 65.1083 72.3121 65.4249 72.6946 65.6917C72.758 65.7342 72.8237 65.7733 72.8914 65.8087C72.9256 65.817 72.958 65.8314 72.9871 65.8512L73.2317 65.9629L74.1997 66.431C74.8698 66.7288 75.5294 67.032 76.2101 67.3192C77.5664 67.8989 78.9598 68.4361 80.3639 68.9679C81.768 69.4998 83.1881 70.0316 84.6188 70.4997L88.8736 71.9516L86.5441 79.605Z" fill="#4845ED"/>
<path d="M100.649 59.0382C100.34 62.2027 100.287 67.9574 102.665 69.8189C101.138 71.6644 99.1225 73.8185 95.442 74.3078C91.7616 74.7971 92.1605 72.1803 93.0061 70.7603C96.394 69.5955 96.0537 67.0373 95.2133 64.6759L100.649 59.0382Z" fill="#FFC3BD"/>
<path d="M91.0014 55.9641C90.9642 56.3098 90.7567 56.5704 90.5334 56.5491C90.31 56.5279 90.1557 56.23 90.1877 55.8843C90.2196 55.5386 90.4323 55.2833 90.6557 55.3046C90.879 55.3259 91.0333 55.6237 91.0014 55.9641Z" fill="#263238"/>
<path d="M90.8789 56.2992C90.3682 57.3074 89.7203 58.2399 88.9536 59.0702C89.1695 59.2596 89.4241 59.3996 89.6997 59.4804C89.9753 59.5613 90.2652 59.581 90.5492 59.5382L90.8789 56.2992Z" fill="#ED847E"/>
<path d="M91.9161 54.6822C91.8853 54.6705 91.858 54.6512 91.8366 54.6261C91.8152 54.601 91.8005 54.5709 91.7938 54.5386C91.7442 54.2894 91.6358 54.0556 91.4776 53.8567C91.3194 53.6578 91.116 53.4996 90.8843 53.3952C90.8592 53.3861 90.8361 53.3721 90.8163 53.3541C90.7965 53.3361 90.7805 53.3144 90.7692 53.2902C90.7578 53.266 90.7513 53.2398 90.7501 53.2131C90.7489 53.1864 90.7529 53.1597 90.762 53.1346C90.7711 53.1094 90.785 53.0863 90.803 53.0665C90.821 53.0468 90.8427 53.0308 90.8669 53.0194C90.8911 53.0081 90.9173 53.0016 90.9441 53.0003C90.9708 52.9991 90.9974 53.0031 91.0226 53.0122C91.3167 53.142 91.5758 53.3399 91.7783 53.5896C91.9808 53.8393 92.121 54.1336 92.1873 54.4482C92.1984 54.5004 92.1884 54.5548 92.1595 54.5997C92.1306 54.6445 92.0852 54.6761 92.0331 54.6876C91.9947 54.6992 91.9534 54.6974 91.9161 54.6822Z" fill="#263238"/>
<path d="M102.702 56.2406C101.878 60.3997 101.606 62.8728 99.2023 64.7503C95.5804 67.5585 90.666 64.9417 90.2299 60.6231C89.8363 56.7352 91.2458 50.5923 95.5751 49.4541C96.529 49.2032 97.5312 49.2006 98.4864 49.4464C99.4416 49.6922 100.318 50.1783 101.032 50.8585C101.747 51.5387 102.275 52.3903 102.567 53.3324C102.86 54.2744 102.906 55.2756 102.702 56.2406Z" fill="#FFC3BD"/>
<path d="M94.2616 57.4001C93.0649 56.0226 93.5117 53.0548 94.2616 51.6348C93.3787 52.1985 90.3737 51.9964 90.3578 49.6403C90.3312 46.1886 96.1337 45.3855 99.3142 45.9918C102.979 46.7151 106.266 50.1509 107.531 48.9648C108.834 51.2625 106.553 52.0656 106.553 52.0656C106.553 52.0656 108.818 57.783 100.527 63.3834C99.3894 63.2234 98.2323 63.2721 97.1123 63.527C96.8556 63.5262 96.6094 63.425 96.4262 63.2451C95.5859 62.4048 93.2883 59.8094 94.2616 57.4001Z" fill="#263238"/>
<path d="M106.239 51.9379C106.239 51.9379 107.803 52.2677 108.334 51.2625C108.18 52.6985 107.303 52.7091 106.239 51.9379Z" fill="#263238"/>
<path d="M97.0114 58.719C96.486 59.6467 95.6136 60.3278 94.5861 60.6124C93.2246 60.9741 92.5544 59.7508 92.948 58.485C93.299 57.3309 94.4372 55.7566 95.7987 55.9534C97.1603 56.1502 97.6336 57.5809 97.0114 58.719Z" fill="#FFC3BD"/>
<path d="M113.249 73.4514C113.861 74.0365 114.36 74.563 114.887 75.1268C115.414 75.6905 115.914 76.249 116.398 76.8287C117.381 77.9722 118.318 79.1582 119.232 80.3602C120.147 81.5622 121.019 82.7961 121.844 84.0832L122.54 85.099C122.801 85.482 123.014 85.8755 123.237 86.2638C123.656 87.0352 124.02 87.8349 124.327 88.6571C124.918 90.2053 125.351 91.8089 125.62 93.4438C125.888 95.0119 126.039 96.5976 126.072 98.188C126.119 99.7388 126.073 101.291 125.934 102.836C125.806 104.385 125.578 105.923 125.253 107.442L121.322 107.011C121.253 105.687 121.152 104.24 120.998 102.868C120.844 101.496 120.642 100.113 120.392 98.773C119.957 96.2049 119.168 93.7097 118.046 91.359C117.779 90.8389 117.483 90.3345 117.158 89.8485C116.993 89.6198 116.839 89.3805 116.669 89.173C116.573 89.0614 116.515 88.9763 116.398 88.8433L116.052 88.4391C115.116 87.3754 114.19 86.3117 113.238 85.248C112.286 84.1842 111.345 83.1205 110.398 82.1047L107.606 79.0465L113.249 73.4514Z" fill="#4845ED"/>
<path d="M102.723 76.8287C102.042 79.9082 111.493 85.5139 111.493 85.5139L118.971 79.1317C117.074 76.4137 114.938 73.8702 112.589 71.5315C108.712 67.6702 103.829 71.8399 102.723 76.8287Z" fill="#263238"/>
<path opacity="0.2" d="M109.292 80.057C107.941 79.3178 107.733 81.0037 107.941 83.1471C109.823 84.5246 111.488 85.5139 111.488 85.5139L112.44 84.7001C111.69 82.7376 110.648 80.7963 109.292 80.057Z" fill="black"/>
<path d="M121.237 106.341L119.269 108.969L123.998 110.921C123.998 110.921 125.232 108.793 124.971 107.198C124.911 106.893 124.764 106.613 124.548 106.391C124.332 106.169 124.055 106.015 123.753 105.948L122.891 105.746C122.588 105.672 122.269 105.689 121.975 105.795C121.681 105.901 121.424 106.091 121.237 106.341Z" fill="#FFC3BD"/>
<path d="M118.318 113.186L122.774 114.176L123.998 110.921L119.27 108.969L118.318 113.186Z" fill="#FFC3BD"/>
<path d="M110.999 72.2069C109.063 88.5561 114.275 108.735 114.403 112.096C111.063 112.373 94.5541 113.894 87.6985 114.452C83.7203 85.3437 87.3847 71.5368 87.3847 71.5368C87.3847 71.5368 88.8048 71.0794 90.7567 70.6379C91.3683 70.4997 92.0331 70.3667 92.7246 70.2444C93.1022 70.1752 93.4957 70.1167 93.8893 70.0582C97.1104 69.7296 100.347 69.5839 103.585 69.6221C104.197 69.6221 104.824 69.6221 105.431 69.67C106.037 69.7178 106.542 69.7338 107.063 69.771C107.866 69.8348 108.611 69.9093 109.244 69.9784C109.506 70.0081 109.76 70.0894 109.99 70.2178C110.221 70.3462 110.424 70.519 110.587 70.7262C110.75 70.9335 110.871 71.1711 110.941 71.4253C111.012 71.6794 111.032 71.9451 110.999 72.2069Z" fill="#263238"/>
<path opacity="0.2" d="M86.2466 79.3923C86.1668 80.2273 86.103 81.1368 86.0498 82.1154C87.5603 81.9664 89.3952 81.5835 90.1717 80.7113C91.1184 79.605 88.2251 79.4082 86.2466 79.3923Z" fill="black"/>
<path d="M91.9427 80.8815C88.2888 82.6898 81.3694 79.605 81.3694 79.605L81.4811 68.8775C81.4811 68.8775 88.9536 70.0795 94.2456 70.0263C99.6705 69.9731 95.9475 78.8923 91.9427 80.8815Z" fill="#263238"/>
<path opacity="0.9" d="M62.5738 27.0684H61.9515V30.084H62.5738V27.0684Z" fill="#4845ED"/>
<path opacity="0.9" d="M62.5738 31.5573H61.9515V39.1787H62.5738V31.5573Z" fill="#4845ED"/>
<path opacity="0.9" d="M69.0653 38.9282L65.803 42.1871L66.2428 42.6274L69.5051 39.3685L69.0653 38.9282Z" fill="#4845ED"/>
<path opacity="0.9" d="M74.6149 45.8748H69.8016V46.497H74.6149V45.8748Z" fill="#4845ED"/>
<path opacity="0.9" d="M54.0976 37.5848L53.6576 38.0248L58.2721 42.6393L58.7121 42.1993L54.0976 37.5848Z" fill="#4845ED"/>
<path opacity="0.9" d="M54.7236 45.8748H52.5696V46.497H54.7236V45.8748Z" fill="#4845ED"/>
</g>
</svg>
