<svg width="127" height="127" viewBox="0 0 127 127" fill="none" xmlns="http://www.w3.org/2000/svg">
<circle cx="63.5" cy="63.5" r="62.5" fill="#F3F4F6" stroke="white" stroke-width="2"/>
<circle cx="63.5" cy="63.5" r="62.5" fill="#F3F4F6" stroke="white" stroke-width="2"/>
<path d="M77.2798 52.6991L77.2922 51.77L77.3535 47.1576C77.3518 43.4013 75.8682 39.8006 73.2308 37.1463C70.592 34.4907 67.0143 33 63.2853 33C59.5563 33 55.9787 34.4907 53.3399 37.1463C50.7009 39.8021 49.2172 43.4055 49.2172 47.1641V47.1772L49.2171 47.1772L49.1557 51.8787L49.1447 52.7249L48.3083 52.8539C46.5548 53.1244 44.9542 54.0178 43.7966 55.3742C42.6389 56.7305 42.0012 58.4601 42 60.2501L77.2798 52.6991ZM77.2798 52.6991L78.2055 52.7796M77.2798 52.6991L78.2055 52.7796M78.2055 52.7796C80.0592 52.9407 81.7866 53.7963 83.0454 55.179C84.3042 56.5618 85.0024 58.3711 85 60.2488V60.2501M78.2055 52.7796L85 60.2501M85 60.2501V87.5126C85 89.5004 84.2153 91.4056 82.8205 92.8093C81.4259 94.2127 79.5358 95 77.5663 95H49.4337C47.4642 95 45.5741 94.2127 44.1795 92.8093C42.7847 91.4056 42 89.5004 42 87.5126V60.2504L85 60.2501ZM67.3028 81.7124H68.5793L68.2737 80.4731L67.0896 75.67C67.7907 75.0488 68.3247 74.2549 68.6363 73.3619C69.027 72.242 69.0474 71.0252 68.6943 69.8928C68.3411 68.7603 67.6331 67.772 66.6746 67.0761C65.716 66.3802 64.5587 66.0144 63.3753 66.0344C62.192 66.0544 61.0476 66.4591 60.1129 67.187C59.1783 67.9148 58.5038 68.9264 58.1887 70.0701C57.8736 71.2137 57.9345 72.4292 58.3624 73.5354C58.7034 74.4167 59.2632 75.1916 59.9839 75.7887L58.9749 80.5031L58.7161 81.7124H59.9528H67.3028ZM75.0413 52.7422H76.0258L76.0412 51.7578L76.1128 47.1798L76.1131 47.1573L76.1124 47.1349C76.0145 43.782 74.6221 40.5981 72.2289 38.2594C69.8354 35.9205 66.6292 34.6111 63.2904 34.6111C59.9516 34.6111 56.7455 35.9205 54.352 38.2594C51.9588 40.5981 50.5664 43.782 50.4684 47.1349L50.4681 47.1428L50.468 47.1507L50.4067 51.7288L50.3931 52.7422H51.4066H75.0413Z" fill="#F9FAFB" stroke="#4845ED" stroke-width="2"/>
</svg>
