<svg width="127" height="127" viewBox="0 0 127 127" fill="none" xmlns="http://www.w3.org/2000/svg">
<circle cx="63.5" cy="63.5" r="62.5" fill="#F3F4F6" stroke="white" stroke-width="2"/>
<circle cx="63.5" cy="63.5" r="62.5" fill="#F3F4F6" stroke="white" stroke-width="2"/>
<mask id="mask0_4643:14670" style="mask-type:alpha" maskUnits="userSpaceOnUse" x="0" y="0" width="127" height="127">
<circle cx="63.5" cy="63.5" r="62.5" fill="#F3F4F6" stroke="white" stroke-width="2"/>
<circle cx="63.5" cy="63.5" r="62.5" fill="#F3F4F6" stroke="white" stroke-width="2"/>
</mask>
<g mask="url(#mask0_4643:14670)">
<path d="M148.1 111.727H-21V111.811H148.1V111.727Z" fill="#EBEBEB"/>
<path d="M85.7595 114.03H77.1489V114.115H85.7595V114.03Z" fill="#EBEBEB"/>
<path d="M133.03 115.86H112.626V115.944H133.03V115.86Z" fill="#EBEBEB"/>
<path d="M75.3159 114.071H54.2358V114.155H75.3159V114.071Z" fill="#EBEBEB"/>
<path d="M40.5664 116.6H36.1562V116.685H40.5664V116.6Z" fill="#EBEBEB"/>
<path d="M64.9329 116.6H44.8506V116.685H64.9329V116.6Z" fill="#EBEBEB"/>
<path d="M9.746 115.173H-3.25781V115.258H9.746V115.173Z" fill="#EBEBEB"/>
<path d="M59.1532 96.6431H-6.14989C-6.66147 96.6422 -7.15179 96.4384 -7.51322 96.0763C-7.87464 95.7142 -8.07764 95.2236 -8.07764 94.712V2.91422C-8.07318 2.40557 -7.86823 1.91922 -7.50728 1.56081C-7.14634 1.2024 -6.65856 1.00087 -6.14989 1H59.1532C59.6654 1 60.1566 1.20346 60.5188 1.56561C60.8809 1.92777 61.0844 2.41896 61.0844 2.93112V94.712C61.0844 95.2242 60.8809 95.7153 60.5188 96.0775C60.1566 96.4397 59.6654 96.6431 59.1532 96.6431V96.6431ZM-6.14989 1.06764C-6.63905 1.06854 -7.10786 1.26348 -7.45343 1.60968C-7.799 1.95589 -7.99309 2.42506 -7.99309 2.91422V94.712C-7.99309 95.2011 -7.799 95.6703 -7.45343 96.0165C-7.10786 96.3627 -6.63905 96.5577 -6.14989 96.5586H59.1532C59.6427 96.5577 60.1119 96.3628 60.458 96.0167C60.8041 95.6706 60.9989 95.2015 60.9998 94.712V2.91422C60.9989 2.42475 60.8041 1.95558 60.458 1.60948C60.1119 1.26337 59.6427 1.06853 59.1532 1.06764H-6.14989Z" fill="#EBEBEB"/>
<path d="M132.31 96.6431H67.0034C66.4915 96.6422 66.0008 96.4385 65.6389 96.0765C65.2769 95.7146 65.0732 95.2239 65.0723 94.712V2.91422C65.0776 2.40526 65.2833 1.91892 65.6448 1.5606C66.0063 1.20228 66.4944 1.00086 67.0034 1H132.31C132.818 1.00176 133.305 1.20368 133.665 1.562C134.025 1.92031 134.23 2.40615 134.234 2.91422V94.712C134.234 95.223 134.032 95.7131 133.671 96.0751C133.31 96.4371 132.821 96.6413 132.31 96.6431V96.6431ZM67.0034 1.06764C66.5139 1.06853 66.0448 1.26337 65.6987 1.60948C65.3525 1.95558 65.1577 2.42475 65.1568 2.91422V94.712C65.1577 95.2015 65.3525 95.6706 65.6987 96.0167C66.0448 96.3628 66.5139 96.5577 67.0034 96.5586H132.31C132.799 96.5577 133.269 96.3628 133.615 96.0167C133.961 95.6706 134.156 95.2015 134.156 94.712V2.91422C134.156 2.42475 133.961 1.95558 133.615 1.60948C133.269 1.26337 132.799 1.06853 132.31 1.06764H67.0034Z" fill="#EBEBEB"/>
<path d="M45.2736 82.3947H22.817L21.4541 66.6684H43.9106L45.2736 82.3947Z" fill="#E6E6E6"/>
<path d="M46.4371 82.3947H23.9806L22.6177 66.6684H45.0742L46.4371 82.3947Z" fill="#F0F0F0"/>
<path d="M27.0516 79.0161L26.3008 70.0436H42.0034L42.7542 79.0161H27.0516Z" fill="white"/>
<path d="M50.3231 82.3948H47.6885V111.727H50.3231V82.3948Z" fill="#E6E6E6"/>
<path d="M51.1549 82.3948H49.3252V111.727H51.1549V82.3948Z" fill="#F0F0F0"/>
<path d="M25.6511 85.6313H51.1548V82.3948H25.6511V85.6313Z" fill="#F0F0F0"/>
<path d="M26.5511 85.6313H23.9165V111.727H26.5511V85.6313Z" fill="#E6E6E6"/>
<path d="M27.3829 85.6313H25.5532V111.727H27.3829V85.6313Z" fill="#F0F0F0"/>
<path d="M7.79767 85.6313H5.16309V111.727H7.79767V85.6313Z" fill="#E6E6E6"/>
<path d="M8.62996 85.6313H6.80029V111.727H8.62996V85.6313Z" fill="#F0F0F0"/>
<path d="M33.6497 85.6313H31.0151V111.727H33.6497V85.6313Z" fill="#E6E6E6"/>
<path d="M34.4786 85.6313H32.6489V111.727H34.4786V85.6313Z" fill="#F0F0F0"/>
<path d="M25.6513 82.3948H5.16309V85.6313H25.6513V82.3948Z" fill="#E6E6E6"/>
<path d="M102.051 9.25549H22.8003V53.3771H102.051V9.25549Z" fill="#E0E0E0"/>
<path d="M106.403 9.25549H23.1992V53.3771H106.403V9.25549Z" fill="#F5F5F5"/>
<path d="M105.044 52.0175V10.615L24.559 10.615V52.0175L105.044 52.0175Z" fill="white"/>
<path d="M57.1479 52.0175L72.3432 10.615H47.2657L32.0703 52.0175H57.1479Z" fill="#F5F5F5"/>
<path d="M81.2856 52.0175L96.481 10.615H77.562L62.3667 52.0175H81.2856Z" fill="#F5F5F5"/>
<path d="M127.169 69.587H120.432V111.727H127.169V69.587Z" fill="#E6E6E6"/>
<path d="M125.397 111.727H127.169V108.484H123.54L125.397 111.727Z" fill="#FAFAFA"/>
<path d="M65.0548 69.587H58.3179V111.727H65.0548V69.587Z" fill="#E6E6E6"/>
<path d="M127.169 69.587H63.5098V110.851H127.169V69.587Z" fill="#FAFAFA"/>
<path d="M125.965 82.9021H64.7173V71.2477H125.965V82.9021ZM65.0555 82.5639H125.627V71.5859H65.0555V82.5639Z" fill="#E6E6E6"/>
<path d="M115.183 76.9057H76.6857C74.9 76.9057 73.1786 75.4649 71.9509 72.9487L71.8359 72.7086H120.03L119.915 72.9487C118.677 75.4649 116.986 76.9057 115.183 76.9057ZM72.3906 73.0367C73.5337 75.2789 75.0962 76.5573 76.6857 76.5573H115.183C116.779 76.5573 118.335 75.2789 119.478 73.0367H72.3906Z" fill="#E6E6E6"/>
<path d="M65.2819 111.727H63.5098V108.484H67.1387L65.2819 111.727Z" fill="#FAFAFA"/>
<path d="M125.965 96.0344H64.7173V84.3936H125.965V96.0344ZM65.0555 95.6962H125.627V84.7318H65.0555V95.6962Z" fill="#E6E6E6"/>
<path d="M115.183 90.0515H76.6857C74.9 90.0515 73.1786 88.6074 71.9509 86.0946L71.8359 85.8511H120.03L119.915 86.0946C118.677 88.5939 116.986 90.0515 115.183 90.0515ZM72.3906 86.1893C73.5337 88.4315 75.0962 89.7133 76.6857 89.7133H115.183C116.779 89.7133 118.335 88.4315 119.478 86.1893H72.3906Z" fill="#E6E6E6"/>
<path d="M125.965 109.19H64.7173V97.536H125.965V109.19ZM65.0555 108.852H125.627V97.8742H65.0555V108.852Z" fill="#E6E6E6"/>
<path d="M115.183 103.194H76.6857C74.9 103.194 73.1786 101.753 71.9509 99.2405L71.8359 98.9969H120.03L119.915 99.2405C118.677 101.753 116.986 103.194 115.183 103.194ZM72.3906 99.3351C73.5337 101.577 75.0962 102.856 76.6857 102.856H115.183C116.779 102.856 118.335 101.577 119.478 99.3351H72.3906Z" fill="#E6E6E6"/>
<path d="M19.9154 75.1606V75.9791H19.3946L18.9617 82.3948H12.59L12.1604 75.9791H11.6362V75.1606H19.9154Z" fill="#E6E6E6"/>
<path d="M17.8187 59.2415C17.2979 55.4199 12.1403 54.3309 5.59617 54.1888C-0.630106 54.0569 -2.62549 51.8552 -2.62549 51.8552C-2.62549 51.8552 -2.6052 60.7736 6.36726 64.0068C14.8865 67.0709 18.3429 63.07 17.8187 59.2415Z" fill="#E6E6E6"/>
<path d="M14.6394 67.9028C14.7476 66.3335 17.2571 63.4453 23.2939 64.7575C27.6567 65.7079 29.2801 63.4453 29.2801 63.4453C29.2801 63.4453 28.8743 69.8305 22.3132 71.7481C16.0801 73.571 14.4466 70.6693 14.6394 67.9028Z" fill="#E6E6E6"/>
<path d="M16.0158 77.5686C16.0498 77.5689 16.0835 77.5618 16.1144 77.5478C16.1454 77.5338 16.1729 77.5132 16.1951 77.4874C16.6314 76.97 16.2729 75.7321 15.7791 74.0175C15.1433 71.8192 14.3519 69.0797 15.0215 67.0945C15.3927 66.0459 15.8264 65.0204 16.3202 64.0236C17.2672 62.0215 18.0856 60.3034 17.4025 58.4839C17.3918 58.455 17.3755 58.4284 17.3545 58.4058C17.3335 58.3832 17.3083 58.365 17.2802 58.3522C17.2522 58.3394 17.2218 58.3323 17.191 58.3313C17.1602 58.3303 17.1294 58.3354 17.1006 58.3464C17.0718 58.3573 17.0454 58.3739 17.023 58.3951C17.0006 58.4163 16.9826 58.4418 16.9701 58.47C16.9576 58.4982 16.9508 58.5286 16.9502 58.5594C16.9495 58.5902 16.9549 58.6209 16.9662 58.6496C17.5783 60.2696 16.8377 61.8389 15.8975 63.8275C15.3973 64.8403 14.9569 65.8814 14.5785 66.9457C13.8649 69.0696 14.6766 71.8868 15.3293 74.146C15.7148 75.4988 16.1139 76.8516 15.84 77.1898C15.8182 77.2131 15.8016 77.2408 15.7911 77.2709C15.7806 77.301 15.7765 77.333 15.779 77.3648C15.7816 77.3966 15.7907 77.4276 15.8059 77.4557C15.821 77.4838 15.8418 77.5084 15.867 77.528C15.9102 77.5588 15.963 77.5731 16.0158 77.5686V77.5686Z" fill="#E6E6E6"/>
<path d="M63.5503 127C99.7656 127 129.124 125.286 129.124 123.172C129.124 121.057 99.7656 119.343 63.5503 119.343C27.3349 119.343 -2.02344 121.057 -2.02344 123.172C-2.02344 125.286 27.3349 127 63.5503 127Z" fill="#F5F5F5"/>
<path d="M63.5366 104.506H15.5121L12.8843 27.2714H60.9087L63.5366 104.506Z" fill="#4845ED"/>
<path d="M65.934 102.108H17.9095L15.2783 24.8735H63.3028L65.934 102.108Z" fill="#4845ED"/>
<path opacity="0.3" d="M65.934 102.108H17.9095L15.2783 24.8735H63.3028L65.934 102.108Z" fill="white"/>
<path d="M49.8439 56.6556C54.986 51.4248 54.7672 42.8716 49.3553 37.5514C43.9433 32.2313 35.3876 32.1589 30.2456 37.3896C25.1035 42.6204 25.3223 51.1736 30.7342 56.4937C36.1461 61.8139 44.7018 61.8863 49.8439 56.6556Z" fill="#4845ED"/>
<path d="M51.1956 47.0256C51.2648 48.866 50.8632 50.6936 50.0289 52.3354C49.1283 54.1047 47.7526 55.5881 46.0561 56.6192C44.3595 57.6503 42.4092 58.1882 40.424 58.1727C38.3921 58.1618 36.3988 57.6166 34.6441 56.5921C32.8894 55.5675 31.435 54.0995 30.4268 52.3354C29.4867 50.7188 28.9615 48.8946 28.8981 47.0256C28.8357 45.5765 29.0686 44.1298 29.5826 42.7734C30.0966 41.417 30.8811 40.1793 31.8882 39.1355C32.8954 38.0916 34.1042 37.2634 35.4413 36.7012C36.7785 36.139 38.2159 35.8545 39.6664 35.865C42.6545 35.8862 45.5196 37.0576 47.6666 39.1359C49.8136 41.2143 51.0774 44.0398 51.1956 47.0256V47.0256Z" fill="white"/>
<path opacity="0.6" d="M50.022 52.3355C49.1215 54.1048 47.7458 55.5882 46.0492 56.6193C44.3527 57.6504 42.4024 58.1883 40.4171 58.1728C38.3852 58.1618 36.392 57.6167 34.6373 56.5922C32.8826 55.5676 31.4281 54.0996 30.4199 52.3355C33.2801 50.3854 36.6646 49.3489 40.1263 49.3627C43.6438 49.3703 47.0827 50.4034 50.022 52.3355Z" fill="#4845ED"/>
<path opacity="0.6" d="M43.5192 46.7475C45.41 44.8241 45.3296 41.679 43.3396 39.7228C41.3495 37.7665 38.2035 37.7399 36.3127 39.6633C34.4219 41.5867 34.5024 44.7318 36.4924 46.6881C38.4824 48.6443 41.6284 48.671 43.5192 46.7475Z" fill="#4845ED"/>
<path d="M56.2853 74.1392H25.6511L25.4448 68.0516H56.079L56.2853 74.1392Z" fill="white"/>
<path d="M56.6574 85.0191H26.0198L25.8135 78.9315H56.4511L56.6574 85.0191Z" fill="white"/>
<path d="M44.8339 79.7703L37.451 80.7849C37.3805 80.7929 37.3125 80.8154 37.2512 80.851C37.1899 80.8866 37.1366 80.9345 37.0946 80.9917C37.0527 81.0488 37.0231 81.1141 37.0076 81.1832C36.9921 81.2524 36.991 81.3241 37.0045 81.3937L37.9752 86.3415C38.0069 86.4867 38.0919 86.6148 38.2133 86.7005C38.3347 86.7863 38.4838 86.8235 38.6313 86.8049L46.0142 85.7903C46.0845 85.7814 46.1522 85.7582 46.2131 85.722C46.2741 85.6859 46.327 85.6377 46.3685 85.5803C46.41 85.5229 46.4393 85.4576 46.4546 85.3884C46.4699 85.3192 46.4708 85.2477 46.4573 85.1781L45.49 80.2302C45.4582 80.0853 45.3731 79.9576 45.2516 79.8724C45.1301 79.7872 44.981 79.7507 44.8339 79.7703V79.7703ZM42.7134 84.7824L41.3606 84.9617L41.2287 83.3654C41.0893 83.3051 40.9664 83.2122 40.8705 83.0944C40.7745 82.9767 40.7083 82.8377 40.6774 82.689C40.6526 82.5738 40.6522 82.4547 40.6762 82.3393C40.7003 82.224 40.7483 82.1149 40.8172 82.0193C40.886 81.9237 40.9742 81.8436 41.0759 81.7842C41.1777 81.7247 41.2908 81.6873 41.4079 81.6744C41.6481 81.6435 41.8912 81.7038 42.0891 81.8434C42.287 81.9831 42.4253 82.1919 42.4766 82.4285C42.5059 82.5715 42.497 82.7196 42.4507 82.858C42.4043 82.9964 42.3223 83.1201 42.2128 83.2166L42.7134 84.7824Z" fill="#4845ED"/>
<path d="M44.1039 79.503C43.9734 79.5196 43.8413 79.4869 43.7337 79.4112C43.6261 79.3354 43.5507 79.2223 43.5222 79.0938L43.4275 78.6102C43.2923 77.9502 42.9224 77.3616 42.3863 76.9536C41.8502 76.5456 41.1843 76.346 40.5122 76.3916C40.173 76.4109 39.842 76.503 39.5416 76.6616C39.2411 76.8202 38.9784 77.0417 38.7711 77.3108C38.5638 77.58 38.4169 77.8907 38.3404 78.2216C38.2638 78.5526 38.2594 78.8962 38.3274 79.2291L38.4356 79.7871C38.4483 79.8489 38.4478 79.9127 38.4343 79.9744C38.4209 80.036 38.3947 80.0942 38.3574 80.1451C38.3202 80.1961 38.2727 80.2387 38.218 80.2702C38.1633 80.3017 38.1027 80.3215 38.04 80.3282V80.3282C37.9092 80.3465 37.7764 80.3143 37.6684 80.2384C37.5604 80.1624 37.4853 80.0482 37.4582 79.919L37.3669 79.4489C37.2741 79.0096 37.271 78.556 37.3579 78.1154C37.4448 77.6748 37.6198 77.2564 37.8726 76.8852C38.1253 76.514 38.4505 76.1977 38.8285 75.9554C39.2066 75.7131 39.6297 75.5497 40.0725 75.475C41.0327 75.3138 42.018 75.5285 42.8241 76.0745C43.6301 76.6204 44.195 77.4558 44.4015 78.4072L44.5097 78.9619C44.5223 79.0245 44.5216 79.0891 44.5075 79.1514C44.4934 79.2137 44.4664 79.2723 44.428 79.3234C44.3897 79.3745 44.341 79.4169 44.2852 79.4478C44.2293 79.4788 44.1675 79.4976 44.1039 79.503V79.503Z" fill="#4845ED"/>
<path d="M51.6015 93.5451H31.6578L31.5259 89.5814H51.4662L51.6015 93.5451Z" fill="#4845ED"/>
<path d="M41.9796 71.0954C41.9856 71.24 41.9621 71.3843 41.9107 71.5195C41.8592 71.6548 41.7808 71.7781 41.6803 71.8822C41.5797 71.9862 41.4591 72.0687 41.3257 72.1248C41.1923 72.1808 41.0489 72.2091 40.9042 72.2081C40.606 72.2058 40.32 72.0891 40.1054 71.882C39.8908 71.6749 39.7639 71.3934 39.7509 71.0954C39.7449 70.9509 39.7684 70.8066 39.8199 70.6714C39.8713 70.5361 39.9497 70.4127 40.0503 70.3087C40.1508 70.2047 40.2715 70.1221 40.4049 70.0661C40.5383 70.0101 40.6817 69.9817 40.8264 69.9828C41.1248 69.9842 41.4112 70.1007 41.626 70.308C41.8408 70.5152 41.9675 70.7972 41.9796 71.0954V71.0954Z" fill="#263238"/>
<path d="M37.1706 71.0954C37.177 71.2401 37.1539 71.3846 37.1026 71.5201C37.0514 71.6555 36.973 71.7791 36.8723 71.8832C36.7717 71.9874 36.6508 72.0699 36.5172 72.1257C36.3836 72.1816 36.24 72.2096 36.0951 72.2081C35.7973 72.2058 35.5117 72.0889 35.2976 71.8818C35.0836 71.6746 34.9574 71.3931 34.9452 71.0954C34.9393 70.9509 34.9628 70.8066 35.0142 70.6714C35.0657 70.5361 35.1441 70.4127 35.2446 70.3087C35.3452 70.2047 35.4658 70.1221 35.5992 70.0661C35.7326 70.0101 35.876 69.9817 36.0207 69.9828C36.3188 69.9843 36.6049 70.1009 36.8191 70.3082C37.0334 70.5155 37.1593 70.7975 37.1706 71.0954V71.0954Z" fill="#263238"/>
<path d="M32.3918 71.0954C32.3977 71.24 32.3743 71.3843 32.3228 71.5195C32.2714 71.6548 32.193 71.7781 32.0924 71.8822C31.9919 71.9862 31.8712 72.0687 31.7378 72.1248C31.6044 72.1808 31.461 72.2091 31.3163 72.2081C31.0182 72.2066 30.7322 72.09 30.5179 71.8827C30.3037 71.6754 30.1778 71.3933 30.1664 71.0954C30.1605 70.9509 30.1839 70.8066 30.2354 70.6714C30.2869 70.5361 30.3653 70.4127 30.4658 70.3087C30.5664 70.2047 30.687 70.1221 30.8204 70.0661C30.9538 70.0101 31.0972 69.9817 31.2419 69.9828C31.54 69.9843 31.8261 70.1009 32.0403 70.3082C32.2545 70.5155 32.3805 70.7975 32.3918 71.0954V71.0954Z" fill="#263238"/>
<path d="M46.7719 71.0954C46.7779 71.24 46.7544 71.3843 46.7029 71.5195C46.6515 71.6547 46.5731 71.7781 46.4725 71.8822C46.372 71.9862 46.2513 72.0687 46.1179 72.1248C45.9845 72.1808 45.8411 72.2091 45.6964 72.2081C45.3983 72.2066 45.1123 72.09 44.898 71.8827C44.6838 71.6754 44.5579 71.3933 44.5466 71.0954C44.5415 70.9513 44.5658 70.8076 44.6179 70.6731C44.67 70.5386 44.7489 70.4161 44.8498 70.313C44.9507 70.21 45.0714 70.1284 45.2048 70.0734C45.3381 70.0184 45.4812 69.991 45.6254 69.9929C45.9213 69.9952 46.205 70.1107 46.4183 70.3158C46.6315 70.5209 46.7581 70.7999 46.7719 71.0954V71.0954Z" fill="#263238"/>
<path d="M51.5642 71.0954C51.5706 71.2401 51.5475 71.3846 51.4962 71.5201C51.4449 71.6555 51.3665 71.7791 51.2659 71.8832C51.1652 71.9874 51.0444 72.0699 50.9108 72.1257C50.7771 72.1816 50.6335 72.2096 50.4887 72.2081C50.1908 72.2058 49.9053 72.0889 49.6912 71.8818C49.4771 71.6746 49.3509 71.3931 49.3388 71.0954C49.3328 70.9509 49.3563 70.8066 49.4078 70.6714C49.4592 70.5361 49.5376 70.4127 49.6382 70.3087C49.7387 70.2047 49.8594 70.1221 49.9928 70.0661C50.1262 70.0101 50.2696 69.9817 50.4143 69.9828C50.7124 69.9843 50.9984 70.1009 51.2127 70.3082C51.4269 70.5155 51.5528 70.7975 51.5642 71.0954V71.0954Z" fill="#263238"/>
<path d="M91.9281 41.3406C92.3779 42.0643 92.7533 42.7543 93.1389 43.4746C93.5244 44.195 93.8728 44.9187 94.2143 45.6594C94.9113 47.1591 95.488 48.7118 95.9392 50.3029C96 50.5024 96.044 50.7155 96.0947 50.9218L96.1691 51.2363L96.2063 51.3919L96.2503 51.6489C96.3266 52.232 96.291 52.8243 96.1455 53.394C95.912 54.2787 95.5569 55.1266 95.0903 55.9136C94.2557 57.3438 93.2469 58.665 92.0871 59.8469L90.6632 58.7714C91.3779 57.4576 92.0137 56.1024 92.5673 54.713C92.8139 54.1008 92.9876 53.4618 93.0847 52.809C93.1159 52.6096 93.1067 52.4061 93.0577 52.2103L92.9224 51.7977C92.8683 51.6286 92.8176 51.4595 92.7533 51.2871C92.2389 49.8918 91.6438 48.5277 90.971 47.2016C90.2946 45.8488 89.5675 44.496 88.8403 43.2041L91.9281 41.3406Z" fill="#FF8B7B"/>
<path d="M91.0254 58.3014L89.4697 59.1232L91.2554 61.2133C91.2554 61.2133 92.3715 60.4591 92.4222 59.3092L91.0254 58.3014Z" fill="#FF8B7B"/>
<path d="M87.3833 60.4117L89.2941 61.9302L91.2557 61.2132L89.47 59.1232L87.3833 60.4117Z" fill="#FF8B7B"/>
<path d="M80.8489 30.2747C80.8117 30.4641 80.6798 30.596 80.5581 30.5723C80.4363 30.5486 80.3653 30.3727 80.4025 30.1867C80.4397 30.0007 80.5716 29.8485 80.6967 29.8891C80.8219 29.9297 80.8861 30.0853 80.8489 30.2747Z" fill="#263238"/>
<path d="M80.697 30.5994C80.3564 31.1291 79.9444 31.6094 79.4727 32.0266C79.5841 32.142 79.7191 32.232 79.8686 32.2904C80.018 32.3488 80.1783 32.3742 80.3385 32.3648L80.697 30.5994Z" fill="#FF5652"/>
<path d="M80.0879 37.2348V35.0162L83.0235 35.3544C83.0235 35.3544 82.9761 37.2619 81.3325 37.8233L80.0879 37.2348Z" fill="#FF8B7B"/>
<path d="M80.9335 33.4199L82.9999 34.0152L83.0371 35.3713L80.1016 35.0162L80.9335 33.4199Z" fill="#FF8B7B"/>
<path opacity="0.2" d="M83.0001 34.0152L80.9337 33.4199L80.5312 34.191C80.5532 34.7986 80.7431 35.3882 81.0798 35.8945C81.4165 36.4007 81.8869 36.8038 82.4387 37.059C82.7937 36.563 83.0013 35.9768 83.0373 35.368L83.0001 34.0152Z" fill="black"/>
<path d="M81.7486 29.3717C81.7703 29.3711 81.7913 29.3644 81.8094 29.3524C81.8274 29.3404 81.8416 29.3235 81.8505 29.3037C81.8593 29.2839 81.8624 29.262 81.8593 29.2405C81.8563 29.219 81.8472 29.1989 81.8331 29.1823C81.7143 29.0482 81.5651 28.9444 81.3981 28.8797C81.231 28.815 81.0508 28.7912 80.8726 28.8103C80.8435 28.8153 80.8175 28.8316 80.8004 28.8557C80.7833 28.8798 80.7764 28.9097 80.7813 28.9388C80.7863 28.9682 80.8025 28.9945 80.8265 29.0121C80.8504 29.0298 80.8803 29.0375 80.9098 29.0335C81.051 29.0197 81.1934 29.0398 81.3251 29.0921C81.4569 29.1445 81.5743 29.2276 81.6674 29.3345C81.6778 29.3458 81.6903 29.3549 81.7042 29.3613C81.7182 29.3677 81.7333 29.3713 81.7486 29.3717Z" fill="#263238"/>
<path d="M86.071 33.6973C85.7328 35.439 85.5232 37.8504 86.7474 39.0104C86.7474 39.0104 86.274 40.7758 83.0272 40.7758C79.4727 40.7758 81.3193 39.2268 81.3193 39.2268C82.7973 38.7669 82.7837 37.086 82.4455 35.7332L86.071 33.6973Z" fill="#FF8B7B"/>
<path d="M87.4066 40.1738C87.7245 39.7273 87.7109 38.3103 87.3727 38.06C86.8282 37.6575 84.4913 37.5628 81.3494 38.2866C81.6876 39.6597 80.9604 40.3767 80.9604 40.3767L87.4066 40.1738Z" fill="#4845ED"/>
<path d="M97.9786 120.466C97.8821 120.5 97.7798 120.514 97.6776 120.509C97.5755 120.503 97.4755 120.477 97.3834 120.432C97.3485 120.4 97.3246 120.357 97.3149 120.311C97.3052 120.264 97.3102 120.215 97.3293 120.172C97.3399 120.135 97.3585 120.101 97.3836 120.073C97.4087 120.044 97.4398 120.021 97.4747 120.006C97.796 119.851 98.5333 120.151 98.5671 120.165C98.5772 120.169 98.5858 120.176 98.5918 120.185C98.5979 120.194 98.601 120.205 98.6009 120.216C98.6008 120.227 98.598 120.237 98.5927 120.247C98.5873 120.256 98.5797 120.264 98.5705 120.27C98.3798 120.354 98.1816 120.419 97.9786 120.466V120.466ZM97.5897 120.084C97.5674 120.089 97.5458 120.097 97.5254 120.108C97.5043 120.115 97.4854 120.128 97.4701 120.144C97.4548 120.161 97.4436 120.181 97.4375 120.202C97.4071 120.304 97.4375 120.338 97.4578 120.348C97.5863 120.456 98.0598 120.348 98.3946 120.223C98.1399 120.117 97.865 120.07 97.5897 120.084V120.084Z" fill="#4845ED"/>
<path d="M98.5571 120.273H98.53C98.2594 120.195 97.6845 119.786 97.6777 119.519C97.6775 119.477 97.6918 119.435 97.7182 119.402C97.7447 119.369 97.7817 119.346 97.8232 119.336C97.8633 119.321 97.9062 119.315 97.9489 119.319C97.9915 119.322 98.0329 119.335 98.0701 119.357C98.388 119.519 98.5909 120.175 98.5976 120.206C98.6024 120.214 98.6049 120.223 98.6049 120.233C98.6049 120.242 98.6024 120.251 98.5976 120.26C98.5924 120.265 98.586 120.269 98.579 120.271C98.5719 120.274 98.5644 120.274 98.5571 120.273V120.273ZM97.8807 119.431H97.8536C97.786 119.455 97.786 119.489 97.786 119.506C97.786 119.664 98.1715 119.986 98.4624 120.114C98.3913 119.925 98.2358 119.549 98.0295 119.438C97.9837 119.417 97.9316 119.415 97.884 119.431H97.8807Z" fill="#4845ED"/>
<path d="M80.4128 120.865C80.1085 120.865 79.8142 120.821 79.7162 120.686C79.6905 120.65 79.6768 120.607 79.6768 120.562C79.6768 120.518 79.6905 120.475 79.7162 120.439C79.7355 120.406 79.7613 120.377 79.7921 120.355C79.823 120.332 79.8581 120.316 79.8954 120.307C80.2911 120.199 81.1231 120.672 81.1569 120.693C81.1673 120.698 81.1756 120.706 81.1805 120.717C81.1855 120.727 81.1867 120.739 81.184 120.75C81.1827 120.762 81.1777 120.773 81.1698 120.781C81.1619 120.79 81.1514 120.795 81.14 120.797C80.9001 120.841 80.6567 120.864 80.4128 120.865ZM80.0374 120.402C80.0016 120.396 79.9651 120.396 79.9292 120.402C79.9063 120.406 79.8846 120.416 79.8654 120.429C79.8462 120.443 79.83 120.46 79.8176 120.48C79.777 120.551 79.7939 120.584 79.8176 120.605C79.9292 120.76 80.5278 120.764 80.9709 120.699C80.6817 120.541 80.3648 120.44 80.0374 120.402V120.402Z" fill="#4845ED"/>
<path d="M81.1361 120.797H81.1124C80.825 120.669 80.2568 120.155 80.3008 119.884C80.3008 119.82 80.3549 119.742 80.5104 119.729C80.566 119.722 80.6224 119.727 80.6759 119.744C80.7295 119.76 80.7791 119.787 80.8216 119.823C81.0383 120.083 81.1684 120.403 81.1936 120.74C81.1935 120.75 81.1913 120.759 81.1873 120.768C81.1832 120.777 81.1773 120.784 81.1699 120.791C81.1595 120.796 81.1478 120.798 81.1361 120.797ZM80.5544 119.834H80.5206C80.4191 119.834 80.4124 119.881 80.4124 119.894C80.3853 120.057 80.7709 120.463 81.0651 120.638C81.0392 120.367 80.9293 120.11 80.7506 119.905C80.695 119.857 80.624 119.832 80.551 119.834H80.5544Z" fill="#4845ED"/>
<path d="M83.7476 120.743H81.37L81.1333 115.234H83.5108L83.7476 120.743Z" fill="#FF8B7B"/>
<path d="M101.209 119.641L98.8853 120.145L96.5483 115.014L98.8752 114.51L101.209 119.641Z" fill="#FF8B7B"/>
<path d="M98.6585 119.911L101.273 119.347C101.318 119.337 101.366 119.343 101.408 119.364C101.45 119.385 101.483 119.419 101.503 119.462L102.409 121.43C102.433 121.478 102.446 121.53 102.446 121.584C102.445 121.637 102.433 121.69 102.408 121.737C102.384 121.785 102.348 121.826 102.305 121.857C102.262 121.888 102.212 121.909 102.159 121.917C101.246 122.096 100.789 122.14 99.6426 122.387C98.9358 122.543 97.3395 122.931 96.3621 123.141C95.3847 123.351 95.0499 122.414 95.432 122.242C97.14 121.46 97.8502 120.774 98.3135 120.135C98.3973 120.02 98.52 119.941 98.6585 119.911V119.911Z" fill="#263238"/>
<path d="M81.3867 120.466H83.984C84.0312 120.466 84.0769 120.483 84.1137 120.512C84.1505 120.541 84.1763 120.582 84.187 120.628L84.6571 122.742C84.6709 122.793 84.6725 122.847 84.6618 122.899C84.6511 122.95 84.6283 122.999 84.5955 123.041C84.5626 123.082 84.5204 123.115 84.4724 123.137C84.4243 123.16 84.3717 123.17 84.3189 123.168C83.382 123.151 82.0292 123.097 80.8523 123.097C79.4724 123.097 78.2854 123.172 76.6688 123.172C75.6914 123.172 75.4208 122.184 75.83 122.093C77.6901 121.687 79.212 121.643 80.8185 120.652C80.9872 120.539 81.1838 120.475 81.3867 120.466V120.466Z" fill="#263238"/>
<path d="M91.0016 39.5549C93.2303 40.0656 95.06 45.7575 95.06 45.7575L90.6059 49.1632C89.4498 47.927 88.6341 46.4122 88.2385 44.7665C87.4505 41.7836 88.7221 39.0273 91.0016 39.5549Z" fill="#4845ED"/>
<path opacity="0.4" d="M91.0016 39.5549C93.2303 40.0656 95.06 45.7575 95.06 45.7575L90.6059 49.1632C89.4498 47.927 88.6341 46.4122 88.2385 44.7665C87.4505 41.7836 88.7221 39.0273 91.0016 39.5549Z" fill="black"/>
<path d="M79.2763 46.3425C78.7217 46.9412 78.167 47.4755 77.5853 48.0335C77.2978 48.3041 77.007 48.5747 76.7094 48.8351L76.2596 49.2308L76.148 49.3288L75.9552 49.4844C75.7568 49.6429 75.537 49.7727 75.3025 49.87C75.0414 49.9808 74.7608 50.0383 74.4772 50.0391C74.2349 50.0401 73.9944 49.9977 73.767 49.9139C73.5149 49.8179 73.2848 49.6718 73.0906 49.4844C72.8429 49.2423 72.6612 48.9407 72.563 48.6085C72.5117 48.4447 72.4788 48.2757 72.4649 48.1046C72.4472 47.9043 72.4472 47.7028 72.4649 47.5026C72.4819 47.3402 72.5022 47.1982 72.5292 47.0663C72.6218 46.6051 72.753 46.1526 72.9215 45.7135C73.0737 45.2961 73.2487 44.8874 73.4457 44.4892C73.6622 44.0597 73.8685 43.7452 74.0748 43.3867C74.9127 42.014 75.8689 40.7171 76.9326 39.5109C77.9855 38.3118 79.1459 37.2114 80.3991 36.2236L81.6437 37.5054C80.7712 38.6755 79.9121 39.9302 79.1174 41.1647C78.3264 42.3921 77.6038 43.6623 76.9529 44.9694C76.8074 45.2873 76.6147 45.6458 76.5234 45.9029C76.4024 46.2015 76.2974 46.5063 76.2088 46.816C76.1236 47.0949 76.0592 47.3798 76.0161 47.6683C76.0138 47.7133 76.0138 47.7585 76.0161 47.8036C76.0161 47.8306 76.0161 47.8441 76.0161 47.7731C76.0105 47.6972 75.9957 47.6223 75.9721 47.5499C75.899 47.3101 75.765 47.0934 75.5832 46.9209C75.4214 46.7723 75.2317 46.6573 75.0251 46.5827C74.8436 46.5139 74.6511 46.4784 74.457 46.4778C74.2702 46.4756 74.085 46.5112 73.9125 46.5827C73.854 46.6065 73.7975 46.6348 73.7434 46.6672L73.8719 46.5488L74.2811 46.1768L75.0894 45.4192C75.6237 44.9153 76.1615 44.3776 76.6688 43.8771L79.2763 46.3425Z" fill="#FF8B7B"/>
<path opacity="0.2" d="M89.0911 43.735C90.3018 44.9323 90.6975 47.1171 90.7821 49.011L90.5859 49.1632C89.4298 47.9271 88.6141 46.4122 88.2185 44.7666C88.1745 44.5907 88.134 44.4284 88.1035 44.2356L89.0911 43.735Z" fill="black"/>
<path d="M76.9124 41.9223C76.4254 44.4926 76.121 49.7719 77.5313 60.2223H90.2679C90.3559 58.2709 89.1282 48.7404 91.012 39.538C89.6045 39.2677 88.1812 39.0881 86.7507 39.0002C84.9484 38.8969 83.1417 38.8969 81.3395 39.0002C80.7442 39.0544 80.1558 39.1423 79.6485 39.2336C78.9738 39.352 78.3509 39.6724 77.8624 40.1525C77.3738 40.6326 77.0425 41.2498 76.9124 41.9223Z" fill="#4845ED"/>
<path opacity="0.4" d="M76.9124 41.9223C76.4254 44.4926 76.121 49.7719 77.5313 60.2223H90.2679C90.3559 58.2709 89.1282 48.7404 91.012 39.538C89.6045 39.2677 88.1812 39.0881 86.7507 39.0002C84.9484 38.8969 83.1417 38.8969 81.3395 39.0002C80.7442 39.0544 80.1558 39.1423 79.6485 39.2336C78.9738 39.352 78.3509 39.6724 77.8624 40.1525C77.3738 40.6326 77.0425 41.2498 76.9124 41.9223Z" fill="black"/>
<path opacity="0.2" d="M78.8606 45.7338L76.5608 45.1825C76.4898 46.5759 76.483 48.3007 76.5845 50.4347C77.6431 49.2308 78.9959 47.3504 78.8606 45.7338Z" fill="black"/>
<path opacity="0.2" d="M81.1333 115.234L81.2551 118.075H83.636L83.5142 115.234H81.1333Z" fill="black"/>
<path opacity="0.2" d="M98.8752 114.51L96.5483 115.014L97.7523 117.659L100.079 117.155L98.8752 114.51Z" fill="black"/>
<path d="M87.2005 31.1541C86.5917 33.4335 86.3482 34.7999 84.9413 35.7468C82.8276 37.1876 80.1896 35.5371 80.122 33.1291C80.0476 30.9545 81.0588 27.5894 83.504 27.1295C84.0413 27.0286 84.5955 27.0663 85.1143 27.2389C85.633 27.4114 86.0993 27.7133 86.4691 28.1159C86.8389 28.5186 87.1001 29.0088 87.2281 29.5403C87.3561 30.0718 87.3466 30.6272 87.2005 31.1541V31.1541Z" fill="#FF8B7B"/>
<path d="M81.8634 31.2386C81.7484 30.9342 81.2242 28.5769 81.718 27.9648C82.2118 27.3526 87.8428 27.7957 88.6748 28.6141C90.058 29.9669 89.0975 31.1844 87.5858 32.7503C86.4494 33.9272 86.4055 35.253 85.8305 35.4559C84.8159 35.7941 83.267 35.4762 82.9558 34.4041C82.6447 33.332 81.8634 31.2386 81.8634 31.2386Z" fill="#263238"/>
<path d="M87.9918 25.9322C86.0032 25.0867 82.2729 26.0235 80.2572 25.5365C80.2315 26.286 80.478 27.0195 80.9511 27.6014C81.4242 28.1833 82.0919 28.5742 82.8309 28.7021C84.503 29.0207 86.2018 29.1781 87.9039 29.1722C90.1157 29.0707 89.6828 26.6526 87.9918 25.9322Z" fill="#263238"/>
<path d="M88.3027 28.6852C89.0292 28.7567 89.7608 28.6169 90.4097 28.2827C90.7817 29.1823 88.7356 29.4292 88.3027 28.6852Z" fill="#263238"/>
<path d="M82.9457 31.3332C82.9001 31.9198 82.6623 32.4749 82.2693 32.9126C81.7485 33.4842 81.2074 33.1257 81.1161 32.4324C81.0349 31.8033 81.204 30.7414 81.8398 30.437C82.4756 30.1326 82.9897 30.6264 82.9457 31.3332Z" fill="#FF8B7B"/>
<path d="M82.0464 60.2325C82.0464 60.2325 84.752 78.4108 86.2299 85.2222C87.8499 92.6795 96.5552 117.351 96.5552 117.351L100.813 116.428C100.813 116.428 94.7255 96.3185 93.3727 85.8918C92.3243 77.8832 90.2647 60.2258 90.2647 60.2258L82.0464 60.2325Z" fill="#4845ED"/>
<path d="M95.5335 115.934C95.5166 115.934 96.3282 117.476 96.3282 117.476L101.117 116.438L100.715 114.997L95.5335 115.934Z" fill="#263238"/>
<path opacity="0.3" d="M83.7542 66.709C86.8758 67.3211 86.5444 78.962 86.169 84.9515C85.2694 80.7173 83.9504 72.5734 83.0508 66.7936C83.2688 66.6859 83.517 66.6561 83.7542 66.709V66.709Z" fill="black"/>
<path d="M77.5314 60.2325C77.5314 60.2325 77.1932 78.0184 77.4638 85.2593C77.7344 92.8046 80.3689 117.51 80.3689 117.51H84.4003C84.4003 117.51 84.5457 93.2442 84.7385 85.8342C84.9346 77.758 85.9087 60.2189 85.9087 60.2189L77.5314 60.2325Z" fill="#4845ED"/>
<path d="M79.594 115.921C79.5737 115.921 79.8205 117.591 79.8205 117.591H84.7211L84.8564 116.1L79.594 115.921Z" fill="#263238"/>
<path d="M81.8973 42.7138C83.0371 45.788 76.3373 49.4101 76.3373 49.4101L73.4355 45.6899C73.4355 45.6899 75.387 41.8277 77.7544 40.0893C80.6798 37.9451 81.0281 40.3734 81.8973 42.7138Z" fill="#4845ED"/>
<path opacity="0.4" d="M81.8973 42.7138C83.0371 45.788 76.3373 49.4101 76.3373 49.4101L73.4355 45.6899C73.4355 45.6899 75.387 41.8277 77.7544 40.0893C80.6798 37.9451 81.0281 40.3734 81.8973 42.7138Z" fill="black"/>
<path d="M108.149 19.3744C114.89 19.3744 120.354 15.8918 120.354 11.5958C120.354 7.29974 114.89 3.81714 108.149 3.81714C101.408 3.81714 95.9429 7.29974 95.9429 11.5958C95.9429 15.8918 101.408 19.3744 108.149 19.3744Z" fill="#4845ED"/>
<path d="M103.745 15.5121C102.941 15.5096 102.164 15.2237 101.55 14.7047C100.935 14.1858 100.524 13.467 100.387 12.6746C100.252 11.8164 100.446 10.9389 100.929 10.217C101.412 9.49499 102.15 8.98146 102.994 8.77858V8.77858C103.688 8.61884 104.413 8.68041 105.07 8.95461C105.726 9.22882 106.28 9.70187 106.654 10.3072L114.49 8.69064C114.791 8.62469 115.106 8.67477 115.372 8.83088C115.638 8.98699 115.835 9.23764 115.924 9.53276C115.965 9.68792 115.974 9.84982 115.95 10.0085C115.926 10.1673 115.871 10.3195 115.786 10.4559C115.702 10.5924 115.59 10.7101 115.459 10.802C115.327 10.8939 115.178 10.958 115.021 10.9904L114.818 11.031C114.788 11.0364 114.759 11.0487 114.735 11.0668C114.71 11.085 114.69 11.1086 114.676 11.1358C114.663 11.1635 114.657 11.1934 114.657 11.2238C114.657 11.2541 114.663 11.2841 114.676 11.3117L114.815 11.6702C114.861 11.7864 114.865 11.9152 114.827 12.0343C114.789 12.1534 114.71 12.2555 114.605 12.3229C114.522 12.3743 114.451 12.4439 114.399 12.5266C114.347 12.6092 114.314 12.7026 114.304 12.7998C114.294 12.9113 114.249 13.0168 114.175 13.1012C114.102 13.1856 114.004 13.2447 113.895 13.2699L113.736 13.3037C113.626 13.3241 113.512 13.3088 113.411 13.2602C113.31 13.2115 113.227 13.132 113.174 13.0331C113.104 12.9152 112.999 12.8221 112.873 12.7668C112.748 12.7115 112.608 12.6968 112.473 12.7247C112.339 12.7526 112.217 12.8218 112.123 12.9225C112.03 13.0233 111.971 13.1506 111.953 13.2868C111.944 13.3976 111.9 13.5025 111.827 13.5864C111.754 13.6703 111.656 13.7288 111.548 13.7535L111.389 13.7873C111.278 13.8071 111.165 13.7917 111.064 13.7431C110.963 13.6945 110.88 13.6153 110.827 13.5168C110.777 13.4329 110.708 13.361 110.627 13.3061C110.546 13.2512 110.454 13.2146 110.357 13.1989C110.227 13.1832 110.107 13.1206 110.02 13.0229C109.933 12.9251 109.884 12.7989 109.884 12.6679V12.2823C109.882 12.2522 109.874 12.2227 109.861 12.1958C109.847 12.169 109.827 12.1454 109.803 12.1268C109.78 12.1082 109.752 12.0949 109.723 12.0879C109.693 12.0809 109.663 12.0803 109.633 12.0862L107.134 12.6002C107.032 13.2927 106.719 13.9369 106.238 14.4452C105.757 14.9535 105.131 15.3012 104.445 15.4411C104.215 15.4882 103.98 15.512 103.745 15.5121V15.5121ZM103.069 9.08634C102.302 9.26552 101.631 9.72868 101.192 10.3826C100.753 11.0365 100.577 11.8325 100.701 12.6104C100.834 13.3341 101.222 13.9863 101.794 14.449C102.366 14.9118 103.085 15.1544 103.821 15.1332C104.556 15.1119 105.26 14.8282 105.804 14.3332C106.349 13.8382 106.698 13.1647 106.789 12.4345V12.3128L109.545 11.7547C109.624 11.7356 109.707 11.7343 109.786 11.751C109.866 11.7677 109.941 11.8018 110.006 11.8511C110.07 11.9003 110.123 11.9633 110.161 12.0356C110.198 12.1078 110.219 12.1875 110.222 12.2688V12.6544C110.223 12.7003 110.239 12.7445 110.269 12.7796C110.298 12.8147 110.339 12.8386 110.384 12.8471C110.532 12.8683 110.673 12.9229 110.797 13.0067C110.92 13.0904 111.023 13.2013 111.098 13.3308C111.116 13.3673 111.145 13.3973 111.18 13.4167C111.216 13.436 111.257 13.4438 111.297 13.439L111.453 13.4052C111.492 13.395 111.527 13.3724 111.553 13.3407C111.579 13.3091 111.593 13.27 111.595 13.2293C111.616 13.0188 111.704 12.8205 111.845 12.663C111.987 12.5056 112.175 12.3972 112.382 12.3536C112.589 12.3099 112.804 12.3332 112.997 12.4201C113.19 12.507 113.35 12.653 113.455 12.837C113.472 12.8732 113.501 12.9031 113.536 12.9225C113.571 12.9419 113.611 12.9498 113.651 12.9452L113.813 12.9114C113.852 12.9006 113.887 12.8778 113.912 12.8461C113.937 12.8145 113.951 12.7758 113.952 12.7355C113.969 12.587 114.019 12.4443 114.1 12.3183C114.18 12.1923 114.288 12.0863 114.415 12.0084C114.453 11.9815 114.48 11.943 114.493 11.8988C114.506 11.8547 114.503 11.8076 114.486 11.7649L114.348 11.4064C114.319 11.3325 114.307 11.2532 114.312 11.1741C114.317 11.095 114.34 11.018 114.378 10.9484C114.416 10.8788 114.468 10.8184 114.532 10.7713C114.596 10.7243 114.669 10.6917 114.747 10.6759L114.953 10.6319C115.065 10.6081 115.171 10.562 115.264 10.4964C115.357 10.4308 115.437 10.3471 115.497 10.2501C115.557 10.1532 115.597 10.0451 115.615 9.9323C115.633 9.8195 115.627 9.70432 115.599 9.59364C115.533 9.3808 115.389 9.2008 115.196 9.08977C115.003 8.97874 114.775 8.9449 114.558 8.99502L106.502 10.6691L106.441 10.5643C106.117 9.98807 105.615 9.53288 105.009 9.26747C104.404 9.00206 103.729 8.94085 103.086 9.0931L103.069 9.08634ZM103.745 14.254C103.325 14.2587 102.913 14.1412 102.558 13.9158C102.139 13.6405 101.828 13.2282 101.678 12.7493C101.529 12.2704 101.55 11.7545 101.739 11.2895C101.927 10.8246 102.271 10.4393 102.712 10.1995C103.152 9.95968 103.662 9.88011 104.155 9.97436C104.648 10.0686 105.093 10.3308 105.414 10.7163C105.735 11.1019 105.912 11.5868 105.916 12.0885C105.919 12.5901 105.749 13.0775 105.433 13.4675C105.117 13.8574 104.676 14.1259 104.185 14.227V14.227C104.041 14.253 103.895 14.2644 103.749 14.2608L103.745 14.254ZM103.745 10.2599C103.619 10.2606 103.494 10.2731 103.37 10.2971C103.134 10.3473 102.911 10.4434 102.712 10.5799C102.514 10.7164 102.344 10.8907 102.213 11.0928C102.082 11.2949 101.992 11.5208 101.948 11.7577C101.904 11.9946 101.908 12.2378 101.958 12.4734C102.008 12.709 102.104 12.9324 102.241 13.1309C102.377 13.3294 102.551 13.499 102.754 13.6301C102.956 13.7613 103.182 13.8513 103.418 13.8951C103.655 13.9389 103.899 13.9356 104.134 13.8854V13.8854C104.488 13.8118 104.812 13.6351 105.065 13.3776C105.319 13.1201 105.49 12.7933 105.558 12.4385C105.626 12.0837 105.588 11.7167 105.447 11.3837C105.307 11.0508 105.071 10.7668 104.77 10.5677C104.471 10.3685 104.118 10.2637 103.759 10.2667L103.745 10.2599Z" fill="white"/>
<path opacity="0.6" d="M98.2152 23.9367C100.43 23.9367 102.226 22.7919 102.226 21.3799C102.226 19.9678 100.43 18.8231 98.2152 18.8231C95.9999 18.8231 94.2041 19.9678 94.2041 21.3799C94.2041 22.7919 95.9999 23.9367 98.2152 23.9367Z" fill="#4845ED"/>
<path opacity="0.3" d="M91.8336 24.9851C92.7432 24.9851 93.4806 24.5158 93.4806 23.9367C93.4806 23.3577 92.7432 22.8883 91.8336 22.8883C90.9239 22.8883 90.1865 23.3577 90.1865 23.9367C90.1865 24.5158 90.9239 24.9851 91.8336 24.9851Z" fill="#4845ED"/>
</g>
</svg>
