<svg width="127" height="127" viewBox="0 0 127 127" fill="none" xmlns="http://www.w3.org/2000/svg">
<circle cx="63.5" cy="63.5" r="62.5" fill="#F3F4F6" stroke="white" stroke-width="2"/>
<path d="M85.9981 40.326L86.0032 40.3497L86.0095 40.373L93.5164 68.3892C93.5165 68.3896 93.5167 68.3901 93.5168 68.3906C93.6676 68.9602 93.5869 69.5664 93.2922 70.0767C92.9976 70.5871 92.513 70.9601 91.9443 71.1143C91.9438 71.1144 91.9433 71.1145 91.9429 71.1146L44.0324 83.9522C44.032 83.9523 44.0315 83.9524 44.0311 83.9526C43.4614 84.1034 42.8552 84.0227 42.3449 83.728C41.8345 83.4333 41.4614 82.9486 41.3073 82.3797L33.8001 54.3625L33.7998 54.3615C33.7266 54.0892 33.7069 53.8053 33.7418 53.5255L33.742 53.5241C33.7969 53.0797 33.9839 52.6619 34.2787 52.3249C34.5735 51.9879 34.9627 51.747 35.3958 51.6335L35.3958 51.6335L35.4011 51.6321L83.3161 38.7933L83.3229 38.7915C83.7543 38.6726 84.2115 38.6862 84.6351 38.8306C85.0511 38.9724 85.4158 39.2339 85.6836 39.5821C85.8339 39.8082 85.9406 40.0605 85.9981 40.326Z" fill="white" stroke="#4845ED" stroke-width="2"/>
<path d="M35.3957 51.6329L35.3957 51.6329L35.401 51.6315L83.3098 38.7944C83.735 38.6868 84.1825 38.707 84.5963 38.8524C84.7881 38.9197 84.9686 39.0126 85.1335 39.1277L65.7424 66.5091C65.7422 66.5095 65.7419 66.5099 65.7416 66.5102C65.5967 66.7131 65.3857 66.8593 65.1449 66.9238C64.904 66.9883 64.6482 66.9672 64.4212 66.864C64.4208 66.8638 64.4204 66.8636 64.42 66.8634L33.9373 52.8465C34.0257 52.6584 34.1402 52.4825 34.2786 52.3243C34.5734 51.9873 34.9626 51.7464 35.3957 51.6329Z" fill="white" stroke="#4845ED" stroke-width="2"/>
<ellipse cx="62.8616" cy="88.2081" rx="21.4891" ry="1.82886" fill="#E5E7EB"/>
</svg>
