<svg width="127" height="127" viewBox="0 0 127 127" fill="none" xmlns="http://www.w3.org/2000/svg">
<circle cx="63.5" cy="63.5" r="62.5" fill="#F3F4F6" stroke="white" stroke-width="2"/>
<circle cx="63.5" cy="63.5" r="62.5" fill="#F3F4F6" stroke="white" stroke-width="2"/>
<path d="M37.4561 101.999H37.4469L37.4378 101.999C36.6737 102.013 35.9154 101.861 35.214 101.554L34.8122 102.469L35.214 101.554C34.5126 101.246 33.8842 100.789 33.3719 100.214C32.8595 99.6388 32.4751 98.9586 32.2454 98.2193C32.0157 97.4799 31.9461 96.6991 32.0415 95.93L32.043 95.9176L32.0443 95.9053L38.4314 31.3005C38.6334 29.5899 39.4397 28.0119 40.7002 26.8554C41.9598 25.6996 43.5884 25.042 45.2871 25.0008H89.5369H89.5451L89.5533 25.0007C90.3177 24.9882 91.0761 25.141 91.7775 25.4493L92.1799 24.5339L91.7776 25.4493C92.479 25.7577 93.1076 26.2144 93.6206 26.7894C94.1336 27.3644 94.5191 28.0443 94.7504 28.7834C94.9817 29.5226 95.0535 30.3034 94.9606 31.0732L94.9593 31.0838L94.9583 31.0944L88.5616 95.6992C88.3597 97.4098 87.5533 98.9878 86.2928 100.144C85.0332 101.3 83.4047 101.958 81.7061 101.999H37.4561Z" fill="white" stroke="#4845ED" stroke-width="2"/>
<path d="M44.0152 60.0472H82.1738C82.6135 60.0363 83.0343 59.8669 83.359 59.5703C83.6837 59.2737 83.8904 58.8698 83.9409 58.433C83.967 58.2285 83.9487 58.0209 83.8873 57.8242C83.8259 57.6274 83.7228 57.4463 83.585 57.293C83.4471 57.1398 83.2779 57.0181 83.0888 56.9363C82.8996 56.8544 82.6951 56.8143 82.489 56.8187H44.3782C43.9383 56.8271 43.5163 56.9941 43.1898 57.2889C42.8634 57.5838 42.6545 57.9867 42.6016 58.4234C42.576 58.6251 42.5933 58.8299 42.6524 59.0244C42.7115 59.2189 42.8111 59.3987 42.9446 59.552C43.0781 59.7054 43.2424 59.8287 43.427 59.9141C43.6115 59.9994 43.8119 60.0448 44.0152 60.0472Z" fill="#EDEBFE"/>
<path d="M43.0115 70.1051H81.1701C81.6098 70.0942 82.0307 69.9248 82.3554 69.6282C82.6801 69.3316 82.8867 68.9277 82.9372 68.4908C82.9619 68.2872 82.9425 68.0805 82.8804 67.885C82.8183 67.6894 82.7149 67.5095 82.5773 67.3574C82.4396 67.2052 82.2709 67.0844 82.0825 67.0031C81.8941 66.9218 81.6905 66.8819 81.4854 66.8862H43.279C42.8402 66.8948 42.4194 67.0621 42.0945 67.3571C41.7696 67.6522 41.5627 68.0549 41.5119 68.4908C41.4867 68.6991 41.5072 68.9103 41.572 69.1098C41.6368 69.3094 41.7443 69.4923 41.8871 69.646C42.0298 69.7997 42.2044 69.9204 42.3986 69.9997C42.5928 70.079 42.802 70.1149 43.0115 70.1051Z" fill="#EDEBFE"/>
<path d="M80.3207 76.9343H42.1716C41.2801 76.9343 40.5574 77.6549 40.5574 78.5438C40.5574 79.4326 41.2801 80.1532 42.1716 80.1532H80.3207C81.2122 80.1532 81.9349 79.4326 81.9349 78.5438C81.9349 77.6549 81.2122 76.9343 80.3207 76.9343Z" fill="#EDEBFE"/>
<path d="M50.0032 90.2495H79.1546C79.5959 90.2408 80.0191 90.0725 80.3458 89.7757C80.6725 89.4789 80.8805 89.0737 80.9312 88.6352C80.9557 88.4311 80.9363 88.2241 80.8743 88.0281C80.8123 87.832 80.7091 87.6515 80.5716 87.4987C80.4341 87.3458 80.2655 87.2241 80.0771 87.1417C79.8888 87.0593 79.685 87.0182 79.4794 87.021H50.3279C49.8866 87.0296 49.4634 87.198 49.1367 87.4948C48.8101 87.7916 48.6021 88.1968 48.5513 88.6352C48.5268 88.8394 48.5462 89.0464 48.6082 89.2424C48.6702 89.4384 48.7735 89.6189 48.9109 89.7718C49.0484 89.9247 49.217 90.0464 49.4054 90.1287C49.5938 90.2111 49.7976 90.2523 50.0032 90.2495Z" fill="#EDEBFE"/>
<path d="M46.0209 39.9316H84.2273C84.6669 39.9207 85.0878 39.7514 85.4125 39.4548C85.7372 39.1582 85.9438 38.7543 85.9943 38.3174C86.0124 38.1133 85.9864 37.9078 85.9182 37.7146C85.85 37.5214 85.7412 37.345 85.5991 37.1975C85.4569 37.0499 85.2848 36.9346 85.0943 36.8592C84.9038 36.7838 84.6994 36.7501 84.4947 36.7605H46.3457C45.9064 36.7708 45.4855 36.9384 45.1594 37.2329C44.8334 37.5274 44.6239 37.9292 44.5691 38.3652C44.5518 38.5655 44.5765 38.7673 44.6418 38.9576C44.7071 39.1478 44.8115 39.3223 44.9482 39.4698C45.0849 39.6174 45.251 39.7346 45.4357 39.8142C45.6205 39.8937 45.8198 39.9337 46.0209 39.9316Z" fill="#EDEBFE"/>
<path d="M45.0174 49.6795H83.2238C83.6634 49.6686 84.0843 49.4993 84.409 49.2027C84.7336 48.9061 84.9403 48.5022 84.9908 48.0653C85.0154 47.8616 84.9961 47.655 84.934 47.4595C84.8719 47.2639 84.7685 47.084 84.6309 46.9318C84.4932 46.7797 84.3245 46.6589 84.1361 46.5776C83.9477 46.4963 83.7441 46.4564 83.5389 46.4606H45.3326C44.8927 46.469 44.4707 46.6359 44.1442 46.9308C43.8178 47.2257 43.6089 47.6286 43.556 48.0653C43.5313 48.2703 43.551 48.4781 43.6135 48.6748C43.6761 48.8715 43.7802 49.0525 43.9187 49.2055C44.0573 49.3585 44.227 49.48 44.4166 49.5618C44.6061 49.6436 44.811 49.6837 45.0174 49.6795Z" fill="#EDEBFE"/>
</svg>
