<svg width="127" height="127" viewBox="0 0 127 127" fill="none" xmlns="http://www.w3.org/2000/svg">
<mask id="mask0_4057:13555" style="mask-type:alpha" maskUnits="userSpaceOnUse" x="0" y="0" width="127" height="127">
<circle cx="63.5" cy="63.5" r="62.5" fill="#F3F4F6" stroke="white" stroke-width="2"/>
<circle cx="63.5" cy="63.5" r="62.5" fill="#F3F4F6" stroke="white" stroke-width="2"/>
</mask>
<g mask="url(#mask0_4057:13555)">
<path opacity="0.1" d="M22.0482 -9L-15.1143 130H-2.61843L34.1305 -9H22.0482Z" fill="white"/>
<path opacity="0.1" d="M41.3388 -9L4.17627 130H28.971L65.7199 -9H41.3388Z" fill="white"/>
<path d="M172.619 113.979L180.496 2.41266C180.571 1.55512 180.465 0.691453 180.184 -0.122215C179.903 -0.935882 179.454 -1.68132 178.866 -2.31008C178.278 -2.93884 177.564 -3.43684 176.771 -3.77171C175.978 -4.10658 175.124 -4.27081 174.263 -4.25374L-20.4511 -4.08634C-22.2619 -4.06333 -23.9993 -3.36681 -25.3246 -2.13256C-26.6499 -0.898295 -27.4681 0.785254 -27.6197 2.58991L-35.4972 114.166C-35.5705 115.023 -35.4628 115.886 -35.1814 116.699C-34.8999 117.512 -34.4508 118.257 -33.8632 118.885C-33.2757 119.514 -32.5627 120.012 -31.7704 120.347C-30.9782 120.683 -30.1243 120.848 -29.2641 120.832L165.44 120.665C167.254 120.642 168.994 119.945 170.321 118.708C171.648 117.472 172.467 115.786 172.619 113.979Z" fill="#4845ED"/>
<path opacity="0.8" d="M167.459 115.633C167.059 116.001 166.535 116.205 165.992 116.204L-28.7227 116.372C-29.0352 116.368 -29.3437 116.301 -29.6296 116.175C-29.9156 116.049 -30.1731 115.867 -30.3866 115.639C-30.6 115.41 -30.7651 115.141 -30.8718 114.848C-30.9784 114.554 -31.0245 114.242 -31.0072 113.93L-23.1296 2.36334C-23.0992 1.82163 -22.859 1.31305 -22.46 0.945372C-22.0625 0.57346 -21.5371 0.368925 -20.9928 0.374245L173.721 0.206848C174.034 0.210358 174.342 0.277108 174.628 0.403094C174.914 0.529079 175.172 0.711686 175.385 0.939888C175.599 1.16809 175.764 1.43716 175.87 1.73088C175.977 2.0246 176.023 2.33689 176.006 2.6489L168.128 114.215C168.093 114.756 167.854 115.262 167.459 115.633Z" fill="white"/>
<path d="M102.696 54.2966H34.3477C33.7453 54.3066 33.167 54.5346 32.7198 54.9383C32.2726 55.3421 31.9869 55.8942 31.9155 56.4924L30.8619 66.4871C30.8283 66.7649 30.8543 67.0466 30.9381 67.3135C31.0219 67.5805 31.1617 67.8265 31.348 68.0351C31.5344 68.2438 31.763 68.4104 32.0188 68.5238C32.2745 68.6373 32.5515 68.6949 32.8313 68.6929H101.179C101.784 68.6807 102.363 68.451 102.812 68.0458C103.261 67.6406 103.548 67.0872 103.621 66.4871L104.665 56.4924C104.697 56.2154 104.67 55.9348 104.585 55.6691C104.501 55.4033 104.361 55.1586 104.175 54.951C103.989 54.7434 103.761 54.5777 103.506 54.4649C103.251 54.3521 102.974 54.2947 102.696 54.2966Z" fill="white"/>
<path d="M42.4806 95.1122H31.8163C31.2119 95.1244 30.6322 95.3541 30.1836 95.7593C29.735 96.1645 29.4476 96.7179 29.3742 97.318L28.3305 107.313C28.2984 107.59 28.3255 107.87 28.41 108.136C28.4945 108.402 28.6345 108.647 28.8207 108.854C29.0068 109.062 29.235 109.227 29.49 109.34C29.745 109.453 30.021 109.51 30.2999 109.509H40.9641C41.567 109.497 42.1455 109.268 42.5939 108.865C43.0423 108.462 43.3306 107.911 43.4062 107.313L44.45 97.318C44.4835 97.0402 44.4576 96.7585 44.3738 96.4916C44.2899 96.2246 44.1502 95.9786 43.9639 95.7699C43.7775 95.5612 43.5489 95.3946 43.2931 95.2812C43.0373 95.1678 42.7603 95.1102 42.4806 95.1122Z" fill="white"/>
<path d="M60.8951 95.1122H50.2308C49.6265 95.1244 49.0467 95.3541 48.5981 95.7593C48.1495 96.1645 47.8621 96.7179 47.7888 97.318L46.745 107.313C46.7129 107.59 46.74 107.87 46.8245 108.136C46.9091 108.402 47.049 108.647 47.2352 108.854C47.4214 109.062 47.6495 109.227 47.9045 109.34C48.1595 109.453 48.4356 109.51 48.7144 109.509H59.3787C59.9816 109.497 60.5601 109.268 61.0085 108.865C61.4569 108.462 61.7452 107.911 61.8207 107.313L62.8645 97.318C62.8981 97.0402 62.8721 96.7585 62.7883 96.4916C62.7045 96.2246 62.5647 95.9786 62.3784 95.7699C62.1921 95.5612 61.9634 95.3946 61.7077 95.2812C61.4519 95.1678 61.1749 95.1102 60.8951 95.1122Z" fill="white"/>
<path d="M79.2993 95.1122H68.6449C68.0405 95.1244 67.4608 95.3541 67.0122 95.7593C66.5636 96.1645 66.2762 96.7179 66.2028 97.318L65.1591 107.313C65.127 107.59 65.1541 107.87 65.2386 108.136C65.3231 108.402 65.4631 108.647 65.6493 108.854C65.8354 109.062 66.0636 109.227 66.3186 109.34C66.5736 109.453 66.8496 109.51 67.1285 109.509H77.7927C78.3956 109.497 78.9741 109.268 79.4225 108.865C79.8709 108.462 80.1592 107.911 80.2348 107.313L81.2687 97.318C81.3023 97.0402 81.2763 96.7585 81.1925 96.4916C81.1087 96.2246 80.969 95.9786 80.7826 95.7699C80.5963 95.5612 80.3676 95.3946 80.1118 95.2812C79.8561 95.1678 79.5791 95.1102 79.2993 95.1122Z" fill="white"/>
<path d="M97.7227 95.1122H87.0585C86.4541 95.1244 85.8744 95.3541 85.4258 95.7593C84.9772 96.1645 84.6898 96.7179 84.6164 97.318L83.5726 107.313C83.5406 107.59 83.5677 107.87 83.6522 108.136C83.7367 108.402 83.8767 108.647 84.0629 108.854C84.249 109.062 84.4771 109.227 84.7321 109.34C84.9871 109.453 85.2632 109.51 85.542 109.509H96.2063C96.8092 109.497 97.3877 109.268 97.8361 108.865C98.2845 108.462 98.5728 107.911 98.6484 107.313L99.6921 97.318C99.7257 97.0402 99.6998 96.7585 99.6159 96.4916C99.5321 96.2246 99.3924 95.9786 99.206 95.7699C99.0197 95.5612 98.791 95.3946 98.5353 95.2812C98.2795 95.1678 98.0025 95.1102 97.7227 95.1122Z" fill="white"/>
<path d="M85.6698 88.8002H42.9241C42.3767 88.8132 41.8329 88.7077 41.3301 88.491C40.8272 88.2743 40.3771 87.9516 40.0105 87.5448C39.644 87.1381 39.3696 86.6569 39.2063 86.1343C39.0429 85.6116 38.9944 85.0599 39.0641 84.5168L39.5761 79.5933C39.718 78.4534 40.266 77.4028 41.1197 76.6342C41.9733 75.8655 43.0754 75.4303 44.2239 75.4083H86.9697C87.5175 75.3968 88.0614 75.5036 88.5643 75.7214C89.0671 75.9392 89.5171 76.2629 89.8835 76.6704C90.2499 77.0779 90.524 77.5597 90.6873 78.0828C90.8506 78.6059 90.8992 79.158 90.8297 79.7016L90.3176 84.6251C90.1735 85.7632 89.6246 86.8114 88.7712 87.5781C87.9177 88.3447 86.8168 88.7785 85.6698 88.8002ZM44.2239 76.4029C43.3171 76.4238 42.4479 76.7691 41.774 77.3762C41.1001 77.9832 40.6662 78.8118 40.551 79.7114L40.0389 84.6349C39.9845 85.0412 40.0191 85.4545 40.1403 85.8461C40.2615 86.2377 40.4665 86.5982 40.7409 86.9027C41.0154 87.2072 41.3529 87.4483 41.7299 87.6093C42.1068 87.7703 42.5143 87.8474 42.9241 87.8352H85.6698C86.5757 87.8166 87.4448 87.4734 88.1189 86.868C88.793 86.2625 89.2274 85.4352 89.3428 84.5365L89.8548 79.613C89.9093 79.2067 89.8747 78.7934 89.7535 78.4018C89.6322 78.0102 89.4273 77.6497 89.1528 77.3452C88.8783 77.0407 88.5408 76.7996 88.1639 76.6386C87.7869 76.4776 87.3794 76.4005 86.9697 76.4127L44.2239 76.4029Z" fill="#4845ED"/>
<path d="M105.158 33.48H36.8099C36.2073 33.4944 35.6299 33.7253 35.1834 34.1302C34.7368 34.5352 34.4509 35.0873 34.3777 35.6857L33.3241 45.6804C33.292 45.9574 33.3191 46.238 33.4037 46.5038C33.4882 46.7695 33.6281 47.0143 33.8143 47.2218C34.0005 47.4294 34.2286 47.5951 34.4836 47.7079C34.7386 47.8207 35.0147 47.8781 35.2935 47.8763H103.632C104.234 47.8645 104.813 47.6361 105.261 47.2329C105.71 46.8297 105.998 46.2786 106.074 45.6804L107.117 35.6857C107.151 35.4088 107.125 35.1279 107.042 34.8617C106.959 34.5954 106.82 34.3499 106.635 34.1414C106.449 33.9329 106.222 33.7661 105.967 33.652C105.713 33.538 105.437 33.4794 105.158 33.48Z" fill="white"/>
<path d="M42.6579 61.4946C42.6993 61.1859 42.6732 60.8719 42.5816 60.5742C42.49 60.2765 42.335 60.0022 42.1273 59.7702C41.9196 59.5381 41.664 59.3538 41.3782 59.2299C41.0925 59.106 40.7833 59.0455 40.4719 59.0525C39.8031 59.0684 39.1621 59.3235 38.6652 59.7715C38.1684 60.2196 37.8486 60.8309 37.764 61.4946C37.7258 61.8031 37.7544 62.1162 37.8479 62.4126C37.9414 62.7091 38.0976 62.982 38.3059 63.2127C38.5142 63.4434 38.7698 63.6266 39.0552 63.7498C39.3405 63.873 39.6491 63.9334 39.9599 63.9268C40.6267 63.913 41.2664 63.6597 41.7618 63.2131C42.2572 62.7665 42.5753 62.1565 42.6579 61.4946Z" fill="#263238"/>
<path d="M50.1817 61.4946C50.2215 61.1853 50.194 60.8711 50.1012 60.5735C50.0084 60.2758 49.8524 60.0017 49.6439 59.7699C49.4355 59.538 49.1794 59.3539 48.8933 59.2301C48.6071 59.1063 48.2976 59.0457 47.9859 59.0525C47.3175 59.0666 46.6767 59.3214 46.181 59.77C45.6854 60.2186 45.3682 60.8309 45.2878 61.4946C45.248 61.8025 45.2752 62.1154 45.3675 62.4119C45.4598 62.7084 45.6151 62.9814 45.8227 63.2123C46.0302 63.4433 46.2852 63.6267 46.5702 63.75C46.8551 63.8733 47.1634 63.9336 47.4738 63.9268C48.1418 63.9133 48.7827 63.6603 49.2797 63.2138C49.7768 62.7674 50.0969 62.1573 50.1817 61.4946Z" fill="#263238"/>
<path d="M57.6946 61.4946C57.7343 61.1853 57.7069 60.8711 57.6141 60.5735C57.5213 60.2758 57.3653 60.0017 57.1568 59.7699C56.9483 59.538 56.6923 59.3539 56.4061 59.2301C56.1199 59.1063 55.8104 59.0457 55.4987 59.0525C54.8303 59.0666 54.1895 59.3214 53.6939 59.77C53.1982 60.2186 52.8811 60.8309 52.8006 61.4946C52.7624 61.8031 52.791 62.1162 52.8845 62.4126C52.978 62.7091 53.1342 62.9819 53.3426 63.2126C53.5509 63.4434 53.8064 63.6266 54.0918 63.7498C54.3772 63.873 54.6857 63.9334 54.9965 63.9268C55.6634 63.913 56.303 63.6596 56.7984 63.213C57.2938 62.7664 57.6119 62.1564 57.6946 61.4946Z" fill="#263238"/>
<path d="M65.2079 61.4946C65.2492 61.1859 65.2232 60.8719 65.1316 60.5742C65.04 60.2765 64.885 60.0022 64.6772 59.7702C64.4695 59.5381 64.2139 59.3538 63.9282 59.2299C63.6424 59.106 63.3332 59.0455 63.0219 59.0525C62.3535 59.0667 61.7127 59.3214 61.217 59.77C60.7214 60.2186 60.4042 60.831 60.3238 61.4946C60.283 61.8064 60.3112 62.1233 60.4064 62.4229C60.5016 62.7226 60.6615 62.9977 60.8747 63.2287C61.0879 63.4598 61.3493 63.6412 61.6403 63.7601C61.9314 63.8791 62.245 63.9326 62.559 63.917C63.2158 63.892 63.8424 63.6348 64.3275 63.1913C64.8125 62.7478 65.1245 62.1465 65.2079 61.4946Z" fill="#263238"/>
<path d="M72.879 61.4946C72.9188 61.1853 72.8913 60.8711 72.7985 60.5735C72.7057 60.2758 72.5497 60.0017 72.3412 59.7699C72.1327 59.538 71.8767 59.3539 71.5905 59.2301C71.3044 59.1063 70.9948 59.0457 70.6831 59.0525C70.0148 59.0666 69.3739 59.3214 68.8783 59.77C68.3827 60.2186 68.0655 60.8309 67.9851 61.4946C67.9453 61.8025 67.9725 62.1154 68.0648 62.4119C68.1571 62.7084 68.3123 62.9814 68.5199 63.2123C68.7275 63.4433 68.9825 63.6267 69.2674 63.75C69.5524 63.8733 69.8607 63.9336 70.1711 63.9268C70.8391 63.9133 71.4799 63.6603 71.977 63.2138C72.474 62.7674 72.7942 62.1573 72.879 61.4946Z" fill="#263238"/>
<path d="M45.1201 40.6779C45.1616 40.3697 45.1356 40.0561 45.0439 39.7589C44.9523 39.4617 44.7971 39.1879 44.5892 38.9566C44.3813 38.7253 44.1256 38.5419 43.8398 38.4192C43.554 38.2964 43.245 38.2372 42.9341 38.2457C42.2672 38.2595 41.6276 38.5129 41.1322 38.9595C40.6368 39.4061 40.3186 40.0161 40.236 40.6779C40.1945 40.9862 40.2205 41.2998 40.3122 41.597C40.4038 41.8942 40.559 42.1679 40.7669 42.3993C40.9748 42.6306 41.2305 42.814 41.5163 42.9367C41.8021 43.0595 42.1111 43.1186 42.422 43.1101C43.0895 43.0984 43.7302 42.8458 44.2261 42.3988C44.7219 41.9518 45.0394 41.3406 45.1201 40.6779Z" fill="#263238"/>
<path d="M52.6428 40.678C52.681 40.3695 52.6524 40.0564 52.5589 39.76C52.4654 39.4635 52.3092 39.1907 52.1009 38.9599C51.8926 38.7292 51.6371 38.546 51.3517 38.4228C51.0663 38.2996 50.7578 38.2392 50.447 38.2458C49.787 38.2688 49.1568 38.5263 48.6695 38.9721C48.1823 39.4178 47.8698 40.0227 47.7883 40.678C47.7485 40.9859 47.7757 41.2989 47.868 41.5953C47.9603 41.8918 48.1156 42.1648 48.3231 42.3958C48.5307 42.6267 48.7857 42.8101 49.0707 42.9334C49.3556 43.0567 49.6639 43.117 49.9743 43.1102C50.636 43.0895 51.2685 42.833 51.7578 42.387C52.2471 41.9411 52.561 41.335 52.6428 40.678Z" fill="#263238"/>
<path d="M60.1559 40.678C60.1957 40.3701 60.1685 40.0572 60.0762 39.7607C59.9839 39.4642 59.8286 39.1912 59.621 38.9603C59.4135 38.7293 59.1585 38.5459 58.8735 38.4226C58.5885 38.2993 58.2803 38.239 57.9699 38.2458C57.3019 38.2593 56.661 38.5123 56.164 38.9588C55.6669 39.4052 55.3468 40.0153 55.2619 40.678C55.222 40.9868 55.2494 41.3006 55.3423 41.5978C55.4352 41.895 55.5913 42.1685 55.8 42.3996C56.0086 42.6307 56.2649 42.8139 56.551 42.9366C56.8372 43.0593 57.1466 43.1185 57.4578 43.1102C58.1253 43.0985 58.766 42.8458 59.2619 42.3989C59.7577 41.9519 60.0752 41.3407 60.1559 40.678Z" fill="#263238"/>
<path d="M67.6699 40.6779C67.7114 40.3697 67.6854 40.0561 67.5937 39.7589C67.502 39.4617 67.3469 39.1879 67.139 38.9566C66.9311 38.7253 66.6754 38.5419 66.3896 38.4192C66.1038 38.2964 65.7948 38.2372 65.4839 38.2457C64.817 38.2595 64.1774 38.5129 63.682 38.9595C63.1865 39.4061 62.8684 40.0161 62.7858 40.6779C62.7443 40.9862 62.7703 41.2998 62.8619 41.597C62.9536 41.8942 63.1088 42.1679 63.3167 42.3993C63.5246 42.6306 63.7803 42.814 64.0661 42.9367C64.3519 43.0595 64.6609 43.1186 64.9718 43.1101C65.6393 43.0984 66.28 42.8458 66.7759 42.3988C67.2717 41.9518 67.5892 41.3406 67.6699 40.6779Z" fill="#263238"/>
<path d="M75.1925 40.678C75.2307 40.3695 75.2021 40.0564 75.1086 39.76C75.0151 39.4635 74.8589 39.1907 74.6506 38.9599C74.4423 38.7292 74.1867 38.546 73.9014 38.4228C73.616 38.2996 73.3074 38.2392 72.9967 38.2458C72.3298 38.2596 71.6902 38.5129 71.1948 38.9595C70.6993 39.4061 70.3812 40.0161 70.2986 40.678C70.2586 40.9868 70.2861 41.3006 70.3789 41.5978C70.4718 41.8949 70.628 42.1685 70.8366 42.3996C71.0453 42.6307 71.3015 42.8139 71.5877 42.9366C71.8738 43.0592 72.1832 43.1185 72.4944 43.1102C73.1619 43.0985 73.8026 42.8458 74.2985 42.3988C74.7943 41.9518 75.1118 41.3407 75.1925 40.678Z" fill="#263238"/>
<path d="M82.7062 40.678C82.746 40.3701 82.7188 40.0572 82.6265 39.7607C82.5341 39.4642 82.3789 39.1912 82.1713 38.9603C81.9638 38.7293 81.7088 38.5459 81.4238 38.4226C81.1388 38.2993 80.8306 38.239 80.5202 38.2458C79.8522 38.2593 79.2113 38.5123 78.7143 38.9588C78.2172 39.4052 77.8971 40.0153 77.8122 40.678C77.7723 40.9868 77.7997 41.3006 77.8926 41.5978C77.9855 41.895 78.1416 42.1685 78.3503 42.3996C78.5589 42.6307 78.8152 42.8139 79.1013 42.9366C79.3875 43.0593 79.6969 43.1185 80.0081 43.1102C80.6756 43.0985 81.3163 42.8458 81.8121 42.3989C82.308 41.9519 82.6255 41.3407 82.7062 40.678Z" fill="#263238"/>
<path d="M76.3443 11.4424L75.8125 16.4939C75.775 16.7137 75.6639 16.9142 75.4976 17.0627C75.3312 17.2111 75.1194 17.2987 74.8968 17.3112C74.7919 17.315 74.6873 17.2959 74.5906 17.255C74.4939 17.2142 74.4073 17.1527 74.3369 17.0748C74.2665 16.9969 74.214 16.9045 74.1832 16.8041C74.1523 16.7038 74.1438 16.5979 74.1583 16.4939L74.69 11.4424C74.7367 11.0683 74.7023 10.6886 74.5894 10.329C74.4764 9.96942 74.2874 9.63831 74.0353 9.35814C73.7831 9.07797 73.4737 8.8553 73.1279 8.70522C72.7822 8.55513 72.4082 8.48115 72.0313 8.48828H70.2096C69.4002 8.50755 68.6245 8.81609 68.0229 9.35801C67.4214 9.89992 67.0339 10.6394 66.9306 11.4424L66.4678 16.1295H64.8135L65.2763 11.4424C65.4324 10.1893 66.0351 9.0345 66.9738 8.18985C67.9125 7.3452 69.1243 6.8673 70.3869 6.84382H72.1987C72.7867 6.82901 73.371 6.94162 73.9113 7.17391C74.4517 7.4062 74.9354 7.75268 75.3292 8.18955C75.7231 8.62642 76.0177 9.14334 76.1929 9.70482C76.3681 10.2663 76.4198 10.8591 76.3443 11.4424Z" fill="#4845ED"/>
<path d="M76.3446 16.3067L75.3107 26.1537C75.2708 26.4593 75.1227 26.7406 74.8933 26.9465C74.6639 27.1525 74.3683 27.2694 74.0601 27.2762H64.2131C64.0714 27.2776 63.931 27.2484 63.8015 27.1905C63.6721 27.1327 63.5567 27.0475 63.4632 26.9409C63.3697 26.8344 63.3003 26.7088 63.2598 26.573C63.2193 26.4371 63.2086 26.2941 63.2284 26.1537L64.2624 16.3067C64.2817 16.1043 64.3489 15.9094 64.4585 15.7382C64.5681 15.567 64.7169 15.4243 64.8926 15.322C65.0807 15.2118 65.2949 15.154 65.513 15.1546H75.3599C75.5613 15.1525 75.7592 15.2071 75.9311 15.3122C76.0891 15.4198 76.2124 15.5713 76.2859 15.7479C76.3593 15.9245 76.3797 16.1187 76.3446 16.3067Z" fill="#4845ED"/>
<g opacity="0.3">
<path opacity="0.3" d="M-2.33296 0.344788H25.2386L-2.79577 116.372H-25.0204C-25.6616 116.359 -26.2917 116.202 -26.8635 115.911C-27.4353 115.621 -27.934 115.205 -28.3222 114.694C-28.7105 114.184 -28.9784 113.592 -29.1057 112.963C-29.2331 112.335 -29.2166 111.686 -29.0577 111.064L-2.33296 0.344788Z" fill="white"/>
<path opacity="0.3" d="M37.4492 0.344788H49.1375L21.1327 116.372H9.44434L37.4492 0.344788Z" fill="white"/>
</g>
</g>
</svg>
