<svg width="127" height="127" viewBox="0 0 127 127" fill="none" xmlns="http://www.w3.org/2000/svg">
<mask id="mask0_4057:13187" style="mask-type:alpha" maskUnits="userSpaceOnUse" x="0" y="0" width="127" height="127">
<circle cx="63.5" cy="63.5" r="62.5" fill="#F3F4F6" stroke="white" stroke-width="2"/>
<circle cx="63.5" cy="63.5" r="62.5" fill="#F3F4F6" stroke="white" stroke-width="2"/>
</mask>
<g mask="url(#mask0_4057:13187)">
<path d="M69.7317 120.838H-20.9671C-21.6776 120.836 -22.3586 120.553 -22.8606 120.05C-23.3626 119.548 -23.6445 118.866 -23.6445 118.156V-9.34137C-23.6383 -10.0478 -23.3537 -10.7233 -22.8524 -11.2211C-22.3511 -11.7189 -21.6736 -11.9988 -20.9671 -12H69.7317C70.4431 -12 71.1253 -11.7174 71.6283 -11.2144C72.1313 -10.7114 72.4138 -10.0292 72.4138 -9.31788V118.156C72.4138 118.867 72.1313 119.549 71.6283 120.052C71.1253 120.555 70.4431 120.838 69.7317 120.838ZM-20.9671 -11.9061C-21.6465 -11.9048 -22.2976 -11.6341 -22.7776 -11.1532C-23.2575 -10.6724 -23.5271 -10.0208 -23.5271 -9.34137V118.156C-23.5271 118.835 -23.2575 119.487 -22.7776 119.967C-22.2976 120.448 -21.6465 120.719 -20.9671 120.72H69.7317C70.4115 120.719 71.0631 120.448 71.5439 119.968C72.0246 119.487 72.2952 118.835 72.2964 118.156V-9.34137C72.2952 -10.0212 72.0246 -10.6728 71.5439 -11.1535C71.0631 -11.6342 70.4115 -11.9048 69.7317 -11.9061H-20.9671Z" fill="#EBEBEB"/>
<path d="M171.337 120.838H80.6338C79.9228 120.836 79.2413 120.553 78.7386 120.051C78.2359 119.548 77.9529 118.867 77.9517 118.156V-9.34137C77.9591 -10.0482 78.2448 -10.7237 78.7468 -11.2214C79.2489 -11.7191 79.9269 -11.9988 80.6338 -12H171.337C172.043 -11.9976 172.719 -11.7171 173.22 -11.2194C173.72 -10.7218 174.004 -10.047 174.01 -9.34137V118.156C174.01 118.865 173.729 119.546 173.228 120.049C172.727 120.551 172.047 120.835 171.337 120.838ZM80.6338 -11.9061C79.954 -11.9048 79.3023 -11.6342 78.8216 -11.1535C78.3409 -10.6728 78.0703 -10.0212 78.0691 -9.34137V118.156C78.0703 118.835 78.3409 119.487 78.8216 119.968C79.3023 120.448 79.954 120.719 80.6338 120.72H171.337C172.017 120.719 172.669 120.448 173.149 119.968C173.63 119.487 173.901 118.835 173.902 118.156V-9.34137C173.901 -10.0212 173.63 -10.6728 173.149 -11.1535C172.669 -11.6342 172.017 -11.9048 171.337 -11.9061H80.6338Z" fill="#EBEBEB"/>
<path d="M115.952 51.3375C126.731 51.3375 135.469 42.5994 135.469 31.8205C135.469 21.0415 126.731 12.3035 115.952 12.3035C105.173 12.3035 96.4351 21.0415 96.4351 31.8205C96.4351 42.5994 105.173 51.3375 115.952 51.3375Z" fill="#F5F5F5"/>
<path d="M150.783 27.9735C150.783 27.1301 150.448 26.3212 149.851 25.7248C149.255 25.1285 148.446 24.7934 147.603 24.7934C147.294 24.7925 146.986 24.8384 146.691 24.9297C146.736 24.6059 146.76 24.2795 146.762 23.9526C146.764 22.9618 146.546 21.9829 146.125 21.0859C145.705 20.189 145.091 19.3961 144.328 18.7641C143.565 18.1321 142.671 17.6766 141.712 17.4302C140.752 17.1839 139.75 17.1527 138.776 17.3389C138.113 16.2489 137.112 15.4042 135.927 14.9322C134.741 14.4602 133.434 14.3863 132.202 14.7219C130.971 15.0574 129.882 15.7841 129.1 16.7925C128.317 17.8008 127.884 19.0362 127.865 20.3123H127.766C126.356 20.3538 125.017 20.9434 124.033 21.9558C123.05 22.9683 122.5 24.324 122.5 25.7352C122.5 27.1465 123.05 28.5022 124.033 29.5146C125.017 30.5271 126.356 31.1167 127.766 31.1582H147.706C148.532 31.1313 149.315 30.7838 149.89 30.1893C150.464 29.5948 150.784 28.8001 150.783 27.9735Z" fill="#EBEBEB"/>
<path d="M100.55 45.4659C100.55 44.6233 100.216 43.8152 99.6202 43.2189C99.0248 42.6227 98.2172 42.2871 97.3746 42.2859C97.0563 42.2829 96.7395 42.3289 96.4352 42.4221C96.5795 41.4651 96.5151 40.4882 96.2463 39.5585C95.9775 38.6287 95.5107 37.7682 94.8779 37.0359C94.2451 36.3036 93.4614 35.7169 92.5804 35.3161C91.6995 34.9153 90.7423 34.7099 89.7745 34.7139C89.3584 34.7149 88.9433 34.7542 88.5344 34.8313C87.868 33.7519 86.8703 32.917 85.6904 32.451C84.5105 31.9851 83.2115 31.9132 81.9874 32.246C80.7633 32.5789 79.6796 33.2986 78.898 34.2979C78.1165 35.2971 77.6791 36.5223 77.6509 37.7906H77.5523C76.1417 37.8321 74.8027 38.4217 73.8196 39.4341C72.8365 40.4466 72.2866 41.8023 72.2866 43.2136C72.2866 44.6248 72.8365 45.9805 73.8196 46.993C74.8027 48.0054 76.1417 48.595 77.5523 48.6365H97.4451C98.2741 48.6181 99.0631 48.2761 99.6433 47.6836C100.224 47.0911 100.549 46.2951 100.55 45.4659Z" fill="#EBEBEB"/>
<path d="M12.8948 51.483C12.8948 50.6404 12.5604 49.8323 11.9651 49.236C11.3697 48.6398 10.5621 48.3042 9.71951 48.303C9.40165 48.3012 9.08521 48.3455 8.78006 48.4345C8.82897 48.1127 8.85409 47.7877 8.85522 47.4622C8.85265 46.4726 8.63252 45.4956 8.21042 44.6006C7.78832 43.7055 7.17458 42.9142 6.41267 42.2827C5.65075 41.6512 4.7593 41.195 3.80145 40.9463C2.84361 40.6977 1.84281 40.6626 0.869926 40.8438C0.207021 39.7523 -0.793153 38.9062 -1.97945 38.4335C-3.16574 37.9607 -4.47369 37.8869 -5.70562 38.2233C-6.93755 38.5597 -8.02651 39.2879 -8.80794 40.2979C-9.58938 41.3079 -10.0208 42.5449 -10.037 43.8218H-10.1357C-11.5463 43.8633 -12.8853 44.4529 -13.8684 45.4654C-14.8515 46.4778 -15.4014 47.8335 -15.4014 49.2448C-15.4014 50.656 -14.8515 52.0117 -13.8684 53.0242C-12.8853 54.0366 -11.5463 54.6262 -10.1357 54.6677H9.77587C10.6102 54.6541 11.4056 54.3122 11.9895 53.716C12.5734 53.1198 12.8987 52.3175 12.8948 51.483Z" fill="#EBEBEB"/>
<path d="M32.8256 4.86774C32.8279 4.56782 32.7595 4.27157 32.6258 4.00307C32.4921 3.73456 32.297 3.50138 32.0563 3.32244C31.8156 3.14351 31.5361 3.02387 31.2404 2.97325C30.9448 2.92264 30.6414 2.94246 30.3549 3.03112C30.4391 2.45317 30.398 1.86386 30.2344 1.30318C30.0708 0.742508 29.7885 0.223584 29.4067 -0.218385C29.0248 -0.660353 28.5524 -1.01502 28.0214 -1.25833C27.4905 -1.50164 26.9134 -1.62789 26.3293 -1.62853C26.0771 -1.62903 25.8255 -1.60543 25.5778 -1.55807C25.1735 -2.20934 24.5697 -2.71254 23.8561 -2.99268C23.1426 -3.27282 22.3577 -3.31489 21.6184 -3.11262C20.879 -2.91035 20.2248 -2.47458 19.7533 -1.87025C19.2817 -1.26591 19.0181 -0.525386 19.0017 0.240967H18.9453C18.0732 0.240967 17.2369 0.587388 16.6203 1.20402C16.0036 1.82065 15.6572 2.65698 15.6572 3.52903C15.6572 4.40108 16.0036 5.23741 16.6203 5.85404C17.2369 6.47067 18.0732 6.81709 18.9453 6.81709H30.9796C31.4809 6.79752 31.9547 6.58264 32.2996 6.21838C32.6446 5.85411 32.8333 5.36936 32.8256 4.86774Z" fill="#EBEBEB"/>
<path d="M0.616699 76.6179L13.3368 134.399L15.6478 133.313L2.28891 76.2938L0.616699 76.6179Z" fill="#EBEBEB"/>
<path d="M100.733 82.1748V56.7252C100.733 56.7252 95.5663 62.2163 92.1514 61.4647C88.7366 60.7132 84.293 63.3107 84.293 63.3107C84.293 63.3107 88.7694 62.6578 90.4323 64.4756C92.0951 66.2935 99.5167 66.4861 99.5167 66.4861V83.1049L100.733 82.1748Z" fill="#EBEBEB"/>
<path d="M123.514 74.3727H122.34V75.9744H118.47V74.3727H114.665V75.9744H110.794V74.3727H106.994V75.9744H103.119V74.3727H99.319V75.9744H95.4485V74.3727H91.6437V75.9744H87.7732V74.3727H83.9684V75.9744H80.0979V74.3727H78.7968L75.0249 104.529L127.413 104.313L123.514 74.3727Z" fill="#E0E0E0"/>
<path d="M131.848 96.2617H130.237V98.46H124.92V96.2617H119.697V98.46H114.375V96.2617H109.151V98.46H103.834V96.2617H98.6108V98.46H93.2888V96.2617H88.0655V98.46H82.7435V96.2617H77.5202V98.46H72.2029V96.2617H70.4133L65.2275 137.696L137.213 137.395L131.848 96.2617Z" fill="#EBEBEB"/>
<path d="M158.439 132.816C157.326 131.562 156.278 130.279 155.114 129.058C155.053 128.997 154.998 128.931 154.949 128.861C154.566 128.613 154.165 128.391 153.751 128.198C153.676 128.175 153.432 128.076 153.183 127.982C152.713 127.813 152.243 127.63 151.774 127.442C148.857 126.268 146.236 124.906 144.033 122.59C142.826 121.322 141.863 119.842 140.613 118.611C140.58 118.654 140.336 118.522 140.219 118.428L139.279 118.306C138.777 118.306 138.269 118.306 137.767 118.339C137.048 118.372 136.329 118.428 135.611 118.494C132.792 122.59 129.269 128.184 127.71 128.922C125.291 130.068 102.998 135.968 101.354 135.606C99.7097 135.244 91.1043 135.954 88.9436 135.874C86.7829 135.794 82.8701 134.836 77.2005 132.229C71.531 129.622 68.4402 129.608 61.6151 127.433C54.7901 125.258 50.2149 124.431 46.2223 127.776C42.2297 131.12 31.2616 124.06 27.842 123.055C24.4225 122.05 17.8839 116.258 13.4215 118.959C8.95917 121.66 5.24836 122.947 -0.327253 127.776C-5.90287 132.604 -16.9648 141.938 -16.9648 141.938H171.394L169.229 138.157C167.165 138.031 165.147 137.494 163.294 136.576C161.441 135.659 159.791 134.381 158.439 132.816Z" fill="#F5F5F5"/>
<path d="M-21.3101 86.6419C-21.3101 86.6419 -15.8284 76.7777 -0.975748 68.2663C-0.975748 68.2663 11.1149 67.2376 24.7651 73.189C24.7651 73.189 27.5317 77.7829 24.3846 79.596C21.2375 81.4092 18.6305 77.7641 18.6305 77.7641C18.6305 77.7641 18.048 83.3162 13.9333 83.4759C9.81849 83.6357 8.62539 79.596 8.62539 79.596C8.62539 79.596 8.22143 84.6925 3.32222 85.9796C-0.914682 87.1116 -3.54513 83.4759 -3.54513 83.4759C-3.54513 83.4759 -4.39064 87.6659 -8.20009 88.8731C-11.2627 89.8407 -13.367 87.2056 -13.367 87.2056C-13.367 87.2056 -14.2454 91.7525 -17.4959 91.7525C-20.2908 91.7525 -21.3101 86.6419 -21.3101 86.6419Z" fill="#E0E0E0"/>
<path d="M24.765 34.5026C24.765 34.5026 14.7129 28.8659 12.632 27.4192C10.5512 25.9724 -0.581261 15.042 -1.2013 14.7366C-1.2013 14.7366 -0.78794 13.4872 -1.72269 12.7591C-2.65744 12.031 -6.30249 9.64014 -6.81918 9.64014C-7.33588 9.64014 -8.69807 14.7366 -8.4867 15.9861C-8.27532 17.2356 -3.17883 17.5456 -3.17883 17.5456C-3.17883 17.5456 7.43222 29.8993 9.09504 31.6373C10.7579 33.3752 22.097 40.7546 22.097 40.7546L24.765 34.5026Z" fill="#E4897B"/>
<path d="M28.8896 35.5407C28.8896 35.5407 31.0926 39.989 25.7425 47.0536L13.9478 38.3825L18.645 29.8571L28.8896 35.5407Z" fill="#4845ED"/>
<path opacity="0.6" d="M25.7422 47.0536L20.1713 42.9576L19.4432 42.4221L16.3008 40.1393L13.9521 38.406L15.6854 35.273L16.6531 33.4692L18.6494 29.8571L20.5752 30.928L22.2381 31.8675L28.8799 35.5595C29.098 36.0751 29.2328 36.6221 29.2792 37.18C29.5 39.0542 29.1806 42.5114 25.7422 47.0536Z" fill="white"/>
<path opacity="0.2" d="M25.7418 47.0535L20.1709 42.9575C22.0827 39.0024 27.0288 37.6074 29.2882 37.1611C29.4996 39.0541 29.1802 42.5113 25.7418 47.0535Z" fill="black"/>
<g opacity="0.2">
<path opacity="0.2" d="M22.2488 31.8486L20.5859 32.8162V30.9279L22.2488 31.8486Z" fill="white"/>
<path opacity="0.2" d="M18.6315 34.0516L16.5459 36.9779L15.6816 35.2494L16.6634 33.4691L18.6315 34.0516Z" fill="white"/>
<path opacity="0.2" d="M20.1723 38.4529L19.4442 42.422L16.3018 40.1157L20.1723 38.4529Z" fill="white"/>
<path opacity="0.2" d="M21.6138 36.1888L22.774 39.1621L25.1837 35.8835L21.6138 36.1888Z" fill="white"/>
</g>
<path d="M50.8115 33.4363C50.8115 33.4363 60.8636 27.7996 62.9445 26.3529C65.0253 24.9061 76.1578 13.9757 76.7825 13.6703C76.7825 13.6703 76.3645 12.4209 77.2992 11.6928C78.234 10.9647 81.879 8.57385 82.3957 8.57385C82.9124 8.57385 84.2746 13.6703 84.0632 14.9198C83.8518 16.1693 78.7553 16.4793 78.7553 16.4793C78.7553 16.4793 68.1443 28.8377 66.4815 30.571C64.8187 32.3043 53.4795 39.6695 53.4795 39.6695L50.8115 33.4363Z" fill="#E4897B"/>
<path d="M38.7999 92.9596C38.7999 92.9596 38.5838 96.506 38.2597 101.25C38.0437 104.2 37.79 107.606 37.4847 110.898C37.0901 115.323 36.6439 119.541 36.1976 122.172C35.789 124.581 30.3637 154.507 30.3637 154.507H26.728C27.8742 126.601 29.6497 115.779 29.7155 114.153C29.7155 113.623 29.7577 112.885 29.7812 112.007C29.8517 108.822 29.9127 103.791 29.9503 100.132C29.9785 97.4924 29.9926 95.5713 29.9926 95.5713L38.7999 92.9596Z" fill="#E4897B"/>
<path d="M52.8214 115.539C52.6946 117.977 51.2432 154.376 51.2432 154.376H47.2458C45.2025 125.385 45.9776 115.319 45.6112 113.308C44.9864 109.889 44.3993 105.393 43.9953 102.035C43.6712 99.3526 43.4692 97.4221 43.4692 97.4221L51.6189 93.8992C51.6189 93.8992 52.1121 98.1267 52.4832 103.19C52.6664 105.727 52.8261 108.484 52.8731 111.049C52.9107 112.655 52.9013 114.186 52.8214 115.539Z" fill="#E4897B"/>
<path opacity="0.2" d="M29.9323 100.123L38.2605 101.25C38.0444 104.2 37.7908 107.606 37.4854 110.898L29.7632 112.007C29.8336 108.813 29.8947 103.782 29.9323 100.123Z" fill="black"/>
<path opacity="0.2" d="M52.8783 111.067L45.6163 113.303C44.9916 109.884 44.4045 105.388 44.0005 102.03L52.4884 103.185C52.6716 105.727 52.8219 108.484 52.8783 111.067Z" fill="black"/>
<path d="M39.1293 108.846C39.1669 108.526 39.2045 108.193 39.242 107.817C39.7118 103.007 40.2238 97.2341 40.6512 91.6726C42.2718 96.0316 42.9716 102.161 43.8171 108.846H53.6813C52.864 91.5457 50.7221 77.4728 49.5853 71.4698H28.6639C28.6357 73.6211 28.3961 94.4862 27.856 108.846H39.1293Z" fill="#263238"/>
<path opacity="0.2" d="M39.1293 108.846C39.1669 108.526 39.2045 108.193 39.242 107.817C39.7118 103.007 40.2238 97.2341 40.6512 91.6726C42.2718 96.0316 42.9716 102.161 43.8171 108.846H53.6813C52.864 91.5457 50.7221 77.4728 49.5853 71.4698H28.6639C28.6357 73.6211 28.3961 94.4862 27.856 108.846H39.1293Z" fill="white"/>
<path d="M42.0176 28.6263C41.9718 28.8156 41.9154 29.0022 41.8485 29.1852C41.4743 30.2297 40.7932 31.1368 39.8945 31.7875C39.6685 31.9533 39.4298 32.1009 39.1805 32.229C38.2279 32.7386 37.1349 32.9226 36.068 32.753C35.0011 32.5833 34.019 32.0694 33.2714 31.2896C31.2939 29.2933 31.3455 26.9869 31.1201 23.0835C31.0605 22.2448 31.1972 21.4036 31.5193 20.6269C31.7888 19.9785 32.1833 19.3895 32.6804 18.8936C33.1776 18.3978 33.7675 18.0047 34.4166 17.7368C35.0656 17.469 35.7611 17.3317 36.4633 17.3327C37.1654 17.3337 37.8605 17.4731 38.5088 17.7428C42.3229 19.3023 42.849 25.108 42.0176 28.6263Z" fill="#E4897B"/>
<path opacity="0.2" d="M39.8804 31.7875C39.6544 31.9533 39.4157 32.101 39.1664 32.2291C38.5124 32.5778 37.7886 32.7757 37.0481 32.8082C36.3076 32.8407 35.5693 32.707 34.8872 32.417C35.0639 31.9478 35.2991 31.5027 35.5871 31.0923C37.0552 30.9082 38.5453 31.1495 39.8804 31.7875Z" fill="black"/>
<path d="M32.0225 36.8512C33.9483 38.5986 38.6596 37.9551 38.6596 37.9551C38.6596 37.9551 41.6001 37.1471 40.9801 36.2312C39.2515 35.9447 38.4107 35.1367 38.0631 34.0986C37.8755 33.4573 37.8164 32.7853 37.8893 32.1211C37.917 31.7507 37.9656 31.3822 38.0349 31.0173L32.2103 26.7052C32.9713 29.5517 33.9061 34.7891 32.0225 36.8512Z" fill="#E4897B"/>
<path d="M39.8802 25.0753L40.7211 25.39L40.303 23.6708C40.303 23.6708 41.5337 21.7919 40.303 20.162C40.303 20.162 43.7038 19.1286 41.7826 17.3436C41.0686 16.6766 40.1809 17.3436 37.8323 16.3243C36.5593 15.7653 32.5761 15.7231 32.3788 17.3436C32.3788 17.3436 29.5088 17.3436 29.1987 22.2287C29.1081 23.66 29.3334 25.0937 29.8586 26.4282C30.3838 27.7627 31.1961 28.9654 32.2379 29.951C32.2379 29.951 35.7044 30.7683 37.4048 29.3779C39.1052 27.9875 39.8802 25.0753 39.8802 25.0753Z" fill="#263238"/>
<path d="M37.6636 25.3524C37.7369 25.7196 37.8914 26.0659 38.1157 26.3657C38.34 26.6656 38.6285 26.9116 38.9601 27.0857C39.7539 27.4239 40.28 26.3059 40.1626 25.1316C40.0545 24.0888 39.5143 22.6233 38.6641 22.8206C37.8139 23.0179 37.3865 24.3002 37.6636 25.3524Z" fill="#E4897B"/>
<path opacity="0.2" d="M40.6696 91.6491C40.2233 97.2106 39.7301 102.998 39.2604 107.808C38.5464 100.86 37.6727 95.9095 37.6727 95.9095C37.6727 95.9095 36.8554 95.2378 34.6055 91.6491C32.3555 88.0604 34.6055 81.3528 34.6055 81.3528C34.5021 87.5813 40.6696 91.6491 40.6696 91.6491Z" fill="black"/>
<path d="M54.4093 108.033L53.9771 109.663H43.4741V108.155L54.4093 108.033Z" fill="#4845ED"/>
<path d="M39.6362 108.259L39.3215 109.766H27.4281L26.7095 108.259H39.6362Z" fill="#4845ED"/>
<path d="M41.1021 35.7191C41.1021 35.7191 39.3923 33.0182 35.0849 32.8256C30.7775 32.6331 30.4487 35.597 30.4487 35.597L41.1021 35.7191Z" fill="#4845ED"/>
<path opacity="0.5" d="M41.1021 35.7191C41.1021 35.7191 39.3923 33.0182 35.0849 32.8256C30.7775 32.6331 30.4487 35.597 30.4487 35.597L41.1021 35.7191Z" fill="white"/>
<path d="M25.6343 34.0328C26.9335 48.6566 26.7762 63.3733 25.1646 77.966L50.4028 76.4253C50.1209 50.6704 46.6685 34.4461 46.6685 34.4461C46.6685 34.4461 40.1628 35.813 34.869 35.6157C31.7373 35.4703 28.6356 34.9386 25.6343 34.0328Z" fill="#4845ED"/>
<path d="M46.6872 34.4649C46.6872 34.4649 50.0598 42.3469 50.4215 50.3228C50.7832 58.2987 36.7244 69.262 36.7244 69.262C36.7244 69.262 25.8879 61.8028 17.5268 62.4792C9.16574 63.1556 6.56348 66.1289 6.56348 66.1289C6.56348 66.1289 13.0644 52.2204 24.3848 47.3729C24.3848 47.3729 22.0362 39.3641 25.6342 34.0704C25.6342 34.0328 33.4598 36.5975 46.6872 34.4649Z" fill="#4845ED"/>
<path opacity="0.6" d="M50.4209 50.3228C50.4326 50.5481 50.4326 50.7739 50.4209 50.9992C50.4015 51.3476 50.3592 51.6944 50.2941 52.0373C50.141 52.844 49.9 53.6316 49.5754 54.3859C48.5716 56.5936 47.2623 58.6492 45.6861 60.4923C44.8876 61.4693 44.0421 62.4087 43.206 63.2824C41.1809 65.4179 39.0154 67.4155 36.7238 69.262C33.8778 67.3781 30.8521 65.7811 27.691 64.4943C26.7281 64.1091 25.7276 63.7475 24.7083 63.4421C22.3934 62.6928 19.9607 62.3744 17.5309 62.5027C15.2117 62.6571 12.9215 63.1053 10.7152 63.8367C10.3347 63.9682 9.98246 64.1091 9.65835 64.2454L9.36712 64.3722C8.66116 64.6783 7.98766 65.0544 7.3567 65.4948C7.28624 65.5418 7.22048 65.5935 7.15942 65.6404C7.09836 65.6874 6.93865 65.8095 6.8541 65.8847L6.74137 65.9833C6.7126 66.006 6.68588 66.0311 6.66151 66.0585L6.60515 66.1149L6.57227 66.1477C6.57227 66.1243 6.62863 66.0256 6.71318 65.8565L6.84471 65.5982C6.97623 65.3351 7.15942 64.9828 7.39898 64.5554L7.50232 64.3675L7.68551 64.0434C7.74657 63.9306 7.81234 63.8132 7.88279 63.6958C8.15523 63.2261 8.47464 62.6812 8.82224 62.1034C10.7531 58.979 13.0386 56.0883 15.6332 53.4887C16.5583 52.5689 17.537 51.7046 18.5643 50.9005C20.3398 49.4874 22.2914 48.3111 24.3701 47.4011C23.8312 45.3383 23.5861 43.2099 23.642 41.0786C23.6557 40.4073 23.7106 39.7375 23.8064 39.0729C24.0218 37.2752 24.647 35.5509 25.6336 34.0328C26.7879 34.3683 27.9654 34.618 29.1565 34.7796C30.7132 35.0171 32.281 35.1738 33.8538 35.2494C37.0173 35.391 40.1871 35.2795 43.3328 34.9159C44.4038 34.8 45.517 34.6434 46.6725 34.4461L46.7806 34.7092C47.528 36.5844 48.1725 38.499 48.7111 40.4445C48.9178 41.1914 49.1245 41.9899 49.3218 42.826C49.519 43.6621 49.6694 44.409 49.8197 45.2404C50.1303 46.9196 50.3312 48.6174 50.4209 50.3228Z" fill="white"/>
<g opacity="0.2">
<path opacity="0.2" d="M47.185 56.725L45.7006 60.5204C44.9021 61.4974 44.0566 62.4369 43.2205 63.3106L40.2002 57.6739L47.185 56.725Z" fill="white"/>
<path opacity="0.2" d="M21.6125 53.0988L15.647 53.4417C16.5721 52.5219 17.5508 51.6576 18.578 50.8535L21.6125 53.0988Z" fill="white"/>
<path opacity="0.2" d="M28.4943 38.0723L27.8554 44.2726L23.6279 41.0738C23.6416 40.4025 23.6965 39.7327 23.7923 39.0681L28.4943 38.0723Z" fill="white"/>
<path opacity="0.2" d="M30.4487 54.4092L28.4946 48.4532L34.4366 47.354L30.4487 54.4092Z" fill="white"/>
<path opacity="0.2" d="M40.6699 48.735V53.1927L44.935 51.6614L40.6699 48.735Z" fill="white"/>
<path opacity="0.2" d="M29.6968 61.6477L27.6911 64.4661C26.7281 64.0809 25.7276 63.7192 24.7083 63.4139L23.1958 59.9661L29.6968 61.6477Z" fill="white"/>
<path opacity="0.2" d="M14.459 57.3733L17.5263 58.6744L14.459 60.7647V57.3733Z" fill="white"/>
<path opacity="0.2" d="M10.7106 63.7944C7.65744 64.8607 6.56299 66.1102 6.56299 66.1102C7.24464 64.72 8.00203 63.3683 8.83175 62.0612L10.7106 63.7944Z" fill="white"/>
<path opacity="0.2" d="M35.7746 58.0262L33.1348 60.7647L37.1274 61.4646L35.7746 58.0262Z" fill="white"/>
<path opacity="0.2" d="M35.7749 40.8343L38.8798 45.0148L41.1016 40.28L35.7749 40.8343Z" fill="white"/>
<path opacity="0.2" d="M49.8344 45.2591L45.8652 42.6474L48.7258 40.4632C49.1298 41.9099 49.5338 43.5399 49.8344 45.2591Z" fill="white"/>
<path opacity="0.2" d="M50.416 50.9991C50.3304 52.1742 50.0444 53.326 49.5705 54.4046L47.9077 50.3134L50.416 50.9991Z" fill="white"/>
<path opacity="0.2" d="M46.7943 34.7279L44.2812 37.3208L43.3418 34.9346C44.4128 34.8187 45.526 34.6621 46.6815 34.4648L46.7943 34.7279Z" fill="white"/>
<path opacity="0.2" d="M33.8681 35.254L32.0221 39.1621L29.1567 34.7983C30.7183 35.0315 32.2908 35.1836 33.8681 35.254Z" fill="white"/>
</g>
<path opacity="0.2" d="M50.4214 50.3229C50.4331 50.5482 50.4331 50.774 50.4214 50.9993C50.402 51.3477 50.3597 51.6945 50.2946 52.0374C47.0065 46.8234 47.7863 42.1074 47.7863 42.1074L49.341 42.8449C49.5195 43.6199 49.6886 44.4278 49.839 45.2593C50.1425 46.9327 50.3371 48.6242 50.4214 50.3229Z" fill="black"/>
<path d="M37.1 13.7079C42.6756 11.7867 44.0754 19.2131 38.5373 24.2344C32.9993 29.2557 26.6393 29.8711 25.9159 27.3252C25.1925 24.7793 28.5886 16.6531 37.1 13.7079Z" fill="#4845ED"/>
<path d="M31.5147 13.3321C34.3753 13.3321 38.4384 16.2444 38.4384 16.2444C38.4384 16.2444 39.0208 19.3445 36.1696 22.0689C33.3184 24.7933 30.7443 25.2255 29.1566 24.1686C27.569 23.1117 27.1274 19.0016 27.1274 19.0016C27.2722 18.5155 27.5323 18.0715 27.8856 17.7076C28.2389 17.3436 28.675 17.0705 29.1566 16.9114C29.1566 16.9114 29.6264 13.365 31.5147 13.3321Z" fill="#4845ED"/>
<path opacity="0.2" d="M36.1696 22.069C33.3184 24.7933 30.7537 25.2255 29.1566 24.1733C28.8783 23.9779 28.6419 23.7288 28.4615 23.4405C27.4281 21.8858 27.1274 19.0158 27.1274 19.0158C29.8518 22.3038 33.0084 18.9077 33.4452 16.6155C33.5746 16.071 33.5761 15.504 33.4498 14.9588C33.3235 14.4137 33.0727 13.9051 32.7171 13.473C34.596 13.877 36.6534 15.0795 37.715 15.7606C38.1847 16.0471 38.4384 16.2303 38.4384 16.2303C38.4384 16.2303 39.0208 19.3446 36.1696 22.069Z" fill="black"/>
<path opacity="0.6" d="M36.1701 22.0691C33.3189 24.7935 30.7542 25.2256 29.1571 24.1734C28.8788 23.978 28.6424 23.7289 28.4619 23.4407C31.3178 24.2909 34.7186 22.877 36.5459 20.3358C37.5147 19.0203 37.9341 17.3797 37.7155 15.7607C38.1852 16.0472 38.4388 16.2304 38.4388 16.2304C38.4388 16.2304 39.0213 19.3447 36.1701 22.0691Z" fill="white"/>
<path d="M46.6876 34.465C46.6876 34.465 44.4846 38.9179 49.8347 45.9779L61.6295 37.3209L56.9323 28.7954L46.6876 34.465Z" fill="#4845ED"/>
<path opacity="0.6" d="M61.6291 37.3209L58.5524 39.5802L54.0008 42.9294L49.8344 45.992C49.5619 45.635 49.313 45.2827 49.0781 44.9398C48.6011 44.2409 48.1681 43.513 47.7817 42.7603C46.8289 41.0116 46.3026 39.0625 46.2457 37.0719C46.2138 36.1793 46.374 35.2903 46.7154 34.465L49.3364 33.0088L53.8505 30.5052L55.8327 29.4013L56.9507 28.7813L61.6291 37.3209Z" fill="white"/>
<g opacity="0.2">
<path opacity="0.2" d="M58.5524 39.5662L54.0008 42.9153L51.9951 38.4529L58.5524 39.5662Z" fill="white"/>
<path opacity="0.2" d="M58.1296 32.3888L53.9303 34.0516L53.8223 30.5052L55.8045 29.4014L58.1296 32.3888Z" fill="white"/>
<path opacity="0.2" d="M50.8114 35.8836L46.2457 37.072C46.2138 36.1794 46.374 35.2903 46.7154 34.465L49.3364 33.0089L50.8114 35.8836Z" fill="white"/>
<path opacity="0.2" d="M49.8344 41.5812L49.064 44.9257C48.587 44.2268 48.154 43.4989 47.7676 42.7461L49.8344 41.5812Z" fill="white"/>
</g>
<path d="M78.8639 114.642L71.6113 114.069L74.0069 83.4855L81.2829 84.0538L78.8639 114.642ZM73.1003 112.763L77.5674 113.111L79.7422 85.3362L75.2799 84.9886L73.1003 112.763Z" fill="#263238"/>
<path d="M67.8675 154.23L75.1353 154.8C75.831 154.854 76.4392 154.335 76.4937 153.639L79.9547 109.465C80.0092 108.77 79.4895 108.161 78.7937 108.107L71.5259 107.537C70.8302 107.483 70.222 108.003 70.1675 108.698L66.7065 152.872C66.652 153.568 67.1718 154.176 67.8675 154.23Z" fill="#263238"/>
<path opacity="0.2" d="M71.4955 154.508L75.1387 154.794C75.8345 154.848 76.4426 154.329 76.4971 153.633L79.9582 109.459C80.0127 108.764 79.4929 108.155 78.7972 108.101L75.1539 107.815C74.4582 107.761 73.85 108.281 73.7955 108.976L70.3345 153.15C70.28 153.846 70.7998 154.454 71.4955 154.508Z" fill="white"/>
<path d="M74.3457 84.5095L80.4756 84.9999C80.9944 85.0414 81.4487 84.6545 81.4902 84.1356L81.5364 83.5579C81.5779 83.039 81.191 82.5848 80.6721 82.5433L74.5422 82.0529C74.0234 82.0114 73.5692 82.3983 73.5276 82.9172L73.4814 83.4949C73.4399 84.0138 73.8269 84.468 74.3457 84.5095Z" fill="#263238"/>
<path opacity="0.2" d="M74.3457 84.5095L80.4756 84.9999C80.9944 85.0414 81.4487 84.6545 81.4902 84.1356L81.5364 83.5579C81.5779 83.039 81.191 82.5848 80.6721 82.5433L74.5422 82.0529C74.0234 82.0114 73.5692 82.3983 73.5276 82.9172L73.4814 83.4949C73.4399 84.0138 73.8269 84.468 74.3457 84.5095Z" fill="white"/>
<path opacity="0.2" d="M74.4866 85.1197L74.997 85.1596C75.5143 85.2 75.9664 84.8135 76.0068 84.2962L76.0518 83.7202C76.0923 83.2029 75.7057 82.7508 75.1885 82.7104L74.678 82.6705C74.1608 82.6301 73.7087 83.0166 73.6682 83.5339L73.6232 84.1099C73.5828 84.6271 73.9693 85.0792 74.4866 85.1197Z" fill="black"/>
<path d="M93.4723 112.777L90.3439 152.704C90.2888 153.409 89.956 154.063 89.4187 154.523C88.8815 154.982 88.1836 155.21 87.4786 155.156L72.9172 154.014C72.4234 153.972 71.9662 153.737 71.6451 153.36C71.324 152.982 71.165 152.493 71.2027 151.999L74.4297 110.49C74.4705 109.996 74.7046 109.538 75.0811 109.216C75.4576 108.894 75.9461 108.734 76.4401 108.77L91.0015 109.912C91.3522 109.937 91.6946 110.031 92.0088 110.189C92.323 110.346 92.603 110.565 92.8326 110.831C93.0622 111.097 93.237 111.406 93.3467 111.74C93.4565 112.074 93.4992 112.427 93.4723 112.777Z" fill="#4845ED"/>
<path opacity="0.2" d="M93.4723 112.777L90.3439 152.704C90.2888 153.409 89.956 154.063 89.4187 154.523C88.8815 154.982 88.1836 155.21 87.4786 155.156L72.9172 154.014C72.4234 153.972 71.9662 153.737 71.6451 153.36C71.324 152.982 71.165 152.493 71.2027 151.999L74.4297 110.49C74.4705 109.996 74.7046 109.538 75.0811 109.216C75.4576 108.894 75.9461 108.734 76.4401 108.77L91.0015 109.912C91.3522 109.937 91.6946 110.031 92.0088 110.189C92.323 110.346 92.603 110.565 92.8326 110.831C93.0622 111.097 93.237 111.406 93.3467 111.74C93.4565 112.074 93.4992 112.427 93.4723 112.777Z" fill="white"/>
<path opacity="0.2" d="M83.4576 109.32V109.376L82.9362 109.334C82.4414 109.298 81.9523 109.459 81.5757 109.782C81.1991 110.105 80.9654 110.564 80.9258 111.058L77.6754 152.553C77.6458 152.97 77.7557 153.384 77.988 153.732C78.2202 154.079 78.5614 154.338 78.9577 154.47L72.903 154C72.4092 153.959 71.9516 153.725 71.6296 153.349C71.3077 152.972 71.1474 152.484 71.1838 151.99L74.4296 110.494C74.4692 110 74.7028 109.541 75.0794 109.218C75.4561 108.895 75.9452 108.734 76.44 108.771L83.4576 109.32Z" fill="black"/>
<path opacity="0.2" d="M83.3338 110.775L83.1183 110.758C82.8364 110.736 82.59 110.946 82.5679 111.228L79.3806 151.908C79.3585 152.19 79.5691 152.437 79.851 152.459L80.0665 152.476C80.3484 152.498 80.5948 152.287 80.6169 152.005L83.8042 111.325C83.8263 111.043 83.6157 110.797 83.3338 110.775Z" fill="black"/>
<path opacity="0.2" d="M86.2507 111.203L86.0353 111.186C85.7534 111.164 85.507 111.375 85.4849 111.657L82.2976 152.337C82.2755 152.619 82.4861 152.865 82.768 152.887L82.9834 152.904C83.2654 152.926 83.5118 152.716 83.5339 152.434L86.7212 111.754C86.7433 111.472 86.5326 111.225 86.2507 111.203Z" fill="black"/>
<path opacity="0.2" d="M89.1692 111.378L88.9538 111.362C88.6719 111.339 88.4255 111.55 88.4034 111.832L85.2161 152.512C85.194 152.794 85.4046 153.04 85.6865 153.063L85.9019 153.079C86.1838 153.102 86.4303 152.891 86.4523 152.609L89.6397 111.929C89.6617 111.647 89.4511 111.4 89.1692 111.378Z" fill="black"/>
<path opacity="0.2" d="M92.0779 111.549L91.8625 111.532C91.5806 111.51 91.3341 111.721 91.3121 112.003L88.1247 152.683C88.1027 152.965 88.3133 153.211 88.5952 153.233L88.8106 153.25C89.0925 153.272 89.3389 153.062 89.361 152.78L92.5483 112.099C92.5704 111.818 92.3598 111.571 92.0779 111.549Z" fill="black"/>
</g>
</svg>
