<svg width="35" height="30" viewBox="0 0 35 30" fill="none" xmlns="http://www.w3.org/2000/svg">
<ellipse rx="10.4128" ry="11.3333" transform="matrix(1 3.57244e-06 3.54684e-06 1 23.4292 11.3334)" fill="#F79E1B"/>
<ellipse rx="10.4129" ry="11.3333" transform="matrix(1 3.57172e-06 3.54544e-06 1 10.413 11.3338)" fill="url(#paint0_radial_12_265)"/>
<path d="M3.97518 26.4648C4.35251 26.4648 4.63331 26.5813 4.81758 26.8143C5.00185 27.0428 5.09399 27.3922 5.09399 27.8627L5.094 29.9461L4.27135 29.9461L4.27134 27.8896C4.27134 27.6207 4.22747 27.4281 4.13972 27.3116C4.05635 27.1906 3.91595 27.1301 3.71852 27.1301C3.49037 27.1301 3.31048 27.213 3.17886 27.3788C3.05162 27.5401 2.988 27.7641 2.98801 28.0509L2.98801 29.9461L2.16536 29.9461L2.16535 27.8896C2.16535 27.6252 2.11928 27.4326 2.02715 27.3116C1.9394 27.1906 1.799 27.1301 1.60595 27.1301C1.3778 27.1301 1.19791 27.213 1.06629 27.3788C0.934664 27.5401 0.868852 27.7641 0.868853 28.0508L0.86886 29.946L0.0527891 29.946L0.0527806 27.5132C0.0527793 27.1548 0.0352283 26.8344 0.000127482 26.5522L0.77013 26.5522L0.829363 27.0898C0.925887 26.8882 1.06409 26.7336 1.24398 26.6261C1.42825 26.5186 1.63885 26.4648 1.87577 26.4648C2.38472 26.4648 2.71598 26.6799 2.86954 27.11C2.97484 26.9084 3.12401 26.7515 3.31706 26.6395C3.5145 26.523 3.73387 26.4648 3.97518 26.4648Z" fill="#040404"/>
<path d="M9.15074 26.5522L9.15076 29.9461L8.34127 29.9461L8.34126 29.4017C8.24035 29.5899 8.09557 29.7377 7.90691 29.8453C7.71825 29.9483 7.50326 29.9998 7.26195 29.9998C6.97237 29.9998 6.71571 29.9281 6.49194 29.7848C6.26818 29.6414 6.09488 29.4375 5.97203 29.1732C5.84918 28.9089 5.78775 28.602 5.78775 28.2525C5.78775 27.903 5.84917 27.5939 5.97202 27.325C6.09926 27.0517 6.27475 26.8412 6.49851 26.6933C6.72228 26.541 6.97675 26.4648 7.26194 26.4648C7.50325 26.4648 7.71823 26.5186 7.9069 26.6261C8.09556 26.7292 8.24034 26.8748 8.34126 27.0629L8.34126 26.5522L9.15074 26.5522ZM7.48571 29.3412C7.75773 29.3412 7.96833 29.2449 8.1175 29.0522C8.26668 28.8596 8.34126 28.5885 8.34126 28.239C8.34126 27.8806 8.26667 27.6051 8.1175 27.4124C7.96832 27.2198 7.75553 27.1234 7.47912 27.1234C7.20709 27.1234 6.9943 27.2242 6.84074 27.4259C6.69157 27.623 6.61698 27.8985 6.61698 28.2525C6.61698 28.602 6.69157 28.8708 6.84075 29.059C6.99431 29.2471 7.2093 29.3412 7.48571 29.3412Z" fill="#040404"/>
<path d="M11.2643 29.9999C10.6632 29.9998 10.1849 29.8565 9.82955 29.5697L10.0599 28.9783C10.4153 29.2471 10.8211 29.3816 11.2774 29.3816C11.4749 29.3816 11.6262 29.348 11.7315 29.2808C11.8412 29.2135 11.896 29.1195 11.896 28.9985C11.896 28.8954 11.8588 28.8148 11.7842 28.7565C11.7096 28.6938 11.5823 28.6401 11.4025 28.5952L10.8496 28.4676C10.2442 28.3331 9.94142 28.0173 9.94142 27.52C9.94142 27.3139 9.99846 27.1324 10.1125 26.9756C10.2266 26.8143 10.3867 26.6888 10.593 26.5992C10.7992 26.5096 11.0383 26.4648 11.3103 26.4648C11.5472 26.4648 11.7754 26.5029 11.9948 26.5791C12.2141 26.6508 12.4072 26.7561 12.5739 26.8949L12.3304 27.4662C11.997 27.2153 11.6547 27.0898 11.3037 27.0898C11.1151 27.0898 10.9681 27.1257 10.8628 27.1974C10.7575 27.2691 10.7048 27.3676 10.7048 27.4931C10.7048 27.5916 10.7356 27.67 10.797 27.7283C10.8628 27.7865 10.9725 27.8358 11.126 27.8761L11.692 28.0038C12.0211 28.08 12.2602 28.1987 12.4094 28.36C12.5629 28.5168 12.6397 28.7229 12.6397 28.9783C12.6397 29.292 12.5169 29.5406 12.2712 29.7243C12.0255 29.908 11.6898 29.9999 11.2643 29.9999Z" fill="#040404"/>
<path d="M14.358 27.1839L14.358 28.7028C14.358 29.1015 14.5401 29.3009 14.9043 29.3009C15.0052 29.3009 15.1149 29.283 15.2333 29.2472L15.2333 29.9125C15.0886 29.9663 14.9131 29.9931 14.7068 29.9931C14.3295 29.9931 14.04 29.8856 13.8381 29.6706C13.6363 29.4555 13.5354 29.1463 13.5354 28.7431L13.5354 27.1839L12.897 27.1839L12.897 26.5522L13.5354 26.5522L13.5354 25.7256L14.358 25.4433L14.358 26.5522L15.2399 26.5522L15.2399 27.1839L14.358 27.1839Z" fill="#040404"/>
<path d="M18.7142 28.2928L16.4239 28.2928C16.4415 28.6558 16.5292 28.9246 16.6872 29.0993C16.8495 29.2696 17.0886 29.3547 17.4045 29.3547C17.7687 29.3547 18.1065 29.2337 18.418 28.9918L18.655 29.5698C18.497 29.6997 18.3018 29.805 18.0692 29.8856C17.8411 29.9618 17.6085 29.9999 17.3716 29.9999C16.8276 29.9999 16.3998 29.8431 16.0883 29.5294C15.7768 29.2158 15.621 28.7857 15.621 28.2391C15.621 27.8941 15.689 27.5872 15.825 27.3184C15.961 27.0495 16.1519 26.8412 16.3976 26.6933C16.6433 26.541 16.9219 26.4648 17.2334 26.4648C17.6897 26.4648 18.0495 26.6172 18.3127 26.9218C18.5804 27.222 18.7142 27.6365 18.7142 28.1652L18.7142 28.2928ZM17.2532 27.0697C17.0338 27.0697 16.8539 27.1369 16.7135 27.2713C16.5775 27.4012 16.4897 27.5917 16.4502 27.8426L17.9968 27.8426C17.9705 27.5872 17.8937 27.3945 17.7665 27.2646C17.6436 27.1347 17.4725 27.0697 17.2532 27.0697Z" fill="#040404"/>
<path d="M21.2009 26.4716C21.3281 26.4716 21.4378 26.4895 21.53 26.5253L21.5234 27.2915C21.383 27.2332 21.2382 27.2041 21.089 27.2041C20.8082 27.2041 20.5932 27.287 20.4441 27.4528C20.2993 27.6186 20.2269 27.8381 20.2269 28.1114L20.2269 29.9461L19.4108 29.9461L19.4108 27.5133C19.4108 27.1548 19.3933 26.8345 19.3582 26.5522L20.1282 26.5522L20.194 27.1504C20.2773 26.9308 20.409 26.7628 20.5888 26.6463C20.7687 26.5298 20.9728 26.4716 21.2009 26.4716Z" fill="#040404"/>
<path d="M23.4309 29.9999C23.0843 29.9999 22.7837 29.9282 22.5292 29.7848C22.2748 29.6415 22.0795 29.4398 21.9435 29.18C21.8075 28.9156 21.7395 28.6065 21.7395 28.2525C21.7395 27.8986 21.8097 27.5872 21.9501 27.3184C22.0949 27.0496 22.2967 26.8412 22.5556 26.6934C22.8188 26.541 23.1215 26.4649 23.4638 26.4649C23.7007 26.4649 23.9288 26.503 24.1482 26.5791C24.372 26.6553 24.5497 26.7606 24.6813 26.895L24.4509 27.4864C24.3105 27.3699 24.1614 27.2825 24.0034 27.2243C23.8455 27.1616 23.6897 27.1302 23.5362 27.1302C23.2378 27.1302 23.0053 27.2265 22.8385 27.4192C22.6718 27.6074 22.5885 27.8807 22.5885 28.2391C22.5885 28.5975 22.6696 28.8708 22.832 29.059C22.9987 29.2472 23.2334 29.3413 23.5362 29.3413C23.6897 29.3413 23.8455 29.3099 24.0034 29.2472C24.1614 29.1845 24.3106 29.0949 24.451 28.9784L24.6813 29.5698C24.5409 29.7042 24.3588 29.8095 24.1351 29.8856C23.9113 29.9618 23.6766 29.9999 23.4309 29.9999Z" fill="#040404"/>
<path d="M28.4124 26.5523L28.4124 29.9461L27.6029 29.9461L27.6029 29.4018C27.502 29.59 27.3572 29.7378 27.1685 29.8453C26.9799 29.9484 26.7649 29.9999 26.5236 29.9999C26.234 29.9999 25.9773 29.9282 25.7536 29.7848C25.5298 29.6415 25.3565 29.4376 25.2337 29.1733C25.1108 28.9089 25.0494 28.602 25.0494 28.2525C25.0494 27.9031 25.1108 27.5939 25.2337 27.3251C25.3609 27.0518 25.5364 26.8412 25.7601 26.6934C25.9839 26.541 26.2384 26.4649 26.5236 26.4649C26.7649 26.4649 26.9799 26.5186 27.1685 26.6262C27.3572 26.7292 27.502 26.8748 27.6029 27.063L27.6029 26.5522L28.4124 26.5523ZM26.7473 29.3413C27.0194 29.3413 27.23 29.245 27.3791 29.0523C27.5283 28.8597 27.6029 28.5886 27.6029 28.2391C27.6029 27.8807 27.5283 27.6051 27.3791 27.4125C27.23 27.2198 27.0172 27.1235 26.7407 27.1235C26.4687 27.1235 26.2559 27.2243 26.1024 27.4259C25.9532 27.6231 25.8786 27.8986 25.8786 28.2526C25.8786 28.602 25.9532 28.8708 26.1024 29.059C26.2559 29.2472 26.4709 29.3413 26.7473 29.3413Z" fill="#040404"/>
<path d="M31.0984 26.4716C31.2257 26.4716 31.3354 26.4895 31.4275 26.5254L31.4209 27.2915C31.2805 27.2333 31.1357 27.2042 30.9866 27.2042C30.7058 27.2042 30.4908 27.287 30.3416 27.4528C30.1968 27.6186 30.1244 27.8381 30.1244 28.1114L30.1244 29.9462L29.3084 29.9462L29.3083 27.5133C29.3083 27.1549 29.2908 26.8345 29.2557 26.5523L30.0257 26.5523L30.0915 27.1504C30.1749 26.9309 30.3065 26.7628 30.4864 26.6463C30.6663 26.5299 30.8703 26.4716 31.0984 26.4716Z" fill="#040404"/>
<path d="M35 24.9998L35 29.9462L34.1905 29.9462L34.1905 29.4018C34.0896 29.59 33.9448 29.7378 33.7562 29.8454C33.5675 29.9484 33.3525 29.9999 33.1112 29.9999C32.826 29.9999 32.5716 29.926 32.3478 29.7781C32.124 29.6303 31.9485 29.422 31.8213 29.1531C31.6985 28.8798 31.637 28.5684 31.637 28.219C31.637 27.8695 31.6984 27.5626 31.8213 27.2983C31.9441 27.0339 32.1174 26.8301 32.3412 26.6867C32.565 26.5388 32.8216 26.4649 33.1112 26.4649C33.3481 26.4649 33.5587 26.5164 33.743 26.6195C33.9317 26.718 34.0765 26.8592 34.1774 27.0429L34.1774 24.9998L35 24.9998ZM33.3284 29.3413C33.6004 29.3413 33.811 29.245 33.9602 29.0523C34.1138 28.8597 34.1905 28.5864 34.1905 28.2324C34.1905 27.8785 34.1159 27.6052 33.9668 27.4125C33.8176 27.2199 33.607 27.1235 33.335 27.1235C33.0586 27.1235 32.8436 27.2198 32.69 27.4125C32.5408 27.6007 32.4663 27.8695 32.4663 28.219C32.4663 28.5729 32.5408 28.8485 32.69 29.0456C32.8436 29.2427 33.0564 29.3413 33.3284 29.3413Z" fill="#040404"/>
<defs>
<radialGradient id="paint0_radial_12_265" cx="0" cy="0" r="1" gradientUnits="userSpaceOnUse" gradientTransform="translate(20.8257 11.3333) rotate(-180) scale(14.1008 15.3472)">
<stop stop-color="#EB001B" stop-opacity="0.92"/>
<stop offset="0.110299" stop-color="#EB001B" stop-opacity="0.803455"/>
<stop offset="1" stop-color="#EB001B"/>
</radialGradient>
</defs>
</svg>
