<svg width="50" height="38" viewBox="0 0 50 38" fill="none" xmlns="http://www.w3.org/2000/svg">
<ellipse cx="30.1234" cy="14.2435" rx="13.388" ry="13.6" fill="#F79E1B"/>
<ellipse cx="13.3881" cy="14.2435" rx="13.3881" ry="13.6" fill="url(#paint0_radial)"/>
<path d="M10.1213 32.914C10.6014 32.914 10.9586 33.0597 11.1931 33.3513C11.4275 33.6372 11.5448 34.0745 11.5448 34.6632V37.2704H10.4981V34.6969C10.4981 34.3605 10.4423 34.1194 10.3307 33.9736C10.2246 33.8222 10.046 33.7466 9.79478 33.7466C9.50451 33.7466 9.27565 33.8503 9.10818 34.0577C8.9463 34.2596 8.86536 34.5399 8.86536 34.8987V37.2704H7.81872V34.6969C7.81872 34.3661 7.76011 34.125 7.64289 33.9736C7.53124 33.8222 7.35262 33.7466 7.10701 33.7466C6.81674 33.7466 6.58787 33.8503 6.42041 34.0577C6.25295 34.2596 6.16922 34.5399 6.16922 34.8987V37.2704H5.13095V34.2259C5.13095 33.7774 5.10862 33.3765 5.06396 33.0233H6.04362L6.11898 33.6961C6.24178 33.4438 6.41762 33.2504 6.64649 33.1158C6.88093 32.9812 7.14887 32.914 7.4503 32.914C8.09783 32.914 8.51927 33.1831 8.71465 33.7213C8.84862 33.469 9.03841 33.2728 9.28402 33.1326C9.53521 32.9868 9.81432 32.914 10.1213 32.914Z" fill="white"/>
<path d="M16.7061 33.0233V37.2704H15.6762V36.5892C15.5478 36.8246 15.3636 37.0097 15.1236 37.1442C14.8835 37.2732 14.61 37.3376 14.303 37.3376C13.9346 37.3376 13.608 37.2479 13.3233 37.0685C13.0386 36.8891 12.8182 36.634 12.6619 36.3032C12.5056 35.9724 12.4274 35.5884 12.4274 35.151C12.4274 34.7137 12.5056 34.3268 12.6619 33.9904C12.8237 33.6484 13.047 33.3849 13.3317 33.1999C13.6164 33.0093 13.9402 32.914 14.303 32.914C14.61 32.914 14.8835 32.9812 15.1236 33.1158C15.3636 33.2448 15.5478 33.427 15.6762 33.6625V33.0233H16.7061ZM14.5877 36.5135C14.9338 36.5135 15.2017 36.3929 15.3915 36.1518C15.5813 35.9107 15.6762 35.5715 15.6762 35.1342C15.6762 34.6857 15.5813 34.3409 15.3915 34.0998C15.2017 33.8587 14.931 33.7381 14.5793 33.7381C14.2332 33.7381 13.9625 33.8643 13.7671 34.1166C13.5773 34.3633 13.4824 34.7081 13.4824 35.151C13.4824 35.5884 13.5773 35.9248 13.7671 36.1602C13.9625 36.3957 14.236 36.5135 14.5877 36.5135Z" fill="white"/>
<path d="M19.395 37.3376C18.6303 37.3376 18.0218 37.1582 17.5697 36.7994L17.8627 36.0593C18.3149 36.3957 18.8312 36.5639 19.4118 36.5639C19.663 36.5639 19.8555 36.5219 19.9895 36.4378C20.1291 36.3537 20.1988 36.2359 20.1988 36.0845C20.1988 35.9556 20.1514 35.8547 20.0565 35.7818C19.9616 35.7033 19.7997 35.636 19.5709 35.5799L18.8675 35.4202C18.0972 35.252 17.712 34.8567 17.712 34.2343C17.712 33.9764 17.7846 33.7494 17.9297 33.5531C18.0749 33.3513 18.2786 33.1943 18.541 33.0822C18.8033 32.97 19.1075 32.914 19.4536 32.914C19.7551 32.914 20.0453 32.9616 20.3244 33.0569C20.6035 33.1466 20.8492 33.2784 21.0613 33.4522L20.7515 34.1671C20.3272 33.8531 19.8918 33.6961 19.4453 33.6961C19.2052 33.6961 19.0182 33.7409 18.8843 33.8307C18.7503 33.9204 18.6833 34.0437 18.6833 34.2007C18.6833 34.324 18.7224 34.4222 18.8005 34.495C18.8843 34.5679 19.0238 34.6296 19.2192 34.6801L19.9393 34.8399C20.3579 34.9352 20.6622 35.0838 20.8519 35.2856C21.0473 35.4818 21.145 35.7397 21.145 36.0593C21.145 36.4518 20.9887 36.763 20.6761 36.9928C20.3635 37.2227 19.9365 37.3376 19.395 37.3376Z" fill="white"/>
<path d="M23.3312 33.8138V35.7145C23.3312 36.2135 23.5628 36.463 24.0261 36.463C24.1545 36.463 24.2941 36.4406 24.4448 36.3957V37.2283C24.2606 37.2956 24.0373 37.3292 23.775 37.3292C23.2949 37.3292 22.9265 37.1947 22.6697 36.9256C22.4129 36.6564 22.2845 36.2696 22.2845 35.765V33.8138H21.4723V33.0233H22.2845V31.9889L23.3312 31.6356V33.0233H24.4532V33.8138H23.3312Z" fill="white"/>
<path d="M28.8734 35.2015H25.9595C25.9819 35.6556 26.0935 35.992 26.2945 36.2107C26.501 36.4238 26.8052 36.5303 27.2071 36.5303C27.6705 36.5303 28.1003 36.3789 28.4966 36.0761L28.798 36.7994C28.5971 36.962 28.3487 37.0938 28.0528 37.1947C27.7626 37.29 27.4667 37.3376 27.1653 37.3376C26.4731 37.3376 25.9289 37.1414 25.5325 36.7489C25.1362 36.3565 24.938 35.8182 24.938 35.1342C24.938 34.7025 25.0246 34.3184 25.1976 33.982C25.3706 33.6456 25.6135 33.3849 25.9261 33.1999C26.2387 33.0093 26.5931 32.914 26.9894 32.914C27.57 32.914 28.0277 33.1046 28.3626 33.4858C28.7031 33.8615 28.8734 34.3801 28.8734 35.0417V35.2015ZM27.0146 33.6709C26.7355 33.6709 26.5066 33.755 26.328 33.9232C26.1549 34.0858 26.0433 34.324 25.993 34.638H27.9607C27.9272 34.3184 27.8295 34.0773 27.6677 33.9148C27.5114 33.7522 27.2937 33.6709 27.0146 33.6709Z" fill="white"/>
<path d="M32.0372 32.9224C32.1991 32.9224 32.3386 32.9448 32.4558 32.9896L32.4475 33.9484C32.2689 33.8755 32.0846 33.8391 31.8949 33.8391C31.5376 33.8391 31.2641 33.9428 31.0743 34.1502C30.8901 34.3577 30.798 34.6324 30.798 34.9744V37.2704H29.7597V34.2259C29.7597 33.7774 29.7374 33.3765 29.6927 33.0233H30.6724L30.7561 33.7718C30.8622 33.4971 31.0296 33.2868 31.2585 33.141C31.4874 32.9953 31.7469 32.9224 32.0372 32.9224Z" fill="white"/>
<path d="M34.8743 37.3376C34.4333 37.3376 34.051 37.2479 33.7272 37.0685C33.4034 36.8891 33.155 36.6368 32.982 36.3116C32.8089 35.9808 32.7224 35.594 32.7224 35.151C32.7224 34.7081 32.8117 34.3184 32.9904 33.982C33.1746 33.6456 33.4313 33.3849 33.7607 33.1999C34.0956 33.0093 34.4808 32.914 34.9162 32.914C35.2176 32.914 35.5079 32.9616 35.787 33.0569C36.0717 33.1522 36.2977 33.284 36.4652 33.4522L36.1721 34.1923C35.9935 34.0465 35.8037 33.9372 35.6028 33.8643C35.4018 33.7858 35.2037 33.7466 35.0083 33.7466C34.6287 33.7466 34.3328 33.8671 34.1207 34.1082C33.9086 34.3437 33.8025 34.6857 33.8025 35.1342C33.8025 35.5827 33.9058 35.9248 34.1124 36.1602C34.3245 36.3957 34.6231 36.5135 35.0083 36.5135C35.2037 36.5135 35.4018 36.4742 35.6028 36.3957C35.8037 36.3172 35.9935 36.2051 36.1721 36.0593L36.4652 36.7994C36.2866 36.9676 36.0549 37.0994 35.7702 37.1947C35.4855 37.29 35.1869 37.3376 34.8743 37.3376Z" fill="white"/>
<path d="M41.2122 33.0233V37.2704H40.1823V36.5892C40.0539 36.8246 39.8697 37.0097 39.6297 37.1442C39.3896 37.2732 39.1161 37.3376 38.8091 37.3376C38.4407 37.3376 38.1141 37.2479 37.8294 37.0685C37.5447 36.8891 37.3243 36.634 37.168 36.3032C37.0117 35.9724 36.9335 35.5884 36.9335 35.151C36.9335 34.7137 37.0117 34.3268 37.168 33.9904C37.3298 33.6484 37.5531 33.3849 37.8378 33.1999C38.1225 33.0093 38.4463 32.914 38.8091 32.914C39.1161 32.914 39.3896 32.9812 39.6297 33.1158C39.8697 33.2448 40.0539 33.427 40.1823 33.6625V33.0233H41.2122ZM39.0938 36.5135C39.4399 36.5135 39.7078 36.3929 39.8976 36.1518C40.0874 35.9107 40.1823 35.5715 40.1823 35.1342C40.1823 34.6857 40.0874 34.3409 39.8976 34.0998C39.7078 33.8587 39.4371 33.7381 39.0854 33.7381C38.7393 33.7381 38.4686 33.8643 38.2732 34.1166C38.0834 34.3633 37.9885 34.7081 37.9885 35.151C37.9885 35.5884 38.0834 35.9248 38.2732 36.1602C38.4686 36.3957 38.7421 36.5135 39.0938 36.5135Z" fill="white"/>
<path d="M44.6296 32.9224C44.7915 32.9224 44.931 32.9448 45.0482 32.9896L45.0399 33.9484C44.8612 33.8755 44.677 33.8391 44.4872 33.8391C44.13 33.8391 43.8565 33.9428 43.6667 34.1502C43.4825 34.3577 43.3904 34.6324 43.3904 34.9744V37.2704H42.3521V34.2259C42.3521 33.7774 42.3298 33.3765 42.2851 33.0233H43.2648L43.3485 33.7718C43.4546 33.4971 43.622 33.2868 43.8509 33.141C44.0798 32.9953 44.3393 32.9224 44.6296 32.9224Z" fill="white"/>
<path d="M49.5935 31.0806V37.2704H48.5636V36.5892C48.4352 36.8246 48.251 37.0097 48.011 37.1442C47.7709 37.2732 47.4974 37.3376 47.1904 37.3376C46.8276 37.3376 46.5038 37.2451 46.2191 37.0601C45.9344 36.8751 45.7111 36.6144 45.5493 36.278C45.393 35.936 45.3148 35.5463 45.3148 35.109C45.3148 34.6717 45.393 34.2876 45.5493 33.9568C45.7056 33.626 45.926 33.3709 46.2107 33.1915C46.4954 33.0065 46.822 32.914 47.1904 32.914C47.4918 32.914 47.7598 32.9784 47.9942 33.1074C48.2342 33.2307 48.4184 33.4073 48.5468 33.6372V31.0806H49.5935ZM47.4667 36.5135C47.8128 36.5135 48.0807 36.3929 48.2705 36.1518C48.4659 35.9107 48.5636 35.5687 48.5636 35.1258C48.5636 34.6829 48.4687 34.3409 48.2789 34.0998C48.0891 33.8587 47.8212 33.7381 47.4751 33.7381C47.1234 33.7381 46.8499 33.8587 46.6545 34.0998C46.4647 34.3353 46.3698 34.6717 46.3698 35.109C46.3698 35.5519 46.4647 35.8967 46.6545 36.1434C46.8499 36.3901 47.1206 36.5135 47.4667 36.5135Z" fill="white"/>
<defs>
<radialGradient id="paint0_radial" cx="0" cy="0" r="1" gradientUnits="userSpaceOnUse" gradientTransform="translate(26.7761 14.2435) rotate(-180) scale(18.1297 18.4166)">
<stop stop-color="#EB001B" stop-opacity="0.92"/>
<stop offset="0.110299" stop-color="#EB001B" stop-opacity="0.803455"/>
<stop offset="1" stop-color="#EB001B"/>
</radialGradient>
</defs>
</svg>
