<svg width="28" height="28" viewBox="0 0 28 28" fill="none" xmlns="http://www.w3.org/2000/svg">
<path fill-rule="evenodd" clip-rule="evenodd" d="M4.52513 2.19178C5.1815 1.53541 6.07174 1.16666 7 1.16666H16.3333C16.6428 1.16666 16.9395 1.28957 17.1583 1.50837L24.1583 8.50837C24.3771 8.72716 24.5 9.0239 24.5 9.33332V23.3333C24.5 24.2616 24.1313 25.1518 23.4749 25.8082C22.8185 26.4646 21.9283 26.8333 21 26.8333H7C6.07174 26.8333 5.1815 26.4646 4.52513 25.8082C3.86875 25.1518 3.5 24.2616 3.5 23.3333V4.66666C3.5 3.7384 3.86875 2.84816 4.52513 2.19178ZM7 3.49999C6.69058 3.49999 6.39383 3.62291 6.17504 3.8417C5.95625 4.06049 5.83333 4.35724 5.83333 4.66666V23.3333C5.83333 23.6427 5.95625 23.9395 6.17504 24.1583C6.39383 24.3771 6.69058 24.5 7 24.5H21C21.3094 24.5 21.6062 24.3771 21.825 24.1583C22.0437 23.9395 22.1667 23.6427 22.1667 23.3333V9.81657L15.8501 3.49999H7Z" fill="#9FA6B2"/>
<path fill-rule="evenodd" clip-rule="evenodd" d="M16.3333 1.16666C16.9777 1.16666 17.5 1.68899 17.5 2.33332V8.16666H23.3333C23.9777 8.16666 24.5 8.68899 24.5 9.33332C24.5 9.97766 23.9777 10.5 23.3333 10.5H16.3333C15.689 10.5 15.1667 9.97766 15.1667 9.33332V2.33332C15.1667 1.68899 15.689 1.16666 16.3333 1.16666Z" fill="#9FA6B2"/>
<path fill-rule="evenodd" clip-rule="evenodd" d="M8.16667 15.1667C8.16667 14.5223 8.689 14 9.33333 14H18.6667C19.311 14 19.8333 14.5223 19.8333 15.1667C19.8333 15.811 19.311 16.3333 18.6667 16.3333H9.33333C8.689 16.3333 8.16667 15.811 8.16667 15.1667Z" fill="#9FA6B2"/>
<path fill-rule="evenodd" clip-rule="evenodd" d="M8.16667 19.8333C8.16667 19.189 8.689 18.6667 9.33333 18.6667H18.6667C19.311 18.6667 19.8333 19.189 19.8333 19.8333C19.8333 20.4777 19.311 21 18.6667 21H9.33333C8.689 21 8.16667 20.4777 8.16667 19.8333Z" fill="#9FA6B2"/>
<path fill-rule="evenodd" clip-rule="evenodd" d="M8.16667 10.5C8.16667 9.85566 8.689 9.33332 9.33333 9.33332H11.6667C12.311 9.33332 12.8333 9.85566 12.8333 10.5C12.8333 11.1443 12.311 11.6667 11.6667 11.6667H9.33333C8.689 11.6667 8.16667 11.1443 8.16667 10.5Z" fill="#9FA6B2"/>
</svg>
