<svg xmlns="http://www.w3.org/2000/svg" width="28" height="28" viewBox="0 0 28 28" fill="none">
  <path fill-rule="evenodd" clip-rule="evenodd" d="M13.9993 3.50033C12.1428 3.50033 10.3624 4.23782 9.0496 5.55058C7.73685 6.86333 6.99935 8.64381 6.99935 10.5003V16.3337C6.99935 17.1599 6.78022 17.9636 6.37415 18.667H21.6245C21.2185 17.9636 20.9993 17.1599 20.9993 16.3337V10.5003C20.9993 8.64381 20.2619 6.86333 18.9491 5.55058C17.6363 4.23782 15.8559 3.50033 13.9993 3.50033ZM25.666 18.667C25.0472 18.667 24.4537 18.4212 24.0161 17.9836C23.5785 17.546 23.3327 16.9525 23.3327 16.3337V10.5003C23.3327 8.02497 22.3493 5.651 20.599 3.90066C18.8487 2.15032 16.4747 1.16699 13.9993 1.16699C11.524 1.16699 9.15002 2.15032 7.39969 3.90066C5.64935 5.651 4.66602 8.02497 4.66602 10.5003V16.3337C4.66602 16.9525 4.42018 17.546 3.9826 17.9836C3.54501 18.4212 2.95152 18.667 2.33268 18.667C1.68835 18.667 1.16602 19.1893 1.16602 19.8337C1.16602 20.478 1.68835 21.0003 2.33268 21.0003H25.666V18.667ZM11.3956 23.4912C11.953 23.1679 12.6669 23.3576 12.9902 23.9149C13.0927 24.0917 13.2399 24.2385 13.4171 24.3405C13.5942 24.4425 13.795 24.4962 13.9993 24.4962C14.2037 24.4962 14.4045 24.4425 14.5816 24.3405C14.7588 24.2385 14.906 24.0917 15.0085 23.9149C15.3318 23.3576 16.0457 23.1679 16.6031 23.4912C17.1604 23.8145 17.3502 24.5284 17.0268 25.0857C16.7192 25.6161 16.2776 26.0564 15.7462 26.3624C15.2149 26.6684 14.6125 26.8295 13.9993 26.8295C13.3862 26.8295 12.7838 26.6684 12.2525 26.3624C11.7211 26.0564 11.2795 25.6161 10.9718 25.0857C10.6485 24.5284 10.8383 23.8145 11.3956 23.4912Z" fill="#97A6BA"/>
</svg>