<svg width="23" height="22" viewBox="0 0 23 22" fill="none" xmlns="http://www.w3.org/2000/svg">
<path d="M11.0269 4.5834H6.45169C5.96631 4.5834 5.50082 4.77655 5.15761 5.12037C4.8144 5.46419 4.62158 5.9305 4.62158 6.41673V16.5001C4.62158 16.9863 4.8144 17.4526 5.15761 17.7964C5.50082 18.1402 5.96631 18.3334 6.45169 18.3334H16.5173C17.0026 18.3334 17.4681 18.1402 17.8113 17.7964C18.1545 17.4526 18.3474 16.9863 18.3474 16.5001V11.9167M17.0535 3.28723C17.2223 3.11213 17.4242 2.97246 17.6475 2.87638C17.8708 2.7803 18.1109 2.72972 18.3539 2.72761C18.5969 2.72549 18.8379 2.77188 19.0628 2.86406C19.2878 2.95624 19.4921 3.09237 19.6639 3.26451C19.8358 3.43665 19.9717 3.64134 20.0637 3.86665C20.1557 4.09196 20.202 4.33337 20.1999 4.5768C20.1978 4.82023 20.1473 5.0608 20.0514 5.28448C19.9555 5.50815 19.816 5.71045 19.6412 5.87957L11.7846 13.7501H9.19684V11.1577L17.0535 3.28723Z" stroke="#4845ed" stroke-width="2" stroke-linecap="round" stroke-linejoin="round"/>
</svg>
