<svg width="19" height="19" viewBox="0 0 19 19" fill="none" xmlns="http://www.w3.org/2000/svg">
<path fill-rule="evenodd" clip-rule="evenodd" d="M8.49022 10.3733C7.59696 9.48004 6.92359 8.4799 6.47619 7.46526C6.38152 7.25072 6.43726 6.99954 6.60293 6.83387L7.22821 6.20936C7.74049 5.69707 7.74049 4.97254 7.2931 4.52515L6.39679 3.62884C5.80053 3.03257 4.83398 3.03257 4.23771 3.62884L3.73993 4.12662C3.1742 4.69235 2.93829 5.50849 3.09099 6.31777C3.46814 8.3127 4.62708 10.497 6.49681 12.3667C8.36654 14.2364 10.5508 15.3954 12.5457 15.7725C13.355 15.9252 14.1712 15.6893 14.7369 15.1236L15.2339 14.6266C15.8302 14.0303 15.8302 13.0638 15.2339 12.4675L14.3384 11.5719C13.891 11.1245 13.1657 11.1245 12.7191 11.5719L12.0296 12.2621C11.864 12.4278 11.6128 12.4835 11.3983 12.3888C10.3836 11.9407 9.38347 11.2666 8.49022 10.3733Z" stroke="#4B5563" stroke-width="0.969545" stroke-linecap="round" stroke-linejoin="round"/>
</svg>
