<svg width="28" height="28" viewBox="0 0 28 28" fill="none" xmlns="http://www.w3.org/2000/svg">
<path fill-rule="evenodd" clip-rule="evenodd" d="M12.8333 11.6667C12.189 11.6667 11.6666 12.189 11.6666 12.8333V23.3333C11.6666 23.9777 12.189 24.5 12.8333 24.5H23.3333C23.9776 24.5 24.5 23.9777 24.5 23.3333V12.8333C24.5 12.189 23.9776 11.6667 23.3333 11.6667H12.8333ZM9.33331 12.8333C9.33331 10.9003 10.9003 9.33334 12.8333 9.33334H23.3333C25.2663 9.33334 26.8333 10.9003 26.8333 12.8333V23.3333C26.8333 25.2663 25.2663 26.8333 23.3333 26.8333H12.8333C10.9003 26.8333 9.33331 25.2663 9.33331 23.3333V12.8333Z" fill="#9FA6B2"/>
<path fill-rule="evenodd" clip-rule="evenodd" d="M4.66669 3.49999C4.35727 3.49999 4.06052 3.62291 3.84173 3.8417C3.62294 4.06049 3.50002 4.35724 3.50002 4.66666V15.1667C3.50002 15.4761 3.62294 15.7728 3.84173 15.9916C4.06052 16.2104 4.35727 16.3333 4.66669 16.3333H5.83335C6.47769 16.3333 7.00002 16.8557 7.00002 17.5C7.00002 18.1443 6.47769 18.6667 5.83335 18.6667H4.66669C3.73843 18.6667 2.84819 18.2979 2.19181 17.6415C1.53544 16.9852 1.16669 16.0949 1.16669 15.1667V4.66666C1.16669 3.7384 1.53544 2.84816 2.19181 2.19178C2.84819 1.53541 3.73843 1.16666 4.66669 1.16666H15.1667C16.0949 1.16666 16.9852 1.53541 17.6416 2.19178C18.2979 2.84816 18.6667 3.7384 18.6667 4.66666V5.83332C18.6667 6.47766 18.1444 6.99999 17.5 6.99999C16.8557 6.99999 16.3334 6.47766 16.3334 5.83332V4.66666C16.3334 4.35724 16.2104 4.06049 15.9916 3.8417C15.7729 3.62291 15.4761 3.49999 15.1667 3.49999H4.66669Z" fill="#9FA6B2"/>
</svg>
