<svg width="569" height="424" viewBox="0 0 569 424" fill="none" xmlns="http://www.w3.org/2000/svg">
<path d="M568.483 372.242H0V372.527H568.483V372.242Z" fill="#E0E0E0"/>
<path d="M488.576 387.091H456.298V387.376H488.576V387.091Z" fill="#E0E0E0"/>
<path d="M447.964 387.228H419.12V387.512H447.964V387.228Z" fill="#E0E0E0"/>
<path d="M314.508 380.645H275.68V380.929H314.508V380.645Z" fill="#E0E0E0"/>
<path d="M387.728 389.456H333.768V389.74H387.728V389.456Z" fill="#E0E0E0"/>
<path d="M162.404 380.315H110.16V380.599H162.404V380.315Z" fill="#E0E0E0"/>
<path d="M186.462 380.315H168.714V380.599H186.462V380.315Z" fill="#E0E0E0"/>
<path d="M116.733 385.431H71.0151V385.715H116.733V385.431Z" fill="#E0E0E0"/>
<path d="M269.461 321.534H49.9241C48.2042 321.531 46.5559 320.845 45.3408 319.628C44.1258 318.411 43.4434 316.762 43.4434 315.042V6.43522C43.4583 4.72526 44.1474 3.09025 45.3608 1.88534C46.5742 0.680426 48.214 0.00292926 49.9241 0H269.461C271.182 0 272.834 0.683984 274.051 1.90148C275.269 3.11898 275.953 4.77027 275.953 6.49207V315.042C275.953 316.764 275.269 318.415 274.051 319.632C272.834 320.85 271.182 321.534 269.461 321.534ZM49.9241 0.227394C48.2796 0.230406 46.7035 0.88577 45.5418 2.04964C44.3801 3.21351 43.7276 4.79077 43.7276 6.43522V315.042C43.7276 316.686 44.3801 318.263 45.5418 319.427C46.7035 320.591 48.2796 321.247 49.9241 321.25H269.461C271.106 321.247 272.683 320.592 273.847 319.428C275.011 318.264 275.666 316.687 275.669 315.042V6.43522C275.666 4.78973 275.011 3.21249 273.847 2.04894C272.683 0.885401 271.106 0.230399 269.461 0.227394H49.9241Z" fill="#E0E0E0"/>
<path d="M515.397 321.534H295.849C294.129 321.531 292.479 320.846 291.262 319.629C290.045 318.412 289.36 316.763 289.357 315.042V6.43522C289.375 4.72422 290.067 3.08922 291.282 1.88463C292.497 0.680029 294.138 0.00289732 295.849 0H515.397C517.106 0.00591733 518.742 0.684736 519.953 1.88933C521.164 3.09392 521.852 4.72722 521.867 6.43522V315.042C521.867 316.76 521.186 318.407 519.973 319.624C518.761 320.841 517.115 321.528 515.397 321.534ZM295.849 0.227394C294.204 0.230399 292.627 0.885401 291.463 2.04894C290.3 3.21249 289.645 4.78973 289.642 6.43522V315.042C289.645 316.687 290.3 318.264 291.463 319.428C292.627 320.592 294.204 321.247 295.849 321.25H515.397C517.043 321.247 518.62 320.592 519.784 319.428C520.947 318.264 521.602 316.687 521.605 315.042V6.43522C521.602 4.78973 520.947 3.21249 519.784 2.04894C518.62 0.885401 517.043 0.230399 515.397 0.227394H295.849Z" fill="#E0E0E0"/>
<path d="M373.334 27.5941H81.1338V174.899H373.334V27.5941Z" fill="#E0E0E0"/>
<path d="M377.143 27.5941H84.9429V174.899H377.143V27.5941Z" fill="#F0F0F0"/>
<path d="M370.31 167.975V34.4955L91.7871 34.4955V167.975L370.31 167.975Z" fill="#F5F5F5"/>
<path d="M112.412 167.987L187.952 34.507H223.345L147.817 167.987H112.412Z" fill="white"/>
<path d="M159.698 167.987L235.238 34.507H270.632L195.103 167.987H159.698Z" fill="white"/>
<path d="M258.091 167.987L333.62 34.507H348.196L272.667 167.987H258.091Z" fill="white"/>
<path d="M279.637 167.975V34.4955H269.336V167.975H279.637Z" fill="#E0E0E0"/>
<path d="M185.155 167.975V34.4955H174.854V167.975H185.155Z" fill="#E0E0E0"/>
<path d="M283.252 172.375V29.3678H272.952V172.375H283.252Z" fill="#F5F5F5"/>
<path d="M188.77 172.375V29.3678H178.469V172.375H188.77Z" fill="#F5F5F5"/>
<path d="M370.31 167.975V34.4956H367.433V167.975H370.31Z" fill="#E0E0E0"/>
<path d="M445.508 218.388C445.508 218.388 424.656 182.449 453.581 153.843C453.581 153.843 461.13 158.754 461.017 165.372C460.903 171.989 452.933 173.66 454.638 179.186C456.344 184.711 463.882 190.123 458.947 194.683C454.013 199.242 459.732 203.312 459.402 208.895C459.072 214.477 445.508 218.388 445.508 218.388Z" fill="#E0E0E0"/>
<path d="M448.783 224.266C448.783 224.266 457.231 183.586 420.757 165.553C420.757 165.553 415.152 172.603 417.346 178.845C419.541 185.087 427.636 184.166 427.75 189.941C427.863 195.717 422.429 203.233 428.557 206.007C434.685 208.781 430.524 214.443 432.604 219.65C434.685 224.858 448.783 224.266 448.783 224.266Z" fill="#EBEBEB"/>
<path d="M430.217 213.931C430.217 213.931 430.581 230.895 444.611 230.895C458.641 230.895 459.016 213.931 459.016 213.931H430.217Z" fill="#F5F5F5"/>
<path d="M332.858 217.683C332.858 217.683 333.335 230.895 351.788 230.895C370.241 230.895 370.73 217.683 370.73 217.683H332.858Z" fill="#EBEBEB"/>
<path d="M375.688 220.958C375.688 220.958 376.051 230.895 389.922 230.895C403.793 230.895 404.146 220.958 404.146 220.958H375.688Z" fill="#EBEBEB"/>
<path d="M345.853 239.138H314.792V363.715H345.853V239.138Z" fill="#EBEBEB"/>
<path d="M473.921 363.704H320.75V372.242H473.921V363.704Z" fill="#EBEBEB"/>
<path d="M345.853 363.704H479.89V239.127H345.853V363.704Z" fill="#F5F5F5"/>
<path d="M358.064 295.361H467.679V251.178H358.064V295.361Z" fill="#EBEBEB"/>
<path d="M358.064 347.593H467.679V303.411H358.064V347.593Z" fill="#EBEBEB"/>
<path d="M425.225 256.022H400.564C399.761 256.022 398.99 255.704 398.421 255.137C397.852 254.57 397.531 253.801 397.528 252.998C397.531 252.193 397.852 251.423 398.421 250.854C398.989 250.286 399.76 249.965 400.564 249.962H425.225C426.029 249.965 426.799 250.286 427.368 250.854C427.937 251.423 428.257 252.193 428.26 252.998C428.257 253.801 427.936 254.57 427.367 255.137C426.798 255.704 426.028 256.022 425.225 256.022Z" fill="#F5F5F5"/>
<path d="M425.225 308.254H400.564C399.761 308.254 398.99 307.936 398.421 307.369C397.852 306.802 397.531 306.033 397.528 305.23C397.531 304.426 397.852 303.655 398.421 303.087C398.989 302.518 399.76 302.197 400.564 302.194H425.225C426.029 302.197 426.799 302.518 427.368 303.087C427.937 303.655 428.257 304.426 428.26 305.23C428.257 306.033 427.936 306.802 427.367 307.369C426.798 307.936 426.028 308.254 425.225 308.254Z" fill="#F5F5F5"/>
<path d="M484.017 230.895H345.842V239.138H484.017V230.895Z" fill="#EBEBEB"/>
<path d="M310.437 239.126H345.842V230.883H310.437V239.126Z" fill="#E0E0E0"/>
<path d="M477.093 48.3324H409.808V125.851H477.093V48.3324Z" fill="#EBEBEB"/>
<path d="M484.734 48.3324H411.82V125.851H484.734V48.3324Z" fill="#F5F5F5"/>
<path d="M478.628 119.734V54.4379L417.926 54.4379V119.734H478.628Z" fill="white"/>
<path d="M463.916 98.5522V75.6196C463.916 72.6621 461.518 70.2645 458.56 70.2645H437.993C435.035 70.2645 432.638 72.6621 432.638 75.6196V98.5522C432.638 101.51 435.035 103.907 437.993 103.907H458.56C461.518 103.907 463.916 101.51 463.916 98.5522Z" fill="#F5F5F5"/>
<path d="M305.946 300.068H298.135V372.242H305.946V300.068Z" fill="#E0E0E0"/>
<path opacity="0.5" d="M305.946 300.068H302.035V372.242H305.946V300.068Z" fill="#F5F5F5"/>
<path d="M271.735 320.283H266.368C266.956 319.785 267.428 319.165 267.752 318.466C268.076 317.767 268.244 317.006 268.244 316.236H204.654C204.656 317.007 204.826 317.768 205.152 318.467C205.478 319.166 205.952 319.786 206.541 320.283H201.243C199.343 320.283 197.521 321.038 196.178 322.381C194.835 323.724 194.08 325.546 194.08 327.446V348.332C194.08 350.232 194.835 352.054 196.178 353.397C197.521 354.74 199.343 355.495 201.243 355.495H271.735C273.635 355.495 275.456 354.74 276.8 353.397C278.143 352.054 278.898 350.232 278.898 348.332V327.446C278.898 325.546 278.143 323.724 276.8 322.381C275.456 321.038 273.635 320.283 271.735 320.283Z" fill="#F5F5F5"/>
<path d="M212.919 335.712H170.158C167.495 335.712 165.337 337.87 165.337 340.532V350.674C165.337 353.337 167.495 355.495 170.158 355.495H212.919C215.581 355.495 217.74 353.337 217.74 350.674V340.532C217.74 337.87 215.581 335.712 212.919 335.712Z" fill="#EBEBEB"/>
<path d="M216.125 331.346H166.951C166.06 331.346 165.337 332.069 165.337 332.96V334.802C165.337 335.694 166.06 336.417 166.951 336.417H216.125C217.017 336.417 217.74 335.694 217.74 334.802V332.96C217.74 332.069 217.017 331.346 216.125 331.346Z" fill="#E0E0E0"/>
<path d="M222.572 267.835C222.572 267.835 223.311 291.711 251.281 291.711C279.25 291.711 279.989 267.835 279.989 267.835H222.572Z" fill="#EBEBEB"/>
<path d="M87.6711 300.068H122.553V291.723H87.6711V300.068Z" fill="#E0E0E0"/>
<path d="M333.017 291.722H122.565V300.068H333.017V291.722Z" fill="#F5F5F5"/>
<path d="M87.6711 363.84H122.553V355.495H87.6711V363.84Z" fill="#E0E0E0"/>
<path d="M95.4936 300.068H87.6826V372.242H95.4936V300.068Z" fill="#E0E0E0"/>
<path opacity="0.5" d="M95.4937 300.068H91.5825V372.242H95.4937V300.068Z" fill="#F5F5F5"/>
<path d="M126.465 300.068H118.654V372.242H126.465V300.068Z" fill="#F5F5F5"/>
<path d="M122.565 300.068H118.654V372.242H122.565V300.068Z" fill="#E0E0E0"/>
<path d="M333.005 300.068H325.194V372.242H333.005V300.068Z" fill="#F5F5F5"/>
<path d="M329.105 300.068H325.194V372.242H329.105V300.068Z" fill="#E0E0E0"/>
<path d="M333.017 355.495H122.565V363.84H333.017V355.495Z" fill="#F5F5F5"/>
<path d="M178.685 286.8H136.254V291.723H178.685V286.8Z" fill="#E0E0E0"/>
<path d="M178.685 291.711H193.887V286.788H178.685V291.711Z" fill="#EBEBEB"/>
<path d="M284.242 423.588C405.991 423.588 504.688 417.825 504.688 410.717C504.688 403.609 405.991 397.847 284.242 397.847C162.493 397.847 63.7954 403.609 63.7954 410.717C63.7954 417.825 162.493 423.588 284.242 423.588Z" fill="#F5F5F5"/>
<path d="M247.711 108.808C247.79 122.281 238.137 122.144 238.331 117.96C238.524 113.776 236.136 103.759 238.331 104.726C240.525 105.692 247.677 102.85 247.711 108.808Z" fill="#263238"/>
<path d="M241.639 133.207C242.97 133.105 245.641 134.344 245.88 137.857C245.942 138.878 246.241 139.87 246.752 140.756C247.263 141.642 247.972 142.397 248.825 142.962C248.825 142.962 244.402 143.496 241.503 141.2C239.138 139.346 238.092 135.287 239.331 134.378C240.01 133.831 240.797 133.432 241.639 133.207Z" fill="#263238"/>
<path d="M239.9 123.634C242.174 125.646 244.255 130.967 239.127 133.491C233.999 136.015 225.938 130.137 225.938 130.137L234.795 126.033L239.9 123.634Z" fill="#263238"/>
<path d="M242.424 133.696C242.299 132.959 242.093 132.238 241.81 131.547C241.786 131.481 241.747 131.422 241.696 131.373C241.646 131.324 241.585 131.288 241.518 131.266C241.452 131.244 241.381 131.237 241.311 131.247C241.242 131.256 241.175 131.281 241.117 131.319L237.967 133.423C237.904 133.465 237.852 133.523 237.816 133.59C237.78 133.658 237.762 133.733 237.762 133.809C237.762 133.886 237.78 133.961 237.816 134.028C237.852 134.096 237.904 134.153 237.967 134.196C238.421 134.528 238.909 134.81 239.423 135.037C240.162 135.333 241.697 134.492 242.22 134.128C242.291 134.083 242.349 134.018 242.385 133.942C242.421 133.865 242.435 133.78 242.424 133.696Z" fill="#161E2E"/>
<path opacity="0.3" d="M242.424 133.696C242.299 132.959 242.093 132.238 241.81 131.547C241.786 131.481 241.747 131.422 241.696 131.373C241.646 131.324 241.585 131.288 241.518 131.266C241.452 131.244 241.381 131.237 241.311 131.247C241.242 131.256 241.175 131.281 241.117 131.319L237.967 133.423C237.904 133.465 237.852 133.523 237.816 133.59C237.78 133.658 237.762 133.733 237.762 133.809C237.762 133.886 237.78 133.961 237.816 134.028C237.852 134.096 237.904 134.153 237.967 134.196C238.421 134.528 238.909 134.81 239.423 135.037C240.162 135.333 241.697 134.492 242.22 134.128C242.291 134.083 242.349 134.018 242.385 133.942C242.421 133.865 242.435 133.78 242.424 133.696Z" fill="black"/>
<path d="M208.531 128.113C207.269 127.692 204.381 128.261 203.312 131.626C203.008 132.603 202.483 133.496 201.777 134.236C201.071 134.975 200.203 135.541 199.242 135.89C199.242 135.89 203.414 137.459 206.78 135.89C209.508 134.651 211.441 130.944 210.498 129.762C209.969 129.077 209.298 128.514 208.531 128.113Z" fill="#263238"/>
<path d="M221.061 104.976C216.456 106.227 210.26 111.684 213.011 118.381C210.294 120.234 206.815 125.566 210.885 128.977C215.262 132.65 226.029 127.499 226.029 127.499L226.109 125.748L227.394 112.719L221.061 104.976Z" fill="#263238"/>
<path d="M207.656 128.409C207.961 127.721 208.343 127.068 208.793 126.465C208.838 126.41 208.894 126.366 208.958 126.336C209.022 126.305 209.092 126.29 209.162 126.29C209.233 126.29 209.303 126.305 209.367 126.336C209.431 126.366 209.487 126.41 209.532 126.465L212.079 129.25C212.13 129.307 212.167 129.375 212.187 129.449C212.206 129.523 212.208 129.601 212.191 129.675C212.174 129.75 212.14 129.819 212.091 129.878C212.041 129.937 211.979 129.983 211.908 130.012C211.391 130.223 210.854 130.379 210.305 130.478C209.509 130.592 208.281 129.421 207.804 128.943C207.726 128.881 207.671 128.795 207.644 128.7C207.618 128.604 207.622 128.502 207.656 128.409Z" fill="#161E2E"/>
<path opacity="0.3" d="M207.656 128.409C207.961 127.721 208.343 127.068 208.793 126.465C208.838 126.41 208.894 126.366 208.958 126.336C209.022 126.305 209.092 126.29 209.162 126.29C209.233 126.29 209.303 126.305 209.367 126.336C209.431 126.366 209.487 126.41 209.532 126.465L212.079 129.25C212.13 129.307 212.167 129.375 212.187 129.449C212.206 129.523 212.208 129.601 212.191 129.675C212.174 129.75 212.14 129.819 212.091 129.878C212.041 129.937 211.979 129.983 211.908 130.012C211.391 130.223 210.854 130.379 210.305 130.478C209.509 130.592 208.281 129.421 207.804 128.943C207.726 128.881 207.671 128.795 207.644 128.7C207.618 128.604 207.622 128.502 207.656 128.409Z" fill="black"/>
<path d="M249.086 152.433C251.258 154.116 253.634 155.912 256.022 157.549C258.409 159.187 260.809 160.835 263.276 162.347C265.743 163.859 268.244 165.269 270.768 166.611L272.667 167.577L274.6 168.476C275.237 168.783 275.885 169.055 276.544 169.306L277.511 169.703C277.84 169.829 278.193 169.988 278.397 170.045C279.586 170.409 280.803 170.671 282.036 170.829C283.377 171.022 284.787 171.159 286.22 171.261C289.073 171.443 292.007 171.523 294.952 171.534C297.896 171.545 300.875 171.534 303.843 171.443C306.81 171.352 309.812 171.284 312.768 171.193L313.325 175.661C307.353 176.865 301.323 177.757 295.259 178.333C292.2 178.606 289.13 178.811 285.992 178.833C284.423 178.833 282.832 178.833 281.194 178.686C279.434 178.582 277.689 178.296 275.987 177.833C275.464 177.696 275.134 177.56 274.748 177.435L273.611 177.037C272.849 176.787 272.099 176.514 271.337 176.207L269.131 175.32L266.971 174.365C264.116 173.077 261.334 171.635 258.637 170.045C255.954 168.464 253.316 166.827 250.769 165.076C248.222 163.325 245.766 161.517 243.265 159.391L249.086 152.433Z" fill="#E4897B"/>
<path d="M237.285 147.328C240.116 145.122 251.77 152.342 255.317 155.355L252.737 170.965C252.737 170.965 235.966 163.939 234.954 159.141C233.908 154.127 235.148 149.011 237.285 147.328Z" fill="#263238"/>
<path d="M311.529 171.579L318.555 166.133L319.112 174.558C319.112 174.558 314.269 177.56 311.074 175.695L311.529 171.579Z" fill="#E4897B"/>
<path d="M324.82 165.303L328.413 169.306L319.067 174.558L318.51 166.133L324.82 165.303Z" fill="#E4897B"/>
<path d="M191.329 399.609L200.186 400.269L203.415 379.883L194.569 379.223L191.329 399.609Z" fill="#E4897B"/>
<path d="M128.67 371.117L136.186 375.847L149.568 359.975L142.052 355.233L128.67 371.117Z" fill="#E4897B"/>
<path d="M138.562 374.152L131.524 367.069C131.404 366.946 131.243 366.871 131.071 366.858C130.899 366.846 130.729 366.897 130.592 367.001L124.191 371.788C124.035 371.914 123.907 372.071 123.816 372.25C123.724 372.429 123.671 372.625 123.661 372.825C123.65 373.026 123.682 373.226 123.753 373.414C123.825 373.601 123.935 373.772 124.077 373.914C126.567 376.335 127.897 377.381 130.99 380.497C132.889 382.418 135.47 385.408 138.096 388.058C140.722 390.707 143.474 388.24 142.644 386.921C138.801 380.929 139.494 378.689 139.233 375.642C139.194 375.081 138.956 374.553 138.562 374.152Z" fill="#263238"/>
<path d="M200.777 398.995H190.794C190.619 398.995 190.449 399.056 190.314 399.168C190.179 399.281 190.087 399.437 190.055 399.609L188.475 407.5C188.438 407.7 188.448 407.905 188.502 408.101C188.557 408.297 188.655 408.478 188.79 408.63C188.925 408.782 189.092 408.902 189.28 408.98C189.468 409.058 189.671 409.092 189.873 409.08C193.353 409.023 195.047 408.819 199.435 408.819C202.13 408.819 209.668 409.092 213.431 409.092C217.195 409.092 217.57 405.408 216.035 405.078C209.156 403.577 204.518 401.519 202.278 399.541C201.864 399.177 201.328 398.982 200.777 398.995Z" fill="#263238"/>
<path d="M203.415 379.883L201.619 391.207L192.887 389.74L194.558 379.235L203.415 379.883Z" fill="#CE6F64"/>
<path d="M142.053 355.245L149.568 359.975L144.031 366.546L136.345 362.01L142.053 355.245Z" fill="#CE6F64"/>
<path d="M198.06 194.569L233.465 201.47C251.758 151.933 247.779 150.307 247.779 150.307C245.206 148.893 242.548 147.64 239.82 146.555L239.343 146.373C237.069 145.543 236.614 145.418 233.59 144.531C228.382 143.292 223.528 142.257 217.513 141.404L216.376 141.245C215.239 141.109 214.204 140.995 213.158 140.893C212.454 140.813 211.749 140.768 211.078 140.722L208.804 140.597C204.915 140.404 202.13 140.461 202.13 140.461C203.21 171.397 201.459 180.277 198.06 194.569Z" fill="#263238"/>
<path d="M222.629 123.634C222.629 129 221.799 138.676 217.501 141.427C217.501 141.427 217.899 146.953 227.507 148.817C238.081 150.875 233.578 144.554 233.578 144.554C228.087 142.052 229.03 137.8 230.849 133.98L222.629 123.634Z" fill="#E4897B"/>
<path d="M225.983 127.852L230.849 133.98C230.423 134.866 230.073 135.786 229.803 136.731C227.655 135.981 225.096 132.979 225.256 130.626C225.328 129.665 225.575 128.725 225.983 127.852Z" fill="#CE6F64"/>
<path d="M222.118 111.309C220.981 120.052 220.287 123.725 223.789 129.011C229.053 136.97 240.036 136.459 243.777 128.238C247.188 120.837 248.461 107.773 240.673 102.713C238.963 101.584 236.993 100.911 234.95 100.757C232.906 100.604 230.858 100.976 228.998 101.837C227.139 102.698 225.531 104.02 224.327 105.678C223.122 107.336 222.362 109.274 222.118 111.309Z" fill="#E4897B"/>
<path d="M250.576 97.4607C250.734 98.8472 250.63 100.251 250.269 101.599C250.186 101.142 250.076 100.69 249.939 100.246C246.824 89.9453 232.794 92.4012 228.564 96.8353C221.742 94.8798 215.25 96.4374 216.114 104.794C216.222 106.947 216.997 109.013 218.331 110.706C217.274 113.64 218.331 118.313 221.822 118.449C226.733 118.642 231.395 112.139 233.271 108.569C236.682 109.149 241.594 109.706 245.323 108.796C245.948 109.171 246.46 109.433 246.46 109.433C250.428 107.307 253.452 105.249 250.576 97.4607Z" fill="#263238"/>
<path d="M219.093 117.278C218.954 118.974 219.489 120.658 220.583 121.962C222.061 123.679 223.994 122.667 224.687 120.632C225.267 118.79 225.188 115.686 223.209 114.72C222.773 114.515 222.293 114.422 221.812 114.45C221.332 114.478 220.865 114.626 220.456 114.881C220.047 115.135 219.708 115.487 219.47 115.906C219.232 116.325 219.103 116.796 219.093 117.278Z" fill="#E4897B"/>
<path d="M232.93 201.47C232.93 201.47 233.067 271.757 227.314 298.226C221.333 325.763 203.744 388.41 203.744 388.41L191.01 386.761C191.01 386.761 200.981 323.478 205.222 296.111C209.85 266.289 207.019 196.422 207.019 196.422L232.93 201.47Z" fill="#161E2E"/>
<path opacity="0.3" d="M232.93 201.47C232.93 201.47 233.067 271.757 227.314 298.226C221.333 325.763 203.744 388.41 203.744 388.41L191.01 386.761C191.01 386.761 200.981 323.478 205.222 296.111C209.85 266.289 207.019 196.422 207.019 196.422L232.93 201.47Z" fill="black"/>
<path d="M205.916 389.513L188.828 387.307L189.555 381.259L208.952 383.532L205.916 389.513Z" fill="#263238"/>
<path d="M224.119 199.651C224.119 199.651 205.052 257.739 195.581 291.2C185.598 326.502 147.328 365.546 147.328 365.546L136.356 359.201C136.356 359.201 162.507 322.136 172.114 289.198C191.681 222.334 183.643 208.167 198.06 194.569L224.119 199.651Z" fill="#161E2E"/>
<path opacity="0.3" d="M224.119 199.651C224.119 199.651 205.052 257.739 195.581 291.2C185.598 326.502 147.328 365.546 147.328 365.546L136.356 359.201C136.356 359.201 162.507 322.136 172.114 289.198C191.681 222.334 183.643 208.167 198.06 194.569L224.119 199.651Z" fill="black"/>
<path d="M149.113 367.308L133.866 358.508L137.664 353.073L154.593 362.408L149.113 367.308Z" fill="#263238"/>
<path d="M234.738 116.277C234.601 116.982 234.863 117.619 235.329 117.71C235.795 117.801 236.273 117.301 236.466 116.573C236.659 115.845 236.341 115.22 235.875 115.129C235.409 115.038 234.874 115.573 234.738 116.277Z" fill="#263238"/>
<path d="M242.686 117.824C242.549 118.529 242.811 119.177 243.277 119.268C243.743 119.359 244.22 118.858 244.357 118.131C244.493 117.403 244.232 116.778 243.766 116.698C243.299 116.618 242.822 117.107 242.686 117.824Z" fill="#263238"/>
<path d="M243.561 116.709L245.346 116.562C245.346 116.562 244.22 117.71 243.561 116.709Z" fill="#263238"/>
<path d="M240.355 118.631C240.668 120.355 241.219 122.027 241.992 123.6C241.584 123.79 241.14 123.889 240.69 123.889C240.24 123.889 239.796 123.79 239.388 123.6L240.355 118.631Z" fill="#DE5753"/>
<path d="M236.41 125.873C235.459 125.718 234.561 125.335 233.791 124.757C233.02 124.178 232.402 123.423 231.987 122.553C231.976 122.528 231.97 122.501 231.97 122.473C231.969 122.446 231.975 122.418 231.985 122.393C231.996 122.367 232.012 122.344 232.032 122.325C232.051 122.306 232.075 122.291 232.101 122.281C232.152 122.261 232.209 122.262 232.259 122.283C232.31 122.305 232.351 122.344 232.373 122.394C232.771 123.193 233.35 123.887 234.065 124.42C234.78 124.954 235.61 125.311 236.489 125.464C236.516 125.468 236.542 125.478 236.566 125.492C236.589 125.506 236.609 125.525 236.625 125.547C236.641 125.57 236.652 125.595 236.658 125.622C236.664 125.648 236.665 125.676 236.66 125.703C236.649 125.758 236.616 125.807 236.57 125.839C236.523 125.871 236.465 125.883 236.41 125.873Z" fill="#263238"/>
<path d="M232.93 113.253C232.846 113.252 232.764 113.227 232.695 113.179C232.625 113.131 232.572 113.064 232.542 112.985C232.511 112.907 232.505 112.821 232.523 112.739C232.542 112.657 232.584 112.583 232.646 112.525C233.133 112.068 233.723 111.734 234.366 111.55C235.008 111.366 235.685 111.338 236.341 111.468C236.448 111.5 236.539 111.572 236.594 111.67C236.65 111.767 236.665 111.883 236.637 111.991C236.607 112.098 236.537 112.188 236.441 112.244C236.346 112.299 236.232 112.314 236.125 112.287C235.604 112.194 235.069 112.224 234.562 112.374C234.055 112.524 233.59 112.79 233.203 113.151C233.128 113.217 233.03 113.254 232.93 113.253Z" fill="#263238"/>
<path d="M247.097 114.834C247.014 114.835 246.932 114.81 246.863 114.763C246.794 114.717 246.741 114.65 246.711 114.572C246.516 114.08 246.209 113.639 245.814 113.286C245.419 112.933 244.948 112.676 244.437 112.537C244.382 112.527 244.33 112.507 244.283 112.477C244.237 112.447 244.196 112.409 244.165 112.363C244.133 112.318 244.11 112.267 244.099 112.212C244.087 112.158 244.086 112.102 244.096 112.048C244.12 111.941 244.184 111.846 244.274 111.783C244.364 111.72 244.475 111.693 244.584 111.707C245.233 111.869 245.833 112.183 246.336 112.624C246.838 113.066 247.228 113.62 247.472 114.242C247.495 114.294 247.506 114.349 247.507 114.405C247.508 114.461 247.497 114.517 247.476 114.569C247.455 114.621 247.423 114.668 247.384 114.707C247.344 114.747 247.297 114.778 247.245 114.799L247.097 114.834Z" fill="#263238"/>
<path d="M235.693 122.508C235.341 122.509 234.993 122.429 234.678 122.273C234.362 122.117 234.087 121.89 233.874 121.61C233.339 120.776 232.982 119.84 232.826 118.862C232.669 117.884 232.716 116.884 232.964 115.925C233.612 112.332 235.863 109.41 237.99 109.41C238.343 109.414 238.692 109.498 239.009 109.656C239.326 109.813 239.603 110.04 239.82 110.32C240.353 111.155 240.709 112.09 240.865 113.068C241.021 114.046 240.975 115.045 240.73 116.005C240.082 119.597 237.819 122.508 235.693 122.508ZM237.967 109.729C235.977 109.729 233.84 112.548 233.214 116.005C232.816 118.278 233.135 120.325 234.067 121.428C234.256 121.673 234.499 121.872 234.777 122.01C235.055 122.148 235.36 122.221 235.67 122.224C237.671 122.224 239.797 119.415 240.423 115.959H240.559H240.423C240.664 115.045 240.713 114.091 240.566 113.158C240.419 112.224 240.08 111.331 239.57 110.536C239.383 110.292 239.145 110.093 238.871 109.953C238.598 109.813 238.297 109.737 237.99 109.729H237.967Z" fill="#FAFAFA"/>
<path d="M244.528 123.645C244.16 123.637 243.799 123.548 243.47 123.382C243.142 123.217 242.854 122.981 242.629 122.69C242.118 121.924 241.773 121.061 241.614 120.155C241.456 119.248 241.488 118.319 241.708 117.426C242.288 114.083 244.471 111.377 246.574 111.377C246.943 111.386 247.305 111.478 247.633 111.645C247.962 111.812 248.249 112.051 248.473 112.343C248.98 113.108 249.323 113.97 249.482 114.874C249.64 115.778 249.61 116.704 249.394 117.596C248.825 120.95 246.642 123.645 244.528 123.645ZM246.54 111.661C244.562 111.661 242.515 114.265 241.992 117.483C241.787 118.335 241.759 119.22 241.907 120.084C242.056 120.948 242.379 121.773 242.856 122.508C243.056 122.766 243.311 122.976 243.602 123.123C243.893 123.271 244.213 123.352 244.539 123.361C246.517 123.361 248.575 120.768 249.087 117.551C249.29 116.699 249.32 115.815 249.173 114.951C249.027 114.088 248.707 113.262 248.234 112.525C248.035 112.266 247.781 112.053 247.49 111.904C247.199 111.754 246.878 111.672 246.551 111.661H246.54Z" fill="#FAFAFA"/>
<path d="M141.177 378.28C140.041 378.28 138.847 376.529 138.233 375.517C138.21 375.483 138.198 375.444 138.198 375.403C138.198 375.363 138.21 375.323 138.233 375.29C138.258 375.257 138.291 375.232 138.329 375.216C138.367 375.2 138.408 375.194 138.449 375.199C138.813 375.278 141.939 375.96 142.337 377.029C142.382 377.147 142.395 377.275 142.373 377.399C142.351 377.523 142.295 377.639 142.212 377.734C142.1 377.905 141.946 378.045 141.765 378.141C141.584 378.236 141.382 378.284 141.177 378.28ZM138.801 375.722C139.677 377.04 140.529 377.825 141.143 377.859C141.28 377.86 141.414 377.826 141.533 377.761C141.653 377.695 141.753 377.6 141.826 377.484C141.864 377.444 141.89 377.393 141.9 377.339C141.91 377.284 141.904 377.228 141.882 377.177C141.678 376.608 140.052 376.04 138.801 375.722Z" fill="#161E2E"/>
<path d="M139.313 375.722C138.968 375.727 138.624 375.689 138.289 375.608C138.255 375.596 138.224 375.577 138.198 375.551C138.173 375.525 138.153 375.494 138.141 375.46C138.115 375.395 138.115 375.321 138.141 375.255C138.221 375.187 139.961 373.47 141.245 373.47H141.336C141.495 373.481 141.651 373.525 141.792 373.599C141.933 373.674 142.056 373.777 142.155 373.902C142.271 374.024 142.343 374.18 142.359 374.347C142.376 374.514 142.336 374.682 142.246 374.823C141.882 375.437 140.427 375.722 139.313 375.722ZM138.801 375.278C139.87 375.403 141.598 375.096 141.95 374.585C142.007 374.505 142.053 374.38 141.882 374.164C141.823 374.08 141.744 374.012 141.653 373.965C141.563 373.917 141.462 373.892 141.359 373.891C140.384 374.078 139.49 374.563 138.801 375.278Z" fill="#161E2E"/>
<path d="M204.04 400.553C203.099 400.527 202.163 400.413 201.243 400.212C201.2 400.203 201.16 400.181 201.129 400.148C201.099 400.115 201.079 400.074 201.073 400.03C201.068 399.987 201.076 399.943 201.096 399.904C201.116 399.866 201.148 399.834 201.186 399.814C201.607 399.609 205.257 397.79 206.314 398.404C206.41 398.465 206.49 398.549 206.546 398.648C206.601 398.747 206.631 398.859 206.632 398.973C206.646 399.164 206.612 399.357 206.535 399.533C206.458 399.709 206.339 399.864 206.189 399.984C205.556 400.409 204.8 400.609 204.04 400.553ZM201.96 399.939C203.904 400.257 205.37 400.178 205.939 399.689C206.036 399.605 206.112 399.499 206.161 399.381C206.211 399.263 206.232 399.135 206.223 399.007C206.225 398.964 206.216 398.921 206.196 398.883C206.176 398.845 206.146 398.813 206.109 398.791C205.541 398.461 203.517 399.234 201.96 399.939Z" fill="#161E2E"/>
<path d="M201.3 400.212C201.259 400.223 201.216 400.223 201.175 400.212C201.142 400.19 201.115 400.159 201.099 400.123C201.083 400.087 201.078 400.046 201.084 400.007C201.084 399.848 201.63 396.232 203.608 396.232H203.779C204.347 396.289 204.506 396.574 204.541 396.812C204.7 397.813 202.494 399.746 201.38 400.223L201.3 400.212ZM203.574 396.619C202.289 396.619 201.721 398.711 201.528 399.621C202.665 398.95 204.177 397.438 204.086 396.835C204.086 396.835 204.086 396.653 203.688 396.619H203.574Z" fill="#161E2E"/>
<path d="M235.614 115.163L237.399 115.004C237.399 115.004 236.273 116.164 235.614 115.163Z" fill="#263238"/>
<path d="M227.803 156.378C213.022 150.773 208.406 142.382 208.759 140.62L211.033 140.756H211.419C211.965 140.756 212.556 140.836 213.113 140.904C214.159 140.995 215.239 141.109 216.331 141.257L217.468 141.416C222.895 142.073 228.267 143.118 233.545 144.542C235.955 145.247 236.751 145.475 238.092 145.952L239.286 146.384L239.764 146.566C240.946 149.113 240.685 154.32 227.803 156.378Z" fill="#E4897B"/>
<path d="M227.803 156.378C213.022 150.773 208.406 142.382 208.759 140.62L211.033 140.756H211.419C214.421 145.02 220.993 150.909 227.689 151.717C233.078 150.58 238.161 149.284 238.115 145.952L239.309 146.384L239.787 146.566C240.946 149.113 240.685 154.32 227.803 156.378Z" fill="#161E2E"/>
<path opacity="0.3" d="M227.803 156.378C213.022 150.773 208.406 142.382 208.759 140.62L211.033 140.756H211.419C214.421 145.02 220.993 150.909 227.689 151.717C233.078 150.58 238.161 149.284 238.115 145.952L239.309 146.384L239.787 146.566C240.946 149.113 240.685 154.32 227.803 156.378Z" fill="black"/>
<path d="M197.935 192.386L195.661 195.251C195.49 195.467 195.74 195.774 196.15 195.854L233.283 203.085C233.601 203.153 233.897 203.085 233.954 202.846L234.886 199.742C234.954 199.526 234.715 199.287 234.363 199.219L198.503 192.238C198.403 192.217 198.3 192.22 198.202 192.245C198.103 192.271 198.012 192.319 197.935 192.386Z" fill="#263238"/>
<path d="M201.971 197.332L201.016 197.15C200.823 197.15 200.698 196.991 200.732 196.866L201.982 192.841C201.982 192.716 202.21 192.659 202.392 192.693L203.358 192.875C203.551 192.875 203.676 193.045 203.642 193.159L202.392 197.195C202.346 197.261 202.28 197.31 202.204 197.335C202.128 197.359 202.046 197.358 201.971 197.332Z" fill="#161E2E"/>
<path opacity="0.3" d="M201.971 197.332L201.016 197.15C200.823 197.15 200.698 196.991 200.732 196.866L201.982 192.841C201.982 192.716 202.21 192.659 202.392 192.693L203.358 192.875C203.551 192.875 203.676 193.045 203.642 193.159L202.392 197.195C202.346 197.261 202.28 197.31 202.204 197.335C202.128 197.359 202.046 197.358 201.971 197.332Z" fill="black"/>
<path d="M204.495 154.184C204.063 156.878 203.653 159.869 203.358 162.666C203.062 165.463 202.801 168.35 202.664 171.261C202.588 172.694 202.543 174.126 202.528 175.559C202.528 176.98 202.528 178.401 202.528 179.822C202.584 182.607 202.8 185.385 203.176 188.145C203.39 189.09 203.776 189.988 204.313 190.794C204.993 191.901 205.753 192.958 206.587 193.955C208.404 196.111 210.348 198.157 212.408 200.083C214.489 202.084 216.672 204.017 218.911 205.904C221.151 207.792 223.459 209.668 225.733 211.475L223.289 215.25C217.938 212.318 212.822 208.976 207.985 205.256C205.488 203.344 203.133 201.254 200.936 199.003C199.765 197.796 198.689 196.499 197.718 195.126C196.517 193.501 195.662 191.648 195.206 189.68L194.785 187.27C194.637 186.485 194.535 185.7 194.444 184.927C194.217 183.358 194.092 181.801 193.966 180.243C193.73 177.145 193.658 174.037 193.75 170.931C193.841 167.85 194.012 164.78 194.319 161.722C194.626 158.663 195.012 155.662 195.626 152.501L204.495 154.184Z" fill="#E4897B"/>
<path d="M196.945 142.837C192.079 146.771 193.239 158.459 193.239 158.459L209.611 163.848C209.611 163.848 208.861 150.375 208.065 145.532C207.087 139.767 201.721 138.96 196.945 142.837Z" fill="#263238"/>
<path d="M223.732 210.748L231.134 207.996L229.997 215.034C229.997 215.034 224.63 216.967 221.879 214.488L223.732 210.748Z" fill="#E4897B"/>
<path d="M239.946 209.042V214.477L229.997 215.034L231.134 207.996L239.946 209.042Z" fill="#E4897B"/>
<path d="M230.566 202.903L229.611 202.721C229.417 202.721 229.292 202.562 229.326 202.437L230.577 198.412C230.577 198.287 230.804 198.23 230.998 198.264L231.953 198.446C232.146 198.446 232.271 198.616 232.237 198.73L230.986 202.766C230.952 202.88 230.804 202.948 230.566 202.903Z" fill="#161E2E"/>
<path opacity="0.3" d="M230.566 202.903L229.611 202.721C229.417 202.721 229.292 202.562 229.326 202.437L230.577 198.412C230.577 198.287 230.804 198.23 230.998 198.264L231.953 198.446C232.146 198.446 232.271 198.616 232.237 198.73L230.986 202.766C230.952 202.88 230.804 202.948 230.566 202.903Z" fill="black"/>
<path d="M216.274 200.106L215.307 199.924C215.114 199.924 214.989 199.765 215.034 199.64L216.285 195.615C216.285 195.49 216.501 195.433 216.694 195.467L217.661 195.649C217.843 195.649 217.979 195.819 217.934 195.933L216.683 199.969C216.649 200.106 216.467 200.163 216.274 200.106Z" fill="#161E2E"/>
<path opacity="0.3" d="M216.274 200.106L215.307 199.924C215.114 199.924 214.989 199.765 215.034 199.64L216.285 195.615C216.285 195.49 216.501 195.433 216.694 195.467L217.661 195.649C217.843 195.649 217.979 195.819 217.934 195.933L216.683 199.969C216.649 200.106 216.467 200.163 216.274 200.106Z" fill="black"/>
<path d="M143.861 266.402L202.801 395.129C204.152 398.055 206.606 400.327 209.627 401.45C212.647 402.572 215.989 402.454 218.923 401.121L228.28 396.846L444.952 297.646C447.879 296.299 450.153 293.849 451.278 290.83C452.403 287.811 452.287 284.469 450.955 281.535L398.871 167.839L392.049 152.819C390.695 149.896 388.242 147.626 385.222 146.503C382.202 145.381 378.861 145.498 375.927 146.828L149.887 250.292C146.96 251.639 144.684 254.088 143.556 257.106C142.427 260.124 142.537 263.465 143.861 266.402Z" fill="#161E2E"/>
<path opacity="0.1" d="M143.861 266.402L202.801 395.129C204.152 398.055 206.606 400.327 209.627 401.45C212.647 402.572 215.989 402.454 218.923 401.121L228.28 396.846L444.952 297.646C447.879 296.299 450.153 293.849 451.278 290.83C452.403 287.811 452.287 284.469 450.955 281.535L398.871 167.839L392.049 152.819C390.695 149.896 388.242 147.626 385.222 146.503C382.202 145.381 378.861 145.498 375.927 146.828L149.887 250.292C146.96 251.639 144.684 254.088 143.556 257.106C142.427 260.124 142.537 263.465 143.861 266.402Z" fill="white"/>
<path d="M196.825 382.077L444.971 268.467L415.929 205.035L167.783 318.645L196.825 382.077Z" fill="#161E2E"/>
<path opacity="0.3" d="M196.825 382.077L444.971 268.467L415.929 205.035L167.783 318.645L196.825 382.077Z" fill="white"/>
<path d="M259.234 328.873L416.046 257.078L405.653 234.377L248.84 306.171L259.234 328.873Z" fill="#161E2E"/>
<path opacity="0.8" d="M259.234 328.873L416.046 257.078L405.653 234.377L248.84 306.171L259.234 328.873Z" fill="white"/>
<path d="M173.324 330.771L421.47 217.16L405.974 183.315L157.828 296.925L173.324 330.771Z" fill="#161E2E"/>
<path opacity="0.3" d="M173.324 330.771L421.47 217.16L405.974 183.315L157.828 296.925L173.324 330.771Z" fill="black"/>
<g style="mix-blend-mode:multiply">
<path d="M177.56 268.017L228.28 396.801L444.951 297.601C447.878 296.254 450.153 293.803 451.278 290.784C452.403 287.765 452.286 284.423 450.955 281.49L398.87 167.793L184.427 252.247C181.432 253.436 179.028 255.761 177.742 258.716C176.455 261.67 176.39 265.014 177.56 268.017Z" fill="#161E2E"/>
</g>
<path d="M464.349 227.31L463.276 227.687L465.052 232.74L466.124 232.363L464.349 227.31Z" fill="#161E2E"/>
<path opacity="0.1" d="M464.349 227.31L463.276 227.687L465.052 232.74L466.124 232.363L464.349 227.31Z" fill="white"/>
<path d="M455.388 201.904L454.315 202.281L461.307 222.191L462.38 221.814L455.388 201.904Z" fill="#161E2E"/>
<path opacity="0.1" d="M455.388 201.904L454.315 202.281L461.307 222.191L462.38 221.814L455.388 201.904Z" fill="white"/>
<path d="M192.648 252.69L427.204 170.317C430.247 169.258 433.585 169.447 436.489 170.843C439.393 172.238 441.626 174.727 442.7 177.764L489.612 311.346C490.672 314.389 490.485 317.728 489.091 320.634C487.698 323.539 485.212 325.776 482.176 326.855L247.62 409.228C244.575 410.284 241.237 410.094 238.332 408.699C235.427 407.304 233.191 404.817 232.112 401.781L185.201 268.199C184.141 265.154 184.33 261.814 185.725 258.908C187.121 256.003 189.609 253.767 192.648 252.69Z" fill="#161E2E"/>
<path opacity="0.1" d="M192.648 252.69L427.204 170.317C430.247 169.258 433.585 169.447 436.489 170.843C439.393 172.238 441.626 174.727 442.701 177.764L489.612 311.346C490.672 314.389 490.485 317.728 489.091 320.634C487.698 323.539 485.212 325.776 482.176 326.855L247.62 409.228C244.575 410.284 241.237 410.094 238.332 408.699C235.427 407.304 233.191 404.817 232.112 401.781L185.201 268.199C184.141 265.154 184.33 261.814 185.725 258.908C187.121 256.003 189.609 253.767 192.648 252.69Z" fill="white"/>
<path d="M223.563 377.422L481.064 286.994L460.657 228.884L203.156 319.311L223.563 377.422Z" fill="#161E2E"/>
<path opacity="0.3" d="M223.563 377.422L481.064 286.994L460.657 228.884L203.156 319.311L223.563 377.422Z" fill="white"/>
<path d="M379.517 227.593L432.746 208.901L429.834 200.608L376.605 219.301L379.517 227.593Z" fill="#161E2E"/>
<path opacity="0.8" d="M379.517 227.593L432.746 208.901L429.834 200.608L376.605 219.301L379.517 227.593Z" fill="white"/>
<path d="M424.314 321.483L467.02 306.486L465.498 302.152L422.792 317.149L424.314 321.483Z" fill="#161E2E"/>
<path opacity="0.8" d="M424.314 321.483L467.02 306.486L465.498 302.152L422.792 317.149L424.314 321.483Z" fill="white"/>
<path d="M414.897 334.107L469.928 314.781L468.406 310.447L413.375 329.773L414.897 334.107Z" fill="#161E2E"/>
<path opacity="0.8" d="M414.897 334.107L469.928 314.781L468.406 310.447L413.375 329.773L414.897 334.107Z" fill="white"/>
<path d="M247.94 392.739L275.456 383.076L272.182 373.754L244.667 383.417L247.94 392.739Z" fill="#161E2E"/>
<path opacity="0.8" d="M247.94 392.739L275.456 383.076L272.182 373.754L244.667 383.417L247.94 392.739Z" fill="white"/>
<path d="M419.302 293.905L451.432 282.627C453.126 282.024 454.513 280.777 455.293 279.157C456.072 277.536 456.18 275.674 455.593 273.974C454.991 272.281 453.744 270.893 452.123 270.114C450.503 269.335 448.641 269.227 446.941 269.813L414.799 281.103C413.105 281.706 411.718 282.953 410.939 284.573C410.159 286.194 410.051 288.056 410.638 289.756C411.243 291.45 412.493 292.837 414.115 293.614C415.738 294.391 417.602 294.496 419.302 293.905Z" fill="#161E2E"/>
<path d="M364.261 313.234L396.403 301.944C398.084 301.339 399.461 300.098 400.237 298.488C401.013 296.879 401.126 295.029 400.553 293.337C399.948 291.645 398.7 290.261 397.08 289.484C395.46 288.707 393.599 288.6 391.901 289.187L359.77 300.477C358.077 301.08 356.689 302.327 355.91 303.947C355.131 305.568 355.023 307.43 355.609 309.13C356.223 310.813 357.475 312.187 359.094 312.955C360.713 313.723 362.569 313.823 364.261 313.234Z" fill="#161E2E"/>
<path d="M309.255 332.562L341.397 321.272C343.074 320.662 344.445 319.42 345.216 317.811C345.988 316.202 346.098 314.355 345.524 312.665C344.919 310.974 343.671 309.589 342.051 308.812C340.431 308.035 338.57 307.928 336.872 308.516L304.707 319.76C303.015 320.365 301.631 321.613 300.854 323.233C300.077 324.853 299.97 326.714 300.557 328.412C301.162 330.115 302.417 331.508 304.048 332.286C305.678 333.064 307.551 333.163 309.255 332.562Z" fill="#161E2E"/>
<path d="M254.192 351.891L286.334 340.601C288.017 339.998 289.396 338.758 290.174 337.148C290.953 335.538 291.068 333.688 290.495 331.994C289.89 330.302 288.642 328.917 287.022 328.14C285.402 327.363 283.541 327.257 281.843 327.844L249.701 339.134C248.007 339.737 246.62 340.984 245.841 342.604C245.061 344.224 244.953 346.087 245.54 347.786C246.154 349.47 247.406 350.844 249.025 351.612C250.644 352.38 252.5 352.48 254.192 351.891Z" fill="#161E2E"/>
<g opacity="0.8">
<path opacity="0.8" d="M419.302 293.905L451.432 282.627C453.126 282.024 454.513 280.777 455.293 279.157C456.072 277.536 456.18 275.674 455.593 273.974C454.991 272.281 453.744 270.893 452.123 270.114C450.503 269.335 448.641 269.227 446.941 269.813L414.799 281.103C413.105 281.706 411.718 282.953 410.939 284.573C410.159 286.194 410.051 288.056 410.638 289.756C411.243 291.45 412.493 292.837 414.115 293.614C415.738 294.391 417.602 294.496 419.302 293.905Z" fill="white"/>
<path opacity="0.8" d="M364.261 313.234L396.403 301.944C398.084 301.338 399.46 300.098 400.236 298.488C401.012 296.879 401.126 295.029 400.553 293.337C399.948 291.645 398.7 290.26 397.08 289.483C395.46 288.706 393.599 288.6 391.9 289.187L359.77 300.477C358.076 301.08 356.689 302.327 355.909 303.947C355.13 305.567 355.022 307.43 355.609 309.129C356.223 310.813 357.474 312.187 359.093 312.955C360.712 313.723 362.569 313.823 364.261 313.234Z" fill="white"/>
<path opacity="0.8" d="M309.254 332.562L341.396 321.272C343.073 320.662 344.444 319.42 345.216 317.811C345.988 316.202 346.098 314.355 345.524 312.665C344.918 310.974 343.67 309.589 342.05 308.812C340.43 308.035 338.569 307.928 336.871 308.516L304.706 319.76C303.015 320.365 301.63 321.613 300.853 323.233C300.076 324.853 299.97 326.714 300.557 328.412C301.161 330.115 302.417 331.508 304.047 332.286C305.678 333.064 307.551 333.163 309.254 332.562Z" fill="white"/>
<path opacity="0.8" d="M254.192 351.891L286.334 340.601C288.017 339.998 289.396 338.758 290.174 337.148C290.952 335.538 291.067 333.688 290.495 331.994C289.89 330.302 288.642 328.917 287.022 328.14C285.402 327.363 283.541 327.257 281.843 327.844L249.7 339.134C248.007 339.737 246.619 340.984 245.84 342.604C245.061 344.224 244.953 346.087 245.539 347.786C246.153 349.47 247.405 350.844 249.024 351.612C250.643 352.38 252.499 352.48 254.192 351.891Z" fill="white"/>
</g>
<path d="M416.441 268.046L445.041 258.003C447.47 257.15 448.747 254.489 447.894 252.06L441.935 235.089C441.082 232.66 438.421 231.382 435.992 232.235L407.393 242.279C404.964 243.132 403.686 245.792 404.539 248.221L410.499 265.192C411.352 267.621 414.012 268.899 416.441 268.046Z" fill="#161E2E"/>
<path opacity="0.3" d="M416.441 268.046L445.041 258.003C447.47 257.15 448.747 254.489 447.894 252.06L441.935 235.089C441.082 232.66 438.421 231.382 435.992 232.235L407.393 242.279C404.964 243.132 403.686 245.792 404.539 248.221L410.499 265.192C411.352 267.621 414.012 268.899 416.441 268.046Z" fill="black"/>
<path d="M247.859 285.617C243.733 285.618 239.757 284.07 236.719 281.279C233.68 278.488 231.8 274.658 231.451 270.547C231.102 266.436 232.309 262.344 234.833 259.08C237.358 255.817 241.016 253.62 245.083 252.926C249.15 252.231 253.329 253.088 256.794 255.329C260.259 257.569 262.756 261.028 263.791 265.022C264.827 269.016 264.325 273.253 262.385 276.894C260.445 280.536 257.209 283.316 253.316 284.685C251.563 285.302 249.718 285.618 247.859 285.617ZM247.859 253.782C246.113 253.785 244.38 254.081 242.731 254.657C238.869 256.015 235.704 258.851 233.932 262.542C232.16 266.232 231.927 270.476 233.283 274.338C234.223 277.006 235.878 279.363 238.067 281.154C240.257 282.944 242.896 284.099 245.697 284.49C248.498 284.882 251.353 284.497 253.949 283.376C256.546 282.255 258.785 280.442 260.42 278.135C262.056 275.828 263.027 273.115 263.225 270.294C263.424 267.473 262.843 264.651 261.547 262.138C260.25 259.624 258.288 257.515 255.874 256.042C253.46 254.568 250.687 253.786 247.859 253.782Z" fill="#161E2E"/>
<path opacity="0.8" d="M247.859 285.617C243.733 285.618 239.757 284.07 236.719 281.279C233.68 278.488 231.8 274.658 231.451 270.547C231.102 266.436 232.309 262.344 234.833 259.08C237.358 255.817 241.016 253.62 245.083 252.926C249.15 252.231 253.329 253.088 256.794 255.329C260.259 257.569 262.756 261.028 263.791 265.022C264.827 269.016 264.325 273.253 262.385 276.894C260.445 280.536 257.209 283.316 253.316 284.685C251.563 285.302 249.718 285.618 247.859 285.617ZM247.859 253.782C246.113 253.785 244.38 254.081 242.731 254.657C238.869 256.015 235.704 258.851 233.932 262.542C232.16 266.232 231.927 270.476 233.283 274.338C234.223 277.006 235.878 279.363 238.067 281.154C240.257 282.944 242.896 284.099 245.697 284.49C248.498 284.882 251.353 284.497 253.949 283.376C256.546 282.255 258.785 280.442 260.42 278.135C262.056 275.828 263.027 273.115 263.225 270.294C263.424 267.473 262.843 264.651 261.547 262.138C260.25 259.624 258.288 257.515 255.874 256.042C253.46 254.568 250.687 253.786 247.859 253.782Z" fill="white"/>
<path d="M209.293 282.729C210.341 285.695 212.245 288.284 214.763 290.17C217.282 292.055 220.303 293.151 223.444 293.32C226.586 293.49 229.707 292.725 232.413 291.121C235.12 289.518 237.291 287.149 238.652 284.312C240.013 281.476 240.503 278.3 240.06 275.186C239.618 272.071 238.262 269.157 236.164 266.813C234.067 264.468 231.321 262.798 228.275 262.013C225.229 261.227 222.018 261.362 219.048 262.4C217.071 263.092 215.249 264.166 213.688 265.563C212.127 266.96 210.857 268.651 209.951 270.54C209.044 272.428 208.52 274.477 208.407 276.569C208.294 278.661 208.595 280.754 209.293 282.729Z" fill="#161E2E"/>
<path opacity="0.8" d="M209.293 282.729C210.341 285.695 212.245 288.284 214.763 290.17C217.282 292.055 220.303 293.151 223.444 293.32C226.586 293.49 229.707 292.725 232.413 291.121C235.12 289.518 237.291 287.149 238.652 284.312C240.013 281.476 240.503 278.3 240.06 275.186C239.618 272.071 238.262 269.157 236.164 266.813C234.067 264.468 231.321 262.798 228.275 262.013C225.229 261.227 222.018 261.362 219.048 262.4C217.071 263.092 215.249 264.166 213.688 265.563C212.127 266.96 210.857 268.651 209.951 270.54C209.044 272.428 208.52 274.477 208.407 276.569C208.294 278.661 208.595 280.754 209.293 282.729Z" fill="white"/>
</svg>
