<svg width="30" height="26" viewBox="0 0 30 26" fill="none" xmlns="http://www.w3.org/2000/svg">
<path d="M21.2279 25.9189H14.0645V18.5576C14.0645 13.6992 18.0117 9.72412 22.836 9.72412H29.9995V17.0854C29.9995 21.9438 26.0523 25.9189 21.2279 25.9189Z" fill="#F6F6F6"/>
<path d="M18.8164 20.9133H7.26717C3.61234 20.9133 0.688477 17.9688 0.688477 14.2882V6.70608C0.688477 3.02544 3.61234 0.0809326 7.26717 0.0809326H18.8895C22.5444 0.0809326 25.4682 3.02544 25.4682 6.70608V14.3618C25.3951 17.9688 22.4713 20.9133 18.8164 20.9133Z" fill="#4B5563"/>
<path d="M19.548 16.7175C20.315 16.7175 20.9368 16.0913 20.9368 15.3188C20.9368 14.5464 20.315 13.9202 19.548 13.9202C18.781 13.9202 18.1592 14.5464 18.1592 15.3188C18.1592 16.0913 18.781 16.7175 19.548 16.7175Z" fill="white"/>
</svg>
