<svg xmlns="http://www.w3.org/2000/svg" viewBox="0 0 38.72 33.76"><defs><style>.cls-1{fill:#6e94e8;}.cls-2{fill:#034ea2;}.cls-3{fill:#fff;}</style></defs><g id="Layer_2" data-name="Layer 2"><g id="Layer_1-2" data-name="Layer 1"><path class="cls-1" d="M27.13,33.76H17.67V24.14A11.6,11.6,0,0,1,29.26,12.6h9.46v9.62A11.59,11.59,0,0,1,27.13,33.76Z"/><path class="cls-2" d="M24,27.22H8.69A8.64,8.64,0,0,1,0,18.57V8.66A8.64,8.64,0,0,1,8.69,0H24a8.64,8.64,0,0,1,8.69,8.66v10A8.76,8.76,0,0,1,24,27.22Z"/><path class="cls-3" d="M24.91,21.74a1.83,1.83,0,1,0-1.83-1.83A1.84,1.84,0,0,0,24.91,21.74Z"/></g></g></svg>