<svg width="24" height="24" viewBox="0 0 24 24" fill="none" xmlns="http://www.w3.org/2000/svg">
<path d="M5.9998 14.3998C5.9998 14.7181 6.12623 15.0233 6.35128 15.2484C6.57632 15.4734 6.88155 15.5998 7.1998 15.5998C7.51806 15.5998 7.82329 15.4734 8.04833 15.2484C8.27338 15.0233 8.3998 14.7181 8.3998 14.3998V7.69664L9.95141 9.24824C10.1777 9.46683 10.4808 9.58778 10.7955 9.58505C11.1101 9.58232 11.4111 9.45611 11.6336 9.23362C11.8561 9.01113 11.9823 8.71016 11.985 8.39552C11.9877 8.08089 11.8668 7.77776 11.6482 7.55144L8.0482 3.95144C7.82317 3.72648 7.518 3.6001 7.1998 3.6001C6.88161 3.6001 6.57644 3.72648 6.35141 3.95144L2.7514 7.55144C2.53282 7.77776 2.41186 8.08089 2.4146 8.39552C2.41733 8.71016 2.54353 9.01113 2.76602 9.23362C2.98851 9.45611 3.28949 9.58232 3.60412 9.58505C3.91876 9.58778 4.22188 9.46683 4.4482 9.24824L5.9998 7.69664V14.3998ZM17.9998 9.59984C17.9998 9.28158 17.8734 8.97636 17.6483 8.75131C17.4233 8.52627 17.1181 8.39984 16.7998 8.39984C16.4815 8.39984 16.1763 8.52627 15.9513 8.75131C15.7262 8.97636 15.5998 9.28158 15.5998 9.59984V16.303L14.0482 14.7514C13.8219 14.5329 13.5188 14.4119 13.2041 14.4146C12.8895 14.4174 12.5885 14.5436 12.366 14.7661C12.1435 14.9885 12.0173 15.2895 12.0146 15.6042C12.0119 15.9188 12.1328 16.2219 12.3514 16.4482L15.9514 20.0482C16.1764 20.2732 16.4816 20.3996 16.7998 20.3996C17.118 20.3996 17.4232 20.2732 17.6482 20.0482L21.2482 16.4482C21.4668 16.2219 21.5877 15.9188 21.585 15.6042C21.5823 15.2895 21.4561 14.9885 21.2336 14.7661C21.0111 14.5436 20.7101 14.4174 20.3955 14.4146C20.0808 14.4119 19.7777 14.5329 19.5514 14.7514L17.9998 16.303V9.59984Z" fill="#081A46"/>
</svg>
