<svg width="22" height="22" viewBox="0 0 22 22" fill="none" xmlns="http://www.w3.org/2000/svg">
<path d="M17.0003 20.3332H20.3337V18.3332C20.3337 16.4922 18.8413 14.9998 17.0003 14.9998M12.3337 5.6639C12.3337 7.87179 10.543 9.66129 8.33366 9.66129C6.12433 9.66129 4.33366 7.87179 4.33366 5.6639C4.33366 3.456 6.12433 1.6665 8.33366 1.6665C10.543 1.6665 12.3337 3.456 12.3337 5.6639ZM15.0003 20.321H1.66699C1.66699 19.3743 1.66699 18.4736 1.66699 17.658C1.66699 15.4489 3.45785 13.6587 5.66699 13.6587H11.0003C13.2095 13.6587 15.0003 15.4489 15.0003 17.658C15.0003 18.4736 15.0003 19.3743 15.0003 20.321ZM16.3337 12.3332C14.8609 12.3332 13.667 11.1393 13.667 9.6665C13.667 8.19374 14.8609 6.99984 16.3337 6.99984C17.8064 6.99984 19.0003 8.19374 19.0003 9.6665C19.0003 11.1393 17.8064 12.3332 16.3337 12.3332Z" stroke="#4845ED" stroke-width="1.5"/>
</svg>
