<svg width="49" height="17" viewBox="0 0 49 17" fill="none" xmlns="http://www.w3.org/2000/svg">
<ellipse cx="8.64626" cy="8.4736" rx="8.4612" ry="8.4277" fill="#EE312A"/>
<path fill-rule="evenodd" clip-rule="evenodd" d="M19.6388 5.94198C20.0778 6.01851 20.5857 6.20336 20.905 6.40116C21.6935 6.89214 22.2462 7.71866 22.4868 8.76418C22.6078 9.29636 22.6235 9.4506 22.6223 10.1453C22.6199 10.502 22.6102 10.8423 22.5993 10.9047L22.5788 11.0142L19.7476 11.0212L16.9189 11.0259V11.0872C16.9189 11.179 16.9999 11.4369 17.0858 11.6123C17.4183 12.2928 18.0738 12.7084 18.9978 12.8297C19.2397 12.8627 19.9036 12.8627 20.2289 12.8297C20.7538 12.7791 21.2666 12.6908 21.7769 12.5648C21.9281 12.5283 22.0575 12.5012 22.0636 12.5059C22.0708 12.5142 22.3187 14.3886 22.3187 14.4486C22.3187 14.4745 22.0236 14.5711 21.6633 14.6664C20.8046 14.8854 19.7113 14.9961 18.8914 14.9455C17.8271 14.8772 17.0132 14.6346 16.2948 14.1672C15.9659 13.9529 15.5196 13.522 15.2983 13.2029C14.7299 12.3799 14.4735 11.3839 14.5074 10.1347C14.5219 9.61779 14.5581 9.34935 14.673 8.91371C14.8811 8.12604 15.2451 7.5032 15.8159 6.96513C16.4399 6.37762 17.2514 6.01616 18.2068 5.90195C18.5092 5.86427 19.334 5.889 19.6388 5.94198ZM45.7007 5.90118C46.6331 5.99772 47.4156 6.37213 47.9574 6.97731C48.5923 7.68728 48.9491 8.70219 48.9975 9.93609C49.0084 10.2528 48.9818 10.7744 48.9431 10.9581L48.931 11.0252H46.0986C43.744 11.0252 43.265 11.0287 43.265 11.0534C43.265 11.1417 43.3666 11.449 43.4525 11.6268C43.7754 12.2826 44.397 12.6877 45.292 12.8172C45.9898 12.9208 47.187 12.8113 48.1969 12.5511C48.319 12.5205 48.4206 12.4957 48.4254 12.5004C48.4303 12.5075 48.6395 14.157 48.6721 14.4337C48.6806 14.4997 47.8994 14.7175 47.2838 14.8187C46.6924 14.9165 46.3018 14.9471 45.6826 14.9471C45.2666 14.9471 45.0247 14.9376 44.8118 14.9094C43.1514 14.6986 41.9904 13.9545 41.3663 12.7077C41.145 12.2626 41.0011 11.7787 40.9104 11.1676C40.8923 11.0405 40.8814 10.7367 40.8814 10.3093C40.8826 9.59465 40.9056 9.37919 41.0386 8.88233C41.2043 8.26185 41.5248 7.66373 41.9359 7.19749C42.5636 6.4887 43.5287 6.01539 44.5748 5.90118C44.8239 5.87528 45.4468 5.87292 45.7007 5.90118ZM28.9621 5.97419C29.2536 6.0154 29.6067 6.08133 29.7446 6.12372L29.8365 6.15197L29.6466 7.12921C29.5451 7.6661 29.4544 8.10998 29.4507 8.11469C29.4459 8.11822 29.4144 8.11233 29.3782 8.09938C29.0952 7.99342 28.3683 7.93455 28.0176 7.98871C27.6947 8.03933 27.2497 8.20652 27.1045 8.33486C27.067 8.36783 27.0646 8.55032 27.0646 11.5574V14.7422H25.7984H24.5334V10.8086V6.87843L24.7209 6.76422C25.4235 6.33212 26.2169 6.06838 27.1541 5.95417C27.5048 5.91296 28.5945 5.92356 28.9621 5.97419ZM33.7052 6.15618C33.7124 6.18091 33.7318 6.25979 33.7596 6.36458C33.7826 6.45524 33.8104 6.56709 33.8406 6.68012C34.2131 8.13184 34.7936 9.88026 35.379 11.319L35.5664 11.7759L35.6523 11.5757C36.2291 10.2276 36.8979 8.23074 37.3224 6.59182L37.453 6.08554L38.7192 6.07965L39.9867 6.07494L39.9298 6.27746C39.8391 6.60241 39.6807 7.12635 39.5235 7.62556C38.7325 10.1063 37.7747 12.4717 36.8072 14.3131L36.5883 14.7311L35.5797 14.737C34.7755 14.7417 34.5663 14.737 34.5481 14.7134C34.5142 14.6734 33.987 13.6444 33.8128 13.277C32.8852 11.319 31.908 8.71229 31.278 6.51411C31.2211 6.31395 31.1691 6.13381 31.1631 6.11262C31.1522 6.0773 31.2211 6.07494 32.4172 6.07494H33.6822L33.7052 6.15618ZM18.3992 7.61584C17.8066 7.70297 17.3869 8.01616 17.1196 8.57188C17.0277 8.76144 16.9189 9.12879 16.9189 9.24535V9.30893H18.6725H20.4237L20.4079 9.20414C20.3777 9.00516 20.2834 8.72377 20.1685 8.49535C20.0669 8.29755 20.0209 8.23515 19.8444 8.06443C19.6775 7.89724 19.6073 7.84661 19.4489 7.77361C19.3437 7.72298 19.1913 7.66765 19.1103 7.65116C18.9204 7.60642 18.5709 7.59112 18.3992 7.61584ZM44.2366 7.77393C44.447 7.67738 44.5546 7.64442 44.7651 7.61616C44.9598 7.58908 45.2851 7.60909 45.4907 7.65972C45.9648 7.77864 46.3058 8.06004 46.544 8.52864C46.6493 8.74175 46.7678 9.11616 46.7678 9.24567V9.30925H45.0142H43.263L43.2788 9.20446C43.3078 9.00548 43.4033 8.72409 43.5182 8.49567C43.6198 8.29787 43.6646 8.23547 43.8411 8.06474C44.0104 7.89756 44.0757 7.84928 44.2366 7.77393Z" fill="white"/>
<path fill-rule="evenodd" clip-rule="evenodd" d="M5.19237 4.30191C5.7624 5.8215 6.57569 7.8365 7.25464 9.4137C7.70244 10.4517 8.31483 11.7939 8.33298 11.7766C8.35355 11.7536 8.85097 10.6556 9.20315 9.84688C9.9523 8.13489 10.9011 5.79501 11.4627 4.28463L11.5934 3.93555H13.0469C13.8481 3.93555 14.5041 3.94016 14.5041 3.94707C14.5041 3.97472 14.1579 4.86528 13.905 5.49662C13.0493 7.61645 12.0727 9.78812 10.9653 12.0393C10.6349 12.7133 9.74898 14.4437 9.58801 14.7306L9.4682 14.946L8.3233 14.9518L7.17719 14.9564L6.88552 14.4034C5.10887 11.0174 3.34674 7.15562 2.22604 4.17057L2.1377 3.93555L3.59847 3.94016L5.05925 3.94707L5.19237 4.30191Z" fill="white"/>
</svg>
