<svg width="60" height="21" viewBox="0 0 60 21" fill="none" xmlns="http://www.w3.org/2000/svg">
<circle cx="10.2267" cy="10.2267" r="10.2267" fill="#EE312A"/>
<path fill-rule="evenodd" clip-rule="evenodd" d="M23.5123 7.15323C24.0429 7.24609 24.6568 7.4704 25.0427 7.71042C25.9958 8.3062 26.6638 9.30916 26.9547 10.5779C27.1008 11.2236 27.1198 11.4108 27.1184 12.2537C27.1155 12.6866 27.1038 13.0995 27.0906 13.1753L27.0658 13.3081L23.6439 13.3167L20.2249 13.3224L20.2249 13.3967C20.2249 13.5081 20.3228 13.821 20.4266 14.0339C20.8286 14.8597 21.6209 15.364 22.7376 15.5112C23.03 15.5512 23.8324 15.5512 24.2256 15.5112C24.86 15.4498 25.4798 15.3426 26.0966 15.1897C26.2794 15.1455 26.4358 15.1126 26.4431 15.1183C26.4518 15.1283 26.7515 17.4028 26.7515 17.4757C26.7515 17.5071 26.3948 17.6243 25.9592 17.74C24.9214 18.0057 23.6 18.14 22.609 18.0786C21.3227 17.9957 20.3389 17.7014 19.4707 17.1342C19.0731 16.8742 18.5337 16.3513 18.2662 15.9641C17.5792 14.9654 17.2693 13.7567 17.3102 12.2409C17.3278 11.6137 17.3716 11.2879 17.5105 10.7593C17.7619 9.80349 18.2019 9.0477 18.8918 8.39478C19.6461 7.68185 20.6269 7.24323 21.7816 7.10465C22.1471 7.05893 23.144 7.08893 23.5123 7.15323ZM55.0124 7.10465C56.1393 7.2218 57.0851 7.67613 57.7399 8.41049C58.5073 9.27201 58.9385 10.5036 58.997 12.0009C59.0102 12.3852 58.978 13.0181 58.9312 13.241L58.9166 13.3224L55.4933 13.3224C52.6473 13.3224 52.0685 13.3267 52.0685 13.3567C52.0685 13.4639 52.1912 13.8368 52.295 14.0525C52.6853 14.8483 53.4366 15.3398 54.5183 15.4969C55.3617 15.6226 56.8088 15.4898 58.0294 15.174C58.177 15.1369 58.2998 15.1069 58.3056 15.1126C58.3115 15.1212 58.5643 17.1228 58.6038 17.4585C58.614 17.5386 57.6698 17.8029 56.9258 17.9257C56.211 18.0443 55.7388 18.0815 54.9904 18.0815C54.4876 18.0815 54.1953 18.07 53.938 18.0357C51.9311 17.78 50.5278 16.8771 49.7736 15.364C49.5061 14.824 49.3321 14.2368 49.2225 13.4953C49.2006 13.341 49.1874 12.9724 49.1874 12.4538C49.1889 11.5865 49.2166 11.3251 49.3774 10.7222C49.5777 9.96922 49.965 9.24343 50.462 8.67766C51.2207 7.81758 52.3871 7.24323 53.6515 7.10465C53.9526 7.07322 54.7054 7.07036 55.0124 7.10465ZM34.7807 7.19323C35.133 7.24323 35.5598 7.32324 35.7264 7.37468L35.8375 7.40897L35.608 8.5948C35.4852 9.24629 35.3756 9.78492 35.3712 9.79063C35.3654 9.79492 35.3274 9.78778 35.2835 9.77206C34.9415 9.64348 34.063 9.57204 33.6391 9.63776C33.2488 9.6992 32.7109 9.90207 32.5355 10.0578C32.4902 10.0978 32.4873 10.3193 32.4873 13.9682L32.4873 17.8329L30.9568 17.8329L29.4279 17.8329L29.4279 13.0595L29.4279 8.29048L29.6544 8.1519C30.5037 7.62756 31.4626 7.30753 32.5954 7.16894C33.0193 7.11894 34.3363 7.1318 34.7807 7.19323ZM40.5136 7.41468C40.5223 7.44468 40.5457 7.54041 40.5793 7.66756C40.6071 7.77757 40.6407 7.9133 40.6773 8.05046C41.1275 9.81206 41.8291 11.9337 42.5366 13.6796L42.7631 14.2339L42.8669 13.9911C43.5642 12.3552 44.3725 9.93208 44.8856 7.94331L45.0434 7.32896L46.5739 7.32181L48.1057 7.3161L48.037 7.56184C47.9274 7.95616 47.7359 8.59194 47.5459 9.19772C46.5899 12.208 45.4323 15.0783 44.2629 17.3128L43.9983 17.82L42.7792 17.8272C41.8072 17.8329 41.5543 17.8272 41.5324 17.7986C41.4915 17.75 40.8541 16.5013 40.6437 16.0555C39.5225 13.6796 38.3414 10.5164 37.5799 7.84901C37.5112 7.60613 37.4483 7.38754 37.441 7.36182C37.4279 7.31896 37.5112 7.3161 38.9568 7.3161L40.4858 7.3161L40.5136 7.41468ZM22.0141 9.18486C21.2978 9.29058 20.7906 9.67062 20.4676 10.345C20.3565 10.575 20.2249 11.0208 20.2249 11.1622L20.2249 11.2393L22.3444 11.2393L24.461 11.2393L24.442 11.1122C24.4054 10.8707 24.2914 10.5293 24.1525 10.2521C24.0298 10.0121 23.9742 9.93636 23.7608 9.7292C23.5591 9.52632 23.4743 9.46489 23.2828 9.37631C23.1557 9.31487 22.9715 9.24772 22.8735 9.22772C22.6441 9.17343 22.2216 9.15485 22.0141 9.18486ZM53.2423 9.37631C53.4966 9.25915 53.6267 9.21915 53.881 9.18486C54.1164 9.152 54.5096 9.17629 54.7581 9.23772C55.3311 9.38202 55.7433 9.72348 56.0312 10.2921C56.1584 10.5507 56.3016 11.005 56.3016 11.1622L56.3016 11.2393L54.1821 11.2393L52.0656 11.2393L52.0846 11.1122C52.1197 10.8707 52.2351 10.5293 52.374 10.2521C52.4968 10.0121 52.5509 9.93636 52.7643 9.7292C52.9689 9.52632 53.0479 9.46774 53.2423 9.37631Z" fill="#374151"/>
<path d="M23.5123 7.15323L23.5985 6.66071L23.5983 6.66067L23.5123 7.15323ZM25.0427 7.71042L25.3078 7.28645L25.3068 7.28585L25.0427 7.71042ZM26.9547 10.5779L27.4423 10.4675L27.442 10.4661L26.9547 10.5779ZM27.1184 12.2537L27.6184 12.2571L27.6184 12.2546L27.1184 12.2537ZM27.0906 13.1753L27.5821 13.2672L27.5832 13.2608L27.0906 13.1753ZM27.0658 13.3081L27.067 13.8081L27.4811 13.8071L27.5572 13.4L27.0658 13.3081ZM23.6439 13.3167L23.6447 13.8167L23.6451 13.8167L23.6439 13.3167ZM20.2249 13.3224L20.2241 12.8224L19.7249 12.8232L19.7249 13.3224L20.2249 13.3224ZM20.2249 13.3967L20.7249 13.3967L20.2249 13.3967ZM20.4266 14.0339L20.8762 13.8151L20.8761 13.8148L20.4266 14.0339ZM22.7376 15.5112L22.8054 15.0158L22.8029 15.0155L22.7376 15.5112ZM24.2256 15.5112L24.1774 15.0135L24.175 15.0138L24.2256 15.5112ZM26.0966 15.1897L25.9789 14.7038L25.9764 14.7044L26.0966 15.1897ZM26.4431 15.1183L26.819 14.7886L26.788 14.7533L26.7511 14.7244L26.4431 15.1183ZM25.9592 17.74L26.0833 18.2244L26.0876 18.2232L25.9592 17.74ZM22.609 18.0786L22.5768 18.5776L22.578 18.5776L22.609 18.0786ZM19.4707 17.1342L19.197 17.5527L19.1972 17.5528L19.4707 17.1342ZM18.2662 15.9641L17.8543 16.2475L17.8548 16.2483L18.2662 15.9641ZM17.3102 12.2409L16.8104 12.2269L16.8104 12.2274L17.3102 12.2409ZM17.5105 10.7593L17.0269 10.6321L17.0269 10.6323L17.5105 10.7593ZM18.8918 8.39478L18.5484 8.03141L18.5481 8.03162L18.8918 8.39478ZM21.7816 7.10465L21.8412 7.60109L21.8437 7.60078L21.7816 7.10465ZM55.0124 7.10465L54.9569 7.60157L54.9607 7.60197L55.0124 7.10465ZM57.7399 8.41049L58.1133 8.07792L58.1131 8.07772L57.7399 8.41049ZM58.997 12.0009L59.4967 11.9837L59.4966 11.9813L58.997 12.0009ZM58.9312 13.241L58.4419 13.1383L58.4404 13.1454L58.4391 13.1526L58.9312 13.241ZM58.9166 13.3224L58.9166 13.8224L59.3349 13.8224L59.4088 13.4107L58.9166 13.3224ZM52.295 14.0525L51.8444 14.2692L51.8461 14.2726L52.295 14.0525ZM54.5183 15.4969L54.592 15.0024L54.5902 15.0021L54.5183 15.4969ZM58.0294 15.174L57.9073 14.6891L57.9041 14.69L58.0294 15.174ZM58.3056 15.1126L58.7187 14.8309L58.6907 14.7898L58.6551 14.755L58.3056 15.1126ZM58.6038 17.4585L58.1072 17.5169L58.1078 17.522L58.6038 17.4585ZM56.9258 17.9257L56.8443 17.4324L56.8439 17.4325L56.9258 17.9257ZM53.938 18.0357L54.0041 17.5401L54.0012 17.5398L53.938 18.0357ZM49.7736 15.364L49.3255 15.586L49.3261 15.5871L49.7736 15.364ZM49.2225 13.4953L48.7275 13.5656L48.7279 13.5684L49.2225 13.4953ZM49.1874 12.4538L48.6874 12.4529L48.6874 12.4538L49.1874 12.4538ZM49.3774 10.7222L49.8605 10.851L49.8606 10.8507L49.3774 10.7222ZM50.462 8.67766L50.0871 8.34692L50.0864 8.34768L50.462 8.67766ZM53.6515 7.10465L53.5996 6.60734L53.597 6.60763L53.6515 7.10465ZM34.7807 7.19323L34.851 6.69819L34.8492 6.69794L34.7807 7.19323ZM35.7264 7.37468L35.579 7.85244L35.579 7.85244L35.7264 7.37468ZM35.8375 7.40897L36.3284 7.50397L36.4137 7.06352L35.985 6.93121L35.8375 7.40897ZM35.608 8.5948L35.1171 8.4998L35.1167 8.5022L35.608 8.5948ZM35.3712 9.79063L35.6668 10.1939L35.7244 10.1517L35.7679 10.095L35.3712 9.79063ZM35.2835 9.77206L35.1076 10.2401L35.1148 10.2427L35.2835 9.77206ZM33.6391 9.63776L33.5625 9.14366L33.5613 9.14384L33.6391 9.63776ZM32.5355 10.0578L32.8664 10.4326L32.8675 10.4317L32.5355 10.0578ZM32.4873 17.8329L32.4873 18.3329L32.9873 18.3329L32.9873 17.8329L32.4873 17.8329ZM30.9568 17.8329L30.9568 17.3329L30.9568 17.8329ZM29.4279 17.8329L28.9279 17.8329L28.9279 18.3329L29.4279 18.3329L29.4279 17.8329ZM29.4279 13.0595L28.9279 13.0595L29.4279 13.0595ZM29.4279 8.29048L29.167 7.86395L28.9279 8.0102L28.9279 8.29048L29.4279 8.29048ZM29.6544 8.1519L29.9154 8.57843L29.9171 8.57734L29.6544 8.1519ZM32.5954 7.16894L32.5369 6.67238L32.5347 6.67264L32.5954 7.16894ZM40.5136 7.41468L40.0323 7.55027L40.0336 7.55497L40.5136 7.41468ZM40.5793 7.66756L41.0642 7.54517L41.0627 7.53976L40.5793 7.66756ZM40.6773 8.05046L41.1617 7.92665L41.1604 7.92173L40.6773 8.05046ZM42.5366 13.6796L42.0732 13.8674L42.0737 13.8688L42.5366 13.6796ZM42.7631 14.2339L42.3003 14.4231L42.7529 15.5304L43.2229 14.4304L42.7631 14.2339ZM42.8669 13.9911L43.3267 14.1875L43.3269 14.1871L42.8669 13.9911ZM44.8856 7.94331L45.3697 8.06821L45.3698 8.06774L44.8856 7.94331ZM45.0434 7.32896L45.0411 6.82896L44.6552 6.83076L44.5592 7.20452L45.0434 7.32896ZM46.5739 7.32181L46.572 6.82182L46.5715 6.82182L46.5739 7.32181ZM48.1057 7.3161L48.5873 7.45072L48.7654 6.81364L48.1039 6.8161L48.1057 7.3161ZM48.037 7.56184L47.5555 7.42722L47.5553 7.42791L48.037 7.56184ZM47.5459 9.19772L48.0224 9.34905L48.023 9.34737L47.5459 9.19772ZM44.2629 17.3128L43.8199 17.081L43.8196 17.0816L44.2629 17.3128ZM43.9983 17.82L44.0012 18.32L44.3023 18.3182L44.4416 18.0513L43.9983 17.82ZM42.7792 17.8272L42.7763 17.3272L42.7763 17.3272L42.7792 17.8272ZM41.5324 17.7986L41.9291 17.4942L41.9221 17.4851L41.9148 17.4764L41.5324 17.7986ZM40.6437 16.0555L40.1915 16.2689L40.1915 16.269L40.6437 16.0555ZM37.5799 7.84901L37.0988 7.9851L37.0991 7.98628L37.5799 7.84901ZM37.441 7.36182L37.9221 7.2251L37.919 7.21511L37.441 7.36182ZM38.9568 7.3161L38.9568 7.8161L38.9568 7.3161ZM40.4858 7.3161L40.9671 7.18052L40.8644 6.8161L40.4858 6.8161L40.4858 7.3161ZM22.0141 9.18486L21.9425 8.69L21.941 8.69022L22.0141 9.18486ZM20.4676 10.345L20.9178 10.5624L20.9185 10.561L20.4676 10.345ZM20.2249 11.2393L19.7249 11.2393L19.7249 11.7393L20.2249 11.7393L20.2249 11.2393ZM22.3444 11.2393L22.3444 10.7393L22.3444 11.2393ZM24.461 11.2393L24.461 11.7393L25.0412 11.7393L24.9555 11.1654L24.461 11.2393ZM24.442 11.1122L24.9365 11.0383L24.9363 11.0374L24.442 11.1122ZM24.1525 10.2521L24.5996 10.0281L24.5977 10.0244L24.1525 10.2521ZM23.7608 9.7292L23.4062 10.0818L23.4125 10.088L23.7608 9.7292ZM23.2828 9.37631L23.0653 9.82659L23.0729 9.8301L23.2828 9.37631ZM22.8735 9.22772L22.7584 9.71429L22.7659 9.71606L22.7735 9.71761L22.8735 9.22772ZM53.2423 9.37631L53.0331 8.92215L53.0295 8.92385L53.2423 9.37631ZM53.881 9.18486L53.9478 9.68038L53.9502 9.68005L53.881 9.18486ZM54.7581 9.23772L54.8802 8.75285L54.8781 8.75233L54.7581 9.23772ZM56.0312 10.2921L56.4799 10.0714L56.4773 10.0662L56.0312 10.2921ZM56.3016 11.1622L55.8016 11.1622L56.3016 11.1622ZM56.3016 11.2393L56.3016 11.7393L56.8016 11.7393L56.8016 11.2393L56.3016 11.2393ZM54.1821 11.2393L54.1821 10.7393L54.1821 11.2393ZM52.0656 11.2393L51.5711 11.1654L51.4853 11.7393L52.0656 11.7393L52.0656 11.2393ZM52.0846 11.1122L52.5791 11.1861L52.5794 11.1841L52.0846 11.1122ZM52.374 10.2521L51.9288 10.0244L51.927 10.0281L52.374 10.2521ZM52.7643 9.7292L53.1126 10.088L53.1163 10.0843L52.7643 9.7292ZM23.4261 7.64574C23.9043 7.72943 24.4557 7.9341 24.7787 8.135L25.3068 7.28585C24.858 7.0067 24.1815 6.76275 23.5985 6.66071L23.4261 7.64574ZM24.7777 8.1344C25.6 8.64841 26.201 9.5279 26.4673 10.6896L27.442 10.4661C27.1266 9.09041 26.3916 7.96398 25.3078 7.28645L24.7777 8.1344ZM26.467 10.6882C26.6031 11.2897 26.6198 11.4384 26.6184 12.2529L27.6184 12.2546C27.6199 11.3832 27.5985 11.1576 27.4423 10.4675L26.467 10.6882ZM26.6184 12.2504C26.617 12.4638 26.6134 12.6714 26.6086 12.8337C26.6061 12.915 26.6035 12.9829 26.6008 13.0336C26.5975 13.0961 26.5953 13.1053 26.598 13.0897L27.5832 13.2608C27.5975 13.1787 27.6037 13.0114 27.6081 12.8632C27.6132 12.6919 27.6169 12.4766 27.6184 12.2571L26.6184 12.2504ZM26.5991 13.0833L26.5743 13.2162L27.5572 13.4L27.5821 13.2672L26.5991 13.0833ZM27.0645 12.8081L23.6426 12.8167L23.6451 13.8167L27.067 13.8081L27.0645 12.8081ZM23.643 12.8167L20.2241 12.8224L20.2257 13.8224L23.6447 13.8167L23.643 12.8167ZM19.7249 13.3224L19.7249 13.3967L20.7249 13.3967L20.7249 13.3224L19.7249 13.3224ZM19.7249 13.3967C19.7249 13.5388 19.7738 13.7128 19.81 13.8277C19.8532 13.9646 19.9123 14.1199 19.9772 14.253L20.8761 13.8148C20.8372 13.7351 20.7954 13.6274 20.7637 13.5269C20.7481 13.4774 20.7367 13.4353 20.7298 13.4043C20.7209 13.3646 20.7249 13.3678 20.7249 13.3967L19.7249 13.3967ZM19.9771 14.2527C20.4701 15.2657 21.4334 15.8437 22.6723 16.0069L22.8029 15.0155C21.8083 14.8844 21.1871 14.4538 20.8762 13.8151L19.9771 14.2527ZM22.6698 16.0066C23.0121 16.0534 23.856 16.0514 24.2762 16.0086L24.175 15.0138C23.8088 15.051 23.0478 15.049 22.8054 15.0158L22.6698 16.0066ZM24.2738 16.0089C24.933 15.945 25.5768 15.8337 26.2169 15.6751L25.9764 14.7044C25.3828 14.8515 24.7871 14.9545 24.1774 15.0135L24.2738 16.0089ZM26.2144 15.6757C26.3024 15.6544 26.3814 15.6364 26.4372 15.6249C26.466 15.6189 26.4833 15.6157 26.4906 15.6145C26.4957 15.6137 26.4883 15.6151 26.4745 15.6162C26.4691 15.6167 26.4483 15.6184 26.4204 15.6173C26.407 15.6168 26.3786 15.6152 26.3431 15.608C26.3248 15.6043 26.2975 15.5978 26.2657 15.5857C26.2354 15.5743 26.1867 15.5525 26.1351 15.5122L26.7511 14.7244C26.6575 14.6513 26.5639 14.6324 26.5408 14.6278C26.5043 14.6204 26.4746 14.6187 26.4596 14.6181C26.4285 14.6168 26.4034 14.6187 26.3926 14.6196C26.3682 14.6216 26.3459 14.625 26.3325 14.6271C26.3027 14.6319 26.2681 14.6386 26.2341 14.6457C26.1641 14.6602 26.0736 14.6808 25.9789 14.7038L26.2144 15.6757ZM26.0671 15.448C26.006 15.3783 25.9802 15.3074 25.9789 15.304C25.9708 15.2837 25.9658 15.2674 25.9637 15.2601C25.9591 15.2446 25.9564 15.2325 25.9556 15.2289C25.9545 15.2238 25.9537 15.2198 25.9533 15.218C25.9529 15.2159 25.9527 15.2145 25.9526 15.2139C25.9523 15.2127 25.9527 15.2148 25.9539 15.2224C25.9561 15.2365 25.9594 15.259 25.9639 15.2901C25.9726 15.3517 25.9849 15.4404 25.9995 15.548C26.0287 15.7627 26.0669 16.0495 26.1048 16.3385C26.1428 16.6276 26.1804 16.9181 26.2085 17.1406C26.2225 17.252 26.2341 17.3455 26.2421 17.4128C26.2461 17.4467 26.249 17.4725 26.2509 17.4902C26.2545 17.5241 26.2515 17.5044 26.2515 17.4757L27.2515 17.4757C27.2515 17.4379 27.2461 17.3919 27.2453 17.3845C27.2428 17.3608 27.2393 17.3303 27.2351 17.295C27.2267 17.2239 27.2148 17.1276 27.2006 17.0154C27.1722 16.7906 27.1344 16.4983 27.0963 16.2083C27.0582 15.9184 27.0199 15.6301 26.9904 15.4133C26.9757 15.3051 26.9631 15.2138 26.9538 15.1488C26.9492 15.1167 26.9452 15.0892 26.942 15.0689C26.9406 15.0592 26.9388 15.048 26.9369 15.0375C26.9361 15.0332 26.9343 15.0233 26.9318 15.0119C26.9307 15.0071 26.9278 14.994 26.923 14.9778C26.9207 14.9702 26.9157 14.9535 26.9075 14.9331C26.906 14.9294 26.8802 14.8584 26.819 14.7886L26.0671 15.448ZM26.2515 17.4757C26.2515 17.358 26.2927 17.27 26.3217 17.2217C26.3511 17.1726 26.3827 17.1395 26.4009 17.1221C26.4365 17.0879 26.4679 17.0687 26.4758 17.0639C26.4955 17.052 26.5055 17.0486 26.4923 17.0543C26.4712 17.0633 26.4285 17.0794 26.3612 17.1017C26.2301 17.1452 26.0424 17.2006 25.8309 17.2568L26.0876 18.2232C26.3117 18.1637 26.5201 18.1026 26.6763 18.0508C26.7526 18.0254 26.8262 17.9991 26.8856 17.9737C26.9127 17.9621 26.9539 17.9436 26.9948 17.9187C27.0133 17.9075 27.0528 17.8825 27.0939 17.8431C27.1113 17.8263 27.2515 17.6971 27.2515 17.4757L26.2515 17.4757ZM25.8352 17.2556C24.8436 17.5095 23.5746 17.6375 22.6399 17.5796L22.578 18.5776C23.6255 18.6426 24.9992 18.502 26.0833 18.2244L25.8352 17.2556ZM22.6411 17.5796C21.4193 17.5009 20.5241 17.2252 19.7441 16.7156L19.1972 17.5528C20.1537 18.1777 21.226 18.4905 22.5768 18.5776L22.6411 17.5796ZM19.7443 16.7158C19.3997 16.4904 18.9075 16.0127 18.6776 15.6799L17.8548 16.2483C18.1599 16.6899 18.7464 17.258 19.197 17.5527L19.7443 16.7158ZM18.6781 15.6807C18.0648 14.7891 17.7713 13.6915 17.8101 12.2544L16.8104 12.2274C16.7674 13.822 17.0936 15.1417 17.8543 16.2475L18.6781 15.6807ZM17.81 12.2549C17.8267 11.6602 17.8663 11.3729 17.9941 10.8863L17.0269 10.6323C16.877 11.2029 16.8289 11.5672 16.8104 12.2269L17.81 12.2549ZM17.994 10.8865C18.223 10.0163 18.6166 9.34361 19.2355 8.75794L18.5481 8.03162C17.7871 8.75179 17.3009 9.59071 17.0269 10.6321L17.994 10.8865ZM19.2353 8.75814C19.9025 8.12744 20.7798 7.72847 21.8412 7.60109L21.7221 6.60821C20.474 6.758 19.3896 7.23626 18.5484 8.03141L19.2353 8.75814ZM21.8437 7.60078C21.9849 7.58312 22.2917 7.57769 22.6315 7.58748C22.97 7.59723 23.2803 7.62029 23.4264 7.64578L23.5983 6.66067C23.376 6.62186 23.0037 6.59778 22.6603 6.58789C22.3182 6.57804 21.9439 6.58046 21.7196 6.60852L21.8437 7.60078ZM54.9607 7.60197C55.983 7.70825 56.8069 8.11541 57.3668 8.74327L58.1131 8.07772C57.3633 7.23686 56.2957 6.73536 55.0641 6.60733L54.9607 7.60197ZM57.3666 8.74307C58.0364 9.495 58.4421 10.6038 58.4974 12.0204L59.4966 11.9813C59.435 10.4033 58.9783 9.04902 58.1133 8.07792L57.3666 8.74307ZM58.4973 12.018C58.5032 12.1913 58.499 12.4304 58.4873 12.6553C58.475 12.8902 58.4564 13.069 58.4419 13.1383L59.4206 13.3437C59.4528 13.1901 59.4737 12.9409 59.4859 12.7076C59.4986 12.4642 59.5039 12.1947 59.4967 11.9837L58.4973 12.018ZM58.4391 13.1526L58.4245 13.2341L59.4088 13.4107L59.4234 13.3293L58.4391 13.1526ZM58.9166 12.8224L55.4933 12.8224L55.4933 13.8224L58.9166 13.8224L58.9166 12.8224ZM55.4933 12.8224C54.0712 12.8224 53.2122 12.8235 52.7088 12.8283C52.4586 12.8307 52.289 12.8341 52.18 12.8392C52.1283 12.8417 52.0753 12.8451 52.0297 12.8514C52.0113 12.854 51.9656 12.8606 51.9145 12.878C51.8919 12.8857 51.8327 12.907 51.7699 12.9542C51.7095 12.9996 51.5685 13.1307 51.5685 13.3567L52.5685 13.3567C52.5685 13.5808 52.4286 13.7101 52.3705 13.7537C52.3101 13.7991 52.2545 13.8187 52.2368 13.8247C52.2127 13.8329 52.194 13.837 52.1858 13.8387C52.1765 13.8406 52.1701 13.8415 52.1681 13.8418C52.1653 13.8422 52.1797 13.8403 52.2267 13.8381C52.3152 13.834 52.4681 13.8307 52.7184 13.8283C53.2159 13.8235 54.0694 13.8224 55.4933 13.8224L55.4933 12.8224ZM51.5685 13.3567C51.5685 13.4497 51.5903 13.545 51.6037 13.5997C51.6207 13.6686 51.6431 13.7445 51.6676 13.8192C51.7158 13.9666 51.7802 14.1357 51.8445 14.2692L52.7456 13.8357C52.7061 13.7536 52.6572 13.6283 52.6181 13.5085C52.5989 13.4497 52.5841 13.3988 52.5748 13.3609C52.5701 13.3419 52.5678 13.33 52.5668 13.3244C52.5652 13.3151 52.5685 13.3292 52.5685 13.3567L51.5685 13.3567ZM51.8461 14.2726C52.3256 15.2504 53.2426 15.8168 54.4464 15.9917L54.5902 15.0021C53.6306 14.8627 53.045 14.4462 52.7439 13.8323L51.8461 14.2726ZM54.4446 15.9915C55.3781 16.1306 56.8973 15.9833 58.1546 15.6581L57.9041 14.69C56.7203 14.9962 55.3453 15.1147 54.592 15.0024L54.4446 15.9915ZM58.1514 15.6589C58.2257 15.6402 58.2884 15.6247 58.3323 15.6146C58.3429 15.6122 58.3515 15.6103 58.3581 15.6089C58.365 15.6074 58.3679 15.6069 58.3678 15.6069C58.3677 15.6069 58.3655 15.6073 58.3617 15.6079C58.3585 15.6083 58.3503 15.6095 58.3391 15.6104C58.3313 15.611 58.3045 15.6132 58.2694 15.6108C58.2522 15.6096 58.2175 15.6065 58.175 15.595C58.153 15.5891 58.1219 15.5792 58.0867 15.5621C58.0521 15.5453 58.0039 15.5169 57.9561 15.4702L58.6551 14.755C58.5653 14.6672 58.4683 14.6384 58.4345 14.6293C58.3912 14.6176 58.3554 14.6143 58.337 14.6131C58.2993 14.6105 58.2691 14.6128 58.2571 14.6138C58.2295 14.616 58.2056 14.6201 58.1937 14.6222C58.1662 14.6271 58.1357 14.6337 58.109 14.6399C58.0532 14.6527 57.9807 14.6707 57.9073 14.6891L58.1514 15.6589ZM57.8926 15.3943C57.8753 15.3672 57.8516 15.3221 57.8441 15.305C57.8396 15.2937 57.8325 15.2743 57.8298 15.2663C57.8247 15.2503 57.8215 15.2375 57.8202 15.2322C57.8173 15.2204 57.8155 15.2114 57.8151 15.2089C57.8143 15.2051 57.8139 15.2023 57.8136 15.2011C57.8134 15.1997 57.8133 15.1988 57.8132 15.1985C57.8132 15.1983 57.8136 15.2008 57.8146 15.2077C57.8164 15.2206 57.8192 15.2409 57.8229 15.2687C57.8303 15.3237 57.8407 15.4029 57.8533 15.4998C57.8783 15.6932 57.9117 15.9542 57.9461 16.2258C58.0151 16.77 58.0878 17.3518 58.1072 17.5169L59.1004 17.4002C59.0803 17.2295 59.0069 16.6426 58.9381 16.1C58.9037 15.8281 58.8702 15.5661 58.845 15.3713C58.8324 15.2741 58.8218 15.1929 58.814 15.1355C58.8102 15.107 58.8069 15.0831 58.8044 15.0656C58.8032 15.0573 58.8019 15.0481 58.8005 15.0397C58.8 15.0362 58.7987 15.0287 58.7971 15.02C58.7964 15.0164 58.7945 15.0065 58.7914 14.9941C58.79 14.9885 58.7868 14.9755 58.7816 14.9593C58.7789 14.9512 58.7718 14.9317 58.7672 14.9204C58.7596 14.9031 58.736 14.858 58.7187 14.8309L57.8926 15.3943ZM58.1078 17.522C58.0765 17.2767 58.2326 17.1305 58.2461 17.1173C58.2833 17.0811 58.3148 17.0637 58.3159 17.0631C58.3234 17.0588 58.3129 17.0653 58.2711 17.0813C58.1938 17.111 58.0708 17.1505 57.9133 17.1945C57.601 17.2816 57.1966 17.3742 56.8443 17.4324L57.0072 18.419C57.3989 18.3544 57.8387 18.2534 58.182 18.1577C58.3523 18.1102 58.5099 18.0609 58.63 18.0147C58.6869 17.9928 58.7544 17.9645 58.8145 17.93C58.8418 17.9142 58.8932 17.8829 58.9436 17.8339C58.9702 17.808 59.1324 17.6504 59.0998 17.3951L58.1078 17.522ZM56.8439 17.4325C56.1577 17.5463 55.713 17.5815 54.9904 17.5815L54.9904 18.5815C55.7647 18.5815 56.2643 18.5423 57.0076 18.419L56.8439 17.4325ZM54.9904 17.5815C54.491 17.5815 54.2265 17.5698 54.0041 17.5401L53.8719 18.5314C54.164 18.5703 54.4842 18.5815 54.9904 18.5815L54.9904 17.5815ZM54.0012 17.5398C52.1233 17.3005 50.8857 16.4743 50.221 15.141L49.3261 15.5871C50.1699 17.2798 51.7388 18.2596 53.8748 18.5317L54.0012 17.5398ZM50.2216 15.1421C49.9819 14.6583 49.8208 14.1234 49.7171 13.4222L48.7279 13.5684C48.8435 14.3502 49.0302 14.9897 49.3255 15.586L50.2216 15.1421ZM49.7175 13.4249C49.7014 13.3118 49.6874 12.9794 49.6874 12.4538L48.6874 12.4538C48.6874 12.9653 48.6997 13.3702 48.7275 13.5656L49.7175 13.4249ZM49.6874 12.4546C49.6888 11.6143 49.7144 11.3989 49.8605 10.851L48.8943 10.5933C48.7189 11.2512 48.6889 11.5587 48.6874 12.4529L49.6874 12.4546ZM49.8606 10.8507C50.0414 10.171 50.3925 9.51445 50.8377 9.00764L50.0864 8.34768C49.5376 8.97241 49.114 9.76745 48.8942 10.5936L49.8606 10.8507ZM50.837 9.00841C51.5038 8.25247 52.5504 7.72833 53.706 7.60167L53.597 6.60763C52.2238 6.75814 50.9375 7.38269 50.0871 8.34692L50.837 9.00841ZM53.7034 7.60195C53.9722 7.57389 54.6888 7.57162 54.9569 7.60156L55.0679 6.60774C54.722 6.5691 53.933 6.57254 53.5996 6.60735L53.7034 7.60195ZM34.7104 7.68827C35.062 7.73817 35.4539 7.81382 35.579 7.85244L35.8739 6.89692C35.6657 6.83266 35.204 6.7483 34.851 6.69819L34.7104 7.68827ZM35.579 7.85244L35.6901 7.88673L35.985 6.93121L35.8739 6.89692L35.579 7.85244ZM35.3466 7.31397L35.1171 8.4998L36.0989 8.6898L36.3284 7.50397L35.3466 7.31397ZM35.1167 8.5022C35.0556 8.82611 34.9979 9.12186 34.9549 9.33695C34.9334 9.44461 34.9158 9.53135 34.9033 9.59098C34.8971 9.62106 34.8924 9.64281 34.8894 9.65643C34.8878 9.66369 34.8872 9.66605 34.8874 9.66533C34.8875 9.66493 34.8878 9.66378 34.8882 9.66209C34.8886 9.66058 34.8895 9.65733 34.8907 9.65302C34.8915 9.64995 34.8943 9.64011 34.8987 9.62748C34.9007 9.62147 34.9052 9.60874 34.912 9.59297C34.9143 9.58767 34.9343 9.53875 34.9746 9.48625L35.7679 10.095C35.8083 10.0424 35.8284 9.99336 35.8307 9.98784C35.8376 9.97185 35.8422 9.95883 35.8444 9.95247C35.849 9.93915 35.852 9.92836 35.8532 9.92408C35.856 9.91419 35.8581 9.90564 35.8591 9.90151C35.8614 9.89195 35.8638 9.88152 35.8659 9.87223C35.8702 9.85275 35.8758 9.8264 35.8823 9.795C35.8955 9.73167 35.9137 9.64197 35.9356 9.53281C35.9792 9.31429 36.0376 9.01498 36.0994 8.6874L35.1167 8.5022ZM35.0756 9.38738C35.1374 9.3421 35.1957 9.32131 35.2288 9.31158C35.2644 9.30113 35.2942 9.29675 35.3132 9.29467C35.3504 9.29061 35.3792 9.29191 35.392 9.2927C35.4193 9.29438 35.4378 9.29816 35.4418 9.29899C35.4531 9.3013 35.4557 9.30263 35.4522 9.30137L35.1148 10.2427C35.1552 10.2572 35.1987 10.27 35.2414 10.2787C35.2612 10.2827 35.293 10.2885 35.3305 10.2908C35.3483 10.2919 35.3814 10.2932 35.4219 10.2887C35.4434 10.2864 35.5556 10.2755 35.6668 10.1939L35.0756 9.38738ZM35.4595 9.30404C35.2196 9.21385 34.8558 9.16005 34.5326 9.1337C34.203 9.10682 33.8319 9.1019 33.5625 9.14366L33.7157 10.1319C33.8702 10.1079 34.1503 10.1058 34.4514 10.1304C34.759 10.1555 35.0055 10.2017 35.1076 10.2401L35.4595 9.30404ZM33.5613 9.14384C33.3246 9.18111 33.0586 9.25793 32.8293 9.34495C32.6185 9.42494 32.3648 9.54075 32.2035 9.6839L32.8675 10.4317C32.8656 10.4334 32.8895 10.4139 32.9563 10.3795C33.017 10.3481 33.095 10.3137 33.1841 10.2799C33.3652 10.2112 33.5633 10.1558 33.7168 10.1317L33.5613 9.14384ZM32.2046 9.68297C32.0955 9.77928 32.0542 9.89385 32.0365 9.962C32.0207 10.0228 32.0143 10.0847 32.0104 10.1328C32.0022 10.2354 31.9976 10.3971 31.9944 10.6535C31.988 11.1739 31.9873 12.1456 31.9873 13.9682L32.9873 13.9682C32.9873 12.1419 32.988 11.1784 32.9943 10.6658C32.9976 10.4058 33.0021 10.2765 33.0073 10.2123C33.0101 10.177 33.0113 10.1865 33.0044 10.2133C32.9955 10.2474 32.9642 10.3463 32.8664 10.4326L32.2046 9.68297ZM31.9873 13.9682L31.9873 17.8329L32.9873 17.8329L32.9873 13.9682L31.9873 13.9682ZM32.4873 17.3329L30.9568 17.3329L30.9568 18.3329L32.4873 18.3329L32.4873 17.3329ZM30.9568 17.3329L29.4279 17.3329L29.4279 18.3329L30.9568 18.3329L30.9568 17.3329ZM29.9279 17.8329L29.9279 13.0595L28.9279 13.0595L28.9279 17.8329L29.9279 17.8329ZM29.9279 13.0595L29.9279 8.29048L28.9279 8.29048L28.9279 13.0595L29.9279 13.0595ZM29.6888 8.71702L29.9153 8.57843L29.3935 7.72536L29.167 7.86395L29.6888 8.71702ZM29.9171 8.57734C30.6966 8.09611 31.5845 7.79635 32.6561 7.66524L32.5347 6.67264C31.3407 6.81871 30.3109 7.15901 29.3918 7.72645L29.9171 8.57734ZM32.654 7.6655C32.8303 7.6447 33.236 7.63461 33.6751 7.63927C34.1136 7.64392 34.525 7.66264 34.7122 7.68852L34.8492 6.69794C34.592 6.66239 34.1228 6.64396 33.6857 6.63932C33.2492 6.63469 32.7844 6.64318 32.5369 6.67238L32.654 7.6655ZM40.0336 7.55497C40.0335 7.55444 40.0349 7.55939 40.0389 7.57492C40.0426 7.58885 40.0471 7.60644 40.0527 7.62859C40.0639 7.67215 40.0786 7.72963 40.096 7.79537L41.0627 7.53976C41.0465 7.47834 41.0327 7.42438 41.0215 7.38079C41.0119 7.34306 41.0009 7.29993 40.9935 7.27439L40.0336 7.55497ZM40.0946 7.78995C40.1216 7.89713 40.1565 8.03787 40.1941 8.17918L41.1604 7.92173C41.125 7.78873 41.0926 7.65802 41.0641 7.54518L40.0946 7.78995ZM40.1928 8.17426C40.6489 9.95861 41.3577 12.1016 42.0732 13.8674L43 13.4918C42.3006 11.7658 41.6061 9.66552 41.1617 7.92665L40.1928 8.17426ZM42.0737 13.8688L42.3003 14.4231L43.226 14.0448L42.9994 13.4904L42.0737 13.8688ZM43.2229 14.4304L43.3267 14.1875L42.4071 13.7946L42.3034 14.0375L43.2229 14.4304ZM43.3269 14.1871C44.0354 12.5248 44.8514 10.0775 45.3697 8.06821L44.4014 7.8184C43.8937 9.78663 43.093 12.1855 42.407 13.795L43.3269 14.1871ZM45.3698 8.06774L45.5277 7.4534L44.5592 7.20452L44.4013 7.81887L45.3698 8.06774ZM45.0458 7.82895L46.5762 7.82181L46.5715 6.82182L45.0411 6.82896L45.0458 7.82895ZM46.5757 7.82181L48.1076 7.8161L48.1039 6.8161L46.572 6.82182L46.5757 7.82181ZM47.6242 7.18148L47.5555 7.42722L48.5186 7.69646L48.5873 7.45072L47.6242 7.18148ZM47.5553 7.42791C47.4478 7.81455 47.2582 8.44437 47.0688 9.04806L48.023 9.34737C48.2137 8.73951 48.407 8.09778 48.5188 7.69577L47.5553 7.42791ZM47.0693 9.04638C46.1199 12.0361 44.9726 14.8782 43.8199 17.081L44.7059 17.5446C45.8919 15.2784 47.06 12.3799 48.0224 9.34905L47.0693 9.04638ZM43.8196 17.0816L43.555 17.5888L44.4416 18.0513L44.7062 17.5441L43.8196 17.0816ZM43.9954 17.32L42.7763 17.3272L42.7822 18.3271L44.0012 18.32L43.9954 17.32ZM42.7763 17.3272C42.2889 17.33 41.99 17.3299 41.8109 17.3259C41.7192 17.3238 41.6727 17.3208 41.6526 17.3187C41.6409 17.3175 41.6546 17.3181 41.68 17.3248C41.6928 17.3282 41.7224 17.3366 41.7589 17.3545C41.7909 17.3701 41.8647 17.4103 41.9291 17.4942L41.1357 18.103C41.2028 18.1904 41.2812 18.234 41.3197 18.2529C41.3628 18.2739 41.4011 18.2854 41.4248 18.2917C41.472 18.3041 41.5166 18.3099 41.5469 18.3131C41.6108 18.3199 41.6923 18.3234 41.7881 18.3256C41.984 18.3301 42.2975 18.33 42.7822 18.3271L42.7763 17.3272ZM41.9148 17.4764C41.9457 17.5131 41.9634 17.5472 41.9497 17.5236C41.946 17.5174 41.9395 17.5058 41.9295 17.4876C41.9098 17.4517 41.8823 17.4002 41.8484 17.3358C41.7809 17.2074 41.6919 17.0348 41.597 16.8488C41.4064 16.4751 41.1975 16.0574 41.0958 15.8421L40.1915 16.269C40.3003 16.4994 40.5153 16.929 40.7062 17.3032C40.8021 17.4912 40.8932 17.6677 40.9633 17.8011C40.9982 17.8675 41.0288 17.925 41.0527 17.9685C41.0644 17.9899 41.076 18.0105 41.0863 18.0282C41.0864 18.0284 41.114 18.078 41.15 18.1207L41.9148 17.4764ZM41.0958 15.8422C39.9869 13.4921 38.8152 10.3545 38.0607 7.71174L37.0991 7.98628C37.8677 10.6784 39.0581 13.8671 40.1915 16.2689L41.0958 15.8422ZM38.061 7.71292C37.9925 7.47079 37.9283 7.24739 37.922 7.22513L36.9601 7.4985C36.9684 7.52768 37.0299 7.74146 37.0988 7.9851L38.061 7.71292ZM37.919 7.21511C37.9275 7.2426 37.9467 7.31291 37.9375 7.40461C37.9268 7.51019 37.882 7.60888 37.8112 7.68593C37.7492 7.7534 37.6838 7.78626 37.6504 7.8007C37.6152 7.81589 37.5875 7.82249 37.5767 7.82486C37.5516 7.83039 37.5583 7.82596 37.6671 7.82266C37.8573 7.81688 38.2294 7.8161 38.9568 7.8161L38.9568 6.8161C38.2386 6.8161 37.8463 6.81675 37.6367 6.82312C37.5456 6.82588 37.4435 6.83021 37.3614 6.84832C37.3391 6.85322 37.1924 6.8814 37.075 7.00916C37.0003 7.0904 36.9537 7.19355 36.9425 7.30387C36.9328 7.40033 36.953 7.47568 36.963 7.50853L37.919 7.21511ZM38.9568 7.8161L40.4858 7.8161L40.4858 6.8161L38.9568 6.8161L38.9568 7.8161ZM40.0045 7.45168L40.0323 7.55026L40.9948 7.2791L40.9671 7.18052L40.0045 7.45168ZM21.941 8.69022C21.0543 8.82111 20.4088 9.31028 20.0166 10.129L20.9185 10.561C21.1724 10.031 21.5413 9.76005 22.0871 9.6795L21.941 8.69022ZM20.0173 10.1275C19.9454 10.2765 19.8758 10.4738 19.8252 10.6448C19.7992 10.7326 19.7758 10.8213 19.7584 10.9018C19.7433 10.9719 19.7249 11.0703 19.7249 11.1622L20.7249 11.1622C20.7249 11.1834 20.7229 11.173 20.736 11.1125C20.7467 11.0625 20.7632 10.9989 20.784 10.9288C20.8269 10.784 20.8786 10.6435 20.9178 10.5624L20.0173 10.1275ZM19.7249 11.1622L19.7249 11.2393L20.7249 11.2393L20.7249 11.1622L19.7249 11.1622ZM20.2249 11.7393L22.3444 11.7393L22.3444 10.7393L20.2249 10.7393L20.2249 11.7393ZM22.3444 11.7393L24.461 11.7393L24.461 10.7393L22.3444 10.7393L22.3444 11.7393ZM24.9555 11.1654L24.9365 11.0383L23.9475 11.1861L23.9665 11.3132L24.9555 11.1654ZM24.9363 11.0374C24.8904 10.7335 24.7567 10.3417 24.5996 10.0281L23.7055 10.4761C23.8262 10.7169 23.9205 11.008 23.9476 11.187L24.9363 11.0374ZM24.5977 10.0244C24.5333 9.8985 24.4732 9.78885 24.3912 9.67905C24.3104 9.57084 24.2192 9.47737 24.1091 9.37043L23.4125 10.088C23.5158 10.1882 23.5592 10.2362 23.5901 10.2776C23.6199 10.3175 23.649 10.3657 23.7074 10.4798L24.5977 10.0244ZM24.1154 9.37666C24.0105 9.27116 23.9169 9.18267 23.8144 9.10725C23.7066 9.02786 23.6044 8.97416 23.4927 8.92251L23.0729 9.8301C23.1527 9.86704 23.1887 9.88834 23.2215 9.91253C23.2598 9.9407 23.3094 9.98435 23.4062 10.0817L24.1154 9.37666ZM23.5003 8.92609C23.3509 8.85392 23.1259 8.76893 22.9736 8.73783L22.7735 9.71761C22.8171 9.72651 22.9604 9.77582 23.0653 9.82652L23.5003 8.92609ZM22.9887 8.74115C22.8313 8.70393 22.634 8.68361 22.4595 8.67525C22.2865 8.66696 22.0925 8.66833 21.9425 8.69L22.0856 9.67971C22.1432 9.67139 22.2641 9.66704 22.4116 9.6741C22.5577 9.6811 22.6863 9.69722 22.7584 9.71429L22.9887 8.74115ZM53.4514 9.83044C53.6667 9.7313 53.7489 9.70719 53.9478 9.68037L53.8142 8.68934C53.5044 8.7311 53.3265 8.78701 53.0331 8.92217L53.4514 9.83044ZM53.9502 9.68005C54.1166 9.65681 54.4455 9.67549 54.6381 9.72311L54.8781 8.75233C54.5737 8.67708 54.1161 8.64718 53.8119 8.68966L53.9502 9.68005ZM54.636 9.72258C55.0565 9.82848 55.3568 10.067 55.5852 10.518L56.4773 10.0662C56.1298 9.37999 55.6056 8.93556 54.8802 8.75286L54.636 9.72258ZM55.5825 10.5128C55.6313 10.612 55.6901 10.7645 55.7369 10.9143C55.7598 10.9877 55.7777 11.0537 55.7894 11.1057C55.8032 11.1673 55.8016 11.1806 55.8016 11.1622L56.8016 11.1622C56.8016 11.0652 56.7822 10.9628 56.7652 10.8869C56.746 10.8015 56.7202 10.7083 56.6914 10.6161C56.6347 10.4348 56.5583 10.2309 56.4799 10.0715L55.5825 10.5128ZM55.8016 11.1622L55.8016 11.2393L56.8016 11.2393L56.8016 11.1622L55.8016 11.1622ZM56.3016 10.7393L54.1821 10.7393L54.1821 11.7393L56.3016 11.7393L56.3016 10.7393ZM54.1821 10.7393L52.0656 10.7393L52.0656 11.7393L54.1821 11.7393L54.1821 10.7393ZM52.5601 11.3132L52.5791 11.1861L51.5901 11.0383L51.5711 11.1654L52.5601 11.3132ZM52.5794 11.1841C52.6049 11.0085 52.6995 10.7187 52.821 10.4761L51.927 10.0281C51.7708 10.3399 51.6344 10.733 51.5898 11.0403L52.5794 11.1841ZM52.8191 10.4798C52.8781 10.3646 52.907 10.3163 52.9366 10.2763C52.9671 10.2354 53.0099 10.1876 53.1125 10.088L52.416 9.37043C52.3053 9.47795 52.2143 9.57165 52.1337 9.68031C52.0523 9.78998 51.9927 9.89961 51.9289 10.0244L52.8191 10.4798ZM53.1163 10.0843C53.2162 9.9852 53.2656 9.94164 53.3042 9.91311C53.3369 9.88894 53.3727 9.86748 53.4551 9.82876L53.0295 8.92385C52.9174 8.97657 52.8165 9.03012 52.71 9.10882C52.6094 9.18315 52.517 9.27032 52.4123 9.37412L53.1163 10.0843Z" fill="black" fill-opacity="0.19"/>
<path fill-rule="evenodd" clip-rule="evenodd" d="M6.05204 5.16456C6.74101 7.00853 7.72399 9.45364 8.54461 11.3675C9.08584 12.6271 9.82601 14.2558 9.84795 14.2348C9.87281 14.2069 10.474 12.8746 10.8997 11.8932C11.8051 9.81573 12.952 6.97638 13.6307 5.14359L13.7887 4.71999L15.5455 4.71999C16.5138 4.71999 17.3067 4.72559 17.3067 4.73397C17.3067 4.76753 16.8883 5.84819 16.5826 6.61429C15.5484 9.18663 14.3679 11.8219 13.0295 14.5536C12.6302 15.3714 11.5594 17.4712 11.3648 17.8193L11.22 18.0807L9.83624 18.0877L8.45099 18.0933L8.09846 17.4223C5.95111 13.3135 3.8213 8.62742 2.46677 5.00519L2.35999 4.71999L4.12556 4.72559L5.89113 4.73397L6.05204 5.16456Z" fill="white"/>
</svg>
