<svg width="61" height="18" viewBox="0 0 61 18" fill="none" xmlns="http://www.w3.org/2000/svg">
<path fill-rule="evenodd" clip-rule="evenodd" d="M15.5799 5.70744C14.3124 8.80961 13.1777 11.177 13.0587 10.968C12.9394 10.7593 12.4239 8.59782 11.9133 6.16487C11.4023 3.73192 10.7728 1.43221 10.5146 1.05474C10.0637 0.395308 9.86172 0.368661 5.42459 0.381539L0.804023 0.394928L2.82315 1.09973C3.93367 1.48742 5.09331 1.90259 5.40021 2.02232C5.72663 2.14939 6.18784 3.02327 6.51054 4.12493C6.8141 5.16161 7.78926 8.48095 8.67779 11.5013L10.2933 16.9928L12.7875 17.082L15.2813 17.1712L18.8849 9.15431C20.8669 4.74513 22.5863 0.89739 22.706 0.603703C22.9012 0.125508 22.6623 0.0698632 20.4044 0.068655L17.8845 0.0673066L15.5799 5.70744ZM24.7092 1.06233C24.6034 1.60768 23.9901 5.00456 23.3467 8.61129C22.7032 12.218 22.0919 15.6149 21.9882 16.1602L21.7993 17.1515L24.1647 17.1528C26.3411 17.1539 26.5435 17.0995 26.7045 16.4678C26.9266 15.5958 29.5834 0.724213 29.5837 0.351456C29.5838 0.198633 28.5303 0.0730034 27.2428 0.0723144L24.9021 0.0710618L24.7092 1.06233ZM35.8528 0.525022C33.1011 1.41213 31.2608 3.97925 31.7334 6.27095C31.9951 7.53944 33.814 9.14857 36.2546 10.2712C38.5963 11.348 39.0189 12.5501 37.3333 13.3389C35.9938 13.9657 33.9709 13.9234 31.9494 13.2259L30.2782 12.6494L30.0655 14.0638C29.9488 14.8416 29.7856 15.7011 29.7033 15.9734C29.4998 16.6474 31.8015 17.1569 35.0565 17.1586C39.1479 17.1608 41.5739 16.0325 42.7797 13.5667C44.1425 10.7793 43.0234 8.83565 38.8358 6.71828C36.4993 5.53683 36.0946 4.69105 37.4749 3.87246C38.338 3.36076 40.7494 3.37151 42.5923 3.89594C43.3757 4.11904 43.4782 3.95437 43.8745 1.83305C44.0681 0.797242 44.0043 0.657805 43.2101 0.383761C41.94 -0.0546475 37.3786 0.0332028 35.8528 0.525022ZM51.9187 0.290199C51.5215 0.363806 50.9676 0.656651 50.6877 0.940796C50.3114 1.3225 45.0203 12.4112 43.1288 16.7816C43.0058 17.0662 43.6069 17.1632 45.4966 17.1642L48.0288 17.1656L48.5061 15.8694L48.9829 14.5732L52.0599 14.4873L55.1365 14.4014L55.3453 15.2517C55.835 17.2487 55.7243 17.1697 58.029 17.1709L60.186 17.1721L59.9685 16.1806C59.8491 15.6351 58.9847 11.8256 58.0474 7.71474L56.3438 0.240406L54.4925 0.198235C53.4743 0.175117 52.316 0.216288 51.9187 0.290199ZM53.7655 8.24627L54.3976 11.0682L52.3858 11.0671C50.6035 11.0662 50.4005 11.0051 50.6109 10.5324C50.741 10.239 51.3179 8.84344 51.8925 7.43173C52.4671 6.02002 52.9811 4.99079 53.0352 5.14456C53.089 5.29833 53.4175 6.69436 53.7655 8.24627Z" fill="#374151"/>
</svg>
