<svg width="28" height="28" viewBox="0 0 28 28" fill="none" xmlns="http://www.w3.org/2000/svg">
<path fill-rule="evenodd" clip-rule="evenodd" d="M14 3.49999C8.20103 3.49999 3.50002 8.201 3.50002 14C3.50002 19.799 8.20103 24.5 14 24.5C19.799 24.5 24.5 19.799 24.5 14C24.5 8.201 19.799 3.49999 14 3.49999ZM1.16669 14C1.16669 6.91234 6.91237 1.16666 14 1.16666C21.0877 1.16666 26.8334 6.91234 26.8334 14C26.8334 21.0876 21.0877 26.8333 14 26.8333C6.91237 26.8333 1.16669 21.0876 1.16669 14Z" fill="#9FA6B2"/>
<path fill-rule="evenodd" clip-rule="evenodd" d="M1.16669 14C1.16669 13.3557 1.68902 12.8333 2.33335 12.8333H25.6667C26.311 12.8333 26.8334 13.3557 26.8334 14C26.8334 14.6443 26.311 15.1667 25.6667 15.1667H2.33335C1.68902 15.1667 1.16669 14.6443 1.16669 14Z" fill="#9FA6B2"/>
<path fill-rule="evenodd" clip-rule="evenodd" d="M10.5003 14C10.5802 17.5873 11.814 21.041 14 23.8574C16.1861 21.041 17.4198 17.5873 17.4997 14C17.4198 10.4127 16.1861 6.95898 14 4.14259C11.814 6.95898 10.5802 10.4127 10.5003 14ZM14 2.33332L13.1386 1.5465C10.0297 4.95005 8.26295 9.36699 8.16694 13.9757C8.1666 13.9919 8.1666 14.0081 8.16694 14.0243C8.26295 18.633 10.0297 23.0499 13.1386 26.4535C13.3597 26.6955 13.6723 26.8333 14 26.8333C14.3278 26.8333 14.6404 26.6955 14.8614 26.4535C17.9703 23.0499 19.7371 18.633 19.8331 14.0243C19.8334 14.0081 19.8334 13.9919 19.8331 13.9757C19.7371 9.36699 17.9703 4.95005 14.8614 1.5465L14 2.33332Z" fill="#9FA6B2"/>
</svg>
