<svg width="325" height="205" viewBox="0 0 325 205" fill="none" xmlns="http://www.w3.org/2000/svg">
<g clip-path="url(#clip0_302_76)">
<rect x="325" y="204.1" width="325" height="204.1" rx="12" transform="rotate(-180 325 204.1)" fill="#222224"/>
<g style="mix-blend-mode:multiply" opacity="0.3">
<circle cx="97" cy="186" r="228" transform="rotate(90 97 186)" fill="#374151"/>
</g>
<rect y="16" width="325" height="40" fill="#3D3D3D"/>
<rect x="20" y="67" width="203" height="27" fill="#D9D9D9"/>
<ellipse rx="16.0368" ry="16.2908" transform="matrix(1 3.57163e-06 3.54531e-06 1 287.083 151.275)" fill="#F79E1B"/>
<ellipse rx="16.0369" ry="16.2908" transform="matrix(1 3.57172e-06 3.54544e-06 1 267.037 151.275)" fill="url(#paint0_radial_302_76)"/>
<path d="M257.122 173.025C257.703 173.025 258.136 173.193 258.419 173.528C258.703 173.856 258.845 174.359 258.845 175.035L258.845 178.029L257.578 178.029L257.578 175.073C257.578 174.687 257.51 174.41 257.375 174.243C257.247 174.069 257.031 173.982 256.727 173.982C256.375 173.982 256.098 174.101 255.896 174.339C255.7 174.571 255.602 174.893 255.602 175.305L255.602 178.029L254.335 178.029L254.335 175.073C254.335 174.693 254.264 174.416 254.122 174.243C253.987 174.069 253.77 173.982 253.473 173.982C253.122 173.982 252.845 174.101 252.642 174.339C252.439 174.571 252.338 174.893 252.338 175.305L252.338 178.029L251.081 178.029L251.081 174.532C251.081 174.017 251.054 173.557 251 173.151L252.186 173.151L252.277 173.924C252.426 173.634 252.639 173.412 252.916 173.257C253.199 173.103 253.524 173.025 253.889 173.025C254.672 173.025 255.183 173.335 255.419 173.953C255.581 173.663 255.811 173.438 256.108 173.277C256.412 173.109 256.75 173.025 257.122 173.025Z" fill="white"/>
<path d="M265.093 173.151L265.093 178.03L263.846 178.03L263.846 177.247C263.691 177.518 263.468 177.73 263.177 177.885C262.887 178.033 262.556 178.107 262.184 178.107C261.738 178.107 261.343 178.004 260.998 177.798C260.653 177.592 260.386 177.299 260.197 176.919C260.008 176.539 259.913 176.097 259.913 175.595C259.913 175.093 260.008 174.648 260.197 174.262C260.393 173.869 260.663 173.566 261.008 173.354C261.353 173.135 261.745 173.025 262.184 173.025C262.555 173.025 262.887 173.103 263.177 173.257C263.468 173.405 263.691 173.615 263.846 173.885L263.846 173.151L265.093 173.151ZM262.528 177.16C262.947 177.16 263.272 177.022 263.502 176.745C263.731 176.468 263.846 176.078 263.846 175.576C263.846 175.061 263.731 174.664 263.502 174.388C263.272 174.111 262.944 173.972 262.518 173.972C262.099 173.972 261.772 174.117 261.535 174.407C261.305 174.69 261.191 175.086 261.191 175.595C261.191 176.097 261.305 176.484 261.535 176.754C261.772 177.025 262.103 177.16 262.528 177.16Z" fill="white"/>
<path d="M268.348 178.107C267.422 178.107 266.686 177.901 266.138 177.489L266.493 176.638C267.04 177.025 267.665 177.218 268.368 177.218C268.672 177.218 268.905 177.17 269.067 177.073C269.236 176.977 269.321 176.841 269.321 176.667C269.321 176.519 269.263 176.403 269.149 176.32C269.034 176.229 268.838 176.152 268.561 176.088L267.709 175.904C266.777 175.711 266.311 175.257 266.311 174.542C266.311 174.246 266.398 173.985 266.574 173.76C266.75 173.528 266.996 173.347 267.314 173.219C267.632 173.09 268 173.025 268.419 173.025C268.784 173.025 269.135 173.08 269.473 173.19C269.811 173.293 270.108 173.444 270.365 173.644L269.99 174.465C269.476 174.104 268.949 173.924 268.409 173.924C268.118 173.924 267.892 173.975 267.73 174.078C267.567 174.181 267.486 174.323 267.486 174.503C267.486 174.645 267.534 174.758 267.628 174.842C267.73 174.925 267.898 174.996 268.135 175.054L269.007 175.238C269.513 175.347 269.882 175.518 270.111 175.75C270.348 175.975 270.466 176.271 270.466 176.638C270.466 177.089 270.277 177.447 269.899 177.711C269.52 177.975 269.003 178.107 268.348 178.107Z" fill="white"/>
<path d="M273.113 174.059L273.113 176.242C273.113 176.816 273.393 177.102 273.954 177.102C274.109 177.102 274.278 177.076 274.461 177.025L274.461 177.981C274.238 178.059 273.967 178.097 273.65 178.097C273.069 178.097 272.623 177.943 272.312 177.633C272.001 177.324 271.846 176.88 271.846 176.3L271.846 174.059L270.862 174.059L270.862 173.151L271.846 173.151L271.846 171.963L273.113 171.557L273.113 173.151L274.471 173.151L274.471 174.059L273.113 174.059Z" fill="white"/>
<path d="M279.821 175.653L276.294 175.653C276.321 176.175 276.456 176.561 276.7 176.812C276.95 177.057 277.318 177.179 277.804 177.179C278.365 177.179 278.886 177.006 279.365 176.658L279.73 177.489C279.487 177.675 279.186 177.827 278.828 177.943C278.477 178.052 278.119 178.107 277.754 178.107C276.916 178.107 276.257 177.881 275.777 177.431C275.298 176.98 275.058 176.362 275.058 175.576C275.058 175.08 275.162 174.639 275.372 174.252C275.581 173.866 275.875 173.566 276.254 173.354C276.632 173.135 277.061 173.025 277.541 173.025C278.244 173.025 278.798 173.244 279.203 173.682C279.615 174.114 279.821 174.71 279.821 175.47L279.821 175.653ZM277.571 173.895C277.233 173.895 276.956 173.992 276.74 174.185C276.531 174.371 276.396 174.645 276.335 175.006L278.717 175.006C278.676 174.639 278.558 174.362 278.362 174.175C278.173 173.988 277.909 173.895 277.571 173.895Z" fill="white"/>
<path d="M283.651 173.035C283.847 173.035 284.016 173.061 284.158 173.112L284.148 174.214C283.932 174.13 283.709 174.088 283.479 174.088C283.046 174.088 282.715 174.207 282.486 174.446C282.263 174.684 282.151 174.999 282.151 175.392L282.151 178.03L280.894 178.03L280.894 174.533C280.894 174.017 280.867 173.557 280.813 173.151L281.999 173.151L282.1 174.011C282.229 173.695 282.432 173.454 282.709 173.286C282.986 173.119 283.3 173.035 283.651 173.035Z" fill="white"/>
<path d="M287.086 178.107C286.552 178.107 286.089 178.004 285.697 177.798C285.305 177.592 285.004 177.302 284.795 176.928C284.585 176.548 284.481 176.104 284.481 175.595C284.481 175.086 284.589 174.639 284.805 174.252C285.028 173.866 285.339 173.566 285.738 173.354C286.143 173.135 286.609 173.026 287.136 173.026C287.501 173.026 287.853 173.08 288.19 173.19C288.535 173.299 288.809 173.451 289.011 173.644L288.657 174.494C288.44 174.326 288.211 174.201 287.967 174.117C287.724 174.027 287.484 173.982 287.248 173.982C286.788 173.982 286.43 174.12 286.173 174.397C285.917 174.668 285.788 175.061 285.788 175.576C285.788 176.091 285.913 176.484 286.163 176.754C286.42 177.025 286.782 177.16 287.248 177.16C287.484 177.16 287.724 177.115 287.967 177.025C288.211 176.935 288.44 176.806 288.657 176.639L289.011 177.489C288.795 177.682 288.515 177.833 288.17 177.943C287.826 178.052 287.464 178.107 287.086 178.107Z" fill="white"/>
<path d="M294.758 173.151L294.758 178.03L293.511 178.03L293.511 177.247C293.356 177.518 293.133 177.73 292.842 177.885C292.551 178.033 292.22 178.107 291.849 178.107C291.403 178.107 291.007 178.004 290.663 177.798C290.318 177.592 290.051 177.299 289.862 176.919C289.673 176.539 289.578 176.098 289.578 175.595C289.578 175.093 289.673 174.648 289.862 174.262C290.058 173.869 290.328 173.567 290.673 173.354C291.018 173.135 291.409 173.026 291.849 173.026C292.22 173.026 292.551 173.103 292.842 173.257C293.133 173.406 293.356 173.615 293.511 173.885L293.511 173.151L294.758 173.151ZM292.193 177.16C292.612 177.16 292.937 177.022 293.166 176.745C293.396 176.468 293.511 176.078 293.511 175.576C293.511 175.061 293.396 174.665 293.166 174.388C292.937 174.111 292.609 173.972 292.183 173.972C291.764 173.972 291.436 174.117 291.2 174.407C290.97 174.69 290.855 175.086 290.855 175.595C290.855 176.098 290.97 176.484 291.2 176.754C291.437 177.025 291.768 177.16 292.193 177.16Z" fill="white"/>
<path d="M298.894 173.035C299.09 173.035 299.259 173.061 299.401 173.113L299.391 174.214C299.175 174.13 298.952 174.088 298.722 174.088C298.29 174.088 297.959 174.207 297.729 174.446C297.506 174.684 297.394 174.999 297.394 175.392L297.394 178.03L296.138 178.03L296.138 174.533C296.138 174.017 296.11 173.557 296.056 173.151L297.242 173.151L297.344 174.011C297.472 173.695 297.675 173.454 297.952 173.286C298.229 173.119 298.543 173.035 298.894 173.035Z" fill="white"/>
<path d="M304.903 170.92L304.903 178.03L303.657 178.03L303.657 177.247C303.501 177.518 303.278 177.73 302.988 177.885C302.697 178.033 302.366 178.107 301.994 178.107C301.555 178.107 301.163 178.001 300.819 177.788C300.474 177.576 300.204 177.276 300.008 176.89C299.819 176.497 299.724 176.049 299.724 175.547C299.724 175.045 299.819 174.603 300.008 174.223C300.197 173.843 300.464 173.55 300.808 173.344C301.153 173.132 301.548 173.026 301.994 173.026C302.359 173.026 302.684 173.1 302.967 173.248C303.258 173.389 303.481 173.592 303.636 173.856L303.636 170.92L304.903 170.92ZM302.329 177.16C302.748 177.16 303.072 177.022 303.302 176.745C303.538 176.468 303.657 176.075 303.657 175.566C303.657 175.057 303.542 174.665 303.312 174.388C303.082 174.111 302.758 173.972 302.339 173.972C301.913 173.972 301.582 174.111 301.346 174.388C301.116 174.658 301.001 175.045 301.001 175.547C301.001 176.056 301.116 176.452 301.346 176.735C301.582 177.019 301.91 177.16 302.329 177.16Z" fill="white"/>
<path d="M20 175.29H30.9822V178H20V175.29Z" fill="#F9FAFB"/>
<path d="M35.8364 173.739C34.7674 173.651 33.8962 173.491 33.2226 173.258C32.5637 173.01 32.0731 172.806 31.751 172.646L32.6955 170.133C33.208 170.381 33.8156 170.607 34.5185 170.811C35.236 171.015 35.9901 171.117 36.7808 171.117C37.6741 171.117 38.2818 171 38.6039 170.767C38.9407 170.519 39.1091 170.177 39.1091 169.74C39.1091 169.463 39.0432 169.23 38.9114 169.041C38.7796 168.837 38.5893 168.655 38.3403 168.494C38.0914 168.334 37.7766 168.181 37.3959 168.035C37.0151 167.875 36.5758 167.708 36.078 167.533C35.5948 167.358 35.1189 167.169 34.6503 166.965C34.1964 166.746 33.779 166.484 33.3983 166.178C33.0322 165.872 32.7321 165.501 32.4978 165.063C32.2781 164.612 32.1683 164.073 32.1683 163.446C32.1683 162.966 32.2342 162.507 32.366 162.07C32.5124 161.618 32.7321 161.21 33.0249 160.846C33.3178 160.482 33.6985 160.176 34.1671 159.928C34.6356 159.666 35.1921 159.477 35.8364 159.36V157H38.6039V159.273C39.3653 159.345 40.0169 159.455 40.5587 159.6C41.1152 159.746 41.5545 159.892 41.8766 160.037L41.1957 162.66C40.7125 162.456 40.1487 162.281 39.5044 162.135C38.8748 161.99 38.2085 161.917 37.5057 161.917C36.8028 161.917 36.2976 162.033 35.9901 162.266C35.6826 162.499 35.5289 162.805 35.5289 163.184C35.5289 163.417 35.5728 163.621 35.6607 163.796C35.7632 163.956 35.9169 164.102 36.1219 164.233C36.3269 164.364 36.5758 164.495 36.8687 164.626C37.1762 164.743 37.5423 164.874 37.9669 165.02C38.6112 165.253 39.2043 165.508 39.746 165.785C40.3025 166.061 40.7784 166.382 41.1737 166.746C41.5837 167.096 41.8986 167.511 42.1182 167.992C42.3525 168.472 42.4696 169.033 42.4696 169.674C42.4696 170.111 42.4037 170.548 42.272 170.985C42.1402 171.408 41.9205 171.801 41.613 172.165C41.3055 172.53 40.9028 172.843 40.405 173.105C39.9218 173.367 39.3214 173.557 38.6039 173.673V176.339H35.8364V173.739Z" fill="#F9FAFB"/>
<path d="M54.8655 173.564C54.3091 173.724 53.5916 173.87 52.713 174.001C51.8344 174.147 50.9119 174.22 49.9454 174.22C48.9644 174.22 48.1444 174.088 47.4854 173.826C46.8411 173.564 46.3286 173.2 45.9479 172.734C45.5672 172.253 45.2963 171.685 45.1352 171.029C44.9742 170.374 44.8936 169.652 44.8936 168.866V162.463H48.1663V168.472C48.1663 169.521 48.3054 170.279 48.5837 170.745C48.8619 171.211 49.3817 171.444 50.1431 171.444C50.3774 171.444 50.6263 171.437 50.8899 171.422C51.1535 171.393 51.3878 171.364 51.5928 171.335V162.463H54.8655V173.564Z" fill="#F9FAFB"/>
<path d="M60.7271 168.123C60.7271 169.128 60.954 169.937 61.408 170.548C61.8619 171.16 62.5355 171.466 63.4287 171.466C63.7216 171.466 63.9925 171.459 64.2414 171.444C64.4903 171.415 64.6953 171.386 64.8564 171.357V165.435C64.6514 165.304 64.3805 165.195 64.0437 165.107C63.7216 165.02 63.3921 164.976 63.0553 164.976C61.5032 164.976 60.7271 166.025 60.7271 168.123ZM68.1291 173.586C67.8362 173.673 67.4995 173.761 67.1187 173.848C66.738 173.921 66.3353 173.986 65.9107 174.045C65.5007 174.103 65.076 174.147 64.6368 174.176C64.2121 174.22 63.8021 174.241 63.4067 174.241C62.4549 174.241 61.6057 174.103 60.8589 173.826C60.1121 173.549 59.4824 173.156 58.9699 172.646C58.4574 172.122 58.0621 171.495 57.7838 170.767C57.5203 170.024 57.3885 169.194 57.3885 168.276C57.3885 167.343 57.5056 166.506 57.7399 165.763C57.9742 165.005 58.311 164.364 58.7503 163.84C59.1896 163.315 59.724 162.915 60.3537 162.638C60.998 162.361 61.7301 162.223 62.5501 162.223C63.0041 162.223 63.4067 162.266 63.7582 162.354C64.1242 162.441 64.4903 162.565 64.8564 162.725V157.524L68.1291 157V173.586Z" fill="#F9FAFB"/>
<path d="M82 168.188C82 169.092 81.8682 169.922 81.6046 170.679C81.3411 171.422 80.9603 172.063 80.4625 172.602C79.9646 173.127 79.3643 173.535 78.6614 173.826C77.9732 174.118 77.1971 174.263 76.3332 174.263C75.4839 174.263 74.7078 174.118 74.0049 173.826C73.3167 173.535 72.7237 173.127 72.2258 172.602C71.728 172.063 70.6444 168.188 71.0617 170.679C70.7835 169.922 70.6444 169.092 70.6444 168.188C70.6444 167.285 70.7835 166.462 71.0617 165.719C71.3546 164.976 71.7499 164.342 72.2478 163.818C72.7603 163.293 73.3606 162.886 74.0489 162.594C74.7517 162.303 75.5132 162.157 76.3332 162.157C77.1678 162.157 77.9293 162.303 78.6175 162.594C79.3203 162.886 79.9207 163.293 80.4186 163.818C80.9164 164.342 81.3045 164.976 81.5827 165.719C81.8609 166.462 82 167.285 82 168.188ZM78.6614 168.188C78.6614 167.183 78.4564 166.396 78.0464 165.828C77.651 165.246 77.08 164.954 76.3332 164.954C75.5864 164.954 75.008 165.246 74.598 165.828C74.188 166.396 73.983 167.183 73.983 168.188C73.983 169.194 74.188 169.995 74.598 170.592C75.008 171.175 75.5864 171.466 76.3332 171.466C77.08 171.466 77.651 171.175 78.0464 170.592C78.4564 169.995 78.6614 169.194 78.6614 168.188Z" fill="#F9FAFB"/>
</g>
<defs>
<radialGradient id="paint0_radial_302_76" cx="0" cy="0" r="1" gradientUnits="userSpaceOnUse" gradientTransform="translate(32.0737 16.2908) rotate(-180) scale(21.7166 22.0605)">
<stop stop-color="#EB001B" stop-opacity="0.92"/>
<stop offset="0.110299" stop-color="#EB001B" stop-opacity="0.803455"/>
<stop offset="1" stop-color="#EB001B"/>
</radialGradient>
<clipPath id="clip0_302_76">
<rect x="325" y="204.1" width="325" height="204.1" rx="12" transform="rotate(-180 325 204.1)" fill="white"/>
</clipPath>
</defs>
</svg>
