<svg width="325" height="205" viewBox="0 0 325 205" fill="none" xmlns="http://www.w3.org/2000/svg">
<g clip-path="url(#clip0_302_86)">
<rect x="325" y="204.1" width="325" height="204.1" rx="12" transform="rotate(-180 325 204.1)" fill="#222224"/>
<g style="mix-blend-mode:multiply" opacity="0.3">
<circle cx="97" cy="186" r="228" transform="rotate(90 97 186)" fill="#374151"/>
</g>
<rect y="16" width="325" height="40" fill="#3D3D3D"/>
<rect x="20" y="67" width="203" height="27" fill="#D9D9D9"/>
<path d="M243.716 176.896C250.803 176.896 256.529 171.109 256.529 163.948C256.529 156.786 250.803 151 243.716 151C236.629 151 230.903 156.786 230.903 163.948C230.903 171.109 236.629 176.896 243.716 176.896Z" fill="#EE312A"/>
<path d="M243.715 169.497C240.852 162.904 238.74 156.786 238.74 156.786H234.329C234.329 156.786 237.004 164.659 241.979 174.524H245.405C250.38 164.659 253.055 156.786 253.055 156.786H248.643C248.69 156.786 246.578 162.904 243.715 169.497Z" fill="white"/>
<path d="M304.963 168.643H296.421C296.421 168.643 296.609 171.536 300.41 171.536C302.335 171.536 304.212 170.967 304.212 170.967L304.588 174.05C304.588 174.05 302.663 174.809 300.035 174.809C296.233 174.809 292.807 172.864 292.807 167.457C292.807 163.189 295.482 160.486 299.284 160.486C304.963 160.533 305.338 166.319 304.963 168.643ZM299.096 163.236C296.609 163.236 296.421 165.94 296.421 165.94H301.772C301.725 165.94 301.537 163.236 299.096 163.236Z" fill="white"/>
<path d="M275.396 164.09L275.959 161.007C275.959 161.007 271.548 159.632 267.981 162.146V174.477H271.782V164.47C273.331 163.331 275.396 164.09 275.396 164.09Z" fill="white"/>
<path d="M265.023 168.643H256.481C256.481 168.643 256.669 171.536 260.47 171.536C262.395 171.536 264.272 170.967 264.272 170.967L264.648 174.05C264.648 174.05 262.723 174.809 260.095 174.809C256.293 174.809 252.867 172.864 252.867 167.457C252.867 163.189 255.542 160.485 259.344 160.485C265.023 160.533 265.398 166.319 265.023 168.643ZM259.109 163.236C256.622 163.236 256.434 165.94 256.434 165.94H261.785C261.785 165.94 261.597 163.236 259.109 163.236Z" fill="white"/>
<path d="M284.689 169.876C283.516 166.983 282.53 163.948 281.826 160.865H278.025C278.025 160.865 279.949 168.311 283.187 174.477H286.238C289.476 168.311 291.401 160.865 291.401 160.865H287.552C286.848 163.948 285.862 166.936 284.689 169.876Z" fill="white"/>
<path d="M20 175.29H30.9822V178H20V175.29Z" fill="#F9FAFB"/>
<path d="M35.8364 173.739C34.7674 173.651 33.8962 173.491 33.2226 173.258C32.5637 173.01 32.0731 172.806 31.751 172.646L32.6955 170.133C33.208 170.381 33.8156 170.607 34.5185 170.811C35.236 171.015 35.9901 171.117 36.7808 171.117C37.6741 171.117 38.2818 171 38.6039 170.767C38.9407 170.519 39.1091 170.177 39.1091 169.74C39.1091 169.463 39.0432 169.23 38.9114 169.041C38.7796 168.837 38.5893 168.655 38.3403 168.494C38.0914 168.334 37.7766 168.181 37.3959 168.035C37.0151 167.875 36.5758 167.708 36.078 167.533C35.5948 167.358 35.1189 167.169 34.6503 166.965C34.1964 166.746 33.779 166.484 33.3983 166.178C33.0322 165.872 32.7321 165.501 32.4978 165.063C32.2781 164.612 32.1683 164.073 32.1683 163.446C32.1683 162.966 32.2342 162.507 32.366 162.07C32.5124 161.618 32.7321 161.21 33.0249 160.846C33.3178 160.482 33.6985 160.176 34.1671 159.928C34.6356 159.666 35.1921 159.477 35.8364 159.36V157H38.6039V159.273C39.3653 159.345 40.0169 159.455 40.5587 159.6C41.1152 159.746 41.5545 159.892 41.8766 160.037L41.1957 162.66C40.7125 162.456 40.1487 162.281 39.5044 162.135C38.8748 161.99 38.2085 161.917 37.5057 161.917C36.8028 161.917 36.2976 162.033 35.9901 162.266C35.6826 162.499 35.5289 162.805 35.5289 163.184C35.5289 163.417 35.5728 163.621 35.6607 163.796C35.7632 163.956 35.9169 164.102 36.1219 164.233C36.3269 164.364 36.5758 164.495 36.8687 164.626C37.1762 164.743 37.5423 164.874 37.9669 165.02C38.6112 165.253 39.2043 165.508 39.746 165.785C40.3025 166.061 40.7784 166.382 41.1737 166.746C41.5837 167.096 41.8986 167.511 42.1182 167.992C42.3525 168.472 42.4696 169.033 42.4696 169.674C42.4696 170.111 42.4037 170.548 42.272 170.985C42.1402 171.408 41.9205 171.801 41.613 172.165C41.3055 172.53 40.9028 172.843 40.405 173.105C39.9218 173.367 39.3214 173.557 38.6039 173.673V176.339H35.8364V173.739Z" fill="#F9FAFB"/>
<path d="M54.8655 173.564C54.3091 173.724 53.5916 173.87 52.713 174.001C51.8344 174.147 50.9119 174.22 49.9454 174.22C48.9644 174.22 48.1444 174.088 47.4854 173.826C46.8411 173.564 46.3286 173.2 45.9479 172.734C45.5672 172.253 45.2963 171.685 45.1352 171.029C44.9742 170.374 44.8936 169.652 44.8936 168.866V162.463H48.1663V168.472C48.1663 169.521 48.3054 170.279 48.5837 170.745C48.8619 171.211 49.3817 171.444 50.1431 171.444C50.3774 171.444 50.6263 171.437 50.8899 171.422C51.1535 171.393 51.3878 171.364 51.5928 171.335V162.463H54.8655V173.564Z" fill="#F9FAFB"/>
<path d="M60.7271 168.123C60.7271 169.128 60.954 169.937 61.408 170.548C61.8619 171.16 62.5355 171.466 63.4287 171.466C63.7216 171.466 63.9925 171.459 64.2414 171.444C64.4903 171.415 64.6953 171.386 64.8564 171.357V165.435C64.6514 165.304 64.3805 165.195 64.0437 165.107C63.7216 165.02 63.3921 164.976 63.0553 164.976C61.5032 164.976 60.7271 166.025 60.7271 168.123ZM68.1291 173.586C67.8362 173.673 67.4995 173.761 67.1187 173.848C66.738 173.921 66.3353 173.986 65.9107 174.045C65.5007 174.103 65.076 174.147 64.6368 174.176C64.2121 174.22 63.8021 174.241 63.4067 174.241C62.4549 174.241 61.6057 174.103 60.8589 173.826C60.1121 173.549 59.4824 173.156 58.9699 172.646C58.4574 172.122 58.0621 171.495 57.7838 170.767C57.5203 170.024 57.3885 169.194 57.3885 168.276C57.3885 167.343 57.5056 166.506 57.7399 165.763C57.9742 165.005 58.311 164.364 58.7503 163.84C59.1896 163.315 59.724 162.915 60.3537 162.638C60.998 162.361 61.7301 162.223 62.5501 162.223C63.0041 162.223 63.4067 162.266 63.7582 162.354C64.1242 162.441 64.4903 162.565 64.8564 162.725V157.524L68.1291 157V173.586Z" fill="#F9FAFB"/>
<path d="M82 168.188C82 169.092 81.8682 169.922 81.6046 170.679C81.3411 171.422 80.9603 172.063 80.4625 172.602C79.9646 173.127 79.3643 173.535 78.6614 173.826C77.9732 174.118 77.1971 174.263 76.3332 174.263C75.4839 174.263 74.7078 174.118 74.0049 173.826C73.3167 173.535 72.7237 173.127 72.2258 172.602C71.728 172.063 70.6444 168.188 71.0617 170.679C70.7835 169.922 70.6444 169.092 70.6444 168.188C70.6444 167.285 70.7835 166.462 71.0617 165.719C71.3546 164.976 71.7499 164.342 72.2478 163.818C72.7603 163.293 73.3606 162.886 74.0489 162.594C74.7517 162.303 75.5132 162.157 76.3332 162.157C77.1678 162.157 77.9293 162.303 78.6175 162.594C79.3203 162.886 79.9207 163.293 80.4186 163.818C80.9164 164.342 81.3045 164.976 81.5827 165.719C81.8609 166.462 82 167.285 82 168.188ZM78.6614 168.188C78.6614 167.183 78.4564 166.396 78.0464 165.828C77.651 165.246 77.08 164.954 76.3332 164.954C75.5864 164.954 75.008 165.246 74.598 165.828C74.188 166.396 73.983 167.183 73.983 168.188C73.983 169.194 74.188 169.995 74.598 170.592C75.008 171.175 75.5864 171.466 76.3332 171.466C77.08 171.466 77.651 171.175 78.0464 170.592C78.4564 169.995 78.6614 169.194 78.6614 168.188Z" fill="#F9FAFB"/>
</g>
<defs>
<clipPath id="clip0_302_86">
<rect x="325" y="204.1" width="325" height="204.1" rx="12" transform="rotate(-180 325 204.1)" fill="white"/>
</clipPath>
</defs>
</svg>
