<svg width="325" height="205" viewBox="0 0 325 205" fill="none" xmlns="http://www.w3.org/2000/svg">
<g clip-path="url(#clip0_302_69)">
<rect x="325" y="204.1" width="325" height="204.1" rx="12" transform="rotate(-180 325 204.1)" fill="#222224"/>
<g style="mix-blend-mode:multiply" opacity="0.3">
<circle cx="97" cy="186" r="228" transform="rotate(90 97 186)" fill="#374151"/>
</g>
<rect x="-1.52588e-05" y="16" width="325" height="40" fill="#3D3D3D"/>
<rect x="20" y="67" width="203" height="27" fill="#D9D9D9"/>
<path fill-rule="evenodd" clip-rule="evenodd" d="M252.216 164.662C250.721 168.326 249.383 171.122 249.242 170.876C249.101 170.629 248.491 168.077 247.887 165.204C247.282 162.332 246.537 159.616 246.232 159.171C245.699 158.392 245.46 158.361 240.221 158.379L234.764 158.398L237.149 159.229C238.461 159.686 239.83 160.175 240.193 160.317C240.578 160.466 241.123 161.498 241.505 162.799C241.864 164.023 243.018 167.942 244.069 171.508L245.98 177.992L248.926 178.096L251.871 178.2L256.121 168.73C258.459 163.522 260.487 158.977 260.628 158.63C260.858 158.066 260.576 158 257.91 158L254.934 158L252.216 164.662ZM262.994 159.171C262.87 159.815 262.147 163.827 261.39 168.086C260.632 172.346 259.913 176.357 259.79 177.002L259.568 178.172L262.361 178.172C264.931 178.172 265.17 178.108 265.36 177.362C265.622 176.332 268.75 158.768 268.75 158.328C268.75 158.148 267.506 158 265.985 158L263.221 158L262.994 159.171ZM276.153 158.529C272.904 159.578 270.733 162.611 271.292 165.317C271.602 166.815 273.751 168.714 276.634 170.038C279.4 171.308 279.9 172.728 277.91 173.66C276.328 174.401 273.939 174.352 271.552 173.53L269.578 172.85L269.328 174.521C269.19 175.439 268.998 176.454 268.901 176.776C268.661 177.572 271.38 178.172 275.223 178.172C280.055 178.172 282.919 176.838 284.341 173.926C285.949 170.633 284.626 168.339 279.68 165.841C276.92 164.447 276.441 163.449 278.071 162.481C279.09 161.876 281.937 161.887 284.114 162.506C285.039 162.769 285.16 162.574 285.627 160.069C285.855 158.845 285.779 158.681 284.841 158.358C283.341 157.841 277.955 157.947 276.153 158.529ZM295.125 158.242C294.656 158.329 294.002 158.675 293.672 159.011C293.228 159.462 286.987 172.56 284.756 177.722C284.611 178.058 285.321 178.172 287.552 178.172L290.542 178.172L291.105 176.641L291.667 175.11L295.301 175.007L298.934 174.904L299.181 175.908C299.761 178.266 299.63 178.172 302.352 178.172L304.899 178.172L304.641 177.002C304.5 176.357 303.477 171.859 302.367 167.005L300.351 158.18L298.165 158.131C296.962 158.105 295.594 158.154 295.125 158.242ZM297.311 167.636L298.059 170.968L295.684 170.968C293.579 170.968 293.339 170.896 293.587 170.337C293.741 169.991 294.421 168.343 295.099 166.675C295.776 165.008 296.383 163.792 296.447 163.974C296.51 164.155 296.899 165.803 297.311 167.636Z" fill="#F9FAFB"/>
<path d="M20 175.29H30.9822V178H20V175.29Z" fill="#F9FAFB"/>
<path d="M35.8364 173.739C34.7674 173.651 33.8962 173.491 33.2226 173.258C32.5637 173.01 32.0731 172.806 31.751 172.646L32.6955 170.133C33.208 170.381 33.8156 170.607 34.5185 170.811C35.236 171.015 35.9901 171.117 36.7808 171.117C37.6741 171.117 38.2818 171 38.6039 170.767C38.9407 170.519 39.1091 170.177 39.1091 169.74C39.1091 169.463 39.0432 169.23 38.9114 169.041C38.7796 168.837 38.5893 168.655 38.3403 168.494C38.0914 168.334 37.7766 168.181 37.3959 168.035C37.0151 167.875 36.5758 167.708 36.078 167.533C35.5948 167.358 35.1189 167.169 34.6503 166.965C34.1964 166.746 33.779 166.484 33.3983 166.178C33.0322 165.872 32.7321 165.501 32.4978 165.063C32.2781 164.612 32.1683 164.073 32.1683 163.446C32.1683 162.966 32.2342 162.507 32.366 162.07C32.5124 161.618 32.7321 161.21 33.0249 160.846C33.3178 160.482 33.6985 160.176 34.1671 159.928C34.6357 159.666 35.1921 159.477 35.8364 159.36V157H38.6039V159.273C39.3653 159.345 40.0169 159.455 40.5587 159.6C41.1152 159.746 41.5545 159.892 41.8766 160.037L41.1957 162.66C40.7125 162.456 40.1487 162.281 39.5044 162.135C38.8748 161.99 38.2085 161.917 37.5057 161.917C36.8028 161.917 36.2976 162.033 35.9901 162.266C35.6826 162.499 35.5289 162.805 35.5289 163.184C35.5289 163.417 35.5728 163.621 35.6607 163.796C35.7632 163.956 35.9169 164.102 36.1219 164.233C36.3269 164.364 36.5758 164.495 36.8687 164.626C37.1762 164.743 37.5423 164.874 37.9669 165.02C38.6112 165.253 39.2043 165.508 39.7461 165.785C40.3025 166.061 40.7784 166.382 41.1737 166.746C41.5837 167.096 41.8986 167.511 42.1182 167.992C42.3525 168.472 42.4696 169.033 42.4696 169.674C42.4696 170.111 42.4038 170.548 42.272 170.985C42.1402 171.408 41.9205 171.801 41.613 172.165C41.3055 172.53 40.9028 172.843 40.405 173.105C39.9218 173.367 39.3214 173.557 38.6039 173.673V176.339H35.8364V173.739Z" fill="#F9FAFB"/>
<path d="M54.8655 173.564C54.3091 173.724 53.5916 173.87 52.713 174.001C51.8344 174.147 50.9119 174.22 49.9455 174.22C48.9644 174.22 48.1444 174.088 47.4854 173.826C46.8411 173.564 46.3286 173.2 45.9479 172.734C45.5672 172.253 45.2963 171.685 45.1352 171.029C44.9742 170.374 44.8936 169.652 44.8936 168.866V162.463H48.1663V168.472C48.1663 169.521 48.3054 170.279 48.5837 170.745C48.8619 171.211 49.3817 171.444 50.1431 171.444C50.3774 171.444 50.6263 171.437 50.8899 171.422C51.1535 171.393 51.3878 171.364 51.5928 171.335V162.463H54.8655V173.564Z" fill="#F9FAFB"/>
<path d="M60.7271 168.123C60.7271 169.128 60.954 169.937 61.408 170.548C61.8619 171.16 62.5355 171.466 63.4287 171.466C63.7216 171.466 63.9925 171.459 64.2414 171.444C64.4903 171.415 64.6953 171.386 64.8564 171.357V165.435C64.6514 165.304 64.3805 165.195 64.0437 165.107C63.7216 165.02 63.3921 164.976 63.0553 164.976C61.5032 164.976 60.7271 166.025 60.7271 168.123ZM68.1291 173.586C67.8362 173.673 67.4995 173.761 67.1187 173.848C66.738 173.921 66.3353 173.986 65.9107 174.045C65.5007 174.103 65.076 174.147 64.6368 174.176C64.2121 174.22 63.8021 174.241 63.4067 174.241C62.455 174.241 61.6057 174.103 60.8589 173.826C60.1121 173.549 59.4824 173.156 58.9699 172.646C58.4574 172.122 58.0621 171.495 57.7838 170.767C57.5203 170.024 57.3885 169.194 57.3885 168.276C57.3885 167.343 57.5056 166.506 57.7399 165.763C57.9742 165.005 58.311 164.364 58.7503 163.84C59.1896 163.315 59.724 162.915 60.3537 162.638C60.998 162.361 61.7301 162.223 62.5501 162.223C63.0041 162.223 63.4067 162.266 63.7582 162.354C64.1242 162.441 64.4903 162.565 64.8564 162.725V157.524L68.1291 157V173.586Z" fill="#F9FAFB"/>
<path d="M82 168.188C82 169.092 81.8682 169.922 81.6046 170.679C81.3411 171.422 80.9603 172.063 80.4625 172.602C79.9646 173.127 79.3643 173.535 78.6614 173.826C77.9732 174.118 77.1971 174.263 76.3332 174.263C75.4839 174.263 74.7078 174.118 74.0049 173.826C73.3167 173.535 72.7237 173.127 72.2258 172.602C71.728 172.063 70.6444 168.188 71.0617 170.679C70.7835 169.922 70.6444 169.092 70.6444 168.188C70.6444 167.285 70.7835 166.462 71.0617 165.719C71.3546 164.976 71.7499 164.342 72.2478 163.818C72.7603 163.293 73.3606 162.886 74.0489 162.594C74.7517 162.303 75.5132 162.157 76.3332 162.157C77.1678 162.157 77.9293 162.303 78.6175 162.594C79.3203 162.886 79.9207 163.293 80.4186 163.818C80.9164 164.342 81.3045 164.976 81.5827 165.719C81.8609 166.462 82 167.285 82 168.188ZM78.6614 168.188C78.6614 167.183 78.4564 166.396 78.0464 165.828C77.651 165.246 77.08 164.954 76.3332 164.954C75.5864 164.954 75.008 165.246 74.598 165.828C74.188 166.396 73.983 167.183 73.983 168.188C73.983 169.194 74.188 169.995 74.598 170.592C75.008 171.175 75.5864 171.466 76.3332 171.466C77.08 171.466 77.651 171.175 78.0464 170.592C78.4564 169.995 78.6614 169.194 78.6614 168.188Z" fill="#F9FAFB"/>
</g>
<defs>
<clipPath id="clip0_302_69">
<rect x="325" y="204.1" width="325" height="204.1" rx="12" transform="rotate(-180 325 204.1)" fill="white"/>
</clipPath>
</defs>
</svg>
